<?xml version="1.0" encoding="UTF-8" standalone="no"?>
<!-- Created with Inkscape (http://www.inkscape.org/) -->

<svg
   xmlns:dc="http://purl.org/dc/elements/1.1/"
   xmlns:cc="http://creativecommons.org/ns#"
   xmlns:rdf="http://www.w3.org/1999/02/22-rdf-syntax-ns#"
   xmlns:svg="http://www.w3.org/2000/svg"
   xmlns="http://www.w3.org/2000/svg"
   xmlns:sodipodi="http://sodipodi.sourceforge.net/DTD/sodipodi-0.dtd"
   xmlns:inkscape="http://www.inkscape.org/namespaces/inkscape"
   version="1.1"
   id="svg2"
   xml:space="preserve"
   width="780.44147"
   height="264.67264"
   viewBox="0 0 780.44147 264.67264"
   sodipodi:docname="profil1_en.svg"
   inkscape:version="0.92.3 (2405546, 2018-03-11)"><metadata
     id="metadata8"><rdf:RDF><cc:Work
         rdf:about=""><dc:format>image/svg+xml</dc:format><dc:type
           rdf:resource="http://purl.org/dc/dcmitype/StillImage" /><dc:title></dc:title></cc:Work></rdf:RDF></metadata><defs
     id="defs6" /><sodipodi:namedview
     pagecolor="#ffffff"
     bordercolor="#666666"
     borderopacity="1"
     objecttolerance="10"
     gridtolerance="10"
     guidetolerance="10"
     inkscape:pageopacity="0"
     inkscape:pageshadow="2"
     inkscape:window-width="1576"
     inkscape:window-height="1016"
     id="namedview4"
     showgrid="false"
     inkscape:zoom="0.80455851"
     inkscape:cx="427.5876"
     inkscape:cy="71.911141"
     inkscape:window-x="67"
     inkscape:window-y="27"
     inkscape:window-maximized="0"
     inkscape:current-layer="g12" /><g
     id="g10"
     inkscape:groupmode="layer"
     inkscape:label="profil1_en"
     transform="matrix(1.3333333,0,0,-1.3333333,0,264.67263)"><g
       id="g12"><path
         d="M 85.992,27.481 V 194.477"
         style="fill:none;stroke:#000000;stroke-width:0.5;stroke-linecap:butt;stroke-linejoin:round;stroke-miterlimit:10;stroke-dasharray:none;stroke-opacity:1"
         id="path14"
         inkscape:connector-curvature="0" /><path
         d="m 18.992,193.094 h 254.75"
         style="fill:none;stroke:#0000ff;stroke-width:2;stroke-linecap:butt;stroke-linejoin:round;stroke-miterlimit:10;stroke-dasharray:none;stroke-opacity:1"
         id="path16"
         inkscape:connector-curvature="0" /><path
         d="M 328.02,184.407 H 582.77"
         style="fill:none;stroke:#0000ff;stroke-width:2;stroke-linecap:butt;stroke-linejoin:round;stroke-miterlimit:10;stroke-dasharray:none;stroke-opacity:1"
         id="path18"
         inkscape:connector-curvature="0" /><path
         d="M 18.992,194.477 H 273.664 V 27.481 H 18.992 Z"
         style="fill:none;stroke:#ffffff;stroke-width:0.5;stroke-linecap:butt;stroke-linejoin:round;stroke-miterlimit:10;stroke-dasharray:none;stroke-opacity:1"
         id="path20"
         inkscape:connector-curvature="0" /><path
         d="M 18.992,27.481 V 194.477 M 152.996,27.481 V 194.477 M 220,27.481 V 194.477 M 18.992,27.481 H 273.664 M 18.992,60.919 H 273.664 M 18.992,94.294 H 273.664 M 18.992,127.731 H 273.664 M 18.992,161.102 H 273.664 M 18.992,194.477 h 254.672"
         style="fill:none;stroke:#000000;stroke-width:1;stroke-linecap:butt;stroke-linejoin:round;stroke-miterlimit:10;stroke-dasharray:1, 4;stroke-dashoffset:0;stroke-opacity:1"
         id="path22"
         inkscape:connector-curvature="0" /><path
         d="M 18.992,194.477 H 273.664 M 18.992,27.481 h 254.672 m 0,0 V 194.477 M 18.992,27.481 v 166.996 m 0,-166.996 h 254.672 m -254.672,0 v 166.996 m 0,-166.996 v 2.238 m 0,164.758 v -2.172 m 67,-164.824 v 2.238 m 0,164.758 v -2.172 M 152.996,27.481 v 2.238 m 0,164.758 v -2.172 M 220,27.481 v 2.238 m 0,164.758 v -2.172 M 18.992,27.481 h 2.543 m 252.129,0 h -2.621"
         style="fill:none;stroke:#000000;stroke-width:0.5;stroke-linecap:butt;stroke-linejoin:round;stroke-miterlimit:10;stroke-dasharray:none;stroke-opacity:1"
         id="path24"
         inkscape:connector-curvature="0" /><path
         d="m 18.992,60.919 h 2.543 m 252.129,0 h -2.621"
         style="fill:none;stroke:#000000;stroke-width:0.5;stroke-linecap:butt;stroke-linejoin:round;stroke-miterlimit:10;stroke-dasharray:none;stroke-opacity:1"
         id="path26"
         inkscape:connector-curvature="0" /><path
         d="m 18.992,94.294 h 2.543 m 252.129,0 h -2.621"
         style="fill:none;stroke:#000000;stroke-width:0.5;stroke-linecap:butt;stroke-linejoin:round;stroke-miterlimit:10;stroke-dasharray:none;stroke-opacity:1"
         id="path28"
         inkscape:connector-curvature="0" /><path
         d="m 18.992,127.731 h 2.543 m 252.129,0 h -2.621"
         style="fill:none;stroke:#000000;stroke-width:0.5;stroke-linecap:butt;stroke-linejoin:round;stroke-miterlimit:10;stroke-dasharray:none;stroke-opacity:1"
         id="path30"
         inkscape:connector-curvature="0" /><path
         d="m 18.992,161.102 h 2.543 m 252.129,0 h -2.621"
         style="fill:none;stroke:#000000;stroke-width:0.5;stroke-linecap:butt;stroke-linejoin:round;stroke-miterlimit:10;stroke-dasharray:none;stroke-opacity:1"
         id="path32"
         inkscape:connector-curvature="0" /><path
         d="m 18.992,194.477 h 2.543 m 252.129,0 h -2.621"
         style="fill:none;stroke:#000000;stroke-width:0.5;stroke-linecap:butt;stroke-linejoin:round;stroke-miterlimit:10;stroke-dasharray:none;stroke-opacity:1"
         id="path34"
         inkscape:connector-curvature="0" /><path
         d="M 18.992,194.477 H 273.664 M 18.992,27.481 h 254.672 m 0,0 V 194.477 M 18.992,27.481 v 166.996"
         style="fill:none;stroke:#000000;stroke-width:0.5;stroke-linecap:butt;stroke-linejoin:round;stroke-miterlimit:10;stroke-dasharray:none;stroke-opacity:1"
         id="path36"
         inkscape:connector-curvature="0" /><path
         d="m 223.086,194.477 h -0.926 l -1.004,-0.066 -1.156,-0.067 h -1.234 l -1.309,-0.066 -1.469,-0.066 -1.617,-0.129 -1.695,-0.067 -1.93,-0.066 -2.004,-0.133 -2.234,-0.129 -2.391,-0.133 -2.543,-0.133 -2.703,-0.195 -2.926,-0.133 -3.086,-0.265 -3.238,-0.196 -3.391,-0.261 -3.55,-0.332 -3.621,-0.328 -3.704,-0.329 -3.777,-0.461 -7.711,-0.921 -3.929,-0.594 -3.934,-0.656 -3.93,-0.723 -3.859,-0.793 -3.93,-0.922 -3.933,-0.988 -3.856,-1.117 -3.851,-1.25 -3.86,-1.383 -3.777,-1.578 -3.778,-1.778 -3.699,-1.976 -3.625,-2.172 -3.625,-2.434 -3.469,-2.765 -3.468,-3.028 -3.395,-3.488 -3.316,-3.82 -3.16,-4.278 -3.082,-4.804 -2.93,-5.332 -2.777,-5.993 -2.622,-6.71 -2.468,-7.504 -2.16,-8.36 -2.004,-9.086 -1.696,-8.359 -1.539,-7.504 -1.234,-6.715 -1.16,-5.988 -0.922,-5.332 -0.774,-4.805 -0.691,-4.281 -0.543,-3.816 -0.461,-3.489 -0.308,-3.027 -0.309,-2.766 -0.152,-2.433 -0.079,-2.172 v -1.977 l 0.079,-1.777 0.152,-1.578 0.234,-1.383 0.305,-1.25 0.309,-1.121 0.386,-0.984 0.387,-0.922 0.461,-0.789 0.539,-0.727 0.543,-0.656 0.539,-0.594 0.613,-0.461 0.618,-0.461 0.621,-0.461 0.613,-0.328 0.695,-0.328 0.696,-0.332 0.613,-0.262 0.695,-0.199 0.695,-0.262 0.692,-0.133 0.695,-0.195 0.692,-0.133 0.695,-0.132 0.773,-0.129 0.692,-0.133 1.39,-0.133 0.692,-0.133 0.773,-0.066 0.696,-0.063 h 0.691 l 0.695,-0.066 0.692,-0.067 0.769,-0.066"
         style="fill:none;stroke:#000000;stroke-width:2;stroke-linecap:butt;stroke-linejoin:round;stroke-miterlimit:10;stroke-dasharray:none;stroke-opacity:1"
         id="path38"
         inkscape:connector-curvature="0" /><path
         d="m 24.234,194.477 v -0.394 l 0.078,-0.067 v -0.199 l 0.079,-0.129 0.074,-0.133 v -0.133 l 0.078,-0.195 0.156,-0.133 0.074,-0.265 0.157,-0.196 0.156,-0.261 0.152,-0.332 0.461,-0.657 0.231,-0.461 0.312,-0.46 0.305,-0.461 0.387,-0.594 0.386,-0.656 0.461,-0.723 0.465,-0.793 0.539,-0.922 0.617,-0.988 0.618,-1.117 0.691,-1.25 0.773,-1.383 0.77,-1.578 0.848,-1.778 0.925,-1.976 1.004,-2.172 1.078,-2.434 1.079,-2.765 1.234,-3.028 1.234,-3.488 1.313,-3.82 1.465,-4.278 1.461,-4.804 1.464,-5.332 1.621,-5.993 1.622,-6.71 1.617,-7.504 1.699,-8.36 1.617,-9.086 1.621,-8.359 1.539,-7.504 1.543,-6.715 1.387,-5.988 1.465,-5.332 1.312,-4.805 1.309,-4.281 1.234,-3.816 1.157,-3.489 1.156,-3.027 1.082,-2.766 1,-2.433 1.004,-2.172 0.926,-1.977 0.847,-1.777 0.848,-1.578 0.769,-1.383 0.696,-1.25 0.691,-1.121 0.621,-0.984 0.613,-0.922 0.618,-0.789 0.539,-0.727 0.465,-0.656 0.461,-0.594 0.464,-0.461 0.461,-0.461 0.387,-0.461 0.387,-0.328 0.304,-0.328 0.387,-0.332 0.309,-0.262 0.308,-0.199 0.309,-0.262 0.308,-0.133 0.309,-0.195 0.617,-0.265 0.231,-0.129 0.308,-0.133 0.309,-0.067 0.23,-0.066 0.309,-0.133 0.23,-0.066 0.309,-0.063 h 0.234 l 0.309,-0.066 0.231,-0.067 0.304,-0.066"
         style="fill:none;stroke:#000000;stroke-width:2;stroke-linecap:butt;stroke-linejoin:round;stroke-miterlimit:10;stroke-dasharray:6, 6;stroke-dashoffset:0;stroke-opacity:1"
         id="path40"
         inkscape:connector-curvature="0" /><path
         d="m 257.316,194.477 h -14.418 l -13.183,-0.066 -12.027,-0.067 h -10.95 l -10.101,-0.066 -9.098,-0.066 -8.328,-0.129 -7.555,-0.067 -6.863,-0.066 -6.168,-0.133 -5.473,-0.129 -4.937,-0.133 -4.317,-0.133 -3.777,-0.195 -3.316,-0.133 -2.774,-0.265 -2.312,-0.196 -1.93,-0.261 -1.543,-0.332 -1.312,-0.328 -1,-0.329 -0.848,-0.461 -0.617,-0.46 -0.539,-0.461 -0.465,-0.594 -0.383,-0.656 -0.309,-0.723 -0.308,-0.793 -0.231,-0.922 -0.308,-0.988 -0.231,-1.117 -0.312,-1.25 -0.231,-1.383 -0.304,-1.578 -0.313,-1.778 -0.383,-1.976 -0.386,-2.172 -0.387,-2.434 -0.461,-2.765 -0.461,-3.028 -0.543,-3.488 -0.617,-3.82 -0.692,-4.278 -0.695,-4.804 -0.769,-5.332 -0.848,-5.993 -0.926,-6.71 -1.004,-7.504 -1.078,-8.36 -1.156,-9.086 -1.082,-8.359 -1.152,-7.504 -1.161,-6.715 -1.078,-5.988 -1.078,-5.332 -1.004,-4.805 -1,-4.281 -0.926,-3.816 L 100.723,56.18 99.949,53.153 99.102,50.387 98.41,47.954 97.715,45.782 97.098,43.805 96.48,42.028 95.941,40.45 95.477,39.067 95.094,37.817 94.707,36.696 94.398,35.712 94.09,34.79 93.859,34.001 93.629,33.274 93.473,32.618 93.395,32.024 93.242,31.563 93.164,31.102 93.09,30.641 v -0.328 l -0.078,-0.328 v -0.594 l -0.078,-0.199 v -1.711"
         style="fill:none;stroke:#000000;stroke-width:2;stroke-linecap:butt;stroke-linejoin:round;stroke-miterlimit:10;stroke-dasharray:3, 4;stroke-dashoffset:0;stroke-opacity:1"
         id="path42"
         inkscape:connector-curvature="0" /><text
         transform="matrix(1,0,0,-0.85371298,4.86872,16.55507)"
         style="font-variant:normal;font-weight:normal;font-size:12.953125px;font-family:'DejaVu Sans';-inkscape-font-specification:DejaVuSans;writing-mode:lr-tb;fill:#000000;fill-opacity:1;fill-rule:nonzero;stroke:none"
         id="text46"><tspan
           x="0 3.9636562 10.608609 13.276953 19.921906 77.550362 135.52855 144.8548 151.4868 206.1875 212.83244 215.50079"
           y="0"
           sodipodi:role="line"
           id="tspan44">-0.0500050.1</tspan></text>
<text
         transform="matrix(1,0,0,-0.85371305,147.07424,16.55507)"
         style="font-variant:normal;font-weight:normal;font-size:12.95312405px;font-family:'DejaVu Sans';-inkscape-font-specification:DejaVuSans;writing-mode:lr-tb;fill:#000000;fill-opacity:1;fill-rule:nonzero;stroke:none"
         id="text50"><tspan
           x="0"
           y="0"
           id="tspan48">.</tspan></text>
<text
         transform="matrix(1,0,0,-0.85371305,102.39871,4.83827)"
         style="font-variant:normal;font-weight:normal;font-size:12.95312405px;font-family:'DejaVu Sans';-inkscape-font-specification:DejaVuSans;writing-mode:lr-tb;fill:#000000;fill-opacity:1;fill-rule:nonzero;stroke:none"
         id="text54"><tspan
           x="0 7.2278433 15.194015 18.78203 26.696388 33.807655 37.395668 42.473293"
           y="0"
           sodipodi:role="line"
           id="tspan52">Velocity</tspan></text>
<text
         transform="matrix(1,0,0,-0.85371305,158.92957,4.83827)"
         style="font-variant:normal;font-weight:normal;font-size:12.95312405px;font-family:'DejaVu Sans';-inkscape-font-specification:DejaVuSans;writing-mode:lr-tb;fill:#000000;fill-opacity:1;fill-rule:nonzero;stroke:none"
         id="text58"><tspan
           x="0 3.6786873 14.481592 18.911562 24.028046"
           y="0"
           sodipodi:role="line"
           id="tspan56">(m/s)</tspan></text>
<path
         d="M 124.777,124.504 H 248.898 V 62.5 H 124.777 Z"
         style="fill:#ffffff;fill-opacity:1;fill-rule:evenodd;stroke:none"
         id="path60"
         inkscape:connector-curvature="0" /><path
         d="M 124.777,124.504 H 240.355 V 62.5 H 124.777 Z"
         style="fill:none;stroke:#ffffff;stroke-width:0.5;stroke-linecap:butt;stroke-linejoin:round;stroke-miterlimit:10;stroke-dasharray:none;stroke-opacity:1"
         id="path62"
         inkscape:connector-curvature="0" /><path
         d="M 124.789,124.497 H 249.957 M 124.789,62.508 h 125.168 m 0,0 v 61.989 M 124.789,62.508 v 61.989 m 0,-61.989 h 125.168 m -125.168,0 v 61.989 m 0,0 H 249.957 M 124.789,62.508 h 125.168 m 0,0 v 61.989 M 124.789,62.508 v 61.989"
         style="fill:none;stroke:#000000;stroke-width:0.52025098;stroke-linecap:butt;stroke-linejoin:round;stroke-miterlimit:10;stroke-dasharray:none;stroke-opacity:1"
         id="path64"
         inkscape:connector-curvature="0" /><text
         transform="matrix(1,0,0,-0.85371259,160.86232,109.76117)"
         style="font-variant:normal;font-weight:normal;font-size:16.65332031px;font-family:'DejaVu Sans';-inkscape-font-specification:DejaVuSans;writing-mode:lr-tb;fill:#000000;fill-opacity:1;fill-rule:nonzero;stroke:none"
         id="text68"><tspan
           x="0"
           y="0"
           id="tspan66">û</tspan></text>
<text
         transform="matrix(1,0,0,-0.85371298,170.03862,106.60197)"
         style="font-variant:normal;font-weight:normal;font-size:12.953125px;font-family:'DejaVu Sans';-inkscape-font-specification:DejaVuSans;writing-mode:lr-tb;fill:#000000;fill-opacity:1;fill-rule:nonzero;stroke:none"
         id="text72"><tspan
           x="0"
           y="0"
           id="tspan70">x</tspan></text>
<text
         transform="matrix(1,0,0,-0.85371259,160.86232,94.29237)"
         style="font-variant:normal;font-weight:normal;font-size:16.65332031px;font-family:'DejaVu Sans';-inkscape-font-specification:DejaVuSans;writing-mode:lr-tb;fill:#000000;fill-opacity:1;fill-rule:nonzero;stroke:none"
         id="text76"><tspan
           x="0"
           y="0"
           id="tspan74">û</tspan></text>
<text
         transform="matrix(1,0,0,-0.85371298,170.03862,91.13327)"
         style="font-variant:normal;font-weight:normal;font-size:12.953125px;font-family:'DejaVu Sans';-inkscape-font-specification:DejaVuSans;writing-mode:lr-tb;fill:#000000;fill-opacity:1;fill-rule:nonzero;stroke:none"
         id="text84"><tspan
           x="0"
           y="0"
           id="tspan78">y</tspan><tspan
           x="-9.1763048"
           y="11.179402"
           id="tspan80">q</tspan><tspan
           x="-9.1763048 -3.6453202 12.390649 16.354305"
           y="23.438562"
           sodipodi:role="line"
           id="tspan82">z=-z</tspan></text>
<text
         transform="matrix(1,0,0,-0.85370819,193.72637,67.194198)"
         style="font-variant:normal;font-weight:normal;font-size:10.17715931px;font-family:'DejaVu Sans';-inkscape-font-specification:DejaVuSans;writing-mode:lr-tb;fill:#000000;fill-opacity:1;fill-rule:nonzero;stroke:none"
         id="text88"><tspan
           x="0"
           y="0"
           id="tspan86">0</tspan></text>
<path
         d="m 131.949,115.684 h 21.664"
         style="fill:none;stroke:#000000;stroke-width:2;stroke-linecap:butt;stroke-linejoin:round;stroke-miterlimit:10;stroke-dasharray:none;stroke-opacity:1"
         id="path90"
         inkscape:connector-curvature="0" /><path
         d="m 131.949,100.743 h 21.664"
         style="fill:none;stroke:#000000;stroke-width:2;stroke-linecap:butt;stroke-linejoin:round;stroke-miterlimit:10;stroke-dasharray:6, 6;stroke-dashoffset:0;stroke-opacity:1"
         id="path92"
         inkscape:connector-curvature="0" /><path
         d="m 131.949,85.868 h 21.664"
         style="fill:none;stroke:#000000;stroke-width:2;stroke-linecap:butt;stroke-linejoin:round;stroke-miterlimit:10;stroke-dasharray:3, 4;stroke-dashoffset:0;stroke-opacity:1"
         id="path94"
         inkscape:connector-curvature="0" /><path
         d="m 131.949,73.294 h 21.664"
         style="fill:none;stroke:#0000ff;stroke-width:2;stroke-linecap:butt;stroke-linejoin:round;stroke-miterlimit:10;stroke-dasharray:none;stroke-opacity:1"
         id="path96"
         inkscape:connector-curvature="0" /><path
         d="M 326.941,194.477 H 581.609 V 27.481 H 326.941 Z"
         style="fill:none;stroke:#ffffff;stroke-width:0.5;stroke-linecap:butt;stroke-linejoin:round;stroke-miterlimit:10;stroke-dasharray:none;stroke-opacity:1"
         id="path98"
         inkscape:connector-curvature="0" /><path
         d="M 326.941,27.481 V 194.477 M 460.945,27.481 V 194.477 M 527.949,27.481 V 194.477 M 326.941,27.481 H 581.609 M 326.941,60.919 H 581.609 M 326.941,94.294 h 254.668 m -254.668,33.437 h 254.668 m -254.668,33.371 h 254.668 m -254.668,33.375 h 254.668"
         style="fill:none;stroke:#000000;stroke-width:1;stroke-linecap:butt;stroke-linejoin:round;stroke-miterlimit:10;stroke-dasharray:1, 4;stroke-dashoffset:0;stroke-opacity:1"
         id="path100"
         inkscape:connector-curvature="0" /><path
         d="M 326.941,194.477 H 581.609 M 326.941,27.481 h 254.668 m 0,0 V 194.477 M 326.941,27.481 v 166.996 m 0,-166.996 h 254.668 m -254.668,0 v 166.996 m 0,-166.996 v 2.238 m 0,164.758 v -2.172 M 393.945,27.481 v 2.238 m 0,164.758 v -2.172 m 67,-164.824 v 2.238 m 0,164.758 v -2.172 M 527.949,27.481 v 2.238 m 0,164.758 v -2.172 M 326.941,27.481 h 2.543 m 252.125,0 h -2.621"
         style="fill:none;stroke:#000000;stroke-width:0.5;stroke-linecap:butt;stroke-linejoin:round;stroke-miterlimit:10;stroke-dasharray:none;stroke-opacity:1"
         id="path102"
         inkscape:connector-curvature="0" /><text
         transform="matrix(1,0,0,-0.85371298,308.21482,23.40077)"
         style="font-variant:normal;font-weight:normal;font-size:12.953125px;font-family:'DejaVu Sans';-inkscape-font-specification:DejaVuSans;writing-mode:lr-tb;fill:#000000;fill-opacity:1;fill-rule:nonzero;stroke:none"
         id="text106"><tspan
           x="0 6.6449533"
           y="0"
           sodipodi:role="line"
           id="tspan104">50</tspan></text>
<path
         d="m 326.941,60.919 h 2.543 m 252.125,0 h -2.621"
         style="fill:none;stroke:#000000;stroke-width:0.5;stroke-linecap:butt;stroke-linejoin:round;stroke-miterlimit:10;stroke-dasharray:none;stroke-opacity:1"
         id="path108"
         inkscape:connector-curvature="0" /><text
         transform="matrix(1,0,0,-0.85371298,308.21482,56.83927)"
         style="font-variant:normal;font-weight:normal;font-size:12.953125px;font-family:'DejaVu Sans';-inkscape-font-specification:DejaVuSans;writing-mode:lr-tb;fill:#000000;fill-opacity:1;fill-rule:nonzero;stroke:none"
         id="text112"><tspan
           x="0 6.6449533"
           y="0"
           sodipodi:role="line"
           id="tspan110">40</tspan></text>
<path
         d="m 326.941,94.294 h 2.543 m 252.125,0 h -2.621"
         style="fill:none;stroke:#000000;stroke-width:0.5;stroke-linecap:butt;stroke-linejoin:round;stroke-miterlimit:10;stroke-dasharray:none;stroke-opacity:1"
         id="path114"
         inkscape:connector-curvature="0" /><text
         transform="matrix(1,0,0,-0.85371298,308.21482,90.21237)"
         style="font-variant:normal;font-weight:normal;font-size:12.953125px;font-family:'DejaVu Sans';-inkscape-font-specification:DejaVuSans;writing-mode:lr-tb;fill:#000000;fill-opacity:1;fill-rule:nonzero;stroke:none"
         id="text118"><tspan
           x="0 6.6449533"
           y="0"
           sodipodi:role="line"
           id="tspan116">30</tspan></text>
<path
         d="m 326.941,127.731 h 2.543 m 252.125,0 h -2.621"
         style="fill:none;stroke:#000000;stroke-width:0.5;stroke-linecap:butt;stroke-linejoin:round;stroke-miterlimit:10;stroke-dasharray:none;stroke-opacity:1"
         id="path120"
         inkscape:connector-curvature="0" /><text
         transform="matrix(1,0,0,-0.85371298,308.21482,123.65077)"
         style="font-variant:normal;font-weight:normal;font-size:12.953125px;font-family:'DejaVu Sans';-inkscape-font-specification:DejaVuSans;writing-mode:lr-tb;fill:#000000;fill-opacity:1;fill-rule:nonzero;stroke:none"
         id="text124"><tspan
           x="0 6.6449533"
           y="0"
           sodipodi:role="line"
           id="tspan122">20</tspan></text>
<path
         d="m 326.941,161.102 h 2.543 m 252.125,0 h -2.621"
         style="fill:none;stroke:#000000;stroke-width:0.5;stroke-linecap:butt;stroke-linejoin:round;stroke-miterlimit:10;stroke-dasharray:none;stroke-opacity:1"
         id="path126"
         inkscape:connector-curvature="0" /><text
         transform="matrix(1,0,0,-0.85371298,308.21482,157.02387)"
         style="font-variant:normal;font-weight:normal;font-size:12.953125px;font-family:'DejaVu Sans';-inkscape-font-specification:DejaVuSans;writing-mode:lr-tb;fill:#000000;fill-opacity:1;fill-rule:nonzero;stroke:none"
         id="text130"><tspan
           x="0 6.6449533"
           y="0"
           sodipodi:role="line"
           id="tspan128">10</tspan></text>
<path
         d="m 326.941,194.477 h 2.543 m 252.125,0 h -2.621"
         style="fill:none;stroke:#000000;stroke-width:0.5;stroke-linecap:butt;stroke-linejoin:round;stroke-miterlimit:10;stroke-dasharray:none;stroke-opacity:1"
         id="path132"
         inkscape:connector-curvature="0" /><text
         transform="matrix(1,0,0,-0.85371298,315.22072,190.39587)"
         style="font-variant:normal;font-weight:normal;font-size:12.953125px;font-family:'DejaVu Sans';-inkscape-font-specification:DejaVuSans;writing-mode:lr-tb;fill:#000000;fill-opacity:1;fill-rule:nonzero;stroke:none"
         id="text136"><tspan
           x="0"
           y="0"
           id="tspan134">0</tspan></text>
<path
         d="M 326.941,194.477 H 581.609 M 326.941,27.481 h 254.668 m 0,0 V 194.477 M 326.941,27.481 v 166.996"
         style="fill:none;stroke:#000000;stroke-width:0.5;stroke-linecap:butt;stroke-linejoin:round;stroke-miterlimit:10;stroke-dasharray:none;stroke-opacity:1"
         id="path138"
         inkscape:connector-curvature="0" /><path
         d="m 416.227,194.477 -0.696,-0.66 -0.691,-0.789 -0.774,-0.789 -0.769,-0.856 -0.848,-0.988 -0.847,-1.055 -0.926,-1.117 -1.004,-1.183 -1.004,-1.317 -1.078,-1.449 -1.156,-1.578 -1.157,-1.649 -1.234,-1.843 -1.234,-1.973 -1.309,-2.105 -1.391,-2.305 -1.461,-2.504 -1.468,-2.762 -1.465,-2.898 -1.539,-3.223 -1.543,-3.422 -1.543,-3.754 -1.543,-4.015 -1.617,-4.41 -1.543,-4.739 -1.465,-5.136 -1.465,-5.594 -1.387,-6.055 -1.39,-6.519 -1.231,-6.911 -1.082,-6.449 -1.078,-5.926 -0.926,-5.527 -0.925,-5.07 -0.77,-4.672 -0.695,-4.277 -0.618,-4.016 -0.617,-3.621 -0.461,-3.422 -0.461,-3.16 -0.386,-2.899 -0.309,-2.632 -0.309,-2.434 -0.23,-2.305 -0.156,-2.105 -0.153,-1.91 -0.078,-1.844 v -4.539 l 0.157,-1.32 0.074,-1.184 0.156,-1.117 0.461,-1.977 0.234,-0.855 0.305,-0.789 0.309,-0.723 0.386,-0.727 0.387,-0.589 0.383,-0.594 0.387,-0.527 0.464,-0.528 0.461,-0.461 0.461,-0.394 0.465,-0.395 0.539,-0.394 0.461,-0.328 0.543,-0.329 0.539,-0.265 0.539,-0.262 0.539,-0.266 0.539,-0.195 0.539,-0.199 0.543,-0.195 0.614,-0.2 0.543,-0.132 0.539,-0.129 0.617,-0.133 0.539,-0.133 0.617,-0.129 0.539,-0.133 0.539,-0.066 0.617,-0.129 0.54,-0.066 0.617,-0.067 0.539,-0.066 0.617,-0.067 0.539,-0.066 0.617,-0.066 0.539,-0.067 0.617,-0.066 h 0.543 l 0.614,-0.063 0.617,-0.066 h 0.539 l 0.621,-0.067 h 0.539 l 0.617,-0.066"
         style="fill:none;stroke:#000000;stroke-width:2;stroke-linecap:butt;stroke-linejoin:round;stroke-miterlimit:10;stroke-dasharray:none;stroke-opacity:1"
         id="path140"
         inkscape:connector-curvature="0" /><path
         d="m 342.902,194.477 v -1.449 l 0.075,-0.789 0.078,-0.856 0.078,-0.988 0.078,-1.055 0.152,-1.117 0.157,-1.183 0.23,-1.317 0.23,-1.449 0.231,-1.578 0.309,-1.649 0.386,-1.843 0.387,-1.973 0.461,-2.105 0.461,-2.305 0.617,-2.504 0.617,-2.762 0.617,-2.898 0.774,-3.223 0.769,-3.422 0.848,-3.754 0.848,-4.015 1.004,-4.41 1,-4.739 1.003,-5.136 1.079,-5.594 1.082,-6.055 1.156,-6.519 1.078,-6.911 1.156,-6.449 1.082,-5.926 1.157,-5.527 1.078,-5.07 1,-4.672 1.082,-4.277 1,-4.016 1.004,-3.621 1.004,-3.422 0.925,-3.16 0.922,-2.899 0.926,-2.632 0.848,-2.434 0.847,-2.305 0.852,-2.105 0.769,-1.91 0.77,-1.844 0.773,-1.645 0.696,-1.511 0.691,-1.383 0.695,-1.32 0.618,-1.184 0.617,-1.117 0.617,-0.988 0.535,-0.989 0.543,-0.855 0.539,-0.789 0.539,-0.723 0.465,-0.727 0.461,-0.589 0.461,-0.594 0.465,-0.527 0.386,-0.528 0.383,-0.461 0.774,-0.789 0.308,-0.394 0.383,-0.328 0.309,-0.329 0.308,-0.265 0.309,-0.262 0.308,-0.266 0.309,-0.195 0.231,-0.199 0.308,-0.195 0.231,-0.2 0.312,-0.132 0.231,-0.129 0.304,-0.133 0.235,-0.133 0.23,-0.129 0.231,-0.133 0.23,-0.066 0.234,-0.129 0.309,-0.066 1.152,-0.332 0.235,-0.067 0.23,-0.066 h 0.231 l 0.234,-0.063 0.231,-0.066 h 0.23 l 0.23,-0.067 h 0.231 l 0.234,-0.066"
         style="fill:none;stroke:#000000;stroke-width:2;stroke-linecap:butt;stroke-linejoin:round;stroke-miterlimit:10;stroke-dasharray:6, 6;stroke-dashoffset:0;stroke-opacity:1"
         id="path142"
         inkscape:connector-curvature="0" /><path
         d="m 565.496,194.477 -10.484,-0.66 -9.871,-0.789 -9.25,-0.789 -8.637,-0.856 -8.094,-0.988 -7.637,-1.055 -7.093,-1.117 -6.707,-1.183 -6.246,-1.317 -5.86,-1.449 -5.394,-1.578 -5.168,-1.649 -4.703,-1.843 -4.473,-1.973 -4.16,-2.105 -3.86,-2.305 -3.543,-2.504 -3.316,-2.762 -3.086,-2.898 -2.852,-3.223 -2.699,-3.422 -2.465,-3.754 -2.238,-4.015 -2.16,-4.41 -2.004,-4.739 -1.848,-5.136 -1.777,-5.594 -1.617,-6.055 -1.617,-6.519 -1.543,-6.911 -1.391,-6.449 -1.387,-5.926 -1.308,-5.527 -1.235,-5.07 -1.16,-4.672 -1.152,-4.277 -1.082,-4.016 -1,-3.621 -1.004,-3.422 -0.926,-3.16 -0.926,-2.899 -0.847,-2.632 -0.77,-2.434 -0.769,-2.305 -0.696,-2.105 -0.695,-1.91 -0.617,-1.844 -0.617,-1.645 -0.539,-1.511 -0.539,-1.383 -0.461,-1.32 -0.465,-1.184 -0.461,-1.117 -0.387,-0.988 -0.308,-0.989 -0.383,-0.855 -0.235,-0.789 -0.308,-0.723 -0.231,-0.727 -0.152,-0.589 -0.156,-0.594 -0.153,-0.527 -0.156,-0.528 -0.156,-0.461 -0.074,-0.394 -0.157,-0.789 -0.074,-0.328 V 30.84 l -0.078,-0.265 v -0.262 l -0.078,-0.266 v -0.589 l -0.074,-0.2 v -1.777"
         style="fill:none;stroke:#000000;stroke-width:2;stroke-linecap:butt;stroke-linejoin:round;stroke-miterlimit:10;stroke-dasharray:3, 4;stroke-dashoffset:0;stroke-opacity:1"
         id="path144"
         inkscape:connector-curvature="0" /><path
         d="m 557.785,194.477 -17.269,-0.66 -15.496,-0.789 -13.879,-0.789 -12.493,-0.856 -11.101,-0.988 -10.024,-1.055 -9.023,-1.117 -8.094,-1.183 -7.324,-1.317 -6.711,-1.449 -6.012,-1.578 -5.472,-1.649 -4.938,-1.843 -4.469,-1.973 -4.089,-2.105 -3.621,-2.305 -3.239,-2.504 -2.929,-2.762 -2.622,-2.898 -2.316,-3.223 -2.078,-3.422 -1.777,-3.754 -1.539,-4.015 -1.313,-4.41 -1.156,-4.739 -0.926,-5.136 -0.77,-5.594 -0.695,-6.055 -0.539,-6.519 -0.461,-6.911 -0.308,-6.449 -0.235,-5.926 -0.152,-5.527 -0.078,-5.07 -0.157,-4.672 -0.074,-4.277 v -4.016 l -0.078,-3.621 v -3.422 l -0.078,-3.16 v -5.531 l -0.074,-2.434 V 40.45 l -0.078,-0.988 V 27.481"
         style="fill:none;stroke:#000000;stroke-width:2;stroke-linecap:butt;stroke-linejoin:round;stroke-miterlimit:10;stroke-dasharray:0.5, 4, 6, 4;stroke-dashoffset:0;stroke-opacity:1"
         id="path146"
         inkscape:connector-curvature="0" /><path
         d="m 580.07,194.477 -17.965,-0.66 -16.191,-0.789 -14.652,-0.789 -13.184,-0.856 -12.027,-0.988 -10.871,-1.055 -9.95,-1.117 -9.093,-1.183 -8.328,-1.317 -7.711,-1.449 -7.172,-1.578 -6.629,-1.649 -6.168,-1.843 -5.785,-1.973 -5.395,-2.105 -5.015,-2.305 -4.7,-2.504 -4.394,-2.762 -4.09,-2.898 -3.852,-3.223 -3.546,-3.422 -3.317,-3.754 -3.164,-4.015 -2.848,-4.41 -2.703,-4.739 -2.465,-5.136 -2.238,-5.594 -2.078,-6.055 -1.93,-6.519 -1.621,-6.911 -1.465,-6.449 -1.23,-5.926 -1.156,-5.527 -1.004,-5.07 -0.848,-4.672 -0.769,-4.277 -0.696,-4.016 -0.617,-3.621 -0.617,-3.422 -0.465,-3.16 -0.383,-2.899 -0.386,-2.632 -0.231,-2.434 -0.23,-2.305 -0.231,-2.105 -0.156,-1.91 -0.078,-1.844 v -4.539 l 0.078,-1.32 0.156,-1.184 0.152,-1.117 0.231,-0.988 0.234,-0.989 0.231,-0.855 0.308,-0.789 0.305,-0.723 0.391,-0.727 0.304,-0.589 0.465,-0.594 0.387,-0.527 0.461,-0.528 0.461,-0.461 0.465,-0.394 0.461,-0.395 0.464,-0.394 1.079,-0.657 0.539,-0.265 0.539,-0.262 0.539,-0.266 0.543,-0.195 0.539,-0.199 0.539,-0.195 0.539,-0.2 0.617,-0.132 0.539,-0.129 0.539,-0.133 0.617,-0.133 0.54,-0.129 0.617,-0.133 0.539,-0.066 0.543,-0.129 0.613,-0.066 0.543,-0.067 0.613,-0.066 0.543,-0.067 0.617,-0.066 0.614,-0.066 0.543,-0.067 0.617,-0.066 h 0.539 l 0.613,-0.063 0.543,-0.066 h 0.617 l 0.539,-0.067 h 0.618 l 0.539,-0.066"
         style="fill:none;stroke:#ff0000;stroke-width:2;stroke-linecap:butt;stroke-linejoin:round;stroke-miterlimit:10;stroke-dasharray:none;stroke-opacity:1"
         id="path148"
         inkscape:connector-curvature="0" /><text
         transform="matrix(0,0.99247669,1.0075803,0,0,0)"
         style="font-variant:normal;font-weight:normal;font-size:12.85567474px;font-family:'DejaVu Sans';-inkscape-font-specification:DejaVuSans;writing-mode:lr-tb;fill:#000000;fill-opacity:1;fill-rule:nonzero;stroke:none;stroke-width:0.9924767"
         id="text152"
         x="79.061943"
         y="295.78516"><tspan
           sodipodi:role="line"
           id="tspan150"
           x="79.061943"
           y="295.78516"
           style="stroke-width:0.9924767">depth (m)</tspan></text>
<text
         transform="matrix(1,0,0,-0.85371298,324.71482,16.55507)"
         style="font-variant:normal;font-weight:normal;font-size:12.953125px;font-family:'DejaVu Sans';-inkscape-font-specification:DejaVuSans;writing-mode:lr-tb;fill:#000000;fill-opacity:1;fill-rule:nonzero;stroke:none"
         id="text156"><tspan
           x="0 6.6449533 9.3132973 15.95825 65.659393 123.63758 130.28253 132.95088 139.59583 194.24506 200.89001 203.55836"
           y="0"
           sodipodi:role="line"
           id="tspan154">0.0500.050.1</tspan></text>
<path
         d="m 465.73,144.32574 h 80.273 V 35.712 H 465.73 Z"
         style="fill:#ffffff;fill-opacity:1;fill-rule:evenodd;stroke:none;stroke-width:1.0810324"
         id="path158"
         inkscape:connector-curvature="0"
         sodipodi:nodetypes="ccccc" /><path
         d="M 465.73,144.32574 H 598.503 V 35.712 H 465.73 Z"
         style="fill:none;stroke:#ffffff;stroke-width:0.5405162;stroke-linecap:butt;stroke-linejoin:round;stroke-miterlimit:10;stroke-dasharray:none;stroke-opacity:1"
         id="path160"
         inkscape:connector-curvature="0" /><path
         d="m 465.73,144.32574 h 78.774 M 465.73,35.712 h 78.774 m 0,0 V 144.32574 M 465.73,35.712 v 108.61374 m 0,-108.61374 h 78.774 m -78.774,0 v 108.61374 m 0,0 h 78.774 M 465.73,35.712 h 78.774 m 0,0 V 144.32574 M 465.73,35.712 v 108.61374"
         style="fill:none;stroke:#000000;stroke-width:0.5405162;stroke-linecap:butt;stroke-linejoin:round;stroke-miterlimit:10;stroke-dasharray:none;stroke-opacity:1"
         id="path162"
         inkscape:connector-curvature="0"
         sodipodi:nodetypes="cccccccccccccccccccc" /><text
         transform="scale(1.0011645,-0.99883683)"
         style="font-variant:normal;font-weight:normal;font-size:16.63394928px;font-family:'DejaVu Sans';-inkscape-font-specification:DejaVuSans;writing-mode:lr-tb;fill:#000000;fill-opacity:1;fill-rule:nonzero;stroke:none;stroke-width:0.99883687"
         id="text166"
         x="501.23276"
         y="-127.24294"><tspan
           x="501.23276"
           y="-127.24294"
           id="tspan164"
           style="stroke-width:0.99883687">û</tspan></text>
<text
         transform="scale(1.0011643,-0.99883709)"
         style="font-variant:normal;font-weight:normal;font-size:12.93806076px;font-family:'DejaVu Sans';-inkscape-font-specification:DejaVuSans;writing-mode:lr-tb;fill:#000000;fill-opacity:1;fill-rule:nonzero;stroke:none;stroke-width:0.99883705"
         id="text170"
         x="510.39899"
         y="-123.54679"><tspan
           x="510.39899"
           y="-123.54679"
           id="tspan168"
           style="stroke-width:0.99883705">x</tspan></text>
<text
         transform="scale(1.0011645,-0.99883683)"
         style="font-variant:normal;font-weight:normal;font-size:16.63394928px;font-family:'DejaVu Sans';-inkscape-font-specification:DejaVuSans;writing-mode:lr-tb;fill:#000000;fill-opacity:1;fill-rule:nonzero;stroke:none;stroke-width:0.99883687"
         id="text174"
         x="501.23276"
         y="-109.14469"><tspan
           x="501.23276"
           y="-109.14469"
           id="tspan172"
           style="stroke-width:0.99883687">û</tspan></text>
<text
         transform="scale(1.0011643,-0.99883709)"
         style="font-variant:normal;font-weight:normal;font-size:12.93806076px;font-family:'DejaVu Sans';-inkscape-font-specification:DejaVuSans;writing-mode:lr-tb;fill:#000000;fill-opacity:1;fill-rule:nonzero;stroke:none;stroke-width:0.99883705"
         id="text182"
         x="510.39899"
         y="-105.44842"><tspan
           x="510.39899"
           y="-105.44842"
           id="tspan176"
           style="stroke-width:0.99883705">y</tspan><tspan
           x="501.23288"
           y="-94.282143"
           id="tspan178"
           style="stroke-width:0.99883705">q</tspan><tspan
           x="501.23288"
           y="-76.18261"
           id="tspan180"
           style="stroke-width:0.99883705">U</tspan></text>
<text
         transform="scale(1.0011645,-0.99883682)"
         style="font-variant:normal;font-weight:normal;font-size:11.0896244px;font-family:'DejaVu Sans';-inkscape-font-specification:DejaVuSans;writing-mode:lr-tb;fill:#000000;fill-opacity:1;fill-rule:nonzero;stroke:none;stroke-width:0.99883687"
         id="text186"
         x="510.57635"
         y="-72.486504"><tspan
           x="510.57635 514.87915"
           y="-72.486504"
           sodipodi:role="line"
           id="tspan184"
           style="stroke-width:0.99883687">sx</tspan></text>
<text
         transform="scale(1.0011645,-0.99883683)"
         style="font-variant:normal;font-weight:normal;font-size:16.63394928px;font-family:'DejaVu Sans';-inkscape-font-specification:DejaVuSans;writing-mode:lr-tb;fill:#000000;fill-opacity:1;fill-rule:nonzero;stroke:none;stroke-width:0.99883687"
         id="text190"
         x="494.76367"
         y="-58.08437"><tspan
           x="494.76367"
           y="-58.08437"
           id="tspan188"
           style="stroke-width:0.99883687">û</tspan></text>
<text
         transform="scale(1.0011643,-0.99883709)"
         style="font-variant:normal;font-weight:normal;font-size:12.93806076px;font-family:'DejaVu Sans';-inkscape-font-specification:DejaVuSans;writing-mode:lr-tb;fill:#000000;fill-opacity:1;fill-rule:nonzero;stroke:none;stroke-width:0.99883705"
         id="text196"
         x="503.9299"
         y="-54.388115"><tspan
           x="503.9299 509.90729"
           y="-54.388115"
           sodipodi:role="line"
           id="tspan192"
           style="stroke-width:0.99883705">x+</tspan><tspan
           x="517.63019"
           y="-58.08456"
           id="tspan194"
           style="stroke-width:0.99883705">U</tspan></text>
<text
         transform="scale(1.0011645,-0.99883682)"
         style="font-variant:normal;font-weight:normal;font-size:11.0896244px;font-family:'DejaVu Sans';-inkscape-font-specification:DejaVuSans;writing-mode:lr-tb;fill:#000000;fill-opacity:1;fill-rule:nonzero;stroke:none;stroke-width:0.99883687"
         id="text200"
         x="526.97424"
         y="-54.38813"><tspan
           x="526.97424 531.27704"
           y="-54.38813"
           sodipodi:role="line"
           id="tspan198"
           style="stroke-width:0.99883687">sx</tspan></text>
<text
         transform="scale(1.0011643,-0.99883706)"
         style="font-variant:normal;font-weight:normal;font-size:12.93806076px;font-family:'DejaVu Sans';-inkscape-font-specification:DejaVuSans;writing-mode:lr-tb;fill:#000000;fill-opacity:1;fill-rule:nonzero;stroke:none;stroke-width:0.99883705"
         id="text204"
         x="501.23285"
         y="-41.334213"><tspan
           x="501.23285 506.75739 522.77472 526.73376"
           y="-41.334213"
           sodipodi:role="line"
           id="tspan202"
           style="stroke-width:0.99883705">z=-z</tspan></text>
<text
         transform="scale(1.0011671,-0.99883426)"
         style="font-variant:normal;font-weight:normal;font-size:8.31712627px;font-family:'DejaVu Sans';-inkscape-font-specification:DejaVuSans;writing-mode:lr-tb;fill:#000000;fill-opacity:1;fill-rule:nonzero;stroke:none;stroke-width:0.81726682"
         id="text208"
         x="534.08142"
         y="-38.212662"><tspan
           x="534.08142"
           y="-38.212662"
           id="tspan206"
           style="stroke-width:0.81726682">0</tspan></text>
<path
         d="M 472.902,133.94011 H 494.57"
         style="fill:none;stroke:#000000;stroke-width:2.16206479;stroke-linecap:butt;stroke-linejoin:round;stroke-miterlimit:10;stroke-dasharray:none;stroke-opacity:1"
         id="path210"
         inkscape:connector-curvature="0" /><path
         d="M 472.902,116.24704 H 494.57"
         style="fill:none;stroke:#000000;stroke-width:2.16206479;stroke-linecap:butt;stroke-linejoin:round;stroke-miterlimit:10;stroke-dasharray:6.4861944, 6.4861944;stroke-dashoffset:0;stroke-opacity:1"
         id="path212"
         inkscape:connector-curvature="0" /><path
         d="M 472.902,98.629927 H 494.57"
         style="fill:none;stroke:#000000;stroke-width:2.16206479;stroke-linecap:butt;stroke-linejoin:round;stroke-miterlimit:10;stroke-dasharray:3.2430972, 4.3241296;stroke-dashoffset:0;stroke-opacity:1"
         id="path214"
         inkscape:connector-curvature="0" /><path
         d="M 472.902,80.941528 H 494.57"
         style="fill:none;stroke:#000000;stroke-width:2.16206479;stroke-linecap:butt;stroke-linejoin:round;stroke-miterlimit:10;stroke-dasharray:0.5405162, 4.3241296, 6.4861944, 4.3241296;stroke-dashoffset:0;stroke-opacity:1"
         id="path216"
         inkscape:connector-curvature="0" /><path
         d="M 472.902,63.324414 H 494.57"
         style="fill:none;stroke:#ff0000;stroke-width:2.16206479;stroke-linecap:butt;stroke-linejoin:round;stroke-miterlimit:10;stroke-dasharray:none;stroke-opacity:1"
         id="path218"
         inkscape:connector-curvature="0" /><path
         d="M 472.902,43.902165 H 494.57"
         style="fill:none;stroke:#0000ff;stroke-width:2.16206479;stroke-linecap:butt;stroke-linejoin:round;stroke-miterlimit:10;stroke-dasharray:none;stroke-opacity:1"
         id="path220"
         inkscape:connector-curvature="0" /><path
         d="M 394.559,27.415 V 194.411"
         style="fill:none;stroke:#000000;stroke-width:0.5;stroke-linecap:butt;stroke-linejoin:round;stroke-miterlimit:10;stroke-dasharray:none;stroke-opacity:1"
         id="path222"
         inkscape:connector-curvature="0" /><text
         transform="matrix(1,0,0,-0.85371261,31.56052,34.78947)"
         style="font-variant:normal;font-weight:normal;font-size:22.20507812px;font-family:'DejaVu Sans';-inkscape-font-specification:DejaVuSans;writing-mode:lr-tb;fill:#000000;fill-opacity:1;fill-rule:nonzero;stroke:none"
         id="text228"><tspan
           x="0 10.680642"
           y="0"
           sodipodi:role="line"
           id="tspan224">a)</tspan><tspan
           x="305.32721 317.93967"
           y="2.7762344"
           sodipodi:role="line"
           id="tspan226">b)</tspan></text>
<text
         transform="matrix(1,0,0,-0.85371305,406.36473,4.285687)"
         style="font-variant:normal;font-weight:normal;font-size:12.95312405px;font-family:'DejaVu Sans';-inkscape-font-specification:DejaVuSans;writing-mode:lr-tb;fill:#000000;fill-opacity:1;fill-rule:nonzero;stroke:none"
         id="text232"><tspan
           x="0 7.2278433 15.194015 18.78203 26.696388 33.807655 37.395668 42.473293"
           y="0"
           sodipodi:role="line"
           id="tspan230">Velocity</tspan></text>
<text
         transform="matrix(1,0,0,-0.85371305,462.89558,4.285687)"
         style="font-variant:normal;font-weight:normal;font-size:12.95312405px;font-family:'DejaVu Sans';-inkscape-font-specification:DejaVuSans;writing-mode:lr-tb;fill:#000000;fill-opacity:1;fill-rule:nonzero;stroke:none"
         id="text236"><tspan
           x="0 3.6786873 14.481592 18.911562 24.028046"
           y="0"
           sodipodi:role="line"
           id="tspan234">(m/s)</tspan></text>
</g></g></svg>