<?xml version="1.0" encoding="UTF-8" standalone="no"?>
<!-- Created with Inkscape (http://www.inkscape.org/) -->

<svg
   xmlns:dc="http://purl.org/dc/elements/1.1/"
   xmlns:cc="http://creativecommons.org/ns#"
   xmlns:rdf="http://www.w3.org/1999/02/22-rdf-syntax-ns#"
   xmlns:svg="http://www.w3.org/2000/svg"
   xmlns="http://www.w3.org/2000/svg"
   xmlns:sodipodi="http://sodipodi.sourceforge.net/DTD/sodipodi-0.dtd"
   xmlns:inkscape="http://www.inkscape.org/namespaces/inkscape"
   id="svg2"
   version="1.1"
   inkscape:version="0.48.4 r9939"
   width="649.375"
   height="272.82499"
   xml:space="preserve"
   sodipodi:docname="Generation_IG_en.pdf"><metadata
     id="metadata8"><rdf:RDF><cc:Work
         rdf:about=""><dc:format>image/svg+xml</dc:format><dc:type
           rdf:resource="http://purl.org/dc/dcmitype/StillImage" /><dc:title></dc:title></cc:Work></rdf:RDF></metadata><defs
     id="defs6" /><sodipodi:namedview
     pagecolor="#ffffff"
     bordercolor="#666666"
     borderopacity="1"
     objecttolerance="10"
     gridtolerance="10"
     guidetolerance="10"
     inkscape:pageopacity="0"
     inkscape:pageshadow="2"
     inkscape:window-width="991"
     inkscape:window-height="587"
     id="namedview4"
     showgrid="false"
     inkscape:zoom="0.76658814"
     inkscape:cx="335.75626"
     inkscape:cy="107.07477"
     inkscape:window-x="297"
     inkscape:window-y="41"
     inkscape:window-maximized="0"
     inkscape:current-layer="g10" /><g
     id="g10"
     inkscape:groupmode="layer"
     inkscape:label="Generation_IG"
     transform="matrix(1.25,0,0,-1.25,-48.125,892.19999)"><path
       d=""
       style="fill:#2095db;fill-opacity:1;fill-rule:nonzero;stroke:#2095db;stroke-opacity:1;stroke-width:2;stroke-linecap:butt;stroke-linejoin:miter;stroke-miterlimit:4;stroke-dasharray:none"
       id="path12" /><path
       d="m 336.26953,646 c 0,0 -4.28125,2.99902 -9.02539,3.99951 C 322.5,651 319.46289,638.5 314.23145,638 309,637.5 303.44141,650.99902 296.2207,650.99951 289,651 287.43555,639.99902 278.21777,639.99951 269,640 264.91992,659 256.20996,659 247.5,659 243.41016,629.00098 237.20508,630.00049 231,631 222.20215,660.50049 215.5,662 c -6.70215,1.49951 -13.30957,-23.49951 -20.5,-24.5 -7.50098,-1.04346 -11.08496,17.48047 -16,17.5 -4.17676,-4.97949 -10.82617,-13.50049 -14,-11.5 -3.17383,2.00049 -5.66211,5.5 -10.83105,6.5 C 149,651 143.3125,634.00098 136.15625,635.00049 129,636 122.14746,660.5 115,661.5 107.85254,662.5 108.2832,630 100.1416,629 92,628 91.23193,666.47412 86.5,667 c -9,1 -6.04541,-32.55029 -16.5,-32 -9.5,0.5 -13.5,21 -18,21 -4.52783,0 -9.93213,-8.18652 -9.93213,-8.18652 l 0.06299,-150.47998 512.40918,-0.007 -9.8e-4,184.00733 c 0,0 -4.03125,-12.64698 -15.7539,-16.19141 -2.45508,-0.74268 0.53906,6.4751 -2.12403,5.66943 -1.43945,-0.43554 -6.33789,-25.87793 -7.81152,-26.32422 -2.5293,-0.76464 -7.67578,6.25801 -10.24512,5.48116 -3.76074,-1.13721 -2.79492,-6.07393 -6.41699,-7.17012 -2.04102,-0.61768 -5.78089,8.65421 -9.16078,9.64591 -3.76269,-1.13867 -6.65758,-6.65372 -9.73863,-7.58732 -1.51075,-0.45752 -5.25879,10.38702 -6.48243,10.01592 -5.05468,-1.53222 -2.67924,-5.77281 -8.02343,-6.57178 -5.25098,-0.10107 -7.25196,12.31397 -10.13086,9.25879 -3.65821,-3.87939 -4.72266,-24.15312 -8.82715,-18.58574 -10.33887,14.02588 -2.25195,20.63428 -0.5791,20.12158 -0.94824,0.29053 -5.19239,4.0918 -6.15723,3.96875 -4.01367,-0.51318 -6.74414,-36.63525 -10.21973,-39.76757 -5.21679,-4.69825 -7.9873,38.41015 -12.63671,43.06884 -8.65723,8.6709 -13.94434,-32.2583 -22.53516,-28.02685 -4.50879,2.22119 -6.45606,18.26465 -11.32129,18.66113 -5.63574,0.45898 -6.89355,-15.9917 -11.60547,-19.66162 -8.33105,-6.48731 -12.62012,27.66943 -24.24707,17.66016 -9.60254,-8.26514 -9.21387,-26.14502 -19.24805,-16.03516"
       style="fill:#99def9;fill-opacity:1;fill-rule:nonzero;stroke:#99def9;stroke-width:2;stroke-linecap:butt;stroke-linejoin:miter;stroke-miterlimit:4;stroke-opacity:1;stroke-dasharray:none"
       id="path14"
       inkscape:connector-curvature="0"
       sodipodi:nodetypes="csssssssccssssscssccccccccsccccccccccccccc" /><path
       d="m 556.76953,685.6665 c -0.003,-3.60205 -28.54492,-44.06494 -30.36133,-45.7622 -4.31738,-4.03516 -8.66113,-8.6333 -13.09082,-12.01563 -1.43652,-1.0957 -3.03222,-0.70801 -4.45996,-1.72363 -0.65918,-0.46875 -1.15527,-2.3252 -1.72265,-2.5874 -1.60059,-0.74219 -3.36231,2.37597 -4.79004,0.3164 -1.26368,-1.82129 -0.56836,-3.64404 -2.28028,-4.39209 -2.16797,-0.94726 -3.49121,4.04151 -4.94922,2.00782 -1.4414,-2.00977 -1.09765,-0.27295 -2.46386,-3.51319 -1.12012,-2.65674 -3.52735,2.4209 -5.03614,0.58155 -2.8623,-3.48633 -4.43457,-5.92383 -6.89453,-3.14063 -1.51953,-2.0415 -2.21484,-5.19775 -4.12597,-5.32471 -2.09668,-0.13867 -3.92774,2.33936 -5.62598,2.41114 -2.60059,0.10986 -3.64355,-1.69873 -5.93164,-4.54541 -3.14258,-3.90967 -5.4375,1.57617 -8.32031,0.9458 -3.09375,-5.42432 -7.68555,-2.92432 -9.28614,-1.60108 -1.9707,-4.82324 -1.61425,4.4917 -4.2666,4.67676 -1.65527,0.11572 -3.54687,2.96777 -5.10254,3 -1.61621,0.0332 -1.30566,-0.16064 -2.55078,-2 -0.94238,-1.39062 -5.86426,-3.25977 -7.14355,-4 -0.90528,-0.52344 -8.44824,-7.53271 -9.1836,-8 -1.72656,-1.09961 -23.76269,-24.36084 -25.50976,-26 -2.75586,-2.58594 -40.07617,-28.51855 -42.85742,-31 -19.41993,-17.3208 -51.02051,-37 -54.25196,-45.6665 l 260.0625,0.36035 c 0,0 0.14258,186.95849 0.14258,186.97265 z"
       style="fill:#f8a13f;fill-opacity:1;fill-rule:nonzero;stroke:none"
       id="path16" /><path
       d="m 555.66602,497.3335 -514.66602,0 0,214.66699 514.66602,0 0,-214.66699 z"
       style="fill:none;stroke:#231f20;stroke-opacity:1;stroke-width:2;stroke-linecap:butt;stroke-linejoin:miter;stroke-miterlimit:4;stroke-dasharray:none"
       id="path18" /><text
       transform="matrix(1,0,0,-1,398.77539,679.2666)"
       id="text20"><tspan
         style="font-size:18px;font-variant:normal;font-weight:normal;writing-mode:lr-tb;fill:#231f20;fill-opacity:1;fill-rule:nonzero;stroke:none;font-family:TimesNewRomanPSMT;-inkscape-font-specification:TimesNewRomanPSMT"
         sodipodi:role="line"
         id="tspan22"
         x="0"
         y="0">break point</tspan></text>
<path
       d="m 551,675 c -27,-22 -19.51733,-32.36282 -82,-35 -9.21134,-0.38878 -30.20455,1.98294 -41,2.6 -21.97407,1.25601 -118,2 -134.98047,2.77734 C 251.03662,647.29922 81.36133,646 41,646"
       style="fill:none;stroke:#176fc1;stroke-width:2;stroke-linecap:butt;stroke-linejoin:miter;stroke-miterlimit:2;stroke-opacity:1;stroke-dasharray:none;stroke-dashoffset:0"
       id="path24"
       inkscape:connector-curvature="0"
       sodipodi:nodetypes="csssc" /><path
       d="m 41,647 513,0"
       style="fill:none;stroke:#231f20;stroke-opacity:1;stroke-width:2;stroke-linecap:butt;stroke-linejoin:miter;stroke-miterlimit:2;stroke-dasharray:4,2,2;stroke-dashoffset:0"
       id="path26" /><text
       transform="matrix(1,0,0,-1,370.92969,651.43311)"
       id="text28"><tspan
         style="fill:#231f20;fill-opacity:1;fill-rule:nonzero;stroke:none;font-family:TimesNewRomanPSMT;font-variant:normal;font-weight:normal;font-size:18;writing-mode:lr;-inkscape-font-specification:TimesNewRomanPSMT"
         x="0 7.992 12.492 22.644 27.144"
         y="0"
         sodipodi:role="line"
         id="tspan30">z = 0</tspan></text>
<text
       transform="scale(1,-1)"
       id="text32"
       x="389.83884"
       y="-606.60846"><tspan
         style="font-size:18px;font-variant:normal;font-weight:normal;writing-mode:lr-tb;fill:#176fc1;fill-opacity:1;fill-rule:nonzero;stroke:none;font-family:TimesNewRomanPSMT;-inkscape-font-specification:TimesNewRomanPSMT"
         sodipodi:role="line"
         id="tspan34"
         x="389.83884"
         y="-606.60846">mean sea level</tspan></text>
<text
       transform="scale(1,-1)"
       id="text36"
       x="437.25998"
       y="-586.67383"><tspan
         style="font-size:18px;font-variant:normal;font-weight:normal;writing-mode:lr-tb;fill:#176fc1;fill-opacity:1;fill-rule:nonzero;stroke:none;font-family:TimesNewRomanPSMT;-inkscape-font-specification:TimesNewRomanPSMT"
         x="437.25998 445.25198 449.75198 459.90399"
         y="-586.67383"
         sodipodi:role="line"
         id="tspan38">z = <tspan
   style="font-family:Symbol;-inkscape-font-specification:Symbol"
   id="tspan3805" /></tspan></text>
<path
       d="m 464.82443,601.91406 10,0"
       style="fill:#176fc1;fill-opacity:1;fill-rule:nonzero;stroke:#176fc1;stroke-width:2;stroke-linecap:butt;stroke-linejoin:miter;stroke-miterlimit:4;stroke-opacity:1;stroke-dasharray:none"
       id="path40"
       inkscape:connector-curvature="0" /><path
       d="M 41.5,651.5 C 44.68164,651.03027 85.1792,641.13916 94.23682,641.09961 117,641 144.64551,651.20313 162.75,651.10938 184,651 212,640 229.58545,639.89063 253.07568,639.74463 281,650 315.49902,651.38721 334.15918,652.1377 397,634 422.88672,633.38721 c 17.79687,-0.42139 46.41504,23.90869 62.96191,18.36474 C 506,645 520.29297,643.9929 538.5,653.5"
       style="fill:none;stroke:#ed1c24;stroke-width:2;stroke-linecap:butt;stroke-linejoin:miter;stroke-miterlimit:2;stroke-opacity:1;stroke-dasharray:none"
       id="path42"
       inkscape:connector-curvature="0"
       sodipodi:nodetypes="cscssscc" /><text
       transform="matrix(1,0,0,-1,113.52051,609.00977)"
       id="text44"><tspan
         style="font-size:18px;font-variant:normal;font-weight:normal;writing-mode:lr-tb;fill:#ed1c24;fill-opacity:1;fill-rule:nonzero;stroke:none;font-family:TimesNewRomanPSMT;-inkscape-font-specification:TimesNewRomanPSMT"
         sodipodi:role="line"
         id="tspan46"
         x="0"
         y="0">bound long wave</tspan></text>
<path
       d="m 149,637.75 33,0 -3,8 20,-12 -20.5,-10.5 3.3877,7.9668 L 149.5,631.25"
       style="fill:#ed1c24;fill-opacity:1;fill-rule:nonzero;stroke:none"
       id="path48" /><text
       transform="matrix(1,0,0,-1,52.21094,594.271)"
       id="text50"><tspan
         style="font-size:18px;font-variant:normal;font-weight:normal;writing-mode:lr-tb;fill:#ed1c24;fill-opacity:1;fill-rule:nonzero;stroke:none;font-family:TimesNewRomanPSMT;-inkscape-font-specification:TimesNewRomanPSMT"
         sodipodi:role="line"
         id="tspan52"
         x="0"
         y="0">propagation speed = group speed</tspan></text>
<text
       transform="matrix(1,0,0,-1,169.66016,679.00977)"
       id="text54"><tspan
         style="font-size:18px;font-variant:normal;font-weight:bold;writing-mode:lr-tb;fill:#33bdf2;fill-opacity:1;fill-rule:nonzero;stroke:none;font-family:Sans;-inkscape-font-specification:Sans"
         sodipodi:role="line"
         id="tspan56"
         x="0"
         y="0">wave group</tspan></text>
<text
       transform="scale(1,-1)"
       id="text58"
       x="193.28125"
       y="-505"><tspan
         style="font-size:14px;font-variant:normal;font-weight:normal;writing-mode:lr-tb;fill:#231f20;fill-opacity:1;fill-rule:nonzero;stroke:none;font-family:TimesNewRomanPSMT;-inkscape-font-specification:TimesNewRomanPSMT"
         sodipodi:role="line"
         id="tspan60"
         x="193.28125"
         y="-505">Nota bene: vertical scale is strongly exaggerated</tspan></text>
<path
       style="fill:none;stroke:#007ae1;stroke-width:2;stroke-linecap:butt;stroke-linejoin:miter;stroke-opacity:1;stroke-miterlimit:4;stroke-dasharray:none"
       d="m 464.50902,597.21493 c 8.08778,0 12.78392,3.65256 8.08778,0 -4.69614,-3.65254 -7.82689,-5.21792 -7.3051,-7.82688 0.5218,-2.60896 3.39166,-2.60896 6.78331,-1.82628 3.39165,0.78269 1.30448,-2.60896 1.30448,-2.60896 l 0,0"
       id="path3818"
       inkscape:connector-curvature="0" /></g></svg>