<?xml version="1.0" encoding="UTF-8" standalone="no"?>
<!-- Created with Inkscape (http://www.inkscape.org/) -->

<svg
   xmlns:dc="http://purl.org/dc/elements/1.1/"
   xmlns:cc="http://creativecommons.org/ns#"
   xmlns:rdf="http://www.w3.org/1999/02/22-rdf-syntax-ns#"
   xmlns:svg="http://www.w3.org/2000/svg"
   xmlns="http://www.w3.org/2000/svg"
   xmlns:sodipodi="http://sodipodi.sourceforge.net/DTD/sodipodi-0.dtd"
   xmlns:inkscape="http://www.inkscape.org/namespaces/inkscape"
   id="svg2"
   version="1.1"
   inkscape:version="0.48.4 r9939"
   width="458.37082"
   height="322.32123"
   xml:space="preserve"
   sodipodi:docname="surfer_en.pdf"><metadata
     id="metadata8"><rdf:RDF><cc:Work
         rdf:about=""><dc:format>image/svg+xml</dc:format><dc:type
           rdf:resource="http://purl.org/dc/dcmitype/StillImage" /><dc:title></dc:title></cc:Work></rdf:RDF></metadata><defs
     id="defs6"><clipPath
       clipPathUnits="userSpaceOnUse"
       id="clipPath16"><path
         d="m 111,203.66602 373.41699,0 0,431.33398 L 111,635 111,203.66602 z"
         id="path18"
         inkscape:connector-curvature="0" /></clipPath><clipPath
       clipPathUnits="userSpaceOnUse"
       id="clipPath86"><path
         d="m 146.5835,562.58301 325.49951,0 0,62.83349 -325.49951,0 0,-62.83349 z"
         id="path88"
         inkscape:connector-curvature="0" /></clipPath><clipPath
       clipPathUnits="userSpaceOnUse"
       id="clipPath170"><path
         d="m 146.5835,479.6665 325.49951,0 0,62.8335 -325.49951,0 0,-62.8335 z"
         id="path172"
         inkscape:connector-curvature="0" /></clipPath><clipPath
       clipPathUnits="userSpaceOnUse"
       id="clipPath252"><path
         d="m 146.5835,396.83398 325.49951,0 0,62.83252 -325.49951,0 0,-62.83252 z"
         id="path254"
         inkscape:connector-curvature="0" /></clipPath><clipPath
       clipPathUnits="userSpaceOnUse"
       id="clipPath326"><path
         d="m 146.5835,313.91602 325.49951,0 0,62.83398 -325.49951,0 0,-62.83398 z"
         id="path328"
         inkscape:connector-curvature="0" /></clipPath><clipPath
       clipPathUnits="userSpaceOnUse"
       id="clipPath400"><path
         d="m 146.5835,231.08398 325.49951,0 0,62.75 -325.49951,0 0,-62.75 z"
         id="path402"
         inkscape:connector-curvature="0" /></clipPath></defs><sodipodi:namedview
     pagecolor="#ffffff"
     bordercolor="#666666"
     borderopacity="1"
     objecttolerance="10"
     gridtolerance="10"
     guidetolerance="10"
     inkscape:pageopacity="0"
     inkscape:pageshadow="2"
     inkscape:window-width="1142"
     inkscape:window-height="924"
     id="namedview4"
     showgrid="false"
     inkscape:zoom="0.86646939"
     inkscape:cx="437.74193"
     inkscape:cy="129.78685"
     inkscape:window-x="65"
     inkscape:window-y="24"
     inkscape:window-maximized="0"
     inkscape:current-layer="g10"
     fit-margin-top="0"
     fit-margin-left="0"
     fit-margin-right="0"
     fit-margin-bottom="0" /><g
     id="g10"
     inkscape:groupmode="layer"
     inkscape:label="surfer"
     transform="matrix(1.25,0,0,-1.25,-141.16074,786.46484)"><path
       d="m 146.5835,562.6665 0,62.75 325.4165,0 0,-62.75 -325.4165,0 z"
       style="fill:#ffffff;fill-opacity:1;fill-rule:evenodd;stroke:none"
       id="path22"
       inkscape:connector-curvature="0" /><path
       d="m 146.5835,562.6665 0,62.75 325.4165,0 0,-62.75 -325.4165,0"
       style="fill:none;stroke:#ffffff;stroke-width:0.5;stroke-linecap:butt;stroke-linejoin:round;stroke-miterlimit:10;stroke-opacity:1;stroke-dasharray:none"
       id="path24"
       inkscape:connector-curvature="0" /><path
       d="m 146.5835,625.4165 325.4165,0 m -325.4165,-62.75 325.4165,0 m 0,0 0,62.75 m -325.4165,-62.75 0,62.75 m 0,-62.75 325.4165,0 m -325.4165,0 0,62.75 m 0,-62.75 0,3.3335 m 0,59.4165 0,-3.25"
       style="fill:none;stroke:#000000;stroke-width:0.5;stroke-linecap:butt;stroke-linejoin:round;stroke-miterlimit:10;stroke-opacity:1;stroke-dasharray:none"
       id="path26"
       inkscape:connector-curvature="0" /><text
       transform="matrix(1,0,0,-1,143.8335,550.58301)"
       id="text28"><tspan
         style="font-size:10px;font-variant:normal;font-weight:normal;writing-mode:lr-tb;fill:#000000;fill-opacity:1;fill-rule:nonzero;stroke:none;font-family:Myriad;-inkscape-font-specification:Myriad-Roman"
         x="0"
         y="0"
         id="tspan30">0</tspan></text>
<path
       d="m 211.6665,562.6665 0,3.3335 m 0,59.4165 0,-3.25"
       style="fill:none;stroke:#000000;stroke-width:0.5;stroke-linecap:butt;stroke-linejoin:round;stroke-miterlimit:10;stroke-opacity:1;stroke-dasharray:none"
       id="path32"
       inkscape:connector-curvature="0" /><text
       transform="matrix(1,0,0,-1,203.3335,550.58301)"
       id="text34"><tspan
         style="font-size:10px;font-variant:normal;font-weight:normal;writing-mode:lr-tb;fill:#000000;fill-opacity:1;fill-rule:nonzero;stroke:none;font-family:Myriad;-inkscape-font-specification:Myriad-Roman"
         x="0 5.1300001 10.26"
         y="0"
         sodipodi:role="line"
         id="tspan36">100</tspan></text>
<path
       d="m 276.75,562.6665 0,3.3335 m 0,59.4165 0,-3.25"
       style="fill:none;stroke:#000000;stroke-width:0.5;stroke-linecap:butt;stroke-linejoin:round;stroke-miterlimit:10;stroke-opacity:1;stroke-dasharray:none"
       id="path38"
       inkscape:connector-curvature="0" /><text
       transform="matrix(1,0,0,-1,268.4165,550.58301)"
       id="text40"><tspan
         style="font-size:10px;font-variant:normal;font-weight:normal;writing-mode:lr-tb;fill:#000000;fill-opacity:1;fill-rule:nonzero;stroke:none;font-family:Myriad;-inkscape-font-specification:Myriad-Roman"
         x="0 5.1300001 10.26"
         y="0"
         sodipodi:role="line"
         id="tspan42">200</tspan></text>
<path
       d="m 341.83301,562.6665 0,3.3335 m 0,59.4165 0,-3.25"
       style="fill:none;stroke:#000000;stroke-width:0.5;stroke-linecap:butt;stroke-linejoin:round;stroke-miterlimit:10;stroke-opacity:1;stroke-dasharray:none"
       id="path44"
       inkscape:connector-curvature="0" /><text
       transform="matrix(1,0,0,-1,333.5,550.58301)"
       id="text46"><tspan
         style="font-size:10px;font-variant:normal;font-weight:normal;writing-mode:lr-tb;fill:#000000;fill-opacity:1;fill-rule:nonzero;stroke:none;font-family:Myriad;-inkscape-font-specification:Myriad-Roman"
         x="0 5.1300001 10.26"
         y="0"
         sodipodi:role="line"
         id="tspan48">300</tspan></text>
<path
       d="m 406.91699,562.6665 0,3.3335 m 0,59.4165 0,-3.25"
       style="fill:none;stroke:#000000;stroke-width:0.5;stroke-linecap:butt;stroke-linejoin:round;stroke-miterlimit:10;stroke-opacity:1;stroke-dasharray:none"
       id="path50"
       inkscape:connector-curvature="0" /><text
       transform="matrix(1,0,0,-1,398.58301,550.58301)"
       id="text52"><tspan
         style="font-size:10px;font-variant:normal;font-weight:normal;writing-mode:lr-tb;fill:#000000;fill-opacity:1;fill-rule:nonzero;stroke:none;font-family:Myriad;-inkscape-font-specification:Myriad-Roman"
         x="0 5.1300001 10.26"
         y="0"
         sodipodi:role="line"
         id="tspan54">400</tspan></text>
<path
       d="M 472,562.6665 472,566 m 0,59.4165 0,-3.25"
       style="fill:none;stroke:#000000;stroke-width:0.5;stroke-linecap:butt;stroke-linejoin:round;stroke-miterlimit:10;stroke-opacity:1;stroke-dasharray:none"
       id="path56"
       inkscape:connector-curvature="0" /><text
       transform="matrix(1,0,0,-1,463.66699,550.58301)"
       id="text58"><tspan
         style="font-size:10px;font-variant:normal;font-weight:normal;writing-mode:lr-tb;fill:#000000;fill-opacity:1;fill-rule:nonzero;stroke:none;font-family:Myriad;-inkscape-font-specification:Myriad-Roman"
         x="0 5.1300001 10.26"
         y="0"
         sodipodi:role="line"
         id="tspan60">500</tspan></text>
<path
       d="m 146.5835,562.6665 3.25,0 m 322.1665,0 -3.33301,0"
       style="fill:none;stroke:#000000;stroke-width:0.5;stroke-linecap:butt;stroke-linejoin:round;stroke-miterlimit:10;stroke-opacity:1;stroke-dasharray:none"
       id="path62"
       inkscape:connector-curvature="0" /><text
       transform="matrix(1,0,0,-1,126.75,559)"
       id="text64"><tspan
         style="font-size:10px;font-variant:normal;font-weight:normal;writing-mode:lr-tb;fill:#000000;fill-opacity:1;fill-rule:nonzero;stroke:none;font-family:Myriad;-inkscape-font-specification:Myriad-Roman"
         x="0 5.1300001"
         y="0"
         sodipodi:role="line"
         id="tspan66">20</tspan></text>
<path
       d="m 146.5835,594.08301 3.25,0 m 322.1665,0 -3.33301,0"
       style="fill:none;stroke:#000000;stroke-width:0.5;stroke-linecap:butt;stroke-linejoin:round;stroke-miterlimit:10;stroke-opacity:1;stroke-dasharray:none"
       id="path68"
       inkscape:connector-curvature="0" /><text
       transform="matrix(1,0,0,-1,126.75,590.4165)"
       id="text70"><tspan
         style="font-size:10px;font-variant:normal;font-weight:normal;writing-mode:lr-tb;fill:#000000;fill-opacity:1;fill-rule:nonzero;stroke:none;font-family:Myriad;-inkscape-font-specification:Myriad-Roman"
         x="0 5.1300001"
         y="0"
         sodipodi:role="line"
         id="tspan72">10</tspan></text>
<path
       d="m 146.5835,625.4165 3.25,0 m 322.1665,0 -3.33301,0"
       style="fill:none;stroke:#000000;stroke-width:0.5;stroke-linecap:butt;stroke-linejoin:round;stroke-miterlimit:10;stroke-opacity:1;stroke-dasharray:none"
       id="path74"
       inkscape:connector-curvature="0" /><text
       transform="matrix(1,0,0,-1,138.1665,621.75)"
       id="text76"><tspan
         style="font-size:10px;font-variant:normal;font-weight:normal;writing-mode:lr-tb;fill:#000000;fill-opacity:1;fill-rule:nonzero;stroke:none;font-family:Myriad;-inkscape-font-specification:Myriad-Roman"
         x="0"
         y="0"
         id="tspan78">0</tspan></text>
<path
       d="m 146.5835,625.4165 325.4165,0 m -325.4165,-62.75 325.4165,0 m 0,0 0,62.75 m -325.4165,-62.75 0,62.75"
       style="fill:none;stroke:#000000;stroke-width:0.5;stroke-linecap:butt;stroke-linejoin:round;stroke-miterlimit:10;stroke-opacity:1;stroke-dasharray:none"
       id="path80"
       inkscape:connector-curvature="0" /><g
       id="g82"><g
         id="g84"
         clip-path="url(#clipPath86)"><path
           d="m 149.8335,563.33301 3.25,0.66699 3.25,0.58301 3.25,0.66699 3.25,0.6665 3.25,0.5835 3.25,0.6665 3.25,0.5835 3.25,0.6665 3.25,0.66651 3.25,0.58349 3.25,0.66651 3.25,0.58349 3.25,0.66651 3.25,0.66699 3.25,0.58301 3.25,0.66699 3.25,0.58301 3.25,0.66699 3.333,0.6665 3.25,0.5835 3.25,0.6665 3.25,0.5835 3.25,0.6665 3.25,0.66651 3.25,0.58349 3.25,0.66651 3.25,0.58349 3.25,0.66651 3.25,0.66699 3.25,0.58301 3.25,0.6665 3.25,0.66699 3.25,0.58301 3.25,0.66699 3.25,0.66651 3.25,0.6665 3.25,0.66699 3.25,0.66651 3.3335,0.75 3.25,0.75 3.25,0.75 3.25,0.83349 3.25,0.91651 3.25,1 3.25,1 3.25,1.1665 3.25,1.16699 3.25,1.33301 3.25,1.3335 3.25,1.4165 3.25,1.41699 3.25,1.41651 3.25,1.4165 3.25,1.3335 3.25,1.25 3.25,1.08349 3.25,0.83301 3.25,0.75 3.33301,0.5835 3.25,0.33349 3.25,0.16651 3.25,0.0835 3.25,-0.0835 3.25,-0.0835 3.25,-0.1665 3.25,-0.16651 3.25,-0.16699 3.25,-0.083 3.25,0 3.25,0 3.25,0.16651 3.25,0.25 3.25,0.25 3.25,0.4165 3.25,0.41699 3.25,0.5 3.25,0.5 3.25,0.5 3.33398,0.58301 3.25,0.5835 3.25,0.6665 3.25,0.5835 3.25,0.6665 3.25,0.5835 3.25,0.6665 3.25,0.5835 3.25,0.6665 3.25,0.5835 3.25,0.6665 3.25,0.66699 3.25,0.58301 3.25,0.66699 3.25,0.58301 3.25,0.66699 3.25,0.66651 3.25,0.58349"
           style="fill:none;stroke:#000000;stroke-width:2;stroke-linecap:butt;stroke-linejoin:round;stroke-miterlimit:10;stroke-opacity:1;stroke-dasharray:none"
           id="path90"
           inkscape:connector-curvature="0" /></g></g><text
       transform="matrix(0,1,1,0,122.1665,557.4165)"
       id="text92"><tspan
         style="font-size:12px;font-variant:normal;font-weight:normal;writing-mode:lr-tb;fill:#000000;fill-opacity:1;fill-rule:nonzero;stroke:none;font-family:Myriad;-inkscape-font-specification:Myriad-Roman"
         sodipodi:role="line"
         id="tspan94"
         x="0"
         y="0">Depth (m)</tspan></text>
<path
       d="m 146.5835,479.75 0,62.75 325.4165,0 0,-62.75 -325.4165,0 z"
       style="fill:#ffffff;fill-opacity:1;fill-rule:evenodd;stroke:none"
       id="path100"
       inkscape:connector-curvature="0" /><path
       d="m 146.5835,479.75 0,62.75 325.4165,0 0,-62.75 -325.4165,0"
       style="fill:none;stroke:#ffffff;stroke-width:0.5;stroke-linecap:butt;stroke-linejoin:round;stroke-miterlimit:10;stroke-opacity:1;stroke-dasharray:none"
       id="path102"
       inkscape:connector-curvature="0" /><path
       d="M 146.5835,542.5 472,542.5 M 146.5835,479.75 472,479.75 m 0,0 0,62.75 m -325.4165,-62.75 0,62.75 m 0,-62.75 325.4165,0 m -325.4165,0 0,62.75 m 0,-62.75 0,3.33301 m 0,59.41699 0,-3.25"
       style="fill:none;stroke:#000000;stroke-width:0.5;stroke-linecap:butt;stroke-linejoin:round;stroke-miterlimit:10;stroke-opacity:1;stroke-dasharray:none"
       id="path104"
       inkscape:connector-curvature="0" /><text
       transform="matrix(1,0,0,-1,143.8335,467.6665)"
       id="text106"><tspan
         style="font-size:10px;font-variant:normal;font-weight:normal;writing-mode:lr-tb;fill:#000000;fill-opacity:1;fill-rule:nonzero;stroke:none;font-family:Myriad;-inkscape-font-specification:Myriad-Roman"
         x="0"
         y="0"
         id="tspan108">0</tspan></text>
<path
       d="m 211.6665,479.75 0,3.33301 m 0,59.41699 0,-3.25"
       style="fill:none;stroke:#000000;stroke-width:0.5;stroke-linecap:butt;stroke-linejoin:round;stroke-miterlimit:10;stroke-opacity:1;stroke-dasharray:none"
       id="path110"
       inkscape:connector-curvature="0" /><text
       transform="matrix(1,0,0,-1,203.3335,467.6665)"
       id="text112"><tspan
         style="font-size:10px;font-variant:normal;font-weight:normal;writing-mode:lr-tb;fill:#000000;fill-opacity:1;fill-rule:nonzero;stroke:none;font-family:Myriad;-inkscape-font-specification:Myriad-Roman"
         x="0 5.1300001 10.26"
         y="0"
         sodipodi:role="line"
         id="tspan114">100</tspan></text>
<path
       d="m 276.75,479.75 0,3.33301 m 0,59.41699 0,-3.25"
       style="fill:none;stroke:#000000;stroke-width:0.5;stroke-linecap:butt;stroke-linejoin:round;stroke-miterlimit:10;stroke-opacity:1;stroke-dasharray:none"
       id="path116"
       inkscape:connector-curvature="0" /><text
       transform="matrix(1,0,0,-1,268.4165,467.6665)"
       id="text118"><tspan
         style="font-size:10px;font-variant:normal;font-weight:normal;writing-mode:lr-tb;fill:#000000;fill-opacity:1;fill-rule:nonzero;stroke:none;font-family:Myriad;-inkscape-font-specification:Myriad-Roman"
         x="0 5.1300001 10.26"
         y="0"
         sodipodi:role="line"
         id="tspan120">200</tspan></text>
<path
       d="m 341.83301,479.75 0,3.33301 m 0,59.41699 0,-3.25"
       style="fill:none;stroke:#000000;stroke-width:0.5;stroke-linecap:butt;stroke-linejoin:round;stroke-miterlimit:10;stroke-opacity:1;stroke-dasharray:none"
       id="path122"
       inkscape:connector-curvature="0" /><text
       transform="matrix(1,0,0,-1,333.5,467.6665)"
       id="text124"><tspan
         style="font-size:10px;font-variant:normal;font-weight:normal;writing-mode:lr-tb;fill:#000000;fill-opacity:1;fill-rule:nonzero;stroke:none;font-family:Myriad;-inkscape-font-specification:Myriad-Roman"
         x="0 5.1300001 10.26"
         y="0"
         sodipodi:role="line"
         id="tspan126">300</tspan></text>
<path
       d="m 406.91699,479.75 0,3.33301 m 0,59.41699 0,-3.25"
       style="fill:none;stroke:#000000;stroke-width:0.5;stroke-linecap:butt;stroke-linejoin:round;stroke-miterlimit:10;stroke-opacity:1;stroke-dasharray:none"
       id="path128"
       inkscape:connector-curvature="0" /><text
       transform="matrix(1,0,0,-1,398.58301,467.6665)"
       id="text130"><tspan
         style="font-size:10px;font-variant:normal;font-weight:normal;writing-mode:lr-tb;fill:#000000;fill-opacity:1;fill-rule:nonzero;stroke:none;font-family:Myriad;-inkscape-font-specification:Myriad-Roman"
         x="0 5.1300001 10.26"
         y="0"
         sodipodi:role="line"
         id="tspan132">400</tspan></text>
<path
       d="m 472,479.75 0,3.33301 m 0,59.41699 0,-3.25"
       style="fill:none;stroke:#000000;stroke-width:0.5;stroke-linecap:butt;stroke-linejoin:round;stroke-miterlimit:10;stroke-opacity:1;stroke-dasharray:none"
       id="path134"
       inkscape:connector-curvature="0" /><text
       transform="matrix(1,0,0,-1,463.66699,467.6665)"
       id="text136"><tspan
         style="font-size:10px;font-variant:normal;font-weight:normal;writing-mode:lr-tb;fill:#000000;fill-opacity:1;fill-rule:nonzero;stroke:none;font-family:Myriad;-inkscape-font-specification:Myriad-Roman"
         x="0 5.1300001 10.26"
         y="0"
         sodipodi:role="line"
         id="tspan138">500</tspan></text>
<path
       d="m 146.5835,479.75 3.25,0 m 322.1665,0 -3.33301,0"
       style="fill:none;stroke:#000000;stroke-width:0.5;stroke-linecap:butt;stroke-linejoin:round;stroke-miterlimit:10;stroke-opacity:1;stroke-dasharray:none"
       id="path140"
       inkscape:connector-curvature="0" /><text
       transform="matrix(1,0,0,-1,138.1665,476.08301)"
       id="text142"><tspan
         style="font-size:10px;font-variant:normal;font-weight:normal;writing-mode:lr-tb;fill:#000000;fill-opacity:1;fill-rule:nonzero;stroke:none;font-family:Myriad;-inkscape-font-specification:Myriad-Roman"
         x="0"
         y="0"
         id="tspan144">0</tspan></text>
<path
       d="m 146.5835,500.6665 3.25,0 m 322.1665,0 -3.33301,0"
       style="fill:none;stroke:#000000;stroke-width:0.5;stroke-linecap:butt;stroke-linejoin:round;stroke-miterlimit:10;stroke-opacity:1;stroke-dasharray:none"
       id="path146"
       inkscape:connector-curvature="0" /><text
       transform="matrix(1,0,0,-1,138.1665,497)"
       id="text148"><tspan
         style="font-size:10px;font-variant:normal;font-weight:normal;writing-mode:lr-tb;fill:#000000;fill-opacity:1;fill-rule:nonzero;stroke:none;font-family:Myriad;-inkscape-font-specification:Myriad-Roman"
         x="0"
         y="0"
         id="tspan150">1</tspan></text>
<path
       d="m 146.5835,521.58301 3.25,0 m 322.1665,0 -3.33301,0"
       style="fill:none;stroke:#000000;stroke-width:0.5;stroke-linecap:butt;stroke-linejoin:round;stroke-miterlimit:10;stroke-opacity:1;stroke-dasharray:none"
       id="path152"
       inkscape:connector-curvature="0" /><text
       transform="matrix(1,0,0,-1,138.1665,517.9165)"
       id="text154"><tspan
         style="font-size:10px;font-variant:normal;font-weight:normal;writing-mode:lr-tb;fill:#000000;fill-opacity:1;fill-rule:nonzero;stroke:none;font-family:Myriad;-inkscape-font-specification:Myriad-Roman"
         x="0"
         y="0"
         id="tspan156">2</tspan></text>
<path
       d="m 146.5835,542.5 3.25,0 m 322.1665,0 -3.33301,0"
       style="fill:none;stroke:#000000;stroke-width:0.5;stroke-linecap:butt;stroke-linejoin:round;stroke-miterlimit:10;stroke-opacity:1;stroke-dasharray:none"
       id="path158"
       inkscape:connector-curvature="0" /><text
       transform="matrix(1,0,0,-1,138.1665,538.83301)"
       id="text160"><tspan
         style="font-size:10px;font-variant:normal;font-weight:normal;writing-mode:lr-tb;fill:#000000;fill-opacity:1;fill-rule:nonzero;stroke:none;font-family:Myriad;-inkscape-font-specification:Myriad-Roman"
         x="0"
         y="0"
         id="tspan162">3</tspan></text>
<path
       d="M 146.5835,542.5 472,542.5 M 146.5835,479.75 472,479.75 m 0,0 0,62.75 m -325.4165,-62.75 0,62.75"
       style="fill:none;stroke:#000000;stroke-width:0.5;stroke-linecap:butt;stroke-linejoin:round;stroke-miterlimit:10;stroke-opacity:1;stroke-dasharray:none"
       id="path164"
       inkscape:connector-curvature="0" /><g
       id="g166"><g
         id="g168"
         clip-path="url(#clipPath170)"><path
           d="m 149.8335,521.6665 3.25,0 3.25,0.0835 3.25,0 3.25,0.083 3.25,0 3.25,0.0835 3.25,0 3.25,0.0835 3.25,0 3.25,0.083 3.25,0 3.25,0.0835 3.25,0 3.25,0.0835 3.25,0.083 3.25,0 3.25,0.0835 3.25,0.0835 3.333,0 3.25,0.083 3.25,0.0835 3.25,0.0835 3.25,0.083 3.25,0 3.25,0.0835 3.25,0.0835 3.25,0.0835 3.25,0.083 3.25,0.0835 3.25,0.0835 3.25,0.083 3.25,0.0835 3.25,0.0835 3.25,0.083 3.25,0.0835 3.25,0.0835 3.25,0.1665 3.25,0.0835 3.3335,0.083 3.25,0.167 3.25,0.1665 3.25,0.1665 3.25,0.167 3.25,0.1665 3.25,0.25 3.25,0.25 3.25,0.25 3.25,0.3335 3.25,0.4165 3.25,0.4165 3.25,0.417 3.25,0.5 3.25,0.5 3.25,0.4165 3.25,0.4165 3.25,0.25 3.25,0.0835 3.25,-0.0835 3.33301,-0.4165 3.25,-0.5 3.25,-0.6665 3.25,-0.75 3.25,-0.667 3.25,-0.75 3.25,-0.583 3.25,-0.5835 3.25,-0.5 3.25,-0.4165 3.25,-0.3335 3.25,-0.3335 3.25,-0.25 3.25,-0.1665 3.25,-0.25 3.25,-0.1665 3.25,-0.167 3.25,-0.25 3.25,-0.25 3.25,-0.333 3.33398,-0.5 3.25,-0.5835 3.25,-0.8335 3.25,-1 3.25,-1.25 3.25,-1.5 3.25,-1.6665 3.25,-2 3.25,-2.0835 3.25,-2.25 3.25,-2.333 3.25,-2.5 3.25,-2.5 3.25,-2.5835 3.25,-2.6665 3.25,-2.75 3.25,-2.75 3.25,-2.3335"
           style="fill:none;stroke:#000000;stroke-width:2;stroke-linecap:butt;stroke-linejoin:round;stroke-miterlimit:10;stroke-opacity:1;stroke-dasharray:none"
           id="path174"
           inkscape:connector-curvature="0" /></g></g><text
       transform="matrix(0,1,1,0,0,0)"
       id="text176"
       x="494.9165"
       y="128.78349"><tspan
         style="font-size:12px;font-variant:normal;font-weight:normal;writing-mode:lr-tb;fill:#000000;fill-opacity:1;fill-rule:nonzero;stroke:none;font-family:Myriad;-inkscape-font-specification:Myriad-Roman"
         x="494.9165"
         y="128.78349"
         id="tspan178">H</tspan></text>
<text
       transform="matrix(0,1,1,0,0,0)"
       id="text180"
       x="503.5"
       y="134.78349"><tspan
         style="font-size:9px;font-variant:normal;font-weight:normal;writing-mode:lr-tb;fill:#000000;fill-opacity:1;fill-rule:nonzero;stroke:none;font-family:Myriad;-inkscape-font-specification:Myriad-Roman"
         x="503.5"
         y="134.78349"
         id="tspan182">s</tspan></text>
<text
       transform="matrix(0,1,1,0,0,0)"
       id="text184"
       x="509.54401"
       y="128.78349"><tspan
         style="font-size:12px;font-variant:normal;font-weight:normal;writing-mode:lr-tb;fill:#000000;fill-opacity:1;fill-rule:nonzero;stroke:none;font-family:Myriad;-inkscape-font-specification:Myriad-Roman"
         x="509.54401 512.95203 522.96002"
         y="128.78349"
         sodipodi:role="line"
         id="tspan186">(m)</tspan></text>
<path
       d="m 146.5835,399.16602 0,62.66796 325.4165,0 0,-62.66796 -325.4165,0 z"
       style="fill:#ffffff;fill-opacity:1;fill-rule:evenodd;stroke:none"
       id="path336"
       inkscape:connector-curvature="0" /><path
       d="m 146.5835,399.16602 0,62.66796 325.4165,0 0,-62.66796 -325.4165,0"
       style="fill:none;stroke:#ffffff;stroke-width:0.5;stroke-linecap:butt;stroke-linejoin:round;stroke-miterlimit:10;stroke-opacity:1;stroke-dasharray:none"
       id="path338"
       inkscape:connector-curvature="0" /><path
       d="m 146.5835,461.83398 325.4165,0 m -325.4165,-62.66796 325.4165,0 m 0,0 0,62.66796 m -325.4165,-62.66796 0,62.66796 m 0,-62.66796 325.4165,0 m -325.4165,0 0,62.66796 m 0,-62.66796 0,3.33398 m 0,59.33398 0,-3.25"
       style="fill:none;stroke:#000000;stroke-width:0.5;stroke-linecap:butt;stroke-linejoin:round;stroke-miterlimit:10;stroke-opacity:1;stroke-dasharray:none"
       id="path340"
       inkscape:connector-curvature="0" /><text
       transform="scale(1,-1)"
       id="text342"
       x="143.8335"
       y="-387.08401"><tspan
         style="font-size:10px;font-variant:normal;font-weight:normal;writing-mode:lr-tb;fill:#000000;fill-opacity:1;fill-rule:nonzero;stroke:none;font-family:Myriad;-inkscape-font-specification:Myriad-Roman"
         x="143.8335"
         y="-387.08401"
         id="tspan344">0</tspan></text>
<path
       d="m 211.6665,399.16602 0,3.33398 m 0,59.33398 0,-3.25"
       style="fill:none;stroke:#000000;stroke-width:0.5;stroke-linecap:butt;stroke-linejoin:round;stroke-miterlimit:10;stroke-opacity:1;stroke-dasharray:none"
       id="path346"
       inkscape:connector-curvature="0" /><text
       transform="scale(1,-1)"
       id="text348"
       x="203.3335"
       y="-387.08401"><tspan
         style="font-size:10px;font-variant:normal;font-weight:normal;writing-mode:lr-tb;fill:#000000;fill-opacity:1;fill-rule:nonzero;stroke:none;font-family:Myriad;-inkscape-font-specification:Myriad-Roman"
         x="203.3335 208.4635 213.59351"
         y="-387.08401"
         sodipodi:role="line"
         id="tspan350">100</tspan></text>
<path
       d="m 276.75,399.16602 0,3.33398 m 0,59.33398 0,-3.25"
       style="fill:none;stroke:#000000;stroke-width:0.5;stroke-linecap:butt;stroke-linejoin:round;stroke-miterlimit:10;stroke-opacity:1;stroke-dasharray:none"
       id="path352"
       inkscape:connector-curvature="0" /><text
       transform="scale(1,-1)"
       id="text354"
       x="268.4165"
       y="-387.08401"><tspan
         style="font-size:10px;font-variant:normal;font-weight:normal;writing-mode:lr-tb;fill:#000000;fill-opacity:1;fill-rule:nonzero;stroke:none;font-family:Myriad;-inkscape-font-specification:Myriad-Roman"
         x="268.4165 273.54651 278.67651"
         y="-387.08401"
         sodipodi:role="line"
         id="tspan356">200</tspan></text>
<path
       d="m 341.83301,399.16602 0,3.33398 m 0,59.33398 0,-3.25"
       style="fill:none;stroke:#000000;stroke-width:0.5;stroke-linecap:butt;stroke-linejoin:round;stroke-miterlimit:10;stroke-opacity:1;stroke-dasharray:none"
       id="path358"
       inkscape:connector-curvature="0" /><text
       transform="scale(1,-1)"
       id="text360"
       x="333.5"
       y="-387.08401"><tspan
         style="font-size:10px;font-variant:normal;font-weight:normal;writing-mode:lr-tb;fill:#000000;fill-opacity:1;fill-rule:nonzero;stroke:none;font-family:Myriad;-inkscape-font-specification:Myriad-Roman"
         x="333.5 338.63 343.76001"
         y="-387.08401"
         sodipodi:role="line"
         id="tspan362">300</tspan></text>
<path
       d="m 406.91699,399.16602 0,3.33398 m 0,59.33398 0,-3.25"
       style="fill:none;stroke:#000000;stroke-width:0.5;stroke-linecap:butt;stroke-linejoin:round;stroke-miterlimit:10;stroke-opacity:1;stroke-dasharray:none"
       id="path364"
       inkscape:connector-curvature="0" /><text
       transform="scale(1,-1)"
       id="text366"
       x="398.58301"
       y="-387.08401"><tspan
         style="font-size:10px;font-variant:normal;font-weight:normal;writing-mode:lr-tb;fill:#000000;fill-opacity:1;fill-rule:nonzero;stroke:none;font-family:Myriad;-inkscape-font-specification:Myriad-Roman"
         x="398.58301 403.71301 408.84302"
         y="-387.08401"
         sodipodi:role="line"
         id="tspan368">400</tspan></text>
<path
       d="m 472,399.16602 0,3.33398 m 0,59.33398 0,-3.25"
       style="fill:none;stroke:#000000;stroke-width:0.5;stroke-linecap:butt;stroke-linejoin:round;stroke-miterlimit:10;stroke-opacity:1;stroke-dasharray:none"
       id="path370"
       inkscape:connector-curvature="0" /><text
       transform="scale(1,-1)"
       id="text372"
       x="463.66699"
       y="-387.08401"><tspan
         style="font-size:10px;font-variant:normal;font-weight:normal;writing-mode:lr-tb;fill:#000000;fill-opacity:1;fill-rule:nonzero;stroke:none;font-family:Myriad;-inkscape-font-specification:Myriad-Roman"
         x="463.66699 468.797 473.927"
         y="-387.08401"
         sodipodi:role="line"
         id="tspan374">500</tspan></text>
<path
       d="m 146.5835,399.16602 3.25,0 m 322.1665,0 -3.33301,0"
       style="fill:none;stroke:#000000;stroke-width:0.5;stroke-linecap:butt;stroke-linejoin:round;stroke-miterlimit:10;stroke-opacity:1;stroke-dasharray:none"
       id="path376"
       inkscape:connector-curvature="0" /><text
       transform="scale(1,-1)"
       id="text378"
       x="138.1665"
       y="-395.50003"><tspan
         style="font-size:10px;font-variant:normal;font-weight:normal;writing-mode:lr-tb;fill:#000000;fill-opacity:1;fill-rule:nonzero;stroke:none;font-family:Myriad;-inkscape-font-specification:Myriad-Roman"
         x="138.1665"
         y="-395.50003"
         id="tspan380">0</tspan></text>
<path
       d="m 146.5835,430.5 3.25,0 m 322.1665,0 -3.33301,0"
       style="fill:none;stroke:#000000;stroke-width:0.5;stroke-linecap:butt;stroke-linejoin:round;stroke-miterlimit:10;stroke-opacity:1;stroke-dasharray:none"
       id="path382"
       inkscape:connector-curvature="0" /><text
       transform="scale(1,-1)"
       id="text384"
       x="132.5835"
       y="-426.83401"><tspan
         style="font-size:10px;font-variant:normal;font-weight:normal;writing-mode:lr-tb;fill:#000000;fill-opacity:1;fill-rule:nonzero;stroke:none;font-family:Myriad;-inkscape-font-specification:Myriad-Roman"
         x="132.5835 137.7135"
         y="-426.83401"
         sodipodi:role="line"
         id="tspan386">50</tspan></text>
<path
       d="m 146.5835,461.83398 3.25,0 m 322.1665,0 -3.33301,0"
       style="fill:none;stroke:#000000;stroke-width:0.5;stroke-linecap:butt;stroke-linejoin:round;stroke-miterlimit:10;stroke-opacity:1;stroke-dasharray:none"
       id="path388"
       inkscape:connector-curvature="0" /><text
       transform="scale(1,-1)"
       id="text390"
       x="127"
       y="-458.16605"><tspan
         style="font-size:10px;font-variant:normal;font-weight:normal;writing-mode:lr-tb;fill:#000000;fill-opacity:1;fill-rule:nonzero;stroke:none;font-family:Myriad;-inkscape-font-specification:Myriad-Roman"
         x="127 132.13 137.25999"
         y="-458.16605"
         sodipodi:role="line"
         id="tspan392">100</tspan></text>
<path
       d="m 146.5835,461.83398 325.4165,0 m -325.4165,-62.66796 325.4165,0 m 0,0 0,62.66796 m -325.4165,-62.66796 0,62.66796"
       style="fill:none;stroke:#000000;stroke-width:0.5;stroke-linecap:butt;stroke-linejoin:round;stroke-miterlimit:10;stroke-opacity:1;stroke-dasharray:none"
       id="path394"
       inkscape:connector-curvature="0" /><g
       id="g396"
       transform="matrix(1,0,0,-0.99738998,0,692.34835)"><g
         id="g398"
         clip-path="url(#clipPath400)"><path
           d="m 149.8335,231.25 3.25,0 3.25,0 3.25,0 3.25,0 3.25,0 3.25,0 3.25,0 3.25,0 3.25,0 3.25,0 3.25,0 3.25,0 3.25,0 3.25,0 3.25,0 3.25,0 3.25,0 3.25,0 3.333,0 3.25,0 3.25,0 3.25,0 3.25,0 3.25,0 3.25,0 3.25,0 3.25,0 3.25,0 3.25,0 3.25,0 3.25,0 3.25,0 3.25,0 3.25,0 3.25,0 3.25,0 3.25,0.084 3.25,0 3.3335,0 3.25,0 3.25,0 3.25,0 3.25,0 3.25,0.082 3.25,0 3.25,0 3.25,0.084 3.25,0 3.25,0.084 3.25,0.082 3.25,0.16796 L 319,232 l 3.25,0.25 3.25,0.33398 3.25,0.58204 3.25,0.75 3.25,1.08398 3.25,1.41602 3.33301,1.58398 3.25,1.75 3.25,1.75 3.25,1.58398 3.25,1.5 3.25,1.33204 3.25,1.08398 3.25,0.91602 3.25,0.83398 3.25,0.75 3.25,0.75 3.25,0.58398 3.25,0.66602 3.25,0.66602 3.25,0.75 3.25,0.75 3.25,0.83398 3.25,1 3.25,1.08398 3.25,1.33204 3.33398,1.5 3.25,1.75 3.25,2.08398 3.25,2.33398 3.25,2.5 3.25,2.75 3.25,2.83204 3.25,2.91796 3.25,2.75 3.25,2.66602 3.25,2.41602 3.25,2.16796 3.25,1.83204 3.25,1.66796 3.25,1.25 3.25,1 3.25,0.75 3.25,0.41602"
           style="fill:none;stroke:#000000;stroke-width:2;stroke-linecap:butt;stroke-linejoin:round;stroke-miterlimit:10;stroke-opacity:1;stroke-dasharray:none"
           id="path404"
           inkscape:connector-curvature="0" /></g></g><text
       transform="scale(1,-1)"
       id="text410"
       x="256.9165"
       y="-374.41605"><tspan
         style="font-size:12px;font-variant:normal;font-weight:normal;writing-mode:lr-tb;fill:#000000;fill-opacity:1;fill-rule:nonzero;stroke:none;font-family:Myriad;-inkscape-font-specification:Myriad-Roman"
         sodipodi:role="line"
         id="tspan412"
         x="256.9165"
         y="-374.41605" /></text>
<g
       id="g3437"
       transform="translate(0,-3.2)"><text
         y="122.03406"
         x="388.16351"
         id="text406"
         transform="matrix(0,1,1,0,0,0)"><tspan
           y="122.03406"
           x="388.16351"
           id="tspan408"
           sodipodi:role="line"
           style="font-size:12px;font-variant:normal;font-weight:normal;writing-mode:lr-tb;fill:#000000;fill-opacity:1;fill-rule:nonzero;stroke:none;font-family:Myriad;-inkscape-font-specification:Myriad-Roman">CgE/Cg  E (%)</tspan></text>
<text
         transform="matrix(0,1,1,0,0,0)"
         sodipodi:linespacing="125%"
         id="text3412"
         y="124.32076"
         x="436.42172"
         style="font-size:9.21758747px;font-style:normal;font-weight:normal;text-align:end;line-height:125%;letter-spacing:0px;word-spacing:0px;text-anchor:end;fill:#000000;fill-opacity:1;stroke:none;font-family:Sans;-inkscape-font-specification:Sans"
         xml:space="preserve"><tspan
           y="124.32076"
           x="436.42172"
           id="tspan3414"
           sodipodi:role="line">0</tspan></text>
<text
         transform="matrix(0,1,1,0,0,0)"
         sodipodi:linespacing="125%"
         id="text3412-3"
         y="126.88926"
         x="451.74384"
         style="font-size:9.21758747px;font-style:normal;font-weight:normal;text-align:end;line-height:125%;letter-spacing:0px;word-spacing:0px;text-anchor:end;fill:#000000;fill-opacity:1;stroke:none;font-family:Sans;-inkscape-font-specification:Sans"
         xml:space="preserve"><tspan
           y="126.88926"
           x="451.74384"
           id="tspan3414-6"
           sodipodi:role="line">0</tspan></text>
</g><text
       xml:space="preserve"
       style="font-size:14.39999962px;font-style:normal;font-weight:normal;text-align:start;line-height:125%;letter-spacing:0px;word-spacing:0px;text-anchor:start;fill:#000000;fill-opacity:1;stroke:none;font-family:Sans;-inkscape-font-specification:Sans"
       x="227.28659"
       y="-373.21332"
       id="text3445"
       sodipodi:linespacing="125%"
       transform="scale(1,-1)"><tspan
         sodipodi:role="line"
         id="tspan3447"
         x="227.28659"
         y="-373.21332">cross-shore distance (m)</tspan></text>
</g></svg>