<?xml version="1.0" encoding="UTF-8" standalone="no"?>
<!-- Created with Inkscape (http://www.inkscape.org/) -->

<svg
   version="1.1"
   id="svg2"
   xml:space="preserve"
   width="802.12445"
   height="395.76657"
   viewBox="0 0 802.12445 395.76657"
   sodipodi:docname="FigA3_Jfunc.svg"
   inkscape:version="1.1.2 (0a00cf5339, 2022-02-04)"
   xmlns:inkscape="http://www.inkscape.org/namespaces/inkscape"
   xmlns:sodipodi="http://sodipodi.sourceforge.net/DTD/sodipodi-0.dtd"
   xmlns="http://www.w3.org/2000/svg"
   xmlns:svg="http://www.w3.org/2000/svg"><defs
     id="defs6" /><sodipodi:namedview
     id="namedview4"
     pagecolor="#ffffff"
     bordercolor="#666666"
     borderopacity="1.0"
     inkscape:pageshadow="2"
     inkscape:pageopacity="0.0"
     inkscape:pagecheckerboard="0"
     showgrid="false"
     inkscape:zoom="0.85460554"
     inkscape:cx="482.67883"
     inkscape:cy="124.6189"
     inkscape:window-width="1584"
     inkscape:window-height="1082"
     inkscape:window-x="653"
     inkscape:window-y="83"
     inkscape:window-maximized="0"
     inkscape:current-layer="g10" /><g
     id="g8"
     inkscape:groupmode="layer"
     inkscape:label="FigA3_Jfunc"
     transform="matrix(1.3333333,0,0,1.3333333,0,8.5608307e-6)"><g
       id="g10"><g
         id="g12"><path
           d="M 29.332,249.496 V 7.727"
           style="fill:none;stroke:#262626;stroke-width:2;stroke-linecap:square;stroke-linejoin:miter;stroke-miterlimit:10;stroke-dasharray:none;stroke-opacity:0.14902"
           id="path14" /></g><g
         id="g16"><path
           d="M 171.059,249.496 V 7.727"
           style="fill:none;stroke:#262626;stroke-width:2;stroke-linecap:square;stroke-linejoin:miter;stroke-miterlimit:10;stroke-dasharray:none;stroke-opacity:0.14902"
           id="path18" /></g><g
         id="g20"><path
           d="M 312.785,249.496 V 7.727"
           style="fill:none;stroke:#262626;stroke-width:2;stroke-linecap:square;stroke-linejoin:miter;stroke-miterlimit:10;stroke-dasharray:none;stroke-opacity:0.14902"
           id="path22" /></g><g
         id="g24"><path
           d="M 454.512,249.496 V 7.727"
           style="fill:none;stroke:#262626;stroke-width:2;stroke-linecap:square;stroke-linejoin:miter;stroke-miterlimit:10;stroke-dasharray:none;stroke-opacity:0.14902"
           id="path26" /></g><g
         id="g28"><path
           d="M 596.238,249.496 V 7.727"
           style="fill:none;stroke:#262626;stroke-width:2;stroke-linecap:square;stroke-linejoin:miter;stroke-miterlimit:10;stroke-dasharray:none;stroke-opacity:0.14902"
           id="path30" /></g><g
         id="g32"><path
           d="M 596.238,249.496 H 29.332"
           style="fill:none;stroke:#262626;stroke-width:2;stroke-linecap:square;stroke-linejoin:miter;stroke-miterlimit:10;stroke-dasharray:none;stroke-opacity:0.14902"
           id="path34" /></g><g
         id="g36"><path
           d="M 596.238,168.906 H 29.332"
           style="fill:none;stroke:#262626;stroke-width:2;stroke-linecap:square;stroke-linejoin:miter;stroke-miterlimit:10;stroke-dasharray:none;stroke-opacity:0.14902"
           id="path38" /></g><g
         id="g40"><path
           d="M 596.238,88.316 H 29.332"
           style="fill:none;stroke:#262626;stroke-width:2;stroke-linecap:square;stroke-linejoin:miter;stroke-miterlimit:10;stroke-dasharray:none;stroke-opacity:0.14902"
           id="path42" /></g><g
         id="g44"><path
           d="M 596.238,7.727 H 29.332"
           style="fill:none;stroke:#262626;stroke-width:2;stroke-linecap:square;stroke-linejoin:miter;stroke-miterlimit:10;stroke-dasharray:none;stroke-opacity:0.14902"
           id="path46" /></g><text
         transform="translate(196.82812,284.4225)"
         style="font-variant:normal;font-weight:normal;font-size:16.6737px;font-family:TeXGyreHeros;-inkscape-font-specification:TeXGyreHeros-Regular;writing-mode:lr-tb;fill:#262626;fill-opacity:1;fill-rule:nonzero;stroke:none"
         id="text50"><tspan
           x="0 9.2705688 18.541138 24.093475 37.982655 47.253223 50.954781 54.656338 62.993183 72.263748 81.534317"
           y="0"
           sodipodi:role="line"
           id="tspan48">normalized distance from nadir b=ρ<tspan
   style="font-size:65%;baseline-shift:sub"
   id="tspan9849">0</tspan><tspan
   style="font-size:65%;baseline-shift:super"
   id="tspan9851">2</tspan>/ρ<tspan
   style="font-size:65%;baseline-shift:sub"
   id="tspan9847">C</tspan><tspan
   style="font-size:65%;baseline-shift:super"
   id="tspan9853">2</tspan> </tspan></text><g
         id="g64"><path
           d="M 29.332,249.496 H 596.238"
           style="fill:none;stroke:#262626;stroke-width:2;stroke-linecap:square;stroke-linejoin:miter;stroke-miterlimit:10;stroke-dasharray:none;stroke-opacity:1"
           id="path66" /></g><g
         id="g68"><path
           d="M 29.332,7.727 H 596.238"
           style="fill:none;stroke:#262626;stroke-width:2;stroke-linecap:square;stroke-linejoin:miter;stroke-miterlimit:10;stroke-dasharray:none;stroke-opacity:1"
           id="path70" /></g><g
         id="g72"><path
           d="m 29.332,249.496 v -5.668"
           style="fill:none;stroke:#262626;stroke-width:2;stroke-linecap:square;stroke-linejoin:miter;stroke-miterlimit:10;stroke-dasharray:none;stroke-opacity:1"
           id="path74" /></g><g
         id="g76"><path
           d="m 171.059,249.496 v -5.668"
           style="fill:none;stroke:#262626;stroke-width:2;stroke-linecap:square;stroke-linejoin:miter;stroke-miterlimit:10;stroke-dasharray:none;stroke-opacity:1"
           id="path78" /></g><g
         id="g80"><path
           d="m 312.785,249.496 v -5.668"
           style="fill:none;stroke:#262626;stroke-width:2;stroke-linecap:square;stroke-linejoin:miter;stroke-miterlimit:10;stroke-dasharray:none;stroke-opacity:1"
           id="path82" /></g><g
         id="g84"><path
           d="m 454.512,249.496 v -5.668"
           style="fill:none;stroke:#262626;stroke-width:2;stroke-linecap:square;stroke-linejoin:miter;stroke-miterlimit:10;stroke-dasharray:none;stroke-opacity:1"
           id="path86" /></g><g
         id="g88"><path
           d="m 596.238,249.496 v -5.668"
           style="fill:none;stroke:#262626;stroke-width:2;stroke-linecap:square;stroke-linejoin:miter;stroke-miterlimit:10;stroke-dasharray:none;stroke-opacity:1"
           id="path90" /></g><g
         id="g92"><path
           d="m 29.332,7.727 v 5.671"
           style="fill:none;stroke:#262626;stroke-width:2;stroke-linecap:square;stroke-linejoin:miter;stroke-miterlimit:10;stroke-dasharray:none;stroke-opacity:1"
           id="path94" /></g><g
         id="g96"><path
           d="m 171.059,7.727 v 5.671"
           style="fill:none;stroke:#262626;stroke-width:2;stroke-linecap:square;stroke-linejoin:miter;stroke-miterlimit:10;stroke-dasharray:none;stroke-opacity:1"
           id="path98" /></g><g
         id="g100"><path
           d="m 312.785,7.727 v 5.671"
           style="fill:none;stroke:#262626;stroke-width:2;stroke-linecap:square;stroke-linejoin:miter;stroke-miterlimit:10;stroke-dasharray:none;stroke-opacity:1"
           id="path102" /></g><g
         id="g104"><path
           d="m 454.512,7.727 v 5.671"
           style="fill:none;stroke:#262626;stroke-width:2;stroke-linecap:square;stroke-linejoin:miter;stroke-miterlimit:10;stroke-dasharray:none;stroke-opacity:1"
           id="path106" /></g><g
         id="g108"><path
           d="m 596.238,7.727 v 5.671"
           style="fill:none;stroke:#262626;stroke-width:2;stroke-linecap:square;stroke-linejoin:miter;stroke-miterlimit:10;stroke-dasharray:none;stroke-opacity:1"
           id="path110" /></g><text
         transform="translate(24.028109,269.85409)"
         style="font-variant:normal;font-weight:normal;font-size:15.9158px;font-family:TeXGyreHeros;-inkscape-font-specification:TeXGyreHeros-Regular;writing-mode:lr-tb;fill:#262626;fill-opacity:1;fill-rule:nonzero;stroke:none"
         id="text114"><tspan
           x="0 134.15419 143.00336 147.42795 283.45264 417.60681 426.45599 430.88058 566.90527"
           y="0"
           sodipodi:role="line"
           id="tspan112">00.511.52</tspan></text><g
         id="g116"><path
           d="M 29.332,249.496 V 7.727"
           style="fill:none;stroke:#262626;stroke-width:2;stroke-linecap:square;stroke-linejoin:miter;stroke-miterlimit:10;stroke-dasharray:none;stroke-opacity:1"
           id="path118" /></g><g
         id="g120"><path
           d="M 596.238,249.496 V 7.727"
           style="fill:none;stroke:#262626;stroke-width:2;stroke-linecap:square;stroke-linejoin:miter;stroke-miterlimit:10;stroke-dasharray:none;stroke-opacity:1"
           id="path122" /></g><g
         id="g124"><path
           d="m 29.332,249.496 h 5.672"
           style="fill:none;stroke:#262626;stroke-width:2;stroke-linecap:square;stroke-linejoin:miter;stroke-miterlimit:10;stroke-dasharray:none;stroke-opacity:1"
           id="path126" /></g><g
         id="g128"><path
           d="m 29.332,168.906 h 5.672"
           style="fill:none;stroke:#262626;stroke-width:2;stroke-linecap:square;stroke-linejoin:miter;stroke-miterlimit:10;stroke-dasharray:none;stroke-opacity:1"
           id="path130" /></g><g
         id="g132"><path
           d="m 29.332,88.316 h 5.672"
           style="fill:none;stroke:#262626;stroke-width:2;stroke-linecap:square;stroke-linejoin:miter;stroke-miterlimit:10;stroke-dasharray:none;stroke-opacity:1"
           id="path134" /></g><g
         id="g136"><path
           d="m 29.332,7.727 h 5.672"
           style="fill:none;stroke:#262626;stroke-width:2;stroke-linecap:square;stroke-linejoin:miter;stroke-miterlimit:10;stroke-dasharray:none;stroke-opacity:1"
           id="path138" /></g><g
         id="g140"><path
           d="M 596.238,249.496 H 590.57"
           style="fill:none;stroke:#262626;stroke-width:2;stroke-linecap:square;stroke-linejoin:miter;stroke-miterlimit:10;stroke-dasharray:none;stroke-opacity:1"
           id="path142" /></g><g
         id="g144"><path
           d="M 596.238,168.906 H 590.57"
           style="fill:none;stroke:#262626;stroke-width:2;stroke-linecap:square;stroke-linejoin:miter;stroke-miterlimit:10;stroke-dasharray:none;stroke-opacity:1"
           id="path146" /></g><g
         id="g148"><path
           d="M 596.238,88.316 H 590.57"
           style="fill:none;stroke:#262626;stroke-width:2;stroke-linecap:square;stroke-linejoin:miter;stroke-miterlimit:10;stroke-dasharray:none;stroke-opacity:1"
           id="path150" /></g><g
         id="g152"><path
           d="M 596.238,7.727 H 590.57"
           style="fill:none;stroke:#262626;stroke-width:2;stroke-linecap:square;stroke-linejoin:miter;stroke-miterlimit:10;stroke-dasharray:none;stroke-opacity:1"
           id="path154" /></g><g
         id="g156"><path
           d="m 29.332,168.906 0.285,-0.965 0.281,-0.968 0.286,-0.969 0.285,-0.965 0.281,-0.969 0.285,-0.965 0.281,-0.964 0.286,-0.969 0.281,-0.965 0.57,-1.93 0.281,-0.965 0.286,-0.964 0.281,-0.961 0.285,-0.965 0.281,-0.961 0.285,-0.961 0.282,-0.965 0.285,-0.957 0.285,-0.961 0.281,-0.961 0.285,-0.957 0.282,-0.957 0.285,-0.957 0.281,-0.953 0.285,-0.957 0.285,-0.953 0.282,-0.953 0.285,-0.949 0.281,-0.954 0.285,-0.949 0.281,-0.945 0.286,-0.949 0.285,-0.946 0.281,-0.941 0.285,-0.945 0.281,-0.942 0.285,-0.937 0.282,-0.942 0.285,-0.937 0.281,-0.934 0.57,-1.867 0.282,-0.93 0.285,-0.929 0.281,-0.926 0.285,-0.926 0.282,-0.926 0.285,-0.922"
           style="fill:none;stroke:#ff0000;stroke-width:2;stroke-linecap:butt;stroke-linejoin:bevel;stroke-miterlimit:10;stroke-dasharray:none;stroke-opacity:1"
           id="path158" /></g><g
         id="g160"><path
           d="m 43.223,122.273 0.285,-0.921 0.281,-0.918 0.285,-0.914 0.281,-0.915 0.286,-0.914 0.281,-0.91 0.285,-0.91 0.281,-0.906 0.571,-1.805 0.281,-0.898 0.285,-0.899 0.281,-0.894 0.285,-0.895 0.282,-0.89 0.57,-1.774 0.281,-0.883 0.285,-0.879 0.282,-0.878 0.285,-0.875 0.281,-0.875 0.285,-0.872 0.285,-0.867 0.282,-0.863 0.285,-0.863 0.281,-0.86 0.285,-0.859 0.281,-0.852 0.286,-0.851 0.281,-0.848 0.285,-0.847 0.285,-0.844 0.281,-0.84 0.286,-0.836 0.281,-0.832 0.285,-0.832 0.281,-0.824 0.57,-1.649 0.282,-0.816 0.285,-0.817 0.281,-0.808 0.285,-0.809 0.282,-0.804 0.285,-0.801 0.281,-0.801 0.57,-1.586"
           style="fill:none;stroke:#ff0000;stroke-width:2;stroke-linecap:butt;stroke-linejoin:bevel;stroke-miterlimit:10;stroke-dasharray:none;stroke-opacity:1"
           id="path162" /></g><g
         id="g164"><path
           d="m 57.113,80.039 0.282,-0.785 0.285,-0.785 0.281,-0.781 0.285,-0.778 0.281,-0.773 0.285,-0.77 0.286,-0.765 0.281,-0.762 0.285,-0.762 0.281,-0.754 0.285,-0.75 0.282,-0.75 0.285,-0.742 0.281,-0.742 0.57,-1.469 0.282,-0.726 0.285,-0.727 0.281,-0.719 0.285,-0.719 0.281,-0.71 0.286,-0.711 0.285,-0.704 0.281,-0.699 0.285,-0.699 0.281,-0.691 0.286,-0.688 0.281,-0.683 0.285,-0.68 0.285,-0.676 0.281,-0.672 0.286,-0.668 0.281,-0.66 0.285,-0.66 0.281,-0.652 0.285,-0.653 0.282,-0.644 0.285,-0.641 0.285,-0.637 0.281,-0.632 0.285,-0.629 0.282,-0.621 0.285,-0.622 0.281,-0.613 0.285,-0.609 0.285,-0.606 0.282,-0.601 0.285,-0.594 L 71,46.031"
           style="fill:none;stroke:#ff0000;stroke-width:2;stroke-linecap:butt;stroke-linejoin:bevel;stroke-miterlimit:10;stroke-dasharray:none;stroke-opacity:1"
           id="path166" /></g><g
         id="g168"><path
           d="m 71,46.031 0.285,-0.586 0.281,-0.582 0.286,-0.578 0.281,-0.574 0.285,-0.566 0.285,-0.563 0.281,-0.559 0.286,-0.554 0.281,-0.551 0.285,-0.543 0.281,-0.539 0.285,-0.535 0.286,-0.531 0.281,-0.524 0.285,-0.519 0.281,-0.516 0.285,-0.512 0.282,-0.508 0.285,-0.5 0.285,-0.496 0.281,-0.488 0.285,-0.488 0.282,-0.481 0.285,-0.476 0.281,-0.469 0.285,-0.469 0.281,-0.461 0.571,-0.906 0.281,-0.445 0.285,-0.442 0.281,-0.433 0.285,-0.434 0.282,-0.426 0.57,-0.836 0.281,-0.41 0.285,-0.402 0.282,-0.402 0.285,-0.395 0.281,-0.391 0.285,-0.382 0.282,-0.379 0.285,-0.375 0.285,-0.371 0.281,-0.364 0.285,-0.359 0.281,-0.352 0.286,-0.347"
           style="fill:none;stroke:#ff0000;stroke-width:2;stroke-linecap:butt;stroke-linejoin:bevel;stroke-miterlimit:10;stroke-dasharray:none;stroke-opacity:1"
           id="path170" /></g><g
         id="g172"><path
           d="m 84.891,23.012 0.281,-0.344 0.57,-0.672 0.281,-0.324 0.286,-0.324 0.281,-0.317 0.285,-0.312 0.281,-0.305 0.285,-0.301 0.286,-0.297 0.281,-0.293 0.285,-0.285 0.281,-0.277 0.285,-0.277 0.282,-0.27 0.285,-0.266 0.281,-0.257 0.285,-0.254 0.285,-0.25 0.282,-0.242 0.285,-0.239 0.281,-0.23 0.285,-0.231 0.281,-0.218 0.286,-0.219 0.285,-0.211 0.281,-0.207 0.285,-0.203 0.281,-0.196 0.286,-0.187 0.281,-0.188 0.285,-0.179 0.281,-0.176 0.285,-0.168 0.285,-0.164 0.282,-0.16 0.285,-0.153 0.281,-0.148 0.285,-0.145 0.282,-0.136 0.285,-0.133 0.285,-0.129 0.281,-0.121 0.285,-0.117 0.282,-0.114 0.285,-0.105 0.281,-0.102 0.285,-0.097 0.281,-0.09"
           style="fill:none;stroke:#ff0000;stroke-width:2;stroke-linecap:butt;stroke-linejoin:bevel;stroke-miterlimit:10;stroke-dasharray:none;stroke-opacity:1"
           id="path174" /></g><g
         id="g176"><path
           d="m 98.777,12.379 0.285,-0.086 0.286,-0.082 0.281,-0.078 0.285,-0.071 0.281,-0.062 0.285,-0.062 0.282,-0.055 0.285,-0.051 0.285,-0.043 0.281,-0.039 0.285,-0.035 0.282,-0.031 0.285,-0.024 0.281,-0.019 0.57,-0.024 0.282,-0.004 h 0.285 l 0.281,0.008 0.285,0.012 0.281,0.015 0.286,0.02 0.281,0.027 0.285,0.032 0.285,0.035 0.281,0.039 0.286,0.047 0.281,0.05 0.285,0.055 0.281,0.063 0.285,0.062 0.286,0.07 0.281,0.079 0.285,0.078 0.281,0.086 0.285,0.089 0.282,0.094 0.285,0.098 0.281,0.105 0.285,0.11 0.285,0.113 0.282,0.117 0.285,0.121 0.281,0.129 0.285,0.133 0.281,0.137 0.286,0.14 0.285,0.145 0.281,0.152"
           style="fill:none;stroke:#ff0000;stroke-width:2;stroke-linecap:butt;stroke-linejoin:bevel;stroke-miterlimit:10;stroke-dasharray:none;stroke-opacity:1"
           id="path178" /></g><g
         id="g180"><path
           d="m 112.668,14.074 0.285,0.156 0.281,0.161 0.286,0.164 0.281,0.168 0.285,0.172 0.285,0.179 0.281,0.184 0.286,0.187 0.281,0.192 0.285,0.195 0.281,0.199 0.285,0.203 0.282,0.211 0.57,0.43 0.281,0.223 0.285,0.226 0.282,0.231 0.285,0.234 0.281,0.242 0.285,0.242 0.285,0.247 0.282,0.253 0.285,0.254 0.281,0.262 0.285,0.262 0.281,0.269 0.285,0.274 0.282,0.277 0.285,0.277 0.285,0.286 0.281,0.289 0.285,0.293 0.282,0.296 0.285,0.301 0.281,0.305 0.57,0.617 0.282,0.317 0.285,0.32 0.281,0.324 0.285,0.328 0.281,0.328 0.286,0.336 0.281,0.34 0.285,0.34 0.285,0.348 0.281,0.347 0.286,0.352"
           style="fill:none;stroke:#ff0000;stroke-width:2;stroke-linecap:butt;stroke-linejoin:bevel;stroke-miterlimit:10;stroke-dasharray:none;stroke-opacity:1"
           id="path182" /></g><g
         id="g184"><path
           d="m 126.559,26.715 0.281,0.359 0.285,0.36 0.281,0.363 0.285,0.367 0.286,0.371 0.281,0.371 0.285,0.379 0.281,0.379 0.285,0.387 0.282,0.387 0.285,0.39 0.285,0.395 0.281,0.398 0.285,0.399 0.282,0.406 0.285,0.406 0.281,0.41 0.285,0.414 0.281,0.414 0.571,0.844 0.281,0.426 0.285,0.43 0.281,0.429 0.286,0.438 0.281,0.437 0.57,0.883 0.281,0.449 0.285,0.449 0.282,0.45 0.285,0.457 0.281,0.457 0.285,0.461 0.282,0.461 0.57,0.937 0.281,0.469 0.285,0.473 0.282,0.476 0.285,0.481 0.281,0.48 0.285,0.484 0.285,0.489 0.281,0.488 0.286,0.488 0.281,0.496 0.285,0.496 0.281,0.497"
           style="fill:none;stroke:#ff0000;stroke-width:2;stroke-linecap:butt;stroke-linejoin:bevel;stroke-miterlimit:10;stroke-dasharray:none;stroke-opacity:1"
           id="path186" /></g><g
         id="g188"><path
           d="m 140.445,47.895 0.285,0.5 0.286,0.503 0.281,0.508 0.285,0.504 0.281,0.512 0.285,0.512 0.282,0.511 0.285,0.516 0.281,0.519 0.285,0.52 0.285,0.523 0.282,0.524 0.285,0.527 0.281,0.528 0.285,0.531 0.281,0.531 0.286,0.531 0.285,0.539 0.281,0.536 0.285,0.539 0.281,0.543 0.286,0.543 0.281,0.543 0.285,0.546 0.281,0.547 0.571,1.102 0.281,0.551 0.285,0.554 0.281,0.555 0.285,0.559 0.282,0.558 0.285,0.559 0.285,0.562 0.281,0.563 0.285,0.562 0.282,0.567 0.285,0.566 0.281,0.566 0.57,1.141 0.282,0.57 0.285,0.575 0.281,0.574 0.285,0.574 0.281,0.578 0.286,0.574 0.281,0.579 0.285,0.582"
           style="fill:none;stroke:#ff0000;stroke-width:2;stroke-linecap:butt;stroke-linejoin:bevel;stroke-miterlimit:10;stroke-dasharray:none;stroke-opacity:1"
           id="path190" /></g><g
         id="g192"><path
           d="m 154.336,74.602 0.285,0.578 0.281,0.582 0.286,0.582 0.281,0.582 0.285,0.586 0.281,0.582 0.57,1.172 0.282,0.586 0.285,0.589 0.281,0.586 0.285,0.59 0.282,0.59 0.285,0.59 0.281,0.594 0.285,0.589 0.285,0.594 0.282,0.59 0.285,0.594 0.281,0.594 0.285,0.593 0.281,0.594 0.285,0.598 0.286,0.593 0.281,0.598 0.285,0.594 0.281,0.598 0.285,0.597 0.282,0.594 0.285,0.598 0.281,0.597 0.57,1.196 0.282,0.597 0.285,0.598 0.281,0.598 0.285,0.597 0.281,0.598 0.571,1.195 0.281,0.598 0.285,0.597 0.281,0.598 0.286,0.598 0.281,0.597 0.57,1.196 0.281,0.597 0.286,0.598"
           style="fill:none;stroke:#ff0000;stroke-width:2;stroke-linecap:butt;stroke-linejoin:bevel;stroke-miterlimit:10;stroke-dasharray:none;stroke-opacity:1"
           id="path194" /></g><g
         id="g196"><path
           d="m 168.227,103.664 0.281,0.594 0.285,0.597 0.281,0.598 0.285,0.594 0.282,0.594 0.285,0.597 0.285,0.594 0.281,0.594 0.285,0.594 0.282,0.593 0.285,0.59 0.281,0.594 0.285,0.594 0.285,0.589 0.282,0.59 0.285,0.59 0.281,0.59 0.285,0.59 0.281,0.586 0.286,0.59 0.281,0.586 0.57,1.171 0.281,0.582 0.285,0.586 0.282,0.582 0.285,0.582 0.281,0.583 0.285,0.582 0.285,0.578 0.282,0.578 0.285,0.578 0.281,0.578 0.285,0.574 0.282,0.578 0.285,0.575 0.285,0.57 0.281,0.574 0.285,0.57 0.281,0.571 0.286,0.566 0.281,0.57 0.285,0.567 0.281,0.566 0.571,1.125 0.281,0.563 0.285,0.562 0.281,0.559"
           style="fill:none;stroke:#ff0000;stroke-width:2;stroke-linecap:butt;stroke-linejoin:bevel;stroke-miterlimit:10;stroke-dasharray:none;stroke-opacity:1"
           id="path198" /></g><g
         id="g200"><path
           d="m 182.113,132.172 0.285,0.558 0.282,0.559 0.57,1.109 0.281,0.551 0.285,0.555 0.282,0.551 0.285,0.547 0.281,0.55 0.285,0.547 0.281,0.543 0.571,1.086 0.281,0.543 0.285,0.539 0.281,0.535 0.286,0.539 0.281,0.536 0.57,1.062 0.281,0.531 0.286,0.528 0.281,0.527 0.285,0.527 0.281,0.524 0.285,0.523 0.282,0.52 0.285,0.519 0.285,0.516 0.281,0.515 0.285,0.516 0.282,0.512 0.285,0.512 0.281,0.507 0.285,0.508 0.285,0.504 0.282,0.504 0.285,0.504 0.281,0.5 0.285,0.496 0.281,0.5 0.571,0.984 0.281,0.493 0.285,0.488 0.281,0.488 0.286,0.484 0.281,0.485 0.285,0.48"
           style="fill:none;stroke:#ff0000;stroke-width:2;stroke-linecap:butt;stroke-linejoin:bevel;stroke-miterlimit:10;stroke-dasharray:none;stroke-opacity:1"
           id="path202" /></g><g
         id="g204"><path
           d="m 196.004,157.777 0.281,0.481 0.285,0.48 0.285,0.473 0.282,0.477 0.285,0.472 0.281,0.469 0.285,0.469 0.282,0.464 0.285,0.465 0.285,0.461 0.281,0.461 0.285,0.457 0.282,0.457 0.285,0.453 0.281,0.454 0.285,0.449 0.281,0.449 0.571,0.891 0.281,0.441 0.285,0.438 0.281,0.437 0.285,0.437 0.282,0.434 0.57,0.859 0.281,0.43 0.285,0.422 0.282,0.426 0.285,0.418 0.281,0.418 0.285,0.418 0.285,0.414 0.282,0.41 0.285,0.41 0.281,0.41 0.285,0.407 0.281,0.402 0.286,0.398 0.281,0.403 0.57,0.789 0.281,0.39 0.286,0.391 0.281,0.391 0.285,0.382 0.281,0.383 0.285,0.383 0.286,0.379"
           style="fill:none;stroke:#ff0000;stroke-width:2;stroke-linecap:butt;stroke-linejoin:bevel;stroke-miterlimit:10;stroke-dasharray:none;stroke-opacity:1"
           id="path206" /></g><g
         id="g208"><path
           d="m 209.895,178.879 0.281,0.375 0.285,0.375 0.281,0.375 0.285,0.367 0.282,0.367 0.285,0.367 0.281,0.364 0.57,0.719 0.282,0.355 0.285,0.355 0.281,0.352 0.285,0.348 0.281,0.347 0.571,0.688 0.281,0.34 0.285,0.339 0.281,0.336 0.285,0.332 0.282,0.332 0.57,0.657 0.281,0.324 0.285,0.32 0.282,0.321 0.285,0.316 0.281,0.316 0.285,0.313 0.282,0.309 0.57,0.617 0.281,0.3 0.285,0.301 0.281,0.301 0.286,0.297 0.281,0.293 0.285,0.293 0.285,0.289 0.281,0.289 0.567,0.566 0.285,0.282 0.281,0.277 0.285,0.277 0.282,0.274 0.57,0.539 0.281,0.269"
           style="fill:none;stroke:#ff0000;stroke-width:2;stroke-linecap:butt;stroke-linejoin:bevel;stroke-miterlimit:10;stroke-dasharray:none;stroke-opacity:1"
           id="path210" /></g><g
         id="g212"><path
           d="m 223.781,194.652 0.285,0.262 0.282,0.266 0.285,0.258 0.281,0.257 0.285,0.258 0.285,0.25 0.282,0.254 0.285,0.246 0.281,0.246 0.285,0.246 0.281,0.243 0.286,0.238 0.281,0.238 0.57,0.469 0.281,0.23 0.286,0.227 0.281,0.226 0.285,0.223 0.281,0.223 0.571,0.437 0.281,0.215 0.285,0.215 0.281,0.207 0.285,0.211 0.282,0.207 0.285,0.203 0.285,0.199 0.281,0.203 0.285,0.196 0.282,0.195 0.285,0.195 0.281,0.188 0.285,0.191 0.281,0.188 0.286,0.183 0.285,0.18 0.281,0.184 0.285,0.175 0.281,0.176 0.286,0.176 0.281,0.172 0.57,0.336 0.281,0.164 0.285,0.164 0.282,0.16 0.285,0.16"
           style="fill:none;stroke:#ff0000;stroke-width:2;stroke-linecap:butt;stroke-linejoin:bevel;stroke-miterlimit:10;stroke-dasharray:none;stroke-opacity:1"
           id="path214" /></g><g
         id="g216"><path
           d="m 237.672,204.992 0.281,0.156 0.285,0.157 0.282,0.152 0.57,0.297 0.281,0.148 0.285,0.145 0.282,0.141 0.285,0.14 0.281,0.141 0.285,0.136 0.285,0.133 0.281,0.133 0.286,0.129 0.281,0.129 0.285,0.129 0.281,0.125 0.571,0.242 0.281,0.117 0.285,0.117 0.281,0.114 0.285,0.113 0.282,0.109 0.285,0.11 0.281,0.109 0.285,0.106 0.285,0.101 0.282,0.102 0.285,0.097 0.281,0.098 0.285,0.098 0.281,0.093 0.571,0.18 0.281,0.09 0.285,0.086 0.281,0.086 0.286,0.082 0.281,0.078 0.285,0.082 0.281,0.078 0.571,0.149 0.281,0.07 0.285,0.07 0.281,0.07 0.285,0.067 0.282,0.062"
           style="fill:none;stroke:#ff0000;stroke-width:2;stroke-linecap:butt;stroke-linejoin:bevel;stroke-miterlimit:10;stroke-dasharray:none;stroke-opacity:1"
           id="path218" /></g><g
         id="g220"><path
           d="m 251.559,210.359 0.285,0.067 0.285,0.058 0.281,0.063 0.285,0.055 0.282,0.058 0.285,0.055 0.281,0.051 0.285,0.054 0.281,0.047 0.286,0.051 0.285,0.047 0.281,0.043 0.285,0.043 0.281,0.043 0.285,0.039 0.282,0.039 0.57,0.07 0.281,0.035 0.285,0.032 0.282,0.031 0.285,0.027 0.281,0.028 0.285,0.027 0.285,0.023 0.282,0.024 0.285,0.019 0.281,0.02 0.285,0.019 0.281,0.016 0.286,0.016 0.281,0.015 0.57,0.024 0.281,0.007 0.286,0.008 0.281,0.008 0.285,0.004 0.281,0.004 0.285,0.004 h 0.852 l 0.281,-0.004 0.285,-0.004 0.282,-0.004 0.285,-0.008 0.281,-0.008 0.285,-0.011"
           style="fill:none;stroke:#ff0000;stroke-width:2;stroke-linecap:butt;stroke-linejoin:bevel;stroke-miterlimit:10;stroke-dasharray:none;stroke-opacity:1"
           id="path222" /></g><g
         id="g224"><path
           d="m 265.449,211.594 0.285,-0.012 0.282,-0.012 0.285,-0.011 0.281,-0.016 0.285,-0.016 0.281,-0.015 0.571,-0.039 0.281,-0.02 0.285,-0.023 0.281,-0.024 0.286,-0.023 0.281,-0.028 0.57,-0.054 0.281,-0.031 0.286,-0.028 0.281,-0.031 0.285,-0.035 0.281,-0.031 0.285,-0.036 0.282,-0.039 0.285,-0.035 0.285,-0.039 0.281,-0.039 0.285,-0.039 0.282,-0.043 0.285,-0.043 0.281,-0.043 0.285,-0.043 0.285,-0.047 0.282,-0.047 0.285,-0.047 0.281,-0.05 0.285,-0.047 0.281,-0.051 0.286,-0.051 0.281,-0.054 0.285,-0.055 0.285,-0.051 0.281,-0.058 0.285,-0.055 0.282,-0.059 0.285,-0.058 0.281,-0.059 0.285,-0.059 0.285,-0.062 0.282,-0.059 0.285,-0.062"
           style="fill:none;stroke:#ff0000;stroke-width:2;stroke-linecap:butt;stroke-linejoin:bevel;stroke-miterlimit:10;stroke-dasharray:none;stroke-opacity:1"
           id="path226" /></g><g
         id="g228"><path
           d="m 279.34,209.715 0.281,-0.067 0.285,-0.062 0.282,-0.066 0.57,-0.133 0.281,-0.067 0.285,-0.07 0.281,-0.066 0.286,-0.071 0.281,-0.07 0.285,-0.074 0.281,-0.071 0.571,-0.148 0.281,-0.074 0.285,-0.074 0.281,-0.079 0.285,-0.074 0.282,-0.078 0.57,-0.156 0.281,-0.082 0.285,-0.078 0.282,-0.082 0.285,-0.082 0.281,-0.082 0.285,-0.082 0.281,-0.086 0.286,-0.082 0.285,-0.086 0.281,-0.086 0.285,-0.086 0.281,-0.086 0.286,-0.086 0.281,-0.09 0.285,-0.086 0.285,-0.09 0.281,-0.09 0.286,-0.089 0.281,-0.09 0.285,-0.09 0.281,-0.094 0.285,-0.094 0.282,-0.089 0.57,-0.188 0.281,-0.094 0.285,-0.093 0.282,-0.098"
           style="fill:none;stroke:#ff0000;stroke-width:2;stroke-linecap:butt;stroke-linejoin:bevel;stroke-miterlimit:10;stroke-dasharray:none;stroke-opacity:1"
           id="path230" /></g><g
         id="g232"><path
           d="m 293.227,205.754 0.285,-0.094 0.281,-0.098 0.285,-0.097 0.285,-0.094 0.282,-0.098 0.285,-0.097 0.281,-0.098 0.285,-0.101 0.281,-0.098 0.285,-0.102 0.286,-0.097 0.281,-0.102 0.285,-0.101 0.281,-0.098 0.285,-0.102 0.282,-0.101 0.285,-0.106 0.281,-0.101 0.285,-0.102 0.285,-0.105 0.282,-0.102 0.285,-0.105 0.281,-0.102 0.285,-0.105 0.281,-0.106 0.571,-0.211 0.281,-0.105 0.285,-0.106 0.281,-0.105 0.286,-0.106 0.281,-0.105 0.285,-0.109 0.281,-0.106 0.285,-0.109 0.286,-0.106 0.281,-0.109 0.285,-0.11 0.281,-0.105 0.285,-0.109 0.282,-0.11 0.57,-0.219 0.281,-0.109 0.285,-0.109 0.282,-0.11 0.285,-0.109 0.281,-0.109 0.285,-0.11"
           style="fill:none;stroke:#ff0000;stroke-width:2;stroke-linecap:butt;stroke-linejoin:bevel;stroke-miterlimit:10;stroke-dasharray:none;stroke-opacity:1"
           id="path234" /></g><g
         id="g236"><path
           d="m 307.117,200.656 0.285,-0.113 0.282,-0.109 0.285,-0.11 0.281,-0.109 0.285,-0.113 0.281,-0.11 0.286,-0.113 0.281,-0.109 0.285,-0.114 0.285,-0.109 0.281,-0.113 0.286,-0.11 0.281,-0.113 0.285,-0.109 0.281,-0.114 0.285,-0.113 0.286,-0.109 0.281,-0.114 0.285,-0.113 0.281,-0.113 0.285,-0.11 0.282,-0.113 0.285,-0.113 0.281,-0.11 0.57,-0.226 0.282,-0.113 0.285,-0.114 0.281,-0.109 0.285,-0.113 0.281,-0.114 0.286,-0.113 0.285,-0.109 0.281,-0.114 0.285,-0.113 0.281,-0.113 0.285,-0.109 0.282,-0.114 0.285,-0.113 0.281,-0.113 0.285,-0.11 0.285,-0.113 0.282,-0.113 0.285,-0.11 0.281,-0.113 0.285,-0.113 0.282,-0.11 0.57,-0.226"
           style="fill:none;stroke:#ff0000;stroke-width:2;stroke-linecap:butt;stroke-linejoin:bevel;stroke-miterlimit:10;stroke-dasharray:none;stroke-opacity:1"
           id="path238" /></g><g
         id="g240"><path
           d="m 321.008,195.172 0.281,-0.11 0.285,-0.113 0.281,-0.109 0.286,-0.113 0.281,-0.11 0.285,-0.113 0.285,-0.109 0.281,-0.114 0.286,-0.109 0.281,-0.11 0.285,-0.113 0.281,-0.109 0.285,-0.11 0.282,-0.109 0.285,-0.113 0.285,-0.11 0.281,-0.109 0.285,-0.109 0.282,-0.11 0.285,-0.109 0.281,-0.109 0.57,-0.219 0.282,-0.11 0.285,-0.109 0.281,-0.105 0.285,-0.11 0.281,-0.109 0.286,-0.106 0.281,-0.109 0.285,-0.109 0.285,-0.106 0.281,-0.105 0.286,-0.11 0.281,-0.105 0.285,-0.11 0.281,-0.105 0.57,-0.211 0.282,-0.105 0.285,-0.106 0.281,-0.105 0.285,-0.106 0.282,-0.105 0.57,-0.211 0.281,-0.106 0.285,-0.101 0.282,-0.106"
           style="fill:none;stroke:#ff0000;stroke-width:2;stroke-linecap:butt;stroke-linejoin:bevel;stroke-miterlimit:10;stroke-dasharray:none;stroke-opacity:1"
           id="path242" /></g><g
         id="g244"><path
           d="m 334.895,189.863 0.285,-0.105 0.281,-0.102 0.285,-0.105 0.281,-0.102 0.571,-0.203 0.281,-0.105 0.285,-0.102 0.281,-0.101 0.285,-0.102 0.282,-0.102 0.57,-0.203 0.281,-0.097 0.285,-0.102 0.282,-0.102 0.285,-0.097 0.281,-0.102 0.285,-0.097 0.281,-0.102 0.571,-0.195 0.281,-0.098 0.285,-0.098 0.281,-0.097 0.286,-0.098 0.281,-0.098 0.57,-0.195 0.281,-0.098 0.286,-0.093 0.281,-0.098 0.285,-0.094 0.281,-0.097 0.571,-0.188 0.281,-0.094 0.285,-0.093 0.281,-0.094 0.285,-0.094 0.282,-0.094 0.285,-0.093 0.281,-0.094 0.285,-0.09 0.285,-0.094 0.282,-0.09 0.285,-0.093 0.281,-0.09 0.285,-0.094"
           style="fill:none;stroke:#ff0000;stroke-width:2;stroke-linecap:butt;stroke-linejoin:bevel;stroke-miterlimit:10;stroke-dasharray:none;stroke-opacity:1"
           id="path246" /></g><g
         id="g248"><path
           d="m 348.785,185.078 0.281,-0.09 0.571,-0.179 0.281,-0.09 0.285,-0.09 0.281,-0.09 0.286,-0.086 0.281,-0.09 0.285,-0.086 0.281,-0.089 0.285,-0.086 0.286,-0.09 0.281,-0.086 0.285,-0.086 0.281,-0.086 0.285,-0.086 0.282,-0.086 0.57,-0.172 0.281,-0.082 0.285,-0.086 0.282,-0.086 0.285,-0.082 0.281,-0.082 0.285,-0.086 0.281,-0.082 0.571,-0.164 0.281,-0.082 0.285,-0.082 0.281,-0.082 0.285,-0.078 0.282,-0.082 0.285,-0.082 0.285,-0.078 0.281,-0.078 0.285,-0.082 0.282,-0.079 0.285,-0.078 0.281,-0.078 0.57,-0.156 0.282,-0.078 0.285,-0.078 0.281,-0.075 0.285,-0.078 0.281,-0.074 0.286,-0.078 0.281,-0.074"
           style="fill:none;stroke:#ff0000;stroke-width:2;stroke-linecap:butt;stroke-linejoin:bevel;stroke-miterlimit:10;stroke-dasharray:none;stroke-opacity:1"
           id="path250" /></g><g
         id="g252"><path
           d="m 362.672,181.008 0.57,-0.149 0.281,-0.078 0.286,-0.074 0.281,-0.07 0.285,-0.075 0.281,-0.074 0.285,-0.074 0.286,-0.07 0.281,-0.074 0.285,-0.071 0.281,-0.074 0.285,-0.07 0.282,-0.071 0.285,-0.07 0.281,-0.07 0.57,-0.141 0.282,-0.07 0.285,-0.067 0.281,-0.07 0.285,-0.066 0.281,-0.071 0.571,-0.132 0.281,-0.071 0.285,-0.066 0.281,-0.067 0.286,-0.066 0.281,-0.066 0.285,-0.063 0.285,-0.066 0.281,-0.067 0.285,-0.062 0.282,-0.067 0.285,-0.062 0.281,-0.066 0.285,-0.063 0.282,-0.063 0.57,-0.124 0.281,-0.063 0.285,-0.063 0.282,-0.058 0.285,-0.063 0.281,-0.062 0.285,-0.059 0.285,-0.062 0.281,-0.059"
           style="fill:none;stroke:#ff0000;stroke-width:2;stroke-linecap:butt;stroke-linejoin:bevel;stroke-miterlimit:10;stroke-dasharray:none;stroke-opacity:1"
           id="path254" /></g><g
         id="g256"><path
           d="m 376.562,177.699 0.286,-0.058 0.281,-0.063 0.285,-0.058 0.281,-0.059 0.285,-0.059 0.282,-0.058 0.285,-0.055 0.285,-0.059 0.281,-0.058 0.285,-0.055 0.282,-0.058 0.285,-0.055 0.281,-0.059 0.57,-0.109 0.282,-0.055 0.285,-0.054 0.281,-0.055 0.285,-0.055 0.281,-0.055 0.286,-0.054 0.281,-0.055 0.285,-0.051 0.285,-0.054 0.281,-0.051 0.286,-0.055 0.281,-0.051 0.285,-0.05 0.281,-0.051 0.571,-0.102 0.281,-0.05 0.285,-0.051 0.281,-0.051 0.285,-0.051 0.282,-0.047 0.285,-0.05 0.285,-0.047 0.281,-0.051 0.285,-0.047 0.282,-0.051 0.285,-0.047 0.281,-0.047 0.285,-0.046 0.281,-0.047 0.571,-0.094 0.281,-0.047 0.285,-0.047"
           style="fill:none;stroke:#ff0000;stroke-width:2;stroke-linecap:butt;stroke-linejoin:bevel;stroke-miterlimit:10;stroke-dasharray:none;stroke-opacity:1"
           id="path258" /></g><g
         id="g260"><path
           d="m 390.453,175.121 0.281,-0.047 0.286,-0.047 0.281,-0.043 0.285,-0.046 0.285,-0.043 0.281,-0.047 0.286,-0.043 0.281,-0.043 0.285,-0.043 0.281,-0.043 0.285,-0.043 0.282,-0.043 0.57,-0.086 0.281,-0.043 0.285,-0.039 0.282,-0.043 0.285,-0.039 0.281,-0.043 0.285,-0.039 0.285,-0.043 0.282,-0.039 0.285,-0.039 0.281,-0.039 0.285,-0.043 0.281,-0.039 0.285,-0.039 0.286,-0.036 0.281,-0.039 0.285,-0.039 0.281,-0.039 0.285,-0.039 0.282,-0.035 0.285,-0.039 0.281,-0.035 0.285,-0.039 0.285,-0.035 0.282,-0.036 0.285,-0.039 0.281,-0.035 0.285,-0.035 0.281,-0.035 0.571,-0.07 0.281,-0.036 0.285,-0.035 0.281,-0.035 0.286,-0.031 0.281,-0.035"
           style="fill:none;stroke:#ff0000;stroke-width:2;stroke-linecap:butt;stroke-linejoin:bevel;stroke-miterlimit:10;stroke-dasharray:none;stroke-opacity:1"
           id="path262" /></g><g
         id="g264"><path
           d="m 404.34,173.18 0.285,-0.035 0.281,-0.032 0.285,-0.035 0.286,-0.031 0.281,-0.031 0.285,-0.036 0.281,-0.031 0.285,-0.031 0.282,-0.031 0.285,-0.035 0.285,-0.032 0.281,-0.031 0.285,-0.031 0.282,-0.031 0.285,-0.028 0.281,-0.031 0.57,-0.063 0.282,-0.027 0.285,-0.031 0.281,-0.027 0.285,-0.032 0.281,-0.027 0.286,-0.031 0.281,-0.028 0.285,-0.027 0.285,-0.031 0.281,-0.028 0.285,-0.027 0.282,-0.027 0.285,-0.028 0.281,-0.027 0.57,-0.055 0.282,-0.027 0.285,-0.027 0.281,-0.024 0.285,-0.027 0.282,-0.027 0.285,-0.024 0.281,-0.027 0.285,-0.024 0.285,-0.027 0.281,-0.023 0.286,-0.028 0.281,-0.023 0.285,-0.024 0.281,-0.023 0.285,-0.027"
           style="fill:none;stroke:#ff0000;stroke-width:2;stroke-linecap:butt;stroke-linejoin:bevel;stroke-miterlimit:10;stroke-dasharray:none;stroke-opacity:1"
           id="path266" /></g><g
         id="g268"><path
           d="m 418.23,171.77 0.286,-0.024 0.281,-0.023 0.285,-0.024 0.281,-0.023 0.285,-0.024 0.282,-0.023 0.285,-0.024 0.281,-0.023 0.285,-0.023 0.285,-0.02 0.282,-0.023 0.285,-0.024 0.281,-0.019 0.285,-0.024 0.281,-0.023 0.286,-0.02 0.285,-0.023 0.281,-0.02 0.285,-0.019 0.281,-0.024 0.286,-0.019 0.281,-0.02 0.285,-0.023 0.285,-0.02 0.281,-0.019 0.286,-0.02 0.281,-0.019 0.285,-0.02 0.281,-0.019 0.285,-0.02 0.282,-0.019 0.57,-0.04 0.281,-0.019 0.285,-0.016 0.282,-0.019 0.285,-0.02 0.281,-0.019 0.285,-0.016 0.285,-0.019 0.282,-0.016 0.285,-0.02 0.281,-0.015 0.285,-0.02 0.281,-0.015 0.286,-0.02 0.281,-0.016 0.285,-0.015 0.285,-0.02"
           style="fill:none;stroke:#ff0000;stroke-width:2;stroke-linecap:butt;stroke-linejoin:bevel;stroke-miterlimit:10;stroke-dasharray:none;stroke-opacity:1"
           id="path270" /></g><g
         id="g272"><path
           d="m 432.121,170.777 0.281,-0.015 0.286,-0.016 0.281,-0.016 0.285,-0.019 0.281,-0.016 0.57,-0.031 0.282,-0.016 0.285,-0.015 0.281,-0.016 0.285,-0.015 0.282,-0.016 0.57,-0.031 0.281,-0.012 0.285,-0.016 0.282,-0.015 0.285,-0.016 0.281,-0.012 0.285,-0.015 0.281,-0.016 0.285,-0.012 0.286,-0.015 0.281,-0.012 0.285,-0.016 0.281,-0.011 0.285,-0.016 0.282,-0.012 0.285,-0.015 0.285,-0.012 0.281,-0.012 0.285,-0.015 0.282,-0.012 0.285,-0.012 0.281,-0.015 0.285,-0.012 0.281,-0.012 0.571,-0.023 0.281,-0.012 0.285,-0.016 0.281,-0.011 0.286,-0.012 0.281,-0.012 0.57,-0.023 0.281,-0.012 0.286,-0.012 0.281,-0.007"
           style="fill:none;stroke:#ff0000;stroke-width:2;stroke-linecap:butt;stroke-linejoin:bevel;stroke-miterlimit:10;stroke-dasharray:none;stroke-opacity:1"
           id="path274" /></g><g
         id="g276"><path
           d="m 446.008,170.102 0.285,-0.012 0.281,-0.012 0.571,-0.023 0.281,-0.012 0.285,-0.008 0.281,-0.012 0.285,-0.011 0.282,-0.008 0.285,-0.012 0.281,-0.012 0.285,-0.007 0.285,-0.012 0.282,-0.008 0.285,-0.012 0.281,-0.011 0.285,-0.008 0.281,-0.012 0.571,-0.015 0.281,-0.012 0.285,-0.008 0.281,-0.012 0.285,-0.008 0.282,-0.007 0.285,-0.012 0.281,-0.008 0.57,-0.016 0.282,-0.011 0.285,-0.008 0.281,-0.008 0.285,-0.008 0.282,-0.007 0.285,-0.012 0.285,-0.008 0.281,-0.008 0.285,-0.008 0.281,-0.007 0.286,-0.008 0.281,-0.008 0.285,-0.008 0.281,-0.008 0.571,-0.015 0.281,-0.008 0.285,-0.008 0.281,-0.008 0.285,-0.008"
           style="fill:none;stroke:#ff0000;stroke-width:2;stroke-linecap:butt;stroke-linejoin:bevel;stroke-miterlimit:10;stroke-dasharray:none;stroke-opacity:1"
           id="path278" /></g><g
         id="g280"><path
           d="m 459.898,169.648 0.282,-0.007 0.57,-0.016 0.281,-0.004 0.285,-0.008 0.282,-0.008 0.285,-0.007 0.281,-0.004 0.57,-0.016 0.282,-0.008 0.285,-0.004 0.281,-0.007 0.285,-0.008 0.281,-0.008 0.286,-0.004 0.281,-0.008 0.285,-0.004 0.285,-0.007 0.281,-0.004 0.286,-0.008 0.281,-0.004 0.285,-0.008 0.281,-0.008 0.285,-0.004 0.286,-0.007 0.281,-0.004 0.285,-0.008 0.281,-0.004 0.285,-0.008 0.282,-0.004 0.285,-0.004 0.281,-0.007 0.57,-0.008 0.282,-0.008 0.285,-0.004 0.281,-0.004 0.285,-0.008 0.281,-0.004 0.286,-0.007 0.285,-0.004 0.281,-0.004 0.285,-0.008 0.281,-0.004 0.286,-0.004 0.281,-0.004 0.57,-0.008"
           style="fill:none;stroke:#ff0000;stroke-width:2;stroke-linecap:butt;stroke-linejoin:bevel;stroke-miterlimit:10;stroke-dasharray:none;stroke-opacity:1"
           id="path282" /></g><g
         id="g284"><path
           d="m 473.789,169.359 0.281,-0.004 0.285,-0.007 0.282,-0.004 0.285,-0.004 0.281,-0.004 0.285,-0.004 0.282,-0.004 0.285,-0.008 0.285,-0.004 0.281,-0.004 0.285,-0.003 0.282,-0.004 0.285,-0.004 0.281,-0.004 0.57,-0.008 0.281,-0.004 0.286,-0.004 0.281,-0.004 0.285,-0.004 0.281,-0.003 0.285,-0.004 0.282,-0.004 0.57,-0.008 0.281,-0.004 0.285,-0.004 0.282,-0.004 0.285,-0.004 0.281,-0.004 0.57,-0.007 0.282,-0.004 0.285,-0.004 h 0.281 l 0.285,-0.004 0.281,-0.004 0.286,-0.004 0.281,-0.004 h 0.285 l 0.285,-0.004 0.281,-0.004 0.286,-0.004 h 0.281 l 0.285,-0.003 0.281,-0.004 0.571,-0.008 h 0.281"
           style="fill:none;stroke:#ff0000;stroke-width:2;stroke-linecap:butt;stroke-linejoin:bevel;stroke-miterlimit:10;stroke-dasharray:none;stroke-opacity:1"
           id="path286" /></g><g
         id="g288"><path
           d="m 487.676,169.176 0.285,-0.004 0.281,-0.004 0.285,-0.004 h 0.282 l 0.57,-0.008 0.281,-0.004 h 0.285 l 0.282,-0.004 0.285,-0.003 0.281,-0.004 h 0.285 l 0.281,-0.004 h 0.286 l 0.285,-0.004 0.281,-0.004 h 0.285 l 0.281,-0.004 h 0.285 l 0.282,-0.004 h 0.285 l 0.285,-0.004 0.281,-0.004 h 0.285 l 0.282,-0.004 h 0.285 l 0.281,-0.004 0.285,-0.003 h 0.282 l 0.285,-0.004 h 0.285 l 0.281,-0.004 h 0.285 l 0.281,-0.004 0.286,-0.004 h 0.281 l 0.285,-0.004 h 0.285 l 0.281,-0.004 h 0.286 l 0.281,-0.004 0.285,-0.004 h 0.566 l 0.282,-0.004 h 0.285 L 501,169.062 h 0.566"
           style="fill:none;stroke:#ff0000;stroke-width:2;stroke-linecap:butt;stroke-linejoin:bevel;stroke-miterlimit:10;stroke-dasharray:none;stroke-opacity:1"
           id="path290" /></g><g
         id="g292"><path
           d="m 501.566,169.062 h 0.282 l 0.285,-0.003 h 0.281 l 0.285,-0.004 h 0.567 l 0.285,-0.004 h 0.281 l 0.285,-0.004 h 0.567 l 0.285,-0.004 h 0.566 l 0.281,-0.004 h 0.286 l 0.281,-0.004 h 0.566 l 0.285,-0.004 h 0.286 l 0.281,-0.004 h 0.566 l 0.285,-0.004 h 0.282 l 0.285,-0.003 h 0.566 l 0.285,-0.004 h 0.567 l 0.281,-0.004 h 0.285 l 0.285,-0.004 h 0.567 l 0.281,-0.004 h 0.285 L 512.902,169 h 1.137 l 0.281,-0.004 h 1.133"
           style="fill:none;stroke:#ff0000;stroke-width:2;stroke-linecap:butt;stroke-linejoin:bevel;stroke-miterlimit:10;stroke-dasharray:none;stroke-opacity:1"
           id="path294" /></g><g
         id="g296"><path
           d="m 515.453,168.996 h 0.285 l 0.285,-0.004 h 1.133 l 0.282,-0.004 h 1.136 l 0.281,-0.004 h 1.133 l 0.285,-0.004 h 1.133 l 0.285,-0.003 h 1.133 l 0.285,-0.004 h 1.414 l 0.286,-0.004 h 1.132 l 0.286,-0.004 h 1.418 l 0.281,-0.004 h 1.418"
           style="fill:none;stroke:#ff0000;stroke-width:2;stroke-linecap:butt;stroke-linejoin:bevel;stroke-miterlimit:10;stroke-dasharray:none;stroke-opacity:1"
           id="path298" /></g><g
         id="g300"><path
           d="m 529.344,168.957 0.285,-0.004 h 1.699 l 0.285,-0.004 h 1.981 l 0.285,-0.004 h 1.984 l 0.285,-0.004 h 2.266 l 0.285,-0.003 h 2.551 l 0.281,-0.004 h 1.703"
           style="fill:none;stroke:#ff0000;stroke-width:2;stroke-linecap:butt;stroke-linejoin:bevel;stroke-miterlimit:10;stroke-dasharray:none;stroke-opacity:1"
           id="path302" /></g><g
         id="g304"><path
           d="m 543.234,168.934 h 1.133 l 0.281,-0.004 h 3.688 l 0.281,-0.004 h 4.254 l 0.281,-0.004 h 3.969"
           style="fill:none;stroke:#ff0000;stroke-width:2;stroke-linecap:butt;stroke-linejoin:bevel;stroke-miterlimit:10;stroke-dasharray:none;stroke-opacity:1"
           id="path306" /></g><g
         id="g308"><path
           d="m 557.121,168.922 h 1.137 l 0.281,-0.004 h 7.371 l 0.281,-0.004 h 4.821"
           style="fill:none;stroke:#ff0000;stroke-width:2;stroke-linecap:butt;stroke-linejoin:bevel;stroke-miterlimit:10;stroke-dasharray:none;stroke-opacity:1"
           id="path310" /></g><g
         id="g312"><path
           d="m 571.012,168.914 h 6.234 l 0.285,-0.004 h 7.371"
           style="fill:none;stroke:#ff0000;stroke-width:2;stroke-linecap:butt;stroke-linejoin:bevel;stroke-miterlimit:10;stroke-dasharray:none;stroke-opacity:1"
           id="path314" /></g><g
         id="g316"><path
           d="m 584.902,168.91 h 11.336"
           style="fill:none;stroke:#ff0000;stroke-width:2;stroke-linecap:butt;stroke-linejoin:bevel;stroke-miterlimit:10;stroke-dasharray:none;stroke-opacity:1"
           id="path318" /></g><g
         id="g320"><path
           d="m 29.332,7.727 0.285,0.003 0.281,0.004 0.571,0.024 0.281,0.019 0.285,0.02 0.281,0.027 0.286,0.028 0.281,0.031 0.57,0.078 0.281,0.047 0.286,0.047 0.281,0.05 0.285,0.059 0.281,0.059 0.285,0.062 0.282,0.07 0.285,0.071 0.285,0.074 0.281,0.078 0.285,0.086 0.282,0.086 0.285,0.09 0.281,0.094 0.285,0.097 0.285,0.102 0.282,0.105 0.285,0.114 0.281,0.113 0.285,0.117 0.281,0.121 0.571,0.25 0.281,0.133 0.285,0.137 0.281,0.14 0.285,0.145 0.282,0.148 0.285,0.149 0.281,0.156 0.57,0.32 0.282,0.168 0.285,0.168 0.281,0.176 0.285,0.176 0.282,0.179 0.285,0.188"
           style="fill:none;stroke:#0000ff;stroke-width:2;stroke-linecap:butt;stroke-linejoin:bevel;stroke-miterlimit:10;stroke-dasharray:none;stroke-opacity:1"
           id="path322" /></g><g
         id="g324"><path
           d="m 43.223,12.336 0.285,0.187 0.281,0.192 0.285,0.195 0.281,0.199 0.286,0.203 0.281,0.208 0.285,0.21 0.281,0.215 0.285,0.215 0.286,0.223 0.281,0.226 0.285,0.227 0.281,0.23 0.285,0.239 0.282,0.238 0.285,0.242 0.285,0.246 0.281,0.25 0.285,0.254 0.282,0.258 0.285,0.258 0.281,0.265 0.285,0.266 0.285,0.273 0.282,0.274 0.285,0.277 0.566,0.567 0.281,0.285 0.286,0.293 0.281,0.293 0.57,0.601 0.281,0.305 0.286,0.309 0.281,0.312 0.285,0.313 0.281,0.32 0.285,0.32 0.285,0.324 0.282,0.329 0.285,0.332 0.281,0.336 0.285,0.335 0.282,0.344 0.285,0.344 0.281,0.348 0.57,0.703"
           style="fill:none;stroke:#0000ff;stroke-width:2;stroke-linecap:butt;stroke-linejoin:bevel;stroke-miterlimit:10;stroke-dasharray:none;stroke-opacity:1"
           id="path326" /></g><g
         id="g328"><path
           d="m 57.113,25.719 0.282,0.359 0.285,0.36 0.281,0.363 0.285,0.367 0.281,0.367 0.571,0.75 0.281,0.379 0.285,0.379 0.281,0.387 0.285,0.386 0.282,0.391 0.285,0.395 0.281,0.398 0.285,0.398 0.285,0.403 0.282,0.406 0.285,0.406 0.281,0.414 0.285,0.414 0.281,0.418 0.286,0.418 0.285,0.422 0.281,0.426 0.285,0.43 0.281,0.429 0.286,0.434 0.281,0.437 0.57,0.883 0.281,0.446 0.286,0.445 0.281,0.453 0.285,0.453 0.281,0.453 0.285,0.457 0.282,0.461 0.57,0.93 0.281,0.469 0.285,0.472 0.282,0.473 0.285,0.473 0.281,0.48 0.285,0.481 0.285,0.484 0.282,0.484 0.285,0.489 0.281,0.488"
           style="fill:none;stroke:#0000ff;stroke-width:2;stroke-linecap:butt;stroke-linejoin:bevel;stroke-miterlimit:10;stroke-dasharray:none;stroke-opacity:1"
           id="path330" /></g><g
         id="g332"><path
           d="m 71,46.629 0.285,0.496 0.281,0.492 0.286,0.5 0.281,0.496 0.57,1.008 0.281,0.508 0.286,0.508 0.281,0.511 0.285,0.512 0.281,0.516 0.285,0.515 0.286,0.52 0.281,0.523 0.285,0.524 0.281,0.527 0.285,0.527 0.282,0.528 0.285,0.531 0.285,0.535 0.281,0.535 0.285,0.539 0.282,0.54 0.285,0.542 0.281,0.543 0.285,0.547 0.281,0.547 0.286,0.547 0.285,0.551 0.281,0.555 0.285,0.554 0.281,0.555 0.285,0.559 0.282,0.558 0.57,1.125 0.281,0.567 0.285,0.566 0.282,0.566 0.285,0.571 0.281,0.57 0.285,0.57 0.282,0.575 0.57,1.156 0.281,0.578 0.285,0.578 0.281,0.582 0.286,0.582"
           style="fill:none;stroke:#0000ff;stroke-width:2;stroke-linecap:butt;stroke-linejoin:bevel;stroke-miterlimit:10;stroke-dasharray:none;stroke-opacity:1"
           id="path334" /></g><g
         id="g336"><path
           d="m 84.891,73.164 0.281,0.586 0.57,1.172 0.281,0.59 0.286,0.59 0.281,0.589 0.285,0.59 0.281,0.594 0.285,0.598 0.286,0.593 0.281,0.598 0.285,0.598 0.281,0.597 0.285,0.602 0.282,0.601 0.285,0.602 0.281,0.606 0.57,1.21 0.282,0.606 0.285,0.605 0.281,0.61 0.285,0.609 0.281,0.61 0.571,1.226 0.281,0.609 0.285,0.618 0.281,0.613 0.286,0.613 0.281,0.617 0.285,0.618 0.281,0.617 0.285,0.617 0.285,0.621 0.282,0.617 0.285,0.621 0.281,0.621 0.285,0.622 0.282,0.621 0.285,0.621 0.285,0.625 0.281,0.621 0.285,0.625 0.282,0.625 0.285,0.625 0.281,0.625 0.285,0.625 0.281,0.625"
           style="fill:none;stroke:#0000ff;stroke-width:2;stroke-linecap:butt;stroke-linejoin:bevel;stroke-miterlimit:10;stroke-dasharray:none;stroke-opacity:1"
           id="path338" /></g><g
         id="g340"><path
           d="m 98.777,103.008 0.285,0.629 0.286,0.625 0.281,0.629 0.285,0.625 0.281,0.629 0.285,0.625 0.282,0.628 0.57,1.258 0.281,0.629 0.285,0.629 0.282,0.629 0.285,0.629 0.281,0.629 0.57,1.258 0.282,0.629 0.285,0.628 0.281,0.629 0.285,0.629 0.281,0.629 0.286,0.629 0.281,0.629 0.57,1.258 0.281,0.629 0.286,0.629 0.281,0.628 0.285,0.625 0.281,0.629 0.285,0.629 0.286,0.625 0.281,0.629 0.285,0.625 0.281,0.625 0.285,0.629 0.282,0.625 0.285,0.625 0.281,0.625 0.285,0.625 0.285,0.621 0.282,0.625 0.285,0.621 0.281,0.625 0.285,0.621 0.281,0.621 0.571,1.243 0.281,0.617"
           style="fill:none;stroke:#0000ff;stroke-width:2;stroke-linecap:butt;stroke-linejoin:bevel;stroke-miterlimit:10;stroke-dasharray:none;stroke-opacity:1"
           id="path342" /></g><g
         id="g344"><path
           d="m 112.668,133.715 0.285,0.621 0.281,0.617 0.286,0.617 0.281,0.618 0.57,1.234 0.281,0.613 0.286,0.613 0.281,0.614 0.285,0.613 0.281,0.613 0.285,0.61 0.282,0.613 0.285,0.609 0.285,0.606 0.281,0.609 0.285,0.606 0.282,0.605 0.285,0.606 0.281,0.605 0.57,1.203 0.282,0.602 0.285,0.601 0.281,0.598 0.285,0.598 0.281,0.597 0.285,0.598 0.282,0.594 0.285,0.593 0.285,0.59 0.281,0.594 0.285,0.59 0.282,0.59 0.285,0.586 0.281,0.586 0.57,1.171 0.282,0.582 0.285,0.582 0.281,0.579 0.285,0.582 0.281,0.574 0.286,0.578 0.281,0.574 0.57,1.149 0.281,0.57 0.286,0.566"
           style="fill:none;stroke:#0000ff;stroke-width:2;stroke-linecap:butt;stroke-linejoin:bevel;stroke-miterlimit:10;stroke-dasharray:none;stroke-opacity:1"
           id="path346" /></g><g
         id="g348"><path
           d="m 126.559,162.984 0.281,0.571 0.285,0.566 0.281,0.567 0.571,1.124 0.281,0.559 0.285,0.563 0.281,0.554 0.285,0.559 0.282,0.555 0.285,0.55 0.285,0.555 0.281,0.547 0.285,0.551 0.282,0.547 0.285,0.543 0.281,0.543 0.285,0.542 0.281,0.54 0.571,1.078 0.281,0.535 0.285,0.531 0.281,0.531 0.286,0.532 0.281,0.527 0.285,0.527 0.285,0.524 0.281,0.523 0.285,0.52 0.282,0.519 0.285,0.52 0.281,0.515 0.285,0.512 0.282,0.516 0.57,1.015 0.281,0.508 0.285,0.504 0.282,0.504 0.285,0.5 0.281,0.5 0.285,0.496 0.285,0.492 0.281,0.496 0.286,0.489 0.281,0.488 0.285,0.488 0.281,0.485"
           style="fill:none;stroke:#0000ff;stroke-width:2;stroke-linecap:butt;stroke-linejoin:bevel;stroke-miterlimit:10;stroke-dasharray:none;stroke-opacity:1"
           id="path350" /></g><g
         id="g352"><path
           d="m 140.445,188.895 0.285,0.484 0.286,0.48 0.281,0.481 0.285,0.476 0.281,0.473 0.285,0.477 0.282,0.468 0.285,0.469 0.281,0.469 0.285,0.465 0.285,0.461 0.282,0.461 0.285,0.457 0.281,0.457 0.285,0.453 0.281,0.453 0.571,0.898 0.281,0.446 0.285,0.441 0.281,0.441 0.286,0.442 0.281,0.437 0.285,0.434 0.281,0.434 0.571,0.859 0.281,0.426 0.285,0.422 0.281,0.421 0.285,0.418 0.282,0.418 0.57,0.829 0.281,0.41 0.285,0.406 0.282,0.406 0.285,0.406 0.281,0.399 0.285,0.402 0.285,0.395 0.282,0.394 0.285,0.395 0.281,0.387 0.285,0.39 0.281,0.383 0.286,0.383 0.281,0.383 0.285,0.378"
           style="fill:none;stroke:#0000ff;stroke-width:2;stroke-linecap:butt;stroke-linejoin:bevel;stroke-miterlimit:10;stroke-dasharray:none;stroke-opacity:1"
           id="path354" /></g><g
         id="g356"><path
           d="m 154.336,210.062 0.285,0.376 0.281,0.374 0.286,0.372 0.281,0.367 0.285,0.367 0.281,0.363 0.285,0.364 0.285,0.359 0.282,0.359 0.285,0.356 0.281,0.351 0.285,0.348 0.282,0.352 0.285,0.343 0.281,0.344 0.57,0.68 0.282,0.336 0.285,0.332 0.281,0.332 0.285,0.328 0.281,0.328 0.285,0.324 0.286,0.321 0.281,0.32 0.285,0.316 0.281,0.317 0.285,0.312 0.282,0.309 0.285,0.308 0.281,0.305 0.285,0.305 0.285,0.3 0.282,0.297 0.285,0.297 0.281,0.293 0.285,0.289 0.281,0.289 0.852,0.852 0.285,0.277 0.281,0.278 0.286,0.273 0.281,0.273 0.285,0.27 0.285,0.266 0.281,0.265 0.286,0.262"
           style="fill:none;stroke:#0000ff;stroke-width:2;stroke-linecap:butt;stroke-linejoin:bevel;stroke-miterlimit:10;stroke-dasharray:none;stroke-opacity:1"
           id="path358" /></g><g
         id="g360"><path
           d="m 168.227,225.711 0.281,0.258 0.285,0.258 0.281,0.257 0.285,0.25 0.282,0.25 0.285,0.25 0.285,0.246 0.281,0.243 0.285,0.238 0.282,0.238 0.285,0.239 0.281,0.234 0.57,0.461 0.282,0.226 0.285,0.223 0.281,0.223 0.285,0.218 0.281,0.215 0.286,0.215 0.281,0.215 0.285,0.211 0.285,0.207 0.281,0.203 0.285,0.203 0.282,0.203 0.285,0.196 0.281,0.199 0.57,0.383 0.282,0.191 0.285,0.184 0.281,0.187 0.285,0.18 0.282,0.18 0.285,0.179 0.285,0.176 0.281,0.172 0.285,0.172 0.281,0.168 0.286,0.164 0.281,0.164 0.285,0.164 0.281,0.156 0.285,0.16 0.286,0.153 0.281,0.152 0.285,0.152 0.281,0.149"
           style="fill:none;stroke:#0000ff;stroke-width:2;stroke-linecap:butt;stroke-linejoin:bevel;stroke-miterlimit:10;stroke-dasharray:none;stroke-opacity:1"
           id="path362" /></g><g
         id="g364"><path
           d="m 182.113,235.676 0.285,0.144 0.282,0.145 0.285,0.14 0.285,0.137 0.281,0.141 0.285,0.133 0.282,0.132 0.285,0.129 0.281,0.129 0.285,0.125 0.281,0.125 0.571,0.242 0.281,0.118 0.285,0.113 0.281,0.113 0.286,0.11 0.281,0.109 0.285,0.109 0.285,0.102 0.281,0.101 0.286,0.102 0.281,0.098 0.285,0.097 0.281,0.094 0.285,0.09 0.282,0.09 0.285,0.09 0.285,0.082 0.281,0.086 0.285,0.082 0.282,0.078 0.285,0.078 0.281,0.074 0.285,0.074 0.285,0.071 0.282,0.07 0.285,0.066 0.281,0.063 0.285,0.066 0.281,0.059 0.571,0.117 0.281,0.055 0.285,0.054 0.281,0.051 0.286,0.047 0.281,0.051 0.285,0.043"
           style="fill:none;stroke:#0000ff;stroke-width:2;stroke-linecap:butt;stroke-linejoin:bevel;stroke-miterlimit:10;stroke-dasharray:none;stroke-opacity:1"
           id="path366" /></g><g
         id="g368"><path
           d="m 196.004,240.301 0.281,0.043 0.285,0.043 0.285,0.039 0.282,0.039 0.285,0.035 0.281,0.035 0.285,0.031 0.282,0.032 0.57,0.054 0.281,0.024 0.285,0.023 0.282,0.024 0.285,0.015 0.281,0.02 0.285,0.015 0.281,0.012 0.285,0.016 0.286,0.008 0.281,0.007 0.285,0.008 0.281,0.004 0.285,0.004 0.282,0.004 h 0.285 l 0.285,-0.004 0.281,-0.004 0.285,-0.004 0.282,-0.008 0.285,-0.007 0.281,-0.012 0.285,-0.012 0.285,-0.015 0.282,-0.016 0.285,-0.016 0.281,-0.019 0.285,-0.02 0.281,-0.019 0.286,-0.028 0.281,-0.023 0.57,-0.055 0.281,-0.031 0.286,-0.031 0.281,-0.032 0.285,-0.035 0.281,-0.035 0.571,-0.078"
           style="fill:none;stroke:#0000ff;stroke-width:2;stroke-linecap:butt;stroke-linejoin:bevel;stroke-miterlimit:10;stroke-dasharray:none;stroke-opacity:1"
           id="path370" /></g><g
         id="g372"><path
           d="m 209.895,240.332 0.281,-0.039 0.285,-0.043 0.281,-0.043 0.285,-0.047 0.282,-0.047 0.285,-0.047 0.281,-0.05 0.57,-0.102 0.282,-0.055 0.285,-0.054 0.281,-0.059 0.285,-0.055 0.281,-0.062 0.286,-0.059 0.285,-0.062 0.281,-0.063 0.285,-0.066 0.281,-0.067 0.285,-0.066 0.282,-0.07 0.57,-0.141 0.281,-0.074 0.285,-0.074 0.282,-0.075 0.285,-0.078 0.281,-0.078 0.285,-0.078 0.282,-0.082 0.57,-0.164 0.281,-0.086 0.285,-0.082 0.281,-0.09 0.286,-0.086 0.281,-0.09 0.57,-0.179 0.281,-0.094 0.286,-0.094 0.281,-0.093 0.285,-0.098 0.281,-0.098 0.285,-0.097 0.282,-0.098 0.57,-0.203 0.281,-0.102"
           style="fill:none;stroke:#0000ff;stroke-width:2;stroke-linecap:butt;stroke-linejoin:bevel;stroke-miterlimit:10;stroke-dasharray:none;stroke-opacity:1"
           id="path374" /></g><g
         id="g376"><path
           d="m 223.781,236.742 0.285,-0.101 0.282,-0.106 0.285,-0.105 0.281,-0.11 0.285,-0.105 0.285,-0.11 0.282,-0.109 0.285,-0.109 0.281,-0.114 0.285,-0.113 0.281,-0.113 0.286,-0.113 0.281,-0.118 0.57,-0.234 0.281,-0.117 0.286,-0.121 0.281,-0.117 0.285,-0.122 0.281,-0.125 0.285,-0.121 0.286,-0.125 0.281,-0.125 0.285,-0.125 0.281,-0.125 0.285,-0.129 0.282,-0.125 0.57,-0.257 0.281,-0.133 0.285,-0.129 0.282,-0.133 0.285,-0.133 0.281,-0.132 0.285,-0.137 0.281,-0.133 0.571,-0.273 0.281,-0.137 0.285,-0.137 0.281,-0.141 0.286,-0.14 0.281,-0.141 0.57,-0.281 0.281,-0.141 0.285,-0.144 0.282,-0.141 0.285,-0.144"
           style="fill:none;stroke:#0000ff;stroke-width:2;stroke-linecap:butt;stroke-linejoin:bevel;stroke-miterlimit:10;stroke-dasharray:none;stroke-opacity:1"
           id="path378" /></g><g
         id="g380"><path
           d="m 237.672,230.598 0.281,-0.145 0.285,-0.144 0.282,-0.149 0.285,-0.144 0.285,-0.149 0.281,-0.148 0.285,-0.149 0.282,-0.148 0.285,-0.149 0.281,-0.148 0.57,-0.305 0.281,-0.148 0.286,-0.152 0.281,-0.157 0.285,-0.152 0.281,-0.152 0.285,-0.157 0.286,-0.152 0.281,-0.156 0.285,-0.156 0.281,-0.157 0.285,-0.156 0.282,-0.156 0.285,-0.157 0.281,-0.16 0.285,-0.156 0.285,-0.16 0.282,-0.156 0.285,-0.16 0.281,-0.161 0.285,-0.16 0.281,-0.16 0.286,-0.16 0.285,-0.164 0.281,-0.16 0.285,-0.164 0.281,-0.161 0.286,-0.164 0.281,-0.164 0.285,-0.16 0.281,-0.164 0.571,-0.328 0.281,-0.168 0.285,-0.164 0.281,-0.164 0.285,-0.164 0.282,-0.168"
           style="fill:none;stroke:#0000ff;stroke-width:2;stroke-linecap:butt;stroke-linejoin:bevel;stroke-miterlimit:10;stroke-dasharray:none;stroke-opacity:1"
           id="path382" /></g><g
         id="g384"><path
           d="m 251.559,222.922 0.285,-0.164 0.285,-0.168 0.281,-0.164 0.285,-0.168 0.282,-0.168 0.285,-0.168 0.281,-0.164 0.285,-0.168 0.281,-0.168 0.571,-0.336 0.281,-0.168 0.285,-0.172 0.281,-0.168 0.285,-0.168 0.282,-0.168 0.285,-0.168 0.285,-0.172 0.281,-0.168 0.285,-0.172 0.282,-0.167 0.285,-0.168 0.281,-0.172 0.285,-0.168 0.285,-0.172 0.282,-0.172 0.285,-0.168 0.281,-0.172 0.285,-0.168 0.281,-0.172 0.286,-0.172 0.281,-0.168 0.57,-0.343 0.281,-0.172 0.286,-0.168 0.281,-0.172 0.285,-0.172 0.281,-0.172 0.285,-0.168 0.286,-0.172 0.281,-0.172 0.285,-0.171 0.281,-0.168 0.285,-0.172 0.282,-0.172 0.285,-0.172 0.281,-0.168 0.285,-0.172"
           style="fill:none;stroke:#0000ff;stroke-width:2;stroke-linecap:butt;stroke-linejoin:bevel;stroke-miterlimit:10;stroke-dasharray:none;stroke-opacity:1"
           id="path386" /></g><g
         id="g388"><path
           d="m 265.449,214.617 0.285,-0.172 0.282,-0.168 0.285,-0.172 0.281,-0.171 0.285,-0.168 0.281,-0.172 0.286,-0.172 0.285,-0.168 0.281,-0.172 0.285,-0.168 0.281,-0.172 0.286,-0.168 0.281,-0.172 0.285,-0.168 0.285,-0.172 0.281,-0.167 0.286,-0.172 0.281,-0.168 0.285,-0.168 0.281,-0.168 0.285,-0.172 0.282,-0.168 0.57,-0.336 0.281,-0.168 0.285,-0.168 0.282,-0.168 0.285,-0.168 0.281,-0.168 0.57,-0.336 0.282,-0.168 0.285,-0.164 0.281,-0.168 0.285,-0.168 0.281,-0.164 0.286,-0.168 0.281,-0.164 0.285,-0.168 0.285,-0.164 0.281,-0.164 0.285,-0.164 0.282,-0.168 0.285,-0.164 0.281,-0.164 0.57,-0.328 0.282,-0.164 0.285,-0.16"
           style="fill:none;stroke:#0000ff;stroke-width:2;stroke-linecap:butt;stroke-linejoin:bevel;stroke-miterlimit:10;stroke-dasharray:none;stroke-opacity:1"
           id="path390" /></g><g
         id="g392"><path
           d="m 279.34,206.395 0.281,-0.165 0.285,-0.164 0.282,-0.164 0.285,-0.16 0.285,-0.164 0.281,-0.16 0.285,-0.16 0.281,-0.164 0.286,-0.16 0.281,-0.161 0.285,-0.16 0.281,-0.16 0.571,-0.32 0.281,-0.16 0.285,-0.157 0.281,-0.16 0.285,-0.156 0.282,-0.16 0.57,-0.313 0.281,-0.16 0.285,-0.156 0.282,-0.156 0.285,-0.157 0.281,-0.156 0.285,-0.152 0.281,-0.156 0.286,-0.157 0.285,-0.152 0.281,-0.156 0.285,-0.153 0.281,-0.152 0.286,-0.156 0.281,-0.153 0.57,-0.304 0.281,-0.149 0.286,-0.152 0.281,-0.152 0.285,-0.149 0.281,-0.152 0.285,-0.149 0.282,-0.148 0.285,-0.152 0.285,-0.149 0.281,-0.148 0.285,-0.145 0.282,-0.148"
           style="fill:none;stroke:#0000ff;stroke-width:2;stroke-linecap:butt;stroke-linejoin:bevel;stroke-miterlimit:10;stroke-dasharray:none;stroke-opacity:1"
           id="path394" /></g><g
         id="g396"><path
           d="m 293.227,198.758 0.285,-0.149 0.281,-0.148 0.57,-0.289 0.282,-0.149 0.285,-0.144 0.281,-0.145 0.285,-0.144 0.281,-0.145 0.285,-0.144 0.286,-0.141 0.281,-0.144 0.285,-0.141 0.281,-0.145 0.285,-0.14 0.282,-0.141 0.285,-0.14 0.281,-0.141 0.57,-0.281 0.282,-0.137 0.285,-0.141 0.281,-0.136 0.285,-0.141 0.281,-0.137 0.571,-0.273 0.281,-0.137 0.285,-0.137 0.281,-0.132 0.286,-0.137 0.281,-0.133 0.285,-0.137 0.281,-0.132 0.571,-0.266 0.281,-0.133 0.285,-0.133 0.281,-0.133 0.285,-0.128 0.282,-0.133 0.57,-0.258 0.281,-0.129 0.285,-0.129 0.282,-0.129 0.285,-0.129 0.281,-0.129 0.285,-0.125"
           style="fill:none;stroke:#0000ff;stroke-width:2;stroke-linecap:butt;stroke-linejoin:bevel;stroke-miterlimit:10;stroke-dasharray:none;stroke-opacity:1"
           id="path398" /></g><g
         id="g400"><path
           d="m 307.117,192.023 0.285,-0.128 0.282,-0.125 0.285,-0.125 0.281,-0.125 0.285,-0.125 0.281,-0.125 0.286,-0.125 0.281,-0.125 0.285,-0.122 0.285,-0.125 0.281,-0.121 0.286,-0.121 0.281,-0.121 0.285,-0.121 0.281,-0.121 0.571,-0.242 0.281,-0.117 0.285,-0.118 0.281,-0.121 0.285,-0.117 0.282,-0.117 0.285,-0.117 0.281,-0.117 0.285,-0.114 0.285,-0.117 0.282,-0.117 0.285,-0.113 0.281,-0.114 0.285,-0.113 0.281,-0.113 0.571,-0.227 0.281,-0.113 0.285,-0.109 0.281,-0.114 0.285,-0.109 0.282,-0.109 0.285,-0.11 0.281,-0.109 0.57,-0.219 0.282,-0.109 0.285,-0.106 0.281,-0.109 0.285,-0.106 0.282,-0.105 0.57,-0.211"
           style="fill:none;stroke:#0000ff;stroke-width:2;stroke-linecap:butt;stroke-linejoin:bevel;stroke-miterlimit:10;stroke-dasharray:none;stroke-opacity:1"
           id="path402" /></g><g
         id="g404"><path
           d="m 321.008,186.336 0.281,-0.106 0.285,-0.105 0.281,-0.102 0.286,-0.105 0.281,-0.102 0.285,-0.101 0.285,-0.106 0.281,-0.101 0.286,-0.098 0.281,-0.101 0.285,-0.102 0.281,-0.102 0.285,-0.097 0.282,-0.098 0.285,-0.101 0.285,-0.098 0.281,-0.098 0.285,-0.097 0.282,-0.098 0.285,-0.094 0.281,-0.097 0.285,-0.094 0.285,-0.098 0.282,-0.094 0.285,-0.093 0.281,-0.094 0.285,-0.094 0.281,-0.094 0.286,-0.089 0.281,-0.094 0.285,-0.09 0.285,-0.094 0.281,-0.09 0.286,-0.089 0.281,-0.09 0.285,-0.09 0.281,-0.09 0.285,-0.09 0.285,-0.086 0.282,-0.09 0.285,-0.086 0.281,-0.086 0.285,-0.085 0.282,-0.09 0.285,-0.082 0.285,-0.086 0.281,-0.086 0.285,-0.086 0.282,-0.082"
           style="fill:none;stroke:#0000ff;stroke-width:2;stroke-linecap:butt;stroke-linejoin:bevel;stroke-miterlimit:10;stroke-dasharray:none;stroke-opacity:1"
           id="path406" /></g><g
         id="g408"><path
           d="m 334.895,181.715 0.285,-0.086 0.281,-0.082 0.285,-0.082 0.281,-0.082 0.571,-0.164 0.281,-0.082 0.285,-0.078 0.281,-0.082 0.285,-0.079 0.282,-0.082 0.57,-0.156 0.281,-0.078 0.285,-0.078 0.282,-0.078 0.285,-0.078 0.281,-0.075 0.285,-0.078 0.281,-0.074 0.286,-0.078 0.285,-0.074 0.281,-0.074 0.285,-0.075 0.281,-0.074 0.286,-0.074 0.281,-0.074 0.285,-0.071 0.285,-0.074 0.281,-0.07 0.286,-0.074 0.281,-0.071 0.285,-0.07 0.281,-0.07 0.571,-0.141 0.281,-0.066 0.285,-0.071 0.281,-0.07 0.285,-0.066 0.282,-0.071 0.285,-0.066 0.281,-0.067 0.57,-0.132 0.282,-0.067 0.285,-0.066 0.281,-0.063 0.285,-0.066"
           style="fill:none;stroke:#0000ff;stroke-width:2;stroke-linecap:butt;stroke-linejoin:bevel;stroke-miterlimit:10;stroke-dasharray:none;stroke-opacity:1"
           id="path410" /></g><g
         id="g412"><path
           d="m 348.785,178.086 0.281,-0.063 0.286,-0.066 0.285,-0.062 0.281,-0.063 0.285,-0.066 0.281,-0.063 0.286,-0.062 0.281,-0.063 0.285,-0.058 0.281,-0.063 0.285,-0.062 0.286,-0.059 0.281,-0.063 0.285,-0.058 0.281,-0.059 0.285,-0.058 0.282,-0.059 0.57,-0.117 0.281,-0.059 0.285,-0.058 0.282,-0.055 0.285,-0.059 0.281,-0.054 0.285,-0.059 0.281,-0.055 0.571,-0.109 0.281,-0.055 0.285,-0.054 0.281,-0.055 0.285,-0.055 0.282,-0.054 0.285,-0.051 0.285,-0.055 0.281,-0.051 0.285,-0.054 0.282,-0.051 0.285,-0.051 0.281,-0.051 0.57,-0.101 0.282,-0.051 0.285,-0.051 0.281,-0.051 0.285,-0.05 0.281,-0.047 0.286,-0.051 0.281,-0.047"
           style="fill:none;stroke:#0000ff;stroke-width:2;stroke-linecap:butt;stroke-linejoin:bevel;stroke-miterlimit:10;stroke-dasharray:none;stroke-opacity:1"
           id="path414" /></g><g
         id="g416"><path
           d="m 362.672,175.328 0.285,-0.047 0.285,-0.051 0.281,-0.046 0.286,-0.047 0.281,-0.047 0.285,-0.047 0.281,-0.047 0.571,-0.094 0.281,-0.043 0.285,-0.047 0.281,-0.042 0.285,-0.047 0.282,-0.043 0.285,-0.047 0.281,-0.043 0.57,-0.086 0.282,-0.043 0.285,-0.043 0.281,-0.043 0.285,-0.043 0.281,-0.039 0.571,-0.086 0.281,-0.039 0.285,-0.043 0.281,-0.039 0.286,-0.039 0.281,-0.043 0.57,-0.078 0.281,-0.039 0.285,-0.039 0.282,-0.039 0.285,-0.039 0.281,-0.04 0.285,-0.035 0.282,-0.039 0.285,-0.039 0.285,-0.035 0.281,-0.039 0.285,-0.035 0.282,-0.035 0.285,-0.039 0.281,-0.036 0.57,-0.07 0.281,-0.035"
           style="fill:none;stroke:#0000ff;stroke-width:2;stroke-linecap:butt;stroke-linejoin:bevel;stroke-miterlimit:10;stroke-dasharray:none;stroke-opacity:1"
           id="path418" /></g><g
         id="g420"><path
           d="m 376.562,173.293 0.286,-0.035 0.281,-0.035 0.285,-0.035 0.281,-0.036 0.285,-0.031 0.282,-0.035 0.285,-0.035 0.285,-0.031 0.281,-0.036 0.285,-0.031 0.282,-0.035 0.285,-0.031 0.281,-0.032 0.57,-0.062 0.282,-0.035 0.285,-0.031 0.281,-0.032 0.285,-0.027 0.281,-0.031 0.286,-0.032 0.281,-0.031 0.285,-0.031 0.285,-0.027 0.281,-0.032 0.286,-0.027 0.281,-0.031 0.285,-0.028 0.281,-0.031 0.571,-0.055 0.281,-0.031 0.285,-0.027 0.281,-0.027 0.285,-0.028 0.282,-0.027 0.57,-0.055 0.281,-0.027 0.285,-0.028 0.282,-0.023 0.285,-0.027 0.281,-0.028 0.285,-0.023 0.281,-0.027 0.286,-0.024 0.285,-0.027 0.281,-0.024 0.285,-0.027"
           style="fill:none;stroke:#0000ff;stroke-width:2;stroke-linecap:butt;stroke-linejoin:bevel;stroke-miterlimit:10;stroke-dasharray:none;stroke-opacity:1"
           id="path422" /></g><g
         id="g424"><path
           d="m 390.453,171.832 0.281,-0.023 0.286,-0.024 0.281,-0.027 0.57,-0.047 0.281,-0.023 0.286,-0.024 0.281,-0.023 0.285,-0.024 0.281,-0.023 0.285,-0.024 0.282,-0.023 0.285,-0.024 0.285,-0.019 0.281,-0.024 0.285,-0.023 0.282,-0.019 0.285,-0.024 0.281,-0.019 0.285,-0.024 0.285,-0.019 0.282,-0.024 0.285,-0.019 0.281,-0.02 0.285,-0.023 0.281,-0.02 0.571,-0.039 0.281,-0.023 0.285,-0.02 0.281,-0.019 0.285,-0.02 0.282,-0.02 0.285,-0.019 0.281,-0.02 0.285,-0.015 0.285,-0.02 0.282,-0.019 0.285,-0.02 0.281,-0.015 0.285,-0.02 0.281,-0.019 0.286,-0.016 0.285,-0.02 0.281,-0.019 0.285,-0.016 0.281,-0.015 0.286,-0.02 0.281,-0.016"
           style="fill:none;stroke:#0000ff;stroke-width:2;stroke-linecap:butt;stroke-linejoin:bevel;stroke-miterlimit:10;stroke-dasharray:none;stroke-opacity:1"
           id="path426" /></g><g
         id="g428"><path
           d="m 404.34,170.816 0.285,-0.019 0.281,-0.016 0.285,-0.015 0.286,-0.02 0.281,-0.016 0.285,-0.015 0.281,-0.016 0.285,-0.015 0.282,-0.016 0.57,-0.031 0.281,-0.016 0.285,-0.016 0.282,-0.015 0.285,-0.016 0.281,-0.015 0.57,-0.032 0.282,-0.011 0.285,-0.016 0.281,-0.016 0.285,-0.015 0.281,-0.012 0.286,-0.016 0.281,-0.011 0.57,-0.032 0.281,-0.011 0.285,-0.016 0.282,-0.012 0.285,-0.011 0.281,-0.016 0.285,-0.012 0.285,-0.015 0.282,-0.012 0.285,-0.012 0.281,-0.011 0.285,-0.016 0.282,-0.012 0.285,-0.012 0.281,-0.011 0.57,-0.024 0.281,-0.011 0.286,-0.012 0.281,-0.012 0.285,-0.012 0.281,-0.011 0.285,-0.012"
           style="fill:none;stroke:#0000ff;stroke-width:2;stroke-linecap:butt;stroke-linejoin:bevel;stroke-miterlimit:10;stroke-dasharray:none;stroke-opacity:1"
           id="path430" /></g><g
         id="g432"><path
           d="m 418.23,170.125 0.286,-0.012 0.281,-0.011 0.285,-0.012 0.281,-0.012 0.285,-0.012 0.282,-0.011 0.285,-0.008 0.281,-0.012 0.285,-0.012 0.285,-0.007 0.282,-0.012 0.285,-0.012 0.281,-0.008 0.285,-0.011 0.281,-0.012 0.286,-0.008 0.285,-0.012 0.281,-0.007 0.285,-0.012 0.281,-0.008 0.286,-0.012 0.281,-0.007 0.285,-0.012 0.285,-0.008 0.281,-0.008 0.286,-0.012 0.281,-0.007 0.285,-0.008 0.281,-0.012 0.285,-0.008 0.282,-0.008 0.285,-0.007 0.285,-0.012 0.281,-0.008 0.285,-0.008 0.282,-0.007 0.285,-0.008 0.281,-0.008 0.285,-0.012 0.285,-0.008 0.282,-0.007 0.285,-0.008 0.281,-0.008 0.285,-0.008 0.281,-0.008 0.286,-0.007 0.281,-0.008 0.57,-0.016"
           style="fill:none;stroke:#0000ff;stroke-width:2;stroke-linecap:butt;stroke-linejoin:bevel;stroke-miterlimit:10;stroke-dasharray:none;stroke-opacity:1"
           id="path434" /></g><g
         id="g436"><path
           d="m 432.121,169.664 0.281,-0.008 0.286,-0.008 0.281,-0.003 0.285,-0.008 0.281,-0.008 0.57,-0.016 0.282,-0.008 0.285,-0.003 0.281,-0.008 0.285,-0.008 0.282,-0.008 0.285,-0.004 0.285,-0.008 0.281,-0.007 0.285,-0.008 0.282,-0.004 0.285,-0.008 0.281,-0.004 0.285,-0.008 0.281,-0.007 0.285,-0.004 0.286,-0.008 0.281,-0.004 0.285,-0.008 0.281,-0.004 0.285,-0.008 0.282,-0.004 0.285,-0.007 0.285,-0.004 0.281,-0.008 0.285,-0.004 0.282,-0.008 0.285,-0.004 0.281,-0.004 0.285,-0.007 0.281,-0.004 0.286,-0.004 0.285,-0.008 0.281,-0.004 0.285,-0.004 0.281,-0.008 0.286,-0.004 0.281,-0.007 0.57,-0.008 0.281,-0.004 0.286,-0.004 0.281,-0.008"
           style="fill:none;stroke:#0000ff;stroke-width:2;stroke-linecap:butt;stroke-linejoin:bevel;stroke-miterlimit:10;stroke-dasharray:none;stroke-opacity:1"
           id="path438" /></g><g
         id="g440"><path
           d="m 446.008,169.371 0.285,-0.008 0.281,-0.004 0.571,-0.007 0.281,-0.004 0.285,-0.004 0.281,-0.008 0.285,-0.004 0.282,-0.004 0.285,-0.004 0.281,-0.004 0.285,-0.004 0.285,-0.007 0.282,-0.004 0.285,-0.004 0.281,-0.004 0.285,-0.004 0.281,-0.004 0.571,-0.008 0.281,-0.004 h 0.285 l 0.281,-0.004 0.285,-0.003 0.282,-0.004 0.285,-0.004 0.281,-0.004 0.57,-0.008 0.282,-0.004 0.285,-0.004 0.281,-0.004 0.285,-0.004 0.282,-0.004 0.57,-0.007 0.281,-0.004 h 0.285 l 0.281,-0.004 0.286,-0.004 0.281,-0.004 0.285,-0.004 h 0.281 l 0.571,-0.008 0.281,-0.004 h 0.285 l 0.281,-0.003 0.285,-0.004"
           style="fill:none;stroke:#0000ff;stroke-width:2;stroke-linecap:butt;stroke-linejoin:bevel;stroke-miterlimit:10;stroke-dasharray:none;stroke-opacity:1"
           id="path442" /></g><g
         id="g444"><path
           d="m 459.898,169.184 0.282,-0.004 0.57,-0.008 h 0.281 l 0.285,-0.004 0.282,-0.004 0.285,-0.004 h 0.281 l 0.57,-0.008 0.282,-0.004 0.285,-0.003 h 0.281 l 0.285,-0.004 h 0.281 l 0.286,-0.004 h 0.281 l 0.57,-0.008 h 0.281 l 0.286,-0.004 h 0.281 l 0.285,-0.004 0.281,-0.004 h 0.285 l 0.286,-0.004 h 0.281 l 0.285,-0.004 h 0.281 l 0.285,-0.004 0.282,-0.003 h 0.285 l 0.281,-0.004 h 0.285 l 0.285,-0.004 h 0.282 l 0.285,-0.004 0.281,-0.004 h 0.285 l 0.281,-0.004 h 0.286 l 0.285,-0.004 0.281,-0.004 h 0.285 l 0.281,-0.004 h 0.286 l 0.281,-0.004 h 0.57"
           style="fill:none;stroke:#0000ff;stroke-width:2;stroke-linecap:butt;stroke-linejoin:bevel;stroke-miterlimit:10;stroke-dasharray:none;stroke-opacity:1"
           id="path446" /></g><g
         id="g448"><path
           d="m 473.789,169.066 h 0.566 l 0.282,-0.004 h 0.285 l 0.281,-0.003 h 0.567 l 0.285,-0.004 h 0.566 l 0.285,-0.004 h 0.282 l 0.285,-0.004 h 0.566 l 0.285,-0.004 h 0.281 l 0.286,-0.004 h 0.566 l 0.281,-0.004 h 0.285 l 0.282,-0.004 h 0.57 l 0.281,-0.004 h 0.567 l 0.285,-0.004 h 0.281 l 0.285,-0.003 h 0.567 l 0.285,-0.004 h 0.281 l 0.285,-0.004 h 0.567 l 0.281,-0.004 h 0.285 l 0.285,-0.004 h 0.848 L 486.543,169 h 1.133"
           style="fill:none;stroke:#0000ff;stroke-width:2;stroke-linecap:butt;stroke-linejoin:bevel;stroke-miterlimit:10;stroke-dasharray:none;stroke-opacity:1"
           id="path450" /></g><g
         id="g452"><path
           d="m 487.676,169 h 0.285 l 0.281,-0.004 h 1.137 l 0.281,-0.004 h 1.133 l 0.285,-0.004 h 1.133 l 0.285,-0.004 h 1.133 l 0.285,-0.004 h 1.133 l 0.281,-0.003 h 1.137 l 0.281,-0.004 h 1.418 l 0.285,-0.004 h 1.414 l 0.285,-0.004 h 1.418"
           style="fill:none;stroke:#0000ff;stroke-width:2;stroke-linecap:butt;stroke-linejoin:bevel;stroke-miterlimit:10;stroke-dasharray:none;stroke-opacity:1"
           id="path454" /></g><g
         id="g456"><path
           d="m 501.566,168.957 h 1.418 l 0.282,-0.004 h 1.703 l 0.281,-0.004 h 1.699 l 0.285,-0.004 h 1.985 l 0.285,-0.004 h 2.551 l 0.281,-0.003 h 2.551 l 0.285,-0.004 h 0.281"
           style="fill:none;stroke:#0000ff;stroke-width:2;stroke-linecap:butt;stroke-linejoin:bevel;stroke-miterlimit:10;stroke-dasharray:none;stroke-opacity:1"
           id="path458" /></g><g
         id="g460"><path
           d="m 515.453,168.934 h 2.551 l 0.285,-0.004 h 3.684 l 0.285,-0.004 h 4.25 l 0.285,-0.004 h 2.551"
           style="fill:none;stroke:#0000ff;stroke-width:2;stroke-linecap:butt;stroke-linejoin:bevel;stroke-miterlimit:10;stroke-dasharray:none;stroke-opacity:1"
           id="path462" /></g><g
         id="g464"><path
           d="m 529.344,168.922 h 2.836 l 0.281,-0.004 h 7.371 l 0.281,-0.004 h 3.121"
           style="fill:none;stroke:#0000ff;stroke-width:2;stroke-linecap:butt;stroke-linejoin:bevel;stroke-miterlimit:10;stroke-dasharray:none;stroke-opacity:1"
           id="path466" /></g><g
         id="g468"><path
           d="m 543.234,168.914 h 7.934 l 0.285,-0.004 h 5.668"
           style="fill:none;stroke:#0000ff;stroke-width:2;stroke-linecap:butt;stroke-linejoin:bevel;stroke-miterlimit:10;stroke-dasharray:none;stroke-opacity:1"
           id="path470" /></g><g
         id="g472"><path
           d="m 557.121,168.91 h 13.891"
           style="fill:none;stroke:#0000ff;stroke-width:2;stroke-linecap:butt;stroke-linejoin:bevel;stroke-miterlimit:10;stroke-dasharray:none;stroke-opacity:1"
           id="path474" /></g><g
         id="g476"><path
           d="m 571.012,168.91 h 6.519 l 0.281,-0.004 h 7.09"
           style="fill:none;stroke:#0000ff;stroke-width:2;stroke-linecap:butt;stroke-linejoin:bevel;stroke-miterlimit:10;stroke-dasharray:none;stroke-opacity:1"
           id="path478" /></g><g
         id="g480"><path
           d="m 584.902,168.906 h 11.336"
           style="fill:none;stroke:#0000ff;stroke-width:2;stroke-linecap:butt;stroke-linejoin:bevel;stroke-miterlimit:10;stroke-dasharray:none;stroke-opacity:1"
           id="path482" /></g><path
         d="m 423.438,17.582 h 162.949 v 50.02 H 423.438 Z"
         style="fill:#ffffff;fill-opacity:1;fill-rule:nonzero;stroke:none"
         id="path484" /><text
         transform="translate(462.84918,32.738331)"
         style="font-variant:normal;font-weight:normal;font-size:13.6421px;font-family:TeXGyreHeros;-inkscape-font-specification:TeXGyreHeros-Regular;writing-mode:lr-tb;fill:#000000;fill-opacity:1;fill-rule:nonzero;stroke:none"
         id="text488"><tspan
           x="0 0 15.129095"
           y="0"
           sodipodi:role="line"
           id="tspan486">J (b</tspan></text><text
         style="font-variant:normal;font-weight:normal;font-size:13.6421px;font-family:TeXGyreHeros;-inkscape-font-specification:TeXGyreHeros-Regular;writing-mode:lr-tb;fill:#000000;fill-opacity:1;fill-rule:nonzero;stroke:none"
         id="text504"
         x="492.59656"
         y="32.738331"><tspan
           x="492.59656 497.13934 500.93188 508.51691 516.10187 519.89441 523.68689"
           y="32.738331"
           sodipodi:role="line"
           id="tspan502">) eq. (6.11)</tspan></text><g
         id="g506"><path
           d="m 429.453,30.961 h 30.082"
           style="fill:none;stroke:#ff0000;stroke-width:2;stroke-linecap:square;stroke-linejoin:miter;stroke-miterlimit:10;stroke-dasharray:none;stroke-opacity:1"
           id="path508" /></g><text
         transform="translate(462.84918,55.475162)"
         style="font-variant:normal;font-weight:normal;font-size:13.6421px;font-family:TeXGyreHeros;-inkscape-font-specification:TeXGyreHeros-Regular;writing-mode:lr-tb;fill:#000000;fill-opacity:1;fill-rule:nonzero;stroke:none"
         id="text512"><tspan
           x="0"
           y="0"
           id="tspan510">J</tspan></text><text
         transform="translate(467.39656,62.296201)"
         style="font-variant:normal;font-weight:normal;font-size:11.3684px;font-family:TeXGyreHeros;-inkscape-font-specification:TeXGyreHeros-Regular;writing-mode:lr-tb;fill:#000000;fill-opacity:1;fill-rule:nonzero;stroke:none"
         id="text516"><tspan
           x="0"
           y="0"
           id="tspan514">z</tspan></text><text
         transform="translate(474.97549,55.475162)"
         style="font-variant:normal;font-weight:normal;font-size:13.6421px;font-family:TeXGyreHeros;-inkscape-font-specification:TeXGyreHeros-Regular;writing-mode:lr-tb;fill:#000000;fill-opacity:1;fill-rule:nonzero;stroke:none"
         id="text520"><tspan
           x="0"
           y="0"
           sodipodi:role="line"
           id="tspan518">(b) eq. (6.12) </tspan></text><g
         id="g538"><path
           d="m 429.453,54.219 h 30.082"
           style="fill:none;stroke:#0000ff;stroke-width:2;stroke-linecap:square;stroke-linejoin:miter;stroke-miterlimit:10;stroke-dasharray:none;stroke-opacity:1"
           id="path540" /></g><g
         id="g542"><path
           d="m 423.438,17.582 h 162.949 v 50.02 H 423.438 Z"
           style="fill:none;stroke:#262626;stroke-width:2;stroke-linecap:square;stroke-linejoin:miter;stroke-miterlimit:10;stroke-dasharray:none;stroke-opacity:1"
           id="path544" /></g><text
         transform="translate(17.140641,13.8009)"
         style="font-variant:normal;font-weight:normal;font-size:14px;font-family:'DejaVu Sans';-inkscape-font-specification:DejaVuSans;writing-mode:lr-tb;fill:#000000;fill-opacity:1;fill-rule:nonzero;stroke:none"
         id="text554"><tspan
           x="0"
           y="0"
           id="tspan546">2</tspan><tspan
           x="0"
           y="80.5"
           id="tspan548">1</tspan><tspan
           x="0"
           y="161"
           id="tspan550">0</tspan><tspan
           x="-5.0585918 -0.018592"
           y="241.5"
           sodipodi:role="line"
           id="tspan552">-1</tspan></text><text
         transform="translate(469.02919,38.730394)"
         style="font-variant:normal;font-weight:normal;font-size:11.3684px;font-family:TeXGyreHeros;-inkscape-font-specification:TeXGyreHeros-Regular;writing-mode:lr-tb;fill:#000000;fill-opacity:1;fill-rule:nonzero;stroke:none"
         id="text558"><tspan
           x="0"
           y="0"
           id="tspan556">H</tspan></text></g></g></svg>
