<?xml version="1.0" encoding="UTF-8" standalone="no"?>
<!-- Created with Inkscape (http://www.inkscape.org/) -->

<svg
   version="1.1"
   id="svg2"
   xml:space="preserve"
   width="774.4917"
   height="414.62268"
   viewBox="0 0 774.4917 414.62266"
   sodipodi:docname="waveforms_perturbation.svg"
   inkscape:version="1.1.2 (0a00cf5339, 2022-02-04)"
   xmlns:inkscape="http://www.inkscape.org/namespaces/inkscape"
   xmlns:sodipodi="http://sodipodi.sourceforge.net/DTD/sodipodi-0.dtd"
   xmlns="http://www.w3.org/2000/svg"
   xmlns:svg="http://www.w3.org/2000/svg"><defs
     id="defs6"><clipPath
       clipPathUnits="userSpaceOnUse"
       id="clipPath18"><path
         d="M -1.43e-6,1.299e-5 H 940.00003 V 419.00003 H -1.43e-6 Z"
         id="path16" /></clipPath></defs><sodipodi:namedview
     id="namedview4"
     pagecolor="#ffffff"
     bordercolor="#666666"
     borderopacity="1.0"
     inkscape:pageshadow="2"
     inkscape:pageopacity="0.0"
     inkscape:pagecheckerboard="0"
     showgrid="false"
     fit-margin-top="0"
     fit-margin-left="0"
     fit-margin-right="0"
     fit-margin-bottom="0"
     inkscape:zoom="1.5552255"
     inkscape:cx="502.17797"
     inkscape:cy="428.55521"
     inkscape:window-width="3207"
     inkscape:window-height="1638"
     inkscape:window-x="648"
     inkscape:window-y="268"
     inkscape:window-maximized="0"
     inkscape:current-layer="g8" /><g
     id="g8"
     inkscape:groupmode="layer"
     inkscape:label="waveforms_perturbation"
     transform="matrix(1.3333333,0,0,-1.3333333,-10.899959,746.64261)"><path
       d="M 34.105269,297.205 H 586.61056 v 259.2 H 34.105269 Z"
       style="fill:#ffffff;fill-opacity:1;fill-rule:nonzero;stroke:none;stroke-width:0.757895"
       id="path28" /><path
       d="M 34.105269,297.205 H 586.61056"
       style="fill:none;stroke:#262626;stroke-width:2;stroke-linecap:square;stroke-linejoin:miter;stroke-miterlimit:10;stroke-dasharray:none;stroke-opacity:1"
       id="path32" /><path
       d="M 34.105269,556.405 H 586.61056"
       style="fill:none;stroke:#262626;stroke-width:2;stroke-linecap:square;stroke-linejoin:miter;stroke-miterlimit:10;stroke-dasharray:none;stroke-opacity:1"
       id="path36" /><path
       d="m 34.105269,297.205 v 5.52506"
       style="fill:none;stroke:#262626;stroke-width:2;stroke-linecap:square;stroke-linejoin:miter;stroke-miterlimit:10;stroke-dasharray:none;stroke-opacity:1"
       id="path40" /><path
       d="m 126.18948,297.205 v 5.52506"
       style="fill:none;stroke:#262626;stroke-width:2;stroke-linecap:square;stroke-linejoin:miter;stroke-miterlimit:10;stroke-dasharray:none;stroke-opacity:1"
       id="path44" /><path
       d="m 218.2737,297.205 v 5.52506"
       style="fill:none;stroke:#262626;stroke-width:2;stroke-linecap:square;stroke-linejoin:miter;stroke-miterlimit:10;stroke-dasharray:none;stroke-opacity:1"
       id="path48" /><path
       d="m 310.35792,297.205 v 5.52506"
       style="fill:none;stroke:#262626;stroke-width:2;stroke-linecap:square;stroke-linejoin:miter;stroke-miterlimit:10;stroke-dasharray:none;stroke-opacity:1"
       id="path52" /><path
       d="m 402.44213,297.205 v 5.52506"
       style="fill:none;stroke:#262626;stroke-width:2;stroke-linecap:square;stroke-linejoin:miter;stroke-miterlimit:10;stroke-dasharray:none;stroke-opacity:1"
       id="path56" /><path
       d="m 494.52635,297.205 v 5.52506"
       style="fill:none;stroke:#262626;stroke-width:2;stroke-linecap:square;stroke-linejoin:miter;stroke-miterlimit:10;stroke-dasharray:none;stroke-opacity:1"
       id="path60" /><path
       d="m 586.61056,297.205 v 5.52506"
       style="fill:none;stroke:#262626;stroke-width:2;stroke-linecap:square;stroke-linejoin:miter;stroke-miterlimit:10;stroke-dasharray:none;stroke-opacity:1"
       id="path64" /><path
       d="m 34.105269,556.405 v -5.52506"
       style="fill:none;stroke:#262626;stroke-width:2;stroke-linecap:square;stroke-linejoin:miter;stroke-miterlimit:10;stroke-dasharray:none;stroke-opacity:1"
       id="path68" /><path
       d="m 126.18948,556.405 v -5.52506"
       style="fill:none;stroke:#262626;stroke-width:2;stroke-linecap:square;stroke-linejoin:miter;stroke-miterlimit:10;stroke-dasharray:none;stroke-opacity:1"
       id="path72" /><path
       d="m 218.2737,556.405 v -5.52506"
       style="fill:none;stroke:#262626;stroke-width:2;stroke-linecap:square;stroke-linejoin:miter;stroke-miterlimit:10;stroke-dasharray:none;stroke-opacity:1"
       id="path76" /><path
       d="m 310.35792,556.405 v -5.52506"
       style="fill:none;stroke:#262626;stroke-width:2;stroke-linecap:square;stroke-linejoin:miter;stroke-miterlimit:10;stroke-dasharray:none;stroke-opacity:1"
       id="path80" /><path
       d="m 402.44213,556.405 v -5.52506"
       style="fill:none;stroke:#262626;stroke-width:2;stroke-linecap:square;stroke-linejoin:miter;stroke-miterlimit:10;stroke-dasharray:none;stroke-opacity:1"
       id="path84" /><path
       d="m 494.52635,556.405 v -5.52506"
       style="fill:none;stroke:#262626;stroke-width:2;stroke-linecap:square;stroke-linejoin:miter;stroke-miterlimit:10;stroke-dasharray:none;stroke-opacity:1"
       id="path88" /><path
       d="m 586.61056,556.405 v -5.52506"
       style="fill:none;stroke:#262626;stroke-width:2;stroke-linecap:square;stroke-linejoin:miter;stroke-miterlimit:10;stroke-dasharray:none;stroke-opacity:1"
       id="path92" /><text
       transform="scale(1,-1)"
       style="font-variant:normal;font-weight:normal;font-size:15.9158px;font-family:Helvetica;-inkscape-font-specification:Helvetica;writing-mode:lr-tb;fill:#262626;fill-opacity:1;fill-rule:nonzero;stroke:none;stroke-width:0.757895"
       id="text100"
       x="25.34211"
       y="-276.84708"><tspan
         x="25.34211"
         y="-276.84708"
         sodipodi:role="line"
         id="tspan98"
         style="stroke-width:0.757895">-6</tspan></text><text
       transform="scale(1,-1)"
       style="font-variant:normal;font-weight:normal;font-size:15.9158px;font-family:Helvetica;-inkscape-font-specification:Helvetica;writing-mode:lr-tb;fill:#262626;fill-opacity:1;fill-rule:nonzero;stroke:none;stroke-width:0.757895"
       id="text108"
       x="117.42632"
       y="-276.84708"><tspan
         x="117.42632"
         y="-276.84708"
         sodipodi:role="line"
         id="tspan106"
         style="stroke-width:0.757895">-4</tspan></text><text
       transform="scale(1,-0.99999998)"
       style="font-variant:normal;font-weight:normal;font-size:15.9158px;font-family:Helvetica;-inkscape-font-specification:Helvetica;writing-mode:lr-tb;fill:#262626;fill-opacity:1;fill-rule:nonzero;stroke:none;stroke-width:0.757895"
       id="text116"
       x="210.3158"
       y="-276.84708"><tspan
         x="210.3158"
         y="-276.84708"
         sodipodi:role="line"
         id="tspan114"
         style="stroke-width:0.757895">-2</tspan></text><text
       transform="scale(1,-0.99999998)"
       style="font-variant:normal;font-weight:normal;font-size:15.9158px;font-family:Helvetica;-inkscape-font-specification:Helvetica;writing-mode:lr-tb;fill:#262626;fill-opacity:1;fill-rule:nonzero;stroke:none;stroke-width:0.757895"
       id="text124"
       x="305.05264"
       y="-276.84708"><tspan
         x="305.05264"
         y="-276.84708"
         id="tspan122"
         style="stroke-width:0.757895">0</tspan></text><text
       transform="scale(1,-0.99999998)"
       style="font-variant:normal;font-weight:normal;font-size:15.9158px;font-family:Helvetica;-inkscape-font-specification:Helvetica;writing-mode:lr-tb;fill:#262626;fill-opacity:1;fill-rule:nonzero;stroke:none;stroke-width:0.757895"
       id="text132"
       x="397.13687"
       y="-276.84708"><tspan
         x="397.13687"
         y="-276.84708"
         id="tspan130"
         style="stroke-width:0.757895">2</tspan></text><text
       transform="scale(1,-1)"
       style="font-variant:normal;font-weight:normal;font-size:15.9158px;font-family:Helvetica;-inkscape-font-specification:Helvetica;writing-mode:lr-tb;fill:#262626;fill-opacity:1;fill-rule:nonzero;stroke:none;stroke-width:0.757895"
       id="text140"
       x="488.79477"
       y="-276.84708"><tspan
         sodipodi:role="line"
         id="tspan138"
         style="stroke-width:0.757895"
         x="488.79477"
         y="-276.84708">4</tspan></text><text
       transform="scale(1,-1)"
       style="font-variant:normal;font-weight:normal;font-size:15.9158px;font-family:Helvetica;-inkscape-font-specification:Helvetica;writing-mode:lr-tb;fill:#262626;fill-opacity:1;fill-rule:nonzero;stroke:none;stroke-width:0.757895"
       id="text148"
       x="580.87897"
       y="-276.84708"><tspan
         sodipodi:role="line"
         id="tspan146"
         style="stroke-width:0.757895"
         x="580.87897"
         y="-276.84708">6</tspan></text><path
       d="m 34.105269,297.205 v 259.2"
       style="fill:none;stroke:#262626;stroke-width:2;stroke-linecap:square;stroke-linejoin:miter;stroke-miterlimit:10;stroke-dasharray:none;stroke-opacity:1"
       id="path152" /><path
       d="m 586.61056,297.205 v 259.2"
       style="fill:none;stroke:#262626;stroke-width:2;stroke-linecap:square;stroke-linejoin:miter;stroke-miterlimit:10;stroke-dasharray:none;stroke-opacity:1"
       id="path156" /><path
       d="M 34.105269,297.205 H 39.63033"
       style="fill:none;stroke:#262626;stroke-width:2;stroke-linecap:square;stroke-linejoin:miter;stroke-miterlimit:10;stroke-dasharray:none;stroke-opacity:1"
       id="path160" /><path
       d="M 34.105269,349.04499 H 39.63033"
       style="fill:none;stroke:#262626;stroke-width:2;stroke-linecap:square;stroke-linejoin:miter;stroke-miterlimit:10;stroke-dasharray:none;stroke-opacity:1"
       id="path164" /><path
       d="M 34.105269,400.885 H 39.63033"
       style="fill:none;stroke:#262626;stroke-width:2;stroke-linecap:square;stroke-linejoin:miter;stroke-miterlimit:10;stroke-dasharray:none;stroke-opacity:1"
       id="path168" /><path
       d="M 34.105269,452.72501 H 39.63033"
       style="fill:none;stroke:#262626;stroke-width:2;stroke-linecap:square;stroke-linejoin:miter;stroke-miterlimit:10;stroke-dasharray:none;stroke-opacity:1"
       id="path172" /><path
       d="M 34.105269,504.56501 H 39.63033"
       style="fill:none;stroke:#262626;stroke-width:2;stroke-linecap:square;stroke-linejoin:miter;stroke-miterlimit:10;stroke-dasharray:none;stroke-opacity:1"
       id="path176" /><path
       d="M 34.105269,556.405 H 39.63033"
       style="fill:none;stroke:#262626;stroke-width:2;stroke-linecap:square;stroke-linejoin:miter;stroke-miterlimit:10;stroke-dasharray:none;stroke-opacity:1"
       id="path180" /><path
       d="m 586.61056,297.205 h -5.52503"
       style="fill:none;stroke:#262626;stroke-width:2;stroke-linecap:square;stroke-linejoin:miter;stroke-miterlimit:10;stroke-dasharray:none;stroke-opacity:1"
       id="path184" /><path
       d="m 586.61056,349.04499 h -5.52503"
       style="fill:none;stroke:#262626;stroke-width:2;stroke-linecap:square;stroke-linejoin:miter;stroke-miterlimit:10;stroke-dasharray:none;stroke-opacity:1"
       id="path188" /><path
       d="m 586.61056,400.885 h -5.52503"
       style="fill:none;stroke:#262626;stroke-width:2;stroke-linecap:square;stroke-linejoin:miter;stroke-miterlimit:10;stroke-dasharray:none;stroke-opacity:1"
       id="path192" /><path
       d="m 586.61056,452.72501 h -5.52503"
       style="fill:none;stroke:#262626;stroke-width:2;stroke-linecap:square;stroke-linejoin:miter;stroke-miterlimit:10;stroke-dasharray:none;stroke-opacity:1"
       id="path196" /><path
       d="m 586.61056,504.56501 h -5.52503"
       style="fill:none;stroke:#262626;stroke-width:2;stroke-linecap:square;stroke-linejoin:miter;stroke-miterlimit:10;stroke-dasharray:none;stroke-opacity:1"
       id="path200" /><path
       d="m 586.61056,556.405 h -5.52503"
       style="fill:none;stroke:#262626;stroke-width:2;stroke-linecap:square;stroke-linejoin:miter;stroke-miterlimit:10;stroke-dasharray:none;stroke-opacity:1"
       id="path204" /><text
       transform="scale(1,-0.99999999)"
       style="font-variant:normal;font-weight:normal;font-size:15.9158px;line-height:3.2;font-family:Helvetica;-inkscape-font-specification:Helvetica;writing-mode:lr-tb;fill:#262626;fill-opacity:1;fill-rule:nonzero;stroke:none;stroke-width:0.757895"
       id="text252"
       x="29.613543"
       y="-548.47485"><tspan
         sodipodi:role="line"
         id="tspan250"
         style="text-align:end;text-anchor:end;stroke-width:0.757895"
         x="29.613543"
         y="-548.47485">1</tspan><tspan
         sodipodi:role="line"
         style="text-align:end;text-anchor:end;stroke-width:0.757895"
         x="29.613544"
         y="-497.54428"
         id="tspan58350">0.8</tspan><tspan
         sodipodi:role="line"
         style="text-align:end;text-anchor:end;stroke-width:0.757895"
         x="29.613544"
         y="-446.61374"
         id="tspan58352">0.6</tspan><tspan
         sodipodi:role="line"
         style="text-align:end;text-anchor:end;stroke-width:0.757895"
         x="29.613544"
         y="-395.68317"
         id="tspan58354">0.4</tspan><tspan
         sodipodi:role="line"
         style="text-align:end;text-anchor:end;stroke-width:0.757895"
         x="29.613544"
         y="-344.75262"
         id="tspan58356">0.2</tspan><tspan
         sodipodi:role="line"
         style="text-align:end;text-anchor:end;stroke-width:0.757895"
         x="29.613543"
         y="-293.82205"
         id="tspan58358">0</tspan></text><path
       d="m 34.050003,297.205 h 0.05525 4.604211 4.604203 4.604226 4.604203 4.604211 4.604211 l 4.604203,2e-5 h 4.604226 l 4.604203,2e-5 4.604211,3e-5 4.604211,2e-5 4.604203,7e-5 4.604226,1.2e-4 4.604203,1.6e-4 4.604216,2.6e-4 4.60421,4.4e-4 4.6042,6.4e-4 4.60423,7.6e-4 4.6042,0.002 4.60421,0.002 4.60421,0.003 4.6042,0.005 4.60423,0.008 4.6042,0.0106 4.60421,0.0152 4.60422,0.0216 4.6042,0.0304 4.60422,0.0422 4.6042,0.0582 4.60422,0.0793 4.60422,0.107 4.60419,0.14294 4.60423,0.18908 4.60419,0.24762 4.60422,0.32109 4.60422,0.41222 4.6042,0.52389 4.60422,0.65928 4.6042,0.82134 4.60422,1.0131 4.60421,1.23719 4.6042,1.49586 4.60423,1.79059 4.60419,2.12206 4.60422,2.48997 4.60422,2.89257 4.60419,3.32685 4.60423,3.78829"
       style="fill:none;stroke:#000000;stroke-width:3;stroke-linecap:butt;stroke-linejoin:bevel;stroke-miterlimit:10;stroke-dasharray:none;stroke-opacity:1"
       id="path256" /><path
       d="m 255.10739,321.06584 4.6042,4.27087 4.60422,4.76704 4.60422,5.26796 4.60419,5.76361 4.60423,6.24327 4.60419,6.69553 4.60422,7.10922 4.60422,7.47341 4.6042,7.77813 4.60422,8.01482 4.6042,8.1766 4.60422,8.2587 4.60421,8.2587 4.6042,8.1766 4.60423,8.01481 4.60419,7.77814 4.60422,7.47341 4.60422,7.10922 4.60422,6.69555 4.60418,6.24324 4.60422,5.76362 4.60421,5.26796 4.60422,4.76704 4.60422,4.27087 4.60418,3.78829 4.60422,3.32684 4.60422,2.89258 4.60422,2.48995 4.60422,2.12208 4.60418,1.79059 4.60421,1.49585 4.60422,1.2372 4.60422,1.0131 4.60422,0.82135 4.60418,0.65926 4.60422,0.52391 4.60422,0.4122 4.60421,0.32109 4.60422,0.24764 4.60418,0.18908 4.60422,0.14293 4.60422,0.10699 4.60422,0.0793 4.60422,0.0582 4.60418,0.0422 4.60422,0.0304 4.60421,0.0216 4.60422,0.0152 4.60422,0.0106"
       style="fill:none;stroke:#000000;stroke-width:3;stroke-linecap:butt;stroke-linejoin:bevel;stroke-miterlimit:10;stroke-dasharray:none;stroke-opacity:1"
       id="path260" /><path
       d="m 480.71373,504.54265 4.60418,0.007 4.60422,0.005 4.60422,0.003 4.60422,0.002 4.60421,0.002 4.60419,9.8e-4 4.60421,6.5e-4 4.60422,4.2e-4 4.60422,2.6e-4 4.60422,1.7e-4 4.60418,1.1e-4 4.60422,6e-5 4.60422,5e-5 4.60421,3e-5 h 4.60422 l 4.60418,10e-6 h 4.60422 l 4.60422,2e-5 h 4.60422 4.60422 4.60418 4.60422 4.60421 0.0553"
       style="fill:none;stroke:#000000;stroke-width:3;stroke-linecap:butt;stroke-linejoin:bevel;stroke-miterlimit:10;stroke-dasharray:none;stroke-opacity:1"
       id="path264" /><path
       d="m 34.050003,297.20502 h 0.05525 4.604211 l 4.604203,2e-5 4.604226,3e-5 4.604203,4e-5 4.604211,9e-5 4.604211,1.2e-4 4.604203,2.3e-4 4.604226,3.3e-4 4.604203,5.5e-4 4.604211,7.6e-4 4.604211,0.002 4.604203,0.002 4.604226,0.003 4.604203,0.005 4.604216,0.007 4.60421,0.01 4.6042,0.0141 4.60423,0.0201 4.6042,0.0283 4.60421,0.0393 4.60421,0.0541 4.6042,0.0735 4.60423,0.0986 4.6042,0.13057 4.60421,0.17072 4.60422,0.22035 4.6042,0.28072 4.60422,0.3528 4.6042,0.43754 4.60422,0.53509 4.60422,0.64531 4.60419,0.7671 4.60423,0.8986 4.60419,1.03709 4.60422,1.17867 4.60422,1.31884 4.6042,1.45237 4.60422,1.57368 4.6042,1.67744 4.60422,1.7589 4.60421,1.81476 4.6042,1.84366 4.60423,1.84684 4.60419,1.8287 4.60422,1.797 4.60422,1.76295 4.60419,1.74089 4.60423,1.74773"
       style="fill:none;stroke:#ff0000;stroke-width:3;stroke-linecap:butt;stroke-linejoin:bevel;stroke-miterlimit:10;stroke-dasharray:none;stroke-opacity:1"
       id="path268" /><path
       d="m 255.10739,326.38101 4.6042,1.80166 4.60422,1.92108 4.60422,2.12296 4.60419,2.42101 4.60423,2.82428 4.60419,3.33543 4.60422,3.94996 4.60422,4.6555 4.6042,5.43191 4.60422,6.25197 4.6042,7.08284 4.60422,7.88798 4.60421,8.62943 4.6042,9.27033 4.60423,9.77767 4.60419,10.12438 4.60422,10.2913 4.60422,10.26846 4.60422,10.05565 4.60418,9.66224 4.60422,9.10624 4.60421,8.41296 4.60422,7.61298 4.60422,6.74009 4.60418,5.82887 4.60422,4.91278 4.60422,4.02217 4.60422,3.18294 4.60422,2.41546 4.60418,1.73433 4.60421,1.14805 4.60422,0.65963 4.60422,0.26729 4.60422,-0.0347 4.60418,-0.25516 4.60422,-0.40455 4.60422,-0.49443 4.60421,-0.53649 4.60422,-0.5418 4.60418,-0.52046 4.60422,-0.48122 4.60422,-0.43133 4.60422,-0.37657 4.60422,-0.3212 4.60418,-0.26835 4.60422,-0.21994 4.60421,-0.1771 4.60422,-0.14024 4.60422,-0.10928"
       style="fill:none;stroke:#ff0000;stroke-width:3;stroke-linecap:butt;stroke-linejoin:bevel;stroke-miterlimit:10;stroke-dasharray:none;stroke-opacity:1"
       id="path272" /><path
       d="m 480.71373,504.87798 4.60418,-0.0839 4.60422,-0.0634 4.60422,-0.0473 4.60422,-0.0348 4.60421,-0.0253 4.60419,-0.0181 4.60421,-0.0128 4.60422,-0.009 4.60422,-0.006 4.60422,-0.004 4.60418,-0.003 4.60422,-0.002 4.60422,-10e-4 4.60421,-8.4e-4 4.60422,-5.1e-4 4.60418,-3.2e-4 4.60422,-2.2e-4 4.60422,-1.2e-4 4.60422,-8e-5 4.60422,-5e-5 4.60418,-3e-5 4.60422,-2e-5 h 4.60421 0.0553"
       style="fill:none;stroke:#ff0000;stroke-width:3;stroke-linecap:butt;stroke-linejoin:bevel;stroke-miterlimit:10;stroke-dasharray:none;stroke-opacity:1"
       id="path276" /><path
       d="m 34.050003,297.205 h 0.05525 4.604211 4.604203 l 4.604226,2e-5 h 4.604203 l 4.604211,2e-5 4.604211,3e-5 4.604203,6e-5 4.604226,10e-5 4.604203,1.4e-4 4.604211,2.5e-4 4.604211,3.9e-4 4.604203,6.3e-4 4.604226,7.6e-4 4.604203,0.002 4.604216,0.002 4.60421,0.004 4.6042,0.005 4.60423,0.008 4.6042,0.0126 4.60421,0.0185 4.60421,0.0269 4.6042,0.0387 4.60423,0.0551 4.6042,0.0776 4.60421,0.10815 4.60422,0.1491 4.6042,0.20337 4.60422,0.27433 4.6042,0.36609 4.60422,0.48317 4.60422,0.63065 4.60419,0.81406 4.60423,1.03907 4.60419,1.31136 4.60422,1.63622 4.60422,2.0181 4.6042,2.46034 4.60422,2.96425 4.6042,3.52883 4.60422,4.15027 4.60421,4.82106 4.6042,5.53003 4.60423,6.26181 4.60419,6.99706 4.60422,7.71245 4.60422,8.38144 4.60419,8.975 4.60423,9.46286 4.6042,9.81481 4.60421,10.00244 4.60422,10.00078 4.6042,9.79002 4.60422,9.35705 4.6042,8.69696 4.60422,7.81363 4.60422,6.72045 4.60419,5.44017 4.60423,4.00407 4.60419,2.45094 4.60422,0.82518 4.60422,-0.82518 4.6042,-2.45094 4.60422,-4.00407 4.6042,-5.44017 4.60422,-6.72045 4.60421,-7.81363 4.60422,-8.69696 4.60418,-9.35705 4.60422,-9.79002 4.60422,-10.00078 4.60422,-10.00244 4.60422,-9.81481 4.60418,-9.46286 4.60421,-8.975 4.60422,-8.38144 4.60422,-7.71245 4.60422,-6.99706 4.60418,-6.26181 4.60422,-5.53003 4.60422,-4.82106 4.60422,-4.15027 4.60421,-3.52883 4.60418,-2.96425 4.60422,-2.46034 4.60422,-2.0181 4.60422,-1.63622 4.60422,-1.31136 4.60418,-1.03907 4.60422,-0.81406 4.60421,-0.63065 4.60422,-0.48317 4.60422,-0.36609 4.60418,-0.27433 4.60422,-0.20337 4.60422,-0.1491 4.60422,-0.10815 4.60422,-0.0776 4.60418,-0.0551 4.60421,-0.0387 4.60422,-0.0269 4.60422,-0.0185 4.60422,-0.0126 4.60418,-0.008 4.60422,-0.005 4.60422,-0.004 4.60422,-0.002 4.60421,-0.002 4.60418,-7.6e-4 4.60422,-6.3e-4 4.60422,-3.9e-4 4.60422,-2.5e-4 4.60422,-1.4e-4 4.60418,-10e-5 4.60422,-6e-5 4.60421,-3e-5 4.60422,-2e-5 h 4.60422 l 4.60418,-2e-5 h 4.60422 4.60422 0.0553"
       style="fill:none;stroke:#0000ff;stroke-width:2;stroke-linecap:butt;stroke-linejoin:bevel;stroke-miterlimit:1;stroke-dasharray:6.06316, 6.06316;stroke-dashoffset:0;stroke-opacity:1"
       id="path280" /><path
       d="m 34.050003,297.20801 h 0.05525 l 4.604211,0.002 4.604203,0.002 4.604226,0.002 4.604203,0.003 4.604211,0.005 4.604211,0.006 4.604203,0.008 4.604226,0.0114 4.604203,0.0152 4.604211,0.0202 4.604211,0.0266 4.604203,0.0348 4.604226,0.0453 4.604203,0.0585 4.604216,0.0751 4.60421,0.0959 4.6042,0.12159 4.60423,0.15319 4.6042,0.19174 4.60421,0.23848 4.60421,0.29469 4.6042,0.36171 4.60423,0.44112 4.6042,0.53437 4.60421,0.64306 4.60422,0.76867 4.6042,0.91264 4.60422,1.07622 4.6042,1.26042 4.60422,1.46597 4.60422,1.69321 4.60419,1.94185 4.60423,2.21117 4.60419,2.4997 4.60422,2.80519 4.60422,3.12465 4.6042,3.45422 4.60422,3.78912 4.6042,4.12383 4.60422,4.45203 4.60421,4.76659 4.6042,5.05996 4.60423,5.32411 4.60419,5.55082 4.60422,5.73195 4.60422,5.85955 4.60419,5.92642 4.60423,5.92593"
       style="fill:none;stroke:#0000ff;stroke-width:3;stroke-linecap:butt;stroke-linejoin:bevel;stroke-miterlimit:10;stroke-dasharray:none;stroke-opacity:1"
       id="path284" /><path
       d="m 255.10739,380.32332 4.6042,5.85288 4.60422,5.70312 4.60422,5.47435 4.60419,5.16589 4.60423,4.77898 4.60419,4.31686 4.60422,3.78466 4.60422,3.18948 4.6042,2.54009 4.60422,1.84683 4.6042,1.12129 4.60422,0.37597 4.60421,-0.37597 4.6042,-1.12129 4.60423,-1.84683 4.60419,-2.54009 4.60422,-3.18948 4.60422,-3.78466 4.60422,-4.31686 4.60418,-4.77898 4.60422,-5.16589 4.60421,-5.47435 4.60422,-5.70312 4.60422,-5.85288 4.60418,-5.92593 4.60422,-5.92642 4.60422,-5.85955 4.60422,-5.73195 4.60422,-5.55082 4.60418,-5.32411 4.60421,-5.05997 4.60422,-4.76658 4.60422,-4.45203 4.60422,-4.12383 4.60418,-3.78912 4.60422,-3.45422 4.60422,-3.12465 4.60421,-2.8052 4.60422,-2.49969 4.60418,-2.21117 4.60422,-1.94185 4.60422,-1.69321 4.60422,-1.46597 4.60422,-1.26042 4.60418,-1.07622 4.60422,-0.91264 4.60421,-0.76867 4.60422,-0.64306 4.60422,-0.53437"
       style="fill:none;stroke:#0000ff;stroke-width:3;stroke-linecap:butt;stroke-linejoin:bevel;stroke-miterlimit:10;stroke-dasharray:none;stroke-opacity:1"
       id="path288" /><path
       d="m 480.71373,299.42167 4.60418,-0.44112 4.60422,-0.36171 4.60422,-0.2947 4.60422,-0.23848 4.60421,-0.19174 4.60419,-0.15318 4.60421,-0.12159 4.60422,-0.0959 4.60422,-0.0751 4.60422,-0.0585 4.60418,-0.0453 4.60422,-0.0348 4.60422,-0.0266 4.60421,-0.0202 4.60422,-0.0152 4.60418,-0.0114 4.60422,-0.008 4.60422,-0.006 4.60422,-0.005 4.60422,-0.003 4.60418,-0.002 4.60422,-0.002 4.60421,-0.002 h 0.0553"
       style="fill:none;stroke:#0000ff;stroke-width:3;stroke-linecap:butt;stroke-linejoin:bevel;stroke-miterlimit:10;stroke-dasharray:none;stroke-opacity:1"
       id="path292" /><path
       d="m 34.105269,297.205 h 4.604211 4.604203 4.604226 4.604203 4.604211 4.604211 4.604203 4.604226 4.604203 4.604211 4.604211 4.604203 4.604226 4.604203 4.60421 4.60421 4.6042 4.60423 4.6042 4.60421 4.60422 4.6042 l 4.60422,2e-5 h 4.6042 l 4.60422,2e-5 4.60422,3e-5 4.60419,6e-5 4.60423,10e-5 4.60419,1.4e-4 4.60422,2.5e-4 4.60422,3.9e-4 4.6042,6.3e-4 4.60422,7.6e-4 4.6042,0.002 4.60422,0.002 4.60422,0.004 4.60419,0.005 4.60423,0.008 4.60419,0.0126 4.60422,0.0185 4.60422,0.0269 4.60419,0.0387 4.60423,0.0551 4.6042,0.0776 4.60421,0.10815 4.60422,0.1491 4.6042,0.20337 4.60422,0.27433 4.6042,0.36609"
       style="fill:none;stroke:#0000ff;stroke-width:2;stroke-linecap:butt;stroke-linejoin:bevel;stroke-miterlimit:10;stroke-dasharray:none;stroke-opacity:1"
       id="path296" /><path
       d="m 259.71159,298.55981 4.60422,0.48317 4.60422,0.63066 4.60419,0.81405 4.60423,1.03907 4.60419,1.31136 4.60422,1.63622 4.60422,2.01811 4.6042,2.46033 4.60422,2.96425 4.6042,3.52884 4.60422,4.15026 4.60421,4.82106 4.6042,5.53003 4.60423,6.26181 4.60419,6.99706 4.60422,7.71246 4.60422,8.38143 4.60422,8.975 4.60418,9.46286 4.60422,9.81481 4.60421,10.00244 4.60422,10.00079 4.60422,9.79001 4.60418,9.35705 4.60422,8.69697 4.60422,7.81363 4.60422,6.72045 4.60422,5.44016 4.60418,4.00408 4.60421,2.45093 4.60422,0.82518 4.60422,-0.82518 4.60422,-2.45093 4.60418,-4.00408 4.60422,-5.44016 4.60422,-6.72045 4.60421,-7.81363 4.60422,-8.69697 4.60418,-9.35705 4.60422,-9.79001 4.60422,-10.00079 4.60422,-10.00244 4.60422,-9.81481 4.60418,-9.46286 4.60422,-8.975 4.60421,-8.38143 4.60422,-7.71246 4.60422,-6.99706 4.60418,-6.26181"
       style="fill:none;stroke:#0000ff;stroke-width:2;stroke-linecap:butt;stroke-linejoin:bevel;stroke-miterlimit:10;stroke-dasharray:none;stroke-opacity:1"
       id="path300" /><path
       d="m 485.31791,329.94722 4.60422,-5.53003 4.60422,-4.82106 4.60422,-4.15026 4.60421,-3.52884 4.60419,-2.96425 4.60421,-2.46033 4.60422,-2.01811 4.60422,-1.63622 4.60422,-1.31136 4.60418,-1.03907 4.60422,-0.81405 4.60422,-0.63066 4.60421,-0.48317 4.60422,-0.36608 4.60418,-0.27434 4.60422,-0.20337 4.60422,-0.1491 4.60422,-0.10815 4.60422,-0.0776 4.60418,-0.0551 4.60422,-0.0387 4.60421,-0.0269 0.0553,-2.3e-4"
       style="fill:none;stroke:#0000ff;stroke-width:2;stroke-linecap:butt;stroke-linejoin:bevel;stroke-miterlimit:10;stroke-dasharray:none;stroke-opacity:1"
       id="path304" /><path
       d="m 126.18948,297.205 h 4.60422 4.6042 4.60422 4.6042 4.60422 4.60422 4.60419 4.60423 4.60419 4.60422 4.60422 4.6042 4.60422 4.6042 4.60422 4.60422 4.60419 4.60423 4.60419 4.60422 4.60422 4.60419 l 4.60423,2e-5 h 4.6042 l 4.60421,2e-5 4.60422,3e-5 4.6042,6e-5 4.60422,10e-5 4.6042,1.4e-4 4.60422,2.5e-4 4.60422,3.9e-4 4.60419,6.3e-4 4.60423,7.6e-4 4.60419,0.002 4.60422,0.002 4.60422,0.004 4.6042,0.005 4.60422,0.008 4.6042,0.0126 4.60422,0.0185 4.60421,0.0269 4.6042,0.0387 4.60423,0.0551 4.60419,0.0776 4.60422,0.10815 4.60422,0.1491 4.60422,0.20337 4.60418,0.27433 4.60422,0.36609"
       style="fill:none;stroke:#0000ff;stroke-width:2;stroke-linecap:butt;stroke-linejoin:bevel;stroke-miterlimit:10;stroke-dasharray:none;stroke-opacity:1"
       id="path308" /><path
       d="m 351.79581,298.55981 4.60421,0.48317 4.60422,0.63066 4.60422,0.81405 4.60418,1.03907 4.60422,1.31136 4.60422,1.63622 4.60422,2.01811 4.60422,2.46033 4.60418,2.96425 4.60421,3.52884 4.60422,4.15026 4.60422,4.82106 4.60422,5.53003 4.60418,6.26181 4.60422,6.99706 4.60422,7.71246 4.60421,8.38143 4.60422,8.975 4.60418,9.46286 4.60422,9.81481 4.60422,10.00244 4.60422,10.00079 4.60422,9.79001 4.60418,9.35705 4.60422,8.69697 4.60421,7.81363 4.60422,6.72045 4.60422,5.44016 4.60418,4.00408 4.60422,2.45093 4.60422,0.82518 4.60422,-0.82518 4.60421,-2.45093 4.60419,-4.00408 4.60421,-5.44016 4.60422,-6.72045 4.60422,-7.81363 4.60422,-8.69697 4.60418,-9.35705 4.60422,-9.79001 4.60422,-10.00079 4.60421,-10.00244 4.60422,-9.81481 4.60418,-9.46286 4.60422,-8.975 4.60422,-8.38143 4.60422,-7.71246 4.60422,-6.99706 4.60418,-6.26181"
       style="fill:none;stroke:#0000ff;stroke-width:2;stroke-linecap:butt;stroke-linejoin:bevel;stroke-miterlimit:10;stroke-dasharray:none;stroke-opacity:1"
       id="path312" /><path
       d="m 577.40213,329.94722 4.60422,-5.53003 4.60421,-4.82106 0.0553,-0.0498"
       style="fill:none;stroke:#0000ff;stroke-width:2;stroke-linecap:butt;stroke-linejoin:bevel;stroke-miterlimit:10;stroke-dasharray:none;stroke-opacity:1"
       id="path316" /><path
       d="m 218.2737,297.205 h 4.60422 4.60419 4.60423 4.6042 4.60421 4.60422 4.6042 4.60422 4.6042 4.60422 4.60422 4.60419 4.60423 4.60419 4.60422 4.60422 4.6042 4.60422 4.6042 4.60422 4.60421 4.6042 l 4.60423,2e-5 h 4.60419 l 4.60422,2e-5 4.60422,3e-5 4.60422,6e-5 4.60418,10e-5 4.60422,1.4e-4 4.60421,2.5e-4 4.60422,3.9e-4 4.60422,6.3e-4 4.60418,7.6e-4 4.60422,0.002 4.60422,0.002 4.60422,0.004 4.60422,0.005 4.60418,0.008 4.60421,0.0126 4.60422,0.0185 4.60422,0.0269 4.60422,0.0387 4.60418,0.0551 4.60422,0.0776 4.60422,0.10815 4.60421,0.1491 4.60422,0.20337 4.60418,0.27433 4.60422,0.36609"
       style="fill:none;stroke:#0000ff;stroke-width:2;stroke-linecap:butt;stroke-linejoin:bevel;stroke-miterlimit:10;stroke-dasharray:none;stroke-opacity:1"
       id="path320" /><path
       d="m 443.88002,298.55981 4.60422,0.48317 4.60422,0.63066 4.60422,0.81405 4.60418,1.03907 4.60422,1.31136 4.60421,1.63622 4.60422,2.01811 4.60422,2.46033 4.60418,2.96425 4.60422,3.52884 4.60422,4.15026 4.60422,4.82106 4.60421,5.53003 4.60419,6.26181 4.60421,6.99706 4.60422,7.71246 4.60422,8.38143 4.60422,8.975 4.60418,9.46286 4.60422,9.81481 4.60422,10.00244 4.60421,10.00079 4.60422,9.79001 4.60418,9.35705 4.60422,8.69697 4.60422,7.81363 4.60422,6.72045 4.60422,5.44016 4.60418,4.00408 4.60422,2.45093 4.60421,0.82518 0.0553,-0.01"
       style="fill:none;stroke:#0000ff;stroke-width:2;stroke-linecap:butt;stroke-linejoin:bevel;stroke-miterlimit:10;stroke-dasharray:none;stroke-opacity:1"
       id="path324" /><path
       d="m 43.200007,505.62605 v 39.41053 H 207.66317 v -39.41053 z"
       style="fill:#ffffff;fill-opacity:1;fill-rule:nonzero;stroke:none;stroke-width:0.757895"
       id="path328" /><text
       transform="scale(1,-0.99999998)"
       style="font-variant:normal;font-weight:normal;font-size:14.4px;font-family:Helvetica;-inkscape-font-specification:Helvetica;writing-mode:lr-tb;fill:#000000;fill-opacity:1;fill-rule:nonzero;stroke:none;stroke-width:0.757895"
       id="text336"
       x="82.305122"
       y="-529.38159"><tspan
         x="82.305122 91.909927 96.705124 104.71152 115.10833"
         y="-529.38159"
         sodipodi:role="line"
         id="tspan334"
         style="stroke-width:0.757895">Brown, eq. (6.1)</tspan></text><path
       d="M 49.216175,534.3079 H 79.297049"
       style="fill:none;stroke:#000000;stroke-width:3;stroke-linecap:square;stroke-linejoin:miter;stroke-miterlimit:10;stroke-dasharray:none;stroke-opacity:1"
       id="path340" /><text
       transform="scale(1,-0.99999998)"
       style="font-variant:normal;font-weight:normal;font-size:14.4px;font-family:Helvetica;-inkscape-font-specification:Helvetica;writing-mode:lr-tb;fill:#000000;fill-opacity:1;fill-rule:nonzero;stroke:none;stroke-width:0.757895"
       id="text348"
       x="82.305122"
       y="-511.42841"><tspan
         x="82.305122 90.311523 98.317924 103.11313 107.11633 115.12273 119.91792 127.92433 135.93073 143.93713 147.94032 157.54514 162.34033 170.34673 180.74353"
         y="-511.42841"
         sodipodi:role="line"
         id="tspan346"
         style="stroke-width:0.757895">perturbed Brown, eq. (6.5)</tspan></text><path
       d="M 49.216175,516.35474 H 79.297049"
       style="fill:none;stroke:#ff0000;stroke-width:3;stroke-linecap:square;stroke-linejoin:miter;stroke-miterlimit:10;stroke-dasharray:none;stroke-opacity:1"
       id="path352" /><path
       d="m 43.200007,505.62605 v 39.41053 H 252.66317 V 505.62605 H 43.200007"
       style="fill:none;stroke:#262626;stroke-width:2;stroke-linecap:square;stroke-linejoin:miter;stroke-miterlimit:10;stroke-dasharray:none;stroke-opacity:1"
       id="path356"
       sodipodi:nodetypes="ccccc" /><text
       xml:space="preserve"
       style="font-style:normal;font-weight:normal;font-size:19.5549px;line-height:1.25;font-family:sans-serif;fill:#000000;fill-opacity:1;stroke:none;stroke-width:0.488873"
       x="187.4312"
       y="-253.10593"
       id="text43202"
       transform="scale(1,-1)"><tspan
         sodipodi:role="line"
         id="tspan43200"
         style="stroke-width:0.488873"
         x="187.4312"
         y="-253.10593">normalized time  (t-t<tspan
   style="font-size:12.7107px;baseline-shift:sub;stroke-width:0.488873"
   id="tspan49054">0</tspan>)/σ<tspan
   style="font-size:12.7107px;baseline-shift:sub;stroke-width:0.488873"
   id="tspan49052">t</tspan></tspan></text></g></svg>
