<?xml version="1.0" encoding="UTF-8" standalone="no"?>
<!-- Created with Inkscape (http://www.inkscape.org/) -->

<svg
   xmlns:dc="http://purl.org/dc/elements/1.1/"
   xmlns:cc="http://creativecommons.org/ns#"
   xmlns:rdf="http://www.w3.org/1999/02/22-rdf-syntax-ns#"
   xmlns:svg="http://www.w3.org/2000/svg"
   xmlns="http://www.w3.org/2000/svg"
   xmlns:sodipodi="http://sodipodi.sourceforge.net/DTD/sodipodi-0.dtd"
   xmlns:inkscape="http://www.inkscape.org/namespaces/inkscape"
   version="1.1"
   id="svg2"
   xml:space="preserve"
   width="488.76788"
   height="436.52994"
   viewBox="0 0 488.76788 436.52994"
   sodipodi:docname="surfer_cur.svg"
   inkscape:version="0.92.3 (2405546, 2018-03-11)"><metadata
     id="metadata8"><rdf:RDF><cc:Work
         rdf:about=""><dc:format>image/svg+xml</dc:format><dc:type
           rdf:resource="http://purl.org/dc/dcmitype/StillImage" /><dc:title></dc:title></cc:Work></rdf:RDF></metadata><defs
     id="defs6"><clipPath
       clipPathUnits="userSpaceOnUse"
       id="clipPath18"><path
         d="M 111,203.66602 H 484.41699 V 635 H 111 Z"
         id="path16"
         inkscape:connector-curvature="0" /></clipPath><clipPath
       clipPathUnits="userSpaceOnUse"
       id="clipPath88"><path
         d="M 146.5835,562.58301 H 472.08301 V 625.4165 H 146.5835 Z"
         id="path86"
         inkscape:connector-curvature="0" /></clipPath><clipPath
       clipPathUnits="userSpaceOnUse"
       id="clipPath172"><path
         d="M 146.5835,479.6665 H 472.08301 V 542.5 H 146.5835 Z"
         id="path170"
         inkscape:connector-curvature="0" /></clipPath><clipPath
       clipPathUnits="userSpaceOnUse"
       id="clipPath254"><path
         d="M 146.5835,396.83398 H 472.08301 V 459.6665 H 146.5835 Z"
         id="path252"
         inkscape:connector-curvature="0" /></clipPath><clipPath
       clipPathUnits="userSpaceOnUse"
       id="clipPath328"><path
         d="M 146.5835,313.91602 H 472.08301 V 376.75 H 146.5835 Z"
         id="path326"
         inkscape:connector-curvature="0" /></clipPath><clipPath
       clipPathUnits="userSpaceOnUse"
       id="clipPath402"><path
         d="m 146.5835,231.08398 h 325.49951 v 62.75 H 146.5835 Z"
         id="path400"
         inkscape:connector-curvature="0" /></clipPath></defs><sodipodi:namedview
     pagecolor="#ffffff"
     bordercolor="#666666"
     borderopacity="1"
     objecttolerance="10"
     gridtolerance="10"
     guidetolerance="10"
     inkscape:pageopacity="0"
     inkscape:pageshadow="2"
     inkscape:window-width="1620"
     inkscape:window-height="900"
     id="namedview4"
     showgrid="false"
     fit-margin-top="0"
     fit-margin-left="0"
     fit-margin-right="0"
     fit-margin-bottom="0"
     inkscape:zoom="0.81231503"
     inkscape:cx="-104.95216"
     inkscape:cy="214.44059"
     inkscape:window-x="67"
     inkscape:window-y="34"
     inkscape:window-maximized="0"
     inkscape:current-layer="g10" /><g
     id="g10"
     inkscape:groupmode="layer"
     inkscape:label="surfer"
     transform="matrix(1.3333333,0,0,-1.3333333,-150.73241,838.89581)"><path
       d="m 146.5835,562.6665 v 62.75 H 472 v -62.75 z"
       style="fill:#ffffff;fill-opacity:1;fill-rule:evenodd;stroke:none"
       id="path22"
       inkscape:connector-curvature="0" /><path
       d="m 146.5835,562.6665 v 62.75 H 472 v -62.75 H 146.5835"
       style="fill:none;stroke:#ffffff;stroke-width:0.5;stroke-linecap:butt;stroke-linejoin:round;stroke-miterlimit:10;stroke-dasharray:none;stroke-opacity:1"
       id="path24"
       inkscape:connector-curvature="0" /><path
       d="M 146.5835,625.4165 H 472 m -325.4165,-62.75 H 472 m 0,0 v 62.75 m -325.4165,-62.75 v 62.75 m 0,-62.75 H 472 m -325.4165,0 v 62.75 m 0,-62.75 V 566 m 0,59.4165 v -3.25"
       style="fill:none;stroke:#000000;stroke-width:0.5;stroke-linecap:butt;stroke-linejoin:round;stroke-miterlimit:10;stroke-dasharray:none;stroke-opacity:1"
       id="path26"
       inkscape:connector-curvature="0" /><text
       transform="matrix(1,0,0,-1,143.8335,550.58301)"
       style="font-variant:normal;font-weight:normal;font-size:10px;font-family:Myriad;-inkscape-font-specification:Myriad-Roman;writing-mode:lr-tb;fill:#000000;fill-opacity:1;fill-rule:nonzero;stroke:none"
       id="text30"><tspan
         x="0"
         y="0"
         id="tspan28">0</tspan></text>
<path
       d="M 211.6665,562.6665 V 566 m 0,59.4165 v -3.25"
       style="fill:none;stroke:#000000;stroke-width:0.5;stroke-linecap:butt;stroke-linejoin:round;stroke-miterlimit:10;stroke-dasharray:none;stroke-opacity:1"
       id="path32"
       inkscape:connector-curvature="0" /><text
       transform="matrix(1,0,0,-1,203.3335,550.58301)"
       style="font-variant:normal;font-weight:normal;font-size:10px;font-family:Myriad;-inkscape-font-specification:Myriad-Roman;writing-mode:lr-tb;fill:#000000;fill-opacity:1;fill-rule:nonzero;stroke:none"
       id="text36"><tspan
         x="0 5.1300001 10.26"
         y="0"
         sodipodi:role="line"
         id="tspan34">100</tspan></text>
<path
       d="M 276.75,562.6665 V 566 m 0,59.4165 v -3.25"
       style="fill:none;stroke:#000000;stroke-width:0.5;stroke-linecap:butt;stroke-linejoin:round;stroke-miterlimit:10;stroke-dasharray:none;stroke-opacity:1"
       id="path38"
       inkscape:connector-curvature="0" /><text
       transform="matrix(1,0,0,-1,268.4165,550.58301)"
       style="font-variant:normal;font-weight:normal;font-size:10px;font-family:Myriad;-inkscape-font-specification:Myriad-Roman;writing-mode:lr-tb;fill:#000000;fill-opacity:1;fill-rule:nonzero;stroke:none"
       id="text42"><tspan
         x="0 5.1300001 10.26"
         y="0"
         sodipodi:role="line"
         id="tspan40">200</tspan></text>
<path
       d="M 341.83301,562.6665 V 566 m 0,59.4165 v -3.25"
       style="fill:none;stroke:#000000;stroke-width:0.5;stroke-linecap:butt;stroke-linejoin:round;stroke-miterlimit:10;stroke-dasharray:none;stroke-opacity:1"
       id="path44"
       inkscape:connector-curvature="0" /><text
       transform="matrix(1,0,0,-1,333.5,550.58301)"
       style="font-variant:normal;font-weight:normal;font-size:10px;font-family:Myriad;-inkscape-font-specification:Myriad-Roman;writing-mode:lr-tb;fill:#000000;fill-opacity:1;fill-rule:nonzero;stroke:none"
       id="text48"><tspan
         x="0 5.1300001 10.26"
         y="0"
         sodipodi:role="line"
         id="tspan46">300</tspan></text>
<path
       d="M 406.91699,562.6665 V 566 m 0,59.4165 v -3.25"
       style="fill:none;stroke:#000000;stroke-width:0.5;stroke-linecap:butt;stroke-linejoin:round;stroke-miterlimit:10;stroke-dasharray:none;stroke-opacity:1"
       id="path50"
       inkscape:connector-curvature="0" /><text
       transform="matrix(1,0,0,-1,398.58301,550.58301)"
       style="font-variant:normal;font-weight:normal;font-size:10px;font-family:Myriad;-inkscape-font-specification:Myriad-Roman;writing-mode:lr-tb;fill:#000000;fill-opacity:1;fill-rule:nonzero;stroke:none"
       id="text54"><tspan
         x="0 5.1300001 10.26"
         y="0"
         sodipodi:role="line"
         id="tspan52">400</tspan></text>
<path
       d="M 472,562.6665 V 566 m 0,59.4165 v -3.25"
       style="fill:none;stroke:#000000;stroke-width:0.5;stroke-linecap:butt;stroke-linejoin:round;stroke-miterlimit:10;stroke-dasharray:none;stroke-opacity:1"
       id="path56"
       inkscape:connector-curvature="0" /><text
       transform="matrix(1,0,0,-1,463.66699,550.58301)"
       style="font-variant:normal;font-weight:normal;font-size:10px;font-family:Myriad;-inkscape-font-specification:Myriad-Roman;writing-mode:lr-tb;fill:#000000;fill-opacity:1;fill-rule:nonzero;stroke:none"
       id="text60"><tspan
         x="0 5.1300001 10.26"
         y="0"
         sodipodi:role="line"
         id="tspan58">500</tspan></text>
<path
       d="m 146.5835,562.6665 h 3.25 m 322.1665,0 h -3.33301"
       style="fill:none;stroke:#000000;stroke-width:0.5;stroke-linecap:butt;stroke-linejoin:round;stroke-miterlimit:10;stroke-dasharray:none;stroke-opacity:1"
       id="path62"
       inkscape:connector-curvature="0" /><text
       transform="matrix(1,0,0,-1,126.75,559)"
       style="font-variant:normal;font-weight:normal;font-size:10px;font-family:Myriad;-inkscape-font-specification:Myriad-Roman;writing-mode:lr-tb;fill:#000000;fill-opacity:1;fill-rule:nonzero;stroke:none"
       id="text66"><tspan
         x="0 5.1300001"
         y="0"
         sodipodi:role="line"
         id="tspan64">20</tspan></text>
<path
       d="m 146.5835,594.08301 h 3.25 m 322.1665,0 h -3.33301"
       style="fill:none;stroke:#000000;stroke-width:0.5;stroke-linecap:butt;stroke-linejoin:round;stroke-miterlimit:10;stroke-dasharray:none;stroke-opacity:1"
       id="path68"
       inkscape:connector-curvature="0" /><text
       transform="matrix(1,0,0,-1,126.75,590.4165)"
       style="font-variant:normal;font-weight:normal;font-size:10px;font-family:Myriad;-inkscape-font-specification:Myriad-Roman;writing-mode:lr-tb;fill:#000000;fill-opacity:1;fill-rule:nonzero;stroke:none"
       id="text72"><tspan
         x="0 5.1300001"
         y="0"
         sodipodi:role="line"
         id="tspan70">10</tspan></text>
<path
       d="m 146.5835,625.4165 h 3.25 m 322.1665,0 h -3.33301"
       style="fill:none;stroke:#000000;stroke-width:0.5;stroke-linecap:butt;stroke-linejoin:round;stroke-miterlimit:10;stroke-dasharray:none;stroke-opacity:1"
       id="path74"
       inkscape:connector-curvature="0" /><text
       transform="matrix(1,0,0,-1,138.1665,621.75)"
       style="font-variant:normal;font-weight:normal;font-size:10px;font-family:Myriad;-inkscape-font-specification:Myriad-Roman;writing-mode:lr-tb;fill:#000000;fill-opacity:1;fill-rule:nonzero;stroke:none"
       id="text78"><tspan
         x="0"
         y="0"
         id="tspan76">0</tspan></text>
<path
       d="M 146.5835,625.4165 H 472 m -325.4165,-62.75 H 472 m 0,0 v 62.75 m -325.4165,-62.75 v 62.75"
       style="fill:none;stroke:#000000;stroke-width:0.5;stroke-linecap:butt;stroke-linejoin:round;stroke-miterlimit:10;stroke-dasharray:none;stroke-opacity:1"
       id="path80"
       inkscape:connector-curvature="0" /><g
       id="g82"><g
         id="g84"
         clip-path="url(#clipPath88)"><path
           d="m 149.8335,563.33301 3.25,0.66699 3.25,0.58301 3.25,0.66699 3.25,0.6665 3.25,0.5835 3.25,0.6665 3.25,0.5835 3.25,0.6665 3.25,0.66651 3.25,0.58349 3.25,0.66651 3.25,0.58349 3.25,0.66651 3.25,0.66699 3.25,0.58301 3.25,0.66699 3.25,0.58301 3.25,0.66699 3.333,0.6665 3.25,0.5835 3.25,0.6665 3.25,0.5835 3.25,0.6665 3.25,0.66651 3.25,0.58349 3.25,0.66651 3.25,0.58349 3.25,0.66651 3.25,0.66699 3.25,0.58301 3.25,0.6665 3.25,0.66699 3.25,0.58301 3.25,0.66699 3.25,0.66651 3.25,0.6665 3.25,0.66699 3.25,0.66651 3.3335,0.75 3.25,0.75 3.25,0.75 3.25,0.83349 3.25,0.91651 3.25,1 3.25,1 3.25,1.1665 3.25,1.16699 3.25,1.33301 3.25,1.3335 3.25,1.4165 3.25,1.41699 3.25,1.41651 3.25,1.4165 3.25,1.3335 3.25,1.25 3.25,1.08349 3.25,0.83301 3.25,0.75 3.33301,0.5835 3.25,0.33349 3.25,0.16651 3.25,0.0835 3.25,-0.0835 3.25,-0.0835 3.25,-0.1665 3.25,-0.16651 3.25,-0.16699 3.25,-0.083 h 3.25 3.25 l 3.25,0.16651 3.25,0.25 3.25,0.25 3.25,0.4165 3.25,0.41699 3.25,0.5 3.25,0.5 3.25,0.5 3.33398,0.58301 3.25,0.5835 3.25,0.6665 3.25,0.5835 3.25,0.6665 3.25,0.5835 3.25,0.6665 3.25,0.5835 3.25,0.6665 3.25,0.5835 3.25,0.6665 3.25,0.66699 3.25,0.58301 3.25,0.66699 3.25,0.58301 3.25,0.66699 3.25,0.66651 3.25,0.58349"
           style="fill:none;stroke:#000000;stroke-width:2;stroke-linecap:butt;stroke-linejoin:round;stroke-miterlimit:10;stroke-dasharray:none;stroke-opacity:1"
           id="path90"
           inkscape:connector-curvature="0" /></g></g><text
       transform="matrix(0,1,1,0,122.1665,557.4165)"
       style="font-variant:normal;font-weight:normal;font-size:12px;font-family:Myriad;-inkscape-font-specification:Myriad-Roman;writing-mode:lr-tb;fill:#000000;fill-opacity:1;fill-rule:nonzero;stroke:none"
       id="text94"><tspan
         sodipodi:role="line"
         id="tspan92"
         x="0"
         y="0">Depth (m)</tspan></text>
<text
       transform="matrix(0,1,1,0,122.1665,630.78906)"
       style="font-variant:normal;font-weight:normal;font-size:12px;font-family:Myriad;-inkscape-font-specification:Myriad-Roman;writing-mode:lr-tb;fill:#000000;fill-opacity:1;fill-rule:nonzero;stroke:none"
       id="text98"><tspan
         x="0"
         y="0"
         id="tspan96" /></text>
<path
       d="M 146.5835,479.75 V 542.5 H 472 v -62.75 z"
       style="fill:#ffffff;fill-opacity:1;fill-rule:evenodd;stroke:none"
       id="path100"
       inkscape:connector-curvature="0" /><path
       d="M 146.5835,479.75 V 542.5 H 472 V 479.75 H 146.5835"
       style="fill:none;stroke:#ffffff;stroke-width:0.5;stroke-linecap:butt;stroke-linejoin:round;stroke-miterlimit:10;stroke-dasharray:none;stroke-opacity:1"
       id="path102"
       inkscape:connector-curvature="0" /><path
       d="M 146.5835,542.5 H 472 M 146.5835,479.75 H 472 m 0,0 V 542.5 M 146.5835,479.75 v 62.75 m 0,-62.75 H 472 m -325.4165,0 v 62.75 m 0,-62.75 v 3.33301 m 0,59.41699 v -3.25"
       style="fill:none;stroke:#000000;stroke-width:0.5;stroke-linecap:butt;stroke-linejoin:round;stroke-miterlimit:10;stroke-dasharray:none;stroke-opacity:1"
       id="path104"
       inkscape:connector-curvature="0" /><text
       transform="matrix(1,0,0,-1,143.8335,467.6665)"
       style="font-variant:normal;font-weight:normal;font-size:10px;font-family:Myriad;-inkscape-font-specification:Myriad-Roman;writing-mode:lr-tb;fill:#000000;fill-opacity:1;fill-rule:nonzero;stroke:none"
       id="text108"><tspan
         x="0"
         y="0"
         id="tspan106">0</tspan></text>
<path
       d="m 211.6665,479.75 v 3.33301 m 0,59.41699 v -3.25"
       style="fill:none;stroke:#000000;stroke-width:0.5;stroke-linecap:butt;stroke-linejoin:round;stroke-miterlimit:10;stroke-dasharray:none;stroke-opacity:1"
       id="path110"
       inkscape:connector-curvature="0" /><text
       transform="matrix(1,0,0,-1,203.3335,467.6665)"
       style="font-variant:normal;font-weight:normal;font-size:10px;font-family:Myriad;-inkscape-font-specification:Myriad-Roman;writing-mode:lr-tb;fill:#000000;fill-opacity:1;fill-rule:nonzero;stroke:none"
       id="text114"><tspan
         x="0 5.1300001 10.26"
         y="0"
         sodipodi:role="line"
         id="tspan112">100</tspan></text>
<path
       d="m 276.75,479.75 v 3.33301 m 0,59.41699 v -3.25"
       style="fill:none;stroke:#000000;stroke-width:0.5;stroke-linecap:butt;stroke-linejoin:round;stroke-miterlimit:10;stroke-dasharray:none;stroke-opacity:1"
       id="path116"
       inkscape:connector-curvature="0" /><text
       transform="matrix(1,0,0,-1,268.4165,467.6665)"
       style="font-variant:normal;font-weight:normal;font-size:10px;font-family:Myriad;-inkscape-font-specification:Myriad-Roman;writing-mode:lr-tb;fill:#000000;fill-opacity:1;fill-rule:nonzero;stroke:none"
       id="text120"><tspan
         x="0 5.1300001 10.26"
         y="0"
         sodipodi:role="line"
         id="tspan118">200</tspan></text>
<path
       d="m 341.83301,479.75 v 3.33301 m 0,59.41699 v -3.25"
       style="fill:none;stroke:#000000;stroke-width:0.5;stroke-linecap:butt;stroke-linejoin:round;stroke-miterlimit:10;stroke-dasharray:none;stroke-opacity:1"
       id="path122"
       inkscape:connector-curvature="0" /><text
       transform="matrix(1,0,0,-1,333.5,467.6665)"
       style="font-variant:normal;font-weight:normal;font-size:10px;font-family:Myriad;-inkscape-font-specification:Myriad-Roman;writing-mode:lr-tb;fill:#000000;fill-opacity:1;fill-rule:nonzero;stroke:none"
       id="text126"><tspan
         x="0 5.1300001 10.26"
         y="0"
         sodipodi:role="line"
         id="tspan124">300</tspan></text>
<path
       d="m 406.91699,479.75 v 3.33301 m 0,59.41699 v -3.25"
       style="fill:none;stroke:#000000;stroke-width:0.5;stroke-linecap:butt;stroke-linejoin:round;stroke-miterlimit:10;stroke-dasharray:none;stroke-opacity:1"
       id="path128"
       inkscape:connector-curvature="0" /><text
       transform="matrix(1,0,0,-1,398.58301,467.6665)"
       style="font-variant:normal;font-weight:normal;font-size:10px;font-family:Myriad;-inkscape-font-specification:Myriad-Roman;writing-mode:lr-tb;fill:#000000;fill-opacity:1;fill-rule:nonzero;stroke:none"
       id="text132"><tspan
         x="0 5.1300001 10.26"
         y="0"
         sodipodi:role="line"
         id="tspan130">400</tspan></text>
<path
       d="m 472,479.75 v 3.33301 M 472,542.5 v -3.25"
       style="fill:none;stroke:#000000;stroke-width:0.5;stroke-linecap:butt;stroke-linejoin:round;stroke-miterlimit:10;stroke-dasharray:none;stroke-opacity:1"
       id="path134"
       inkscape:connector-curvature="0" /><text
       transform="matrix(1,0,0,-1,463.66699,467.6665)"
       style="font-variant:normal;font-weight:normal;font-size:10px;font-family:Myriad;-inkscape-font-specification:Myriad-Roman;writing-mode:lr-tb;fill:#000000;fill-opacity:1;fill-rule:nonzero;stroke:none"
       id="text138"><tspan
         x="0 5.1300001 10.26"
         y="0"
         sodipodi:role="line"
         id="tspan136">500</tspan></text>
<path
       d="m 146.5835,479.75 h 3.25 m 322.1665,0 h -3.33301"
       style="fill:none;stroke:#000000;stroke-width:0.5;stroke-linecap:butt;stroke-linejoin:round;stroke-miterlimit:10;stroke-dasharray:none;stroke-opacity:1"
       id="path140"
       inkscape:connector-curvature="0" /><text
       transform="matrix(1,0,0,-1,138.1665,476.08301)"
       style="font-variant:normal;font-weight:normal;font-size:10px;font-family:Myriad;-inkscape-font-specification:Myriad-Roman;writing-mode:lr-tb;fill:#000000;fill-opacity:1;fill-rule:nonzero;stroke:none"
       id="text144"><tspan
         x="0"
         y="0"
         id="tspan142">0</tspan></text>
<path
       d="m 146.5835,500.6665 h 3.25 m 322.1665,0 h -3.33301"
       style="fill:none;stroke:#000000;stroke-width:0.5;stroke-linecap:butt;stroke-linejoin:round;stroke-miterlimit:10;stroke-dasharray:none;stroke-opacity:1"
       id="path146"
       inkscape:connector-curvature="0" /><text
       transform="matrix(1,0,0,-1,138.1665,497)"
       style="font-variant:normal;font-weight:normal;font-size:10px;font-family:Myriad;-inkscape-font-specification:Myriad-Roman;writing-mode:lr-tb;fill:#000000;fill-opacity:1;fill-rule:nonzero;stroke:none"
       id="text150"><tspan
         x="0"
         y="0"
         id="tspan148">1</tspan></text>
<path
       d="m 146.5835,521.58301 h 3.25 m 322.1665,0 h -3.33301"
       style="fill:none;stroke:#000000;stroke-width:0.5;stroke-linecap:butt;stroke-linejoin:round;stroke-miterlimit:10;stroke-dasharray:none;stroke-opacity:1"
       id="path152"
       inkscape:connector-curvature="0" /><text
       transform="matrix(1,0,0,-1,138.1665,517.9165)"
       style="font-variant:normal;font-weight:normal;font-size:10px;font-family:Myriad;-inkscape-font-specification:Myriad-Roman;writing-mode:lr-tb;fill:#000000;fill-opacity:1;fill-rule:nonzero;stroke:none"
       id="text156"><tspan
         x="0"
         y="0"
         id="tspan154">2</tspan></text>
<path
       d="m 146.5835,542.5 h 3.25 M 472,542.5 h -3.33301"
       style="fill:none;stroke:#000000;stroke-width:0.5;stroke-linecap:butt;stroke-linejoin:round;stroke-miterlimit:10;stroke-dasharray:none;stroke-opacity:1"
       id="path158"
       inkscape:connector-curvature="0" /><text
       transform="matrix(1,0,0,-1,138.1665,538.83301)"
       style="font-variant:normal;font-weight:normal;font-size:10px;font-family:Myriad;-inkscape-font-specification:Myriad-Roman;writing-mode:lr-tb;fill:#000000;fill-opacity:1;fill-rule:nonzero;stroke:none"
       id="text162"><tspan
         x="0"
         y="0"
         id="tspan160">3</tspan></text>
<path
       d="M 146.5835,542.5 H 472 M 146.5835,479.75 H 472 m 0,0 V 542.5 M 146.5835,479.75 v 62.75"
       style="fill:none;stroke:#000000;stroke-width:0.5;stroke-linecap:butt;stroke-linejoin:round;stroke-miterlimit:10;stroke-dasharray:none;stroke-opacity:1"
       id="path164"
       inkscape:connector-curvature="0" /><g
       id="g166"><g
         id="g168"
         clip-path="url(#clipPath172)"><path
           d="m 149.8335,521.6665 h 3.25 l 3.25,0.0835 h 3.25 l 3.25,0.083 h 3.25 l 3.25,0.0835 h 3.25 l 3.25,0.0835 h 3.25 l 3.25,0.083 h 3.25 l 3.25,0.0835 h 3.25 l 3.25,0.0835 3.25,0.083 h 3.25 l 3.25,0.0835 3.25,0.0835 h 3.333 l 3.25,0.083 3.25,0.0835 3.25,0.0835 3.25,0.083 h 3.25 l 3.25,0.0835 3.25,0.0835 3.25,0.0835 3.25,0.083 3.25,0.0835 3.25,0.0835 3.25,0.083 3.25,0.0835 3.25,0.0835 3.25,0.083 3.25,0.0835 3.25,0.0835 3.25,0.1665 3.25,0.0835 3.3335,0.083 3.25,0.167 3.25,0.1665 3.25,0.1665 3.25,0.167 3.25,0.1665 3.25,0.25 3.25,0.25 3.25,0.25 3.25,0.3335 3.25,0.4165 3.25,0.4165 3.25,0.417 3.25,0.5 3.25,0.5 3.25,0.4165 3.25,0.4165 3.25,0.25 3.25,0.0835 3.25,-0.0835 3.33301,-0.4165 3.25,-0.5 3.25,-0.6665 3.25,-0.75 3.25,-0.667 3.25,-0.75 3.25,-0.583 3.25,-0.5835 3.25,-0.5 3.25,-0.4165 3.25,-0.3335 3.25,-0.3335 3.25,-0.25 3.25,-0.1665 3.25,-0.25 3.25,-0.1665 3.25,-0.167 3.25,-0.25 3.25,-0.25 3.25,-0.333 3.33398,-0.5 3.25,-0.5835 3.25,-0.8335 3.25,-1 3.25,-1.25 3.25,-1.5 3.25,-1.6665 3.25,-2 3.25,-2.0835 3.25,-2.25 3.25,-2.333 3.25,-2.5 3.25,-2.5 3.25,-2.5835 3.25,-2.6665 3.25,-2.75 3.25,-2.75 3.25,-2.3335"
           style="fill:none;stroke:#000000;stroke-width:2;stroke-linecap:butt;stroke-linejoin:round;stroke-miterlimit:10;stroke-dasharray:none;stroke-opacity:1"
           id="path174"
           inkscape:connector-curvature="0" /></g></g><text
       transform="matrix(0,1,1,0,0,0)"
       style="font-variant:normal;font-weight:normal;font-size:12px;font-family:Myriad;-inkscape-font-specification:Myriad-Roman;writing-mode:lr-tb;fill:#000000;fill-opacity:1;fill-rule:nonzero;stroke:none"
       id="text178"
       x="494.9165"
       y="127.5835"><tspan
         x="494.9165"
         y="127.5835"
         id="tspan176">H</tspan></text>
<text
       transform="matrix(0,1,1,0,0,0)"
       style="font-variant:normal;font-weight:normal;font-size:9px;font-family:Myriad;-inkscape-font-specification:Myriad-Roman;writing-mode:lr-tb;fill:#000000;fill-opacity:1;fill-rule:nonzero;stroke:none"
       id="text182"
       x="503.5"
       y="133.5835"><tspan
         x="503.5"
         y="133.5835"
         id="tspan180">s</tspan></text>
<text
       transform="matrix(0,1,1,0,0,0)"
       style="font-variant:normal;font-weight:normal;font-size:12px;font-family:Myriad;-inkscape-font-specification:Myriad-Roman;writing-mode:lr-tb;fill:#000000;fill-opacity:1;fill-rule:nonzero;stroke:none"
       id="text186"
       x="509.54401"
       y="127.5835"><tspan
         x="509.54401 512.95203 522.96002"
         y="127.5835"
         sodipodi:role="line"
         id="tspan184">(m)</tspan></text>
<path
       d="M 146.5835,396.91602 V 459.6665 H 472 v -62.75048 z"
       style="fill:#ffffff;fill-opacity:1;fill-rule:evenodd;stroke:none"
       id="path188"
       inkscape:connector-curvature="0" /><path
       d="M 146.5835,396.91602 V 459.6665 H 472 V 396.91602 H 146.5835"
       style="fill:none;stroke:#ffffff;stroke-width:0.5;stroke-linecap:butt;stroke-linejoin:round;stroke-miterlimit:10;stroke-dasharray:none;stroke-opacity:1"
       id="path190"
       inkscape:connector-curvature="0" /><path
       d="M 146.5835,459.6665 H 472 M 146.5835,396.91602 H 472 m 0,0 V 459.6665 M 146.5835,396.91602 v 62.75048 m 0,-62.75048 H 472 m -325.4165,0 v 62.75048 m 0,-62.75048 V 400.25 m 0,59.4165 v -3.25"
       style="fill:none;stroke:#000000;stroke-width:0.5;stroke-linecap:butt;stroke-linejoin:round;stroke-miterlimit:10;stroke-dasharray:none;stroke-opacity:1"
       id="path192"
       inkscape:connector-curvature="0" /><text
       transform="matrix(1,0,0,-1,143.8335,384.83398)"
       style="font-variant:normal;font-weight:normal;font-size:10px;font-family:Myriad;-inkscape-font-specification:Myriad-Roman;writing-mode:lr-tb;fill:#000000;fill-opacity:1;fill-rule:nonzero;stroke:none"
       id="text196"><tspan
         x="0"
         y="0"
         id="tspan194">0</tspan></text>
<path
       d="M 211.6665,396.91602 V 400.25 m 0,59.4165 v -3.25"
       style="fill:none;stroke:#000000;stroke-width:0.5;stroke-linecap:butt;stroke-linejoin:round;stroke-miterlimit:10;stroke-dasharray:none;stroke-opacity:1"
       id="path198"
       inkscape:connector-curvature="0" /><text
       transform="matrix(1,0,0,-1,203.3335,384.83398)"
       style="font-variant:normal;font-weight:normal;font-size:10px;font-family:Myriad;-inkscape-font-specification:Myriad-Roman;writing-mode:lr-tb;fill:#000000;fill-opacity:1;fill-rule:nonzero;stroke:none"
       id="text202"><tspan
         x="0 5.1300001 10.26"
         y="0"
         sodipodi:role="line"
         id="tspan200">100</tspan></text>
<path
       d="M 276.75,396.91602 V 400.25 m 0,59.4165 v -3.25"
       style="fill:none;stroke:#000000;stroke-width:0.5;stroke-linecap:butt;stroke-linejoin:round;stroke-miterlimit:10;stroke-dasharray:none;stroke-opacity:1"
       id="path204"
       inkscape:connector-curvature="0" /><text
       transform="matrix(1,0,0,-1,268.4165,384.83398)"
       style="font-variant:normal;font-weight:normal;font-size:10px;font-family:Myriad;-inkscape-font-specification:Myriad-Roman;writing-mode:lr-tb;fill:#000000;fill-opacity:1;fill-rule:nonzero;stroke:none"
       id="text208"><tspan
         x="0 5.1300001 10.26"
         y="0"
         sodipodi:role="line"
         id="tspan206">200</tspan></text>
<path
       d="M 341.83301,396.91602 V 400.25 m 0,59.4165 v -3.25"
       style="fill:none;stroke:#000000;stroke-width:0.5;stroke-linecap:butt;stroke-linejoin:round;stroke-miterlimit:10;stroke-dasharray:none;stroke-opacity:1"
       id="path210"
       inkscape:connector-curvature="0" /><text
       transform="matrix(1,0,0,-1,333.5,384.83398)"
       style="font-variant:normal;font-weight:normal;font-size:10px;font-family:Myriad;-inkscape-font-specification:Myriad-Roman;writing-mode:lr-tb;fill:#000000;fill-opacity:1;fill-rule:nonzero;stroke:none"
       id="text214"><tspan
         x="0 5.1300001 10.26"
         y="0"
         sodipodi:role="line"
         id="tspan212">300</tspan></text>
<path
       d="M 406.91699,396.91602 V 400.25 m 0,59.4165 v -3.25"
       style="fill:none;stroke:#000000;stroke-width:0.5;stroke-linecap:butt;stroke-linejoin:round;stroke-miterlimit:10;stroke-dasharray:none;stroke-opacity:1"
       id="path216"
       inkscape:connector-curvature="0" /><text
       transform="matrix(1,0,0,-1,398.58301,384.83398)"
       style="font-variant:normal;font-weight:normal;font-size:10px;font-family:Myriad;-inkscape-font-specification:Myriad-Roman;writing-mode:lr-tb;fill:#000000;fill-opacity:1;fill-rule:nonzero;stroke:none"
       id="text220"><tspan
         x="0 5.1300001 10.26"
         y="0"
         sodipodi:role="line"
         id="tspan218">400</tspan></text>
<path
       d="M 472,396.91602 V 400.25 m 0,59.4165 v -3.25"
       style="fill:none;stroke:#000000;stroke-width:0.5;stroke-linecap:butt;stroke-linejoin:round;stroke-miterlimit:10;stroke-dasharray:none;stroke-opacity:1"
       id="path222"
       inkscape:connector-curvature="0" /><text
       transform="matrix(1,0,0,-1,463.66699,384.83398)"
       style="font-variant:normal;font-weight:normal;font-size:10px;font-family:Myriad;-inkscape-font-specification:Myriad-Roman;writing-mode:lr-tb;fill:#000000;fill-opacity:1;fill-rule:nonzero;stroke:none"
       id="text226"><tspan
         x="0 5.1300001 10.26"
         y="0"
         sodipodi:role="line"
         id="tspan224">500</tspan></text>
<path
       d="m 146.5835,396.91602 h 3.25 m 322.1665,0 h -3.33301"
       style="fill:none;stroke:#000000;stroke-width:0.5;stroke-linecap:butt;stroke-linejoin:round;stroke-miterlimit:10;stroke-dasharray:none;stroke-opacity:1"
       id="path228"
       inkscape:connector-curvature="0" /><text
       transform="matrix(1,0,0,-1,138.1665,393.25)"
       style="font-variant:normal;font-weight:normal;font-size:10px;font-family:Myriad;-inkscape-font-specification:Myriad-Roman;writing-mode:lr-tb;fill:#000000;fill-opacity:1;fill-rule:nonzero;stroke:none"
       id="text232"><tspan
         x="0"
         y="0"
         id="tspan230">0</tspan></text>
<path
       d="m 146.5835,428.33301 h 3.25 m 322.1665,0 h -3.33301"
       style="fill:none;stroke:#000000;stroke-width:0.5;stroke-linecap:butt;stroke-linejoin:round;stroke-miterlimit:10;stroke-dasharray:none;stroke-opacity:1"
       id="path234"
       inkscape:connector-curvature="0" /><text
       transform="matrix(1,0,0,-1,132.5835,424.6665)"
       style="font-variant:normal;font-weight:normal;font-size:10px;font-family:Myriad;-inkscape-font-specification:Myriad-Roman;writing-mode:lr-tb;fill:#000000;fill-opacity:1;fill-rule:nonzero;stroke:none"
       id="text238"><tspan
         x="0 5.1300001"
         y="0"
         sodipodi:role="line"
         id="tspan236">10</tspan></text>
<path
       d="m 146.5835,459.6665 h 3.25 m 322.1665,0 h -3.33301"
       style="fill:none;stroke:#000000;stroke-width:0.5;stroke-linecap:butt;stroke-linejoin:round;stroke-miterlimit:10;stroke-dasharray:none;stroke-opacity:1"
       id="path240"
       inkscape:connector-curvature="0" /><text
       transform="matrix(1,0,0,-1,132.5835,456)"
       style="font-variant:normal;font-weight:normal;font-size:10px;font-family:Myriad;-inkscape-font-specification:Myriad-Roman;writing-mode:lr-tb;fill:#000000;fill-opacity:1;fill-rule:nonzero;stroke:none"
       id="text244"><tspan
         x="0 5.1300001"
         y="0"
         sodipodi:role="line"
         id="tspan242">20</tspan></text>
<path
       d="M 146.5835,459.6665 H 472 M 146.5835,396.91602 H 472 m 0,0 V 459.6665 M 146.5835,396.91602 v 62.75048"
       style="fill:none;stroke:#000000;stroke-width:0.5;stroke-linecap:butt;stroke-linejoin:round;stroke-miterlimit:10;stroke-dasharray:none;stroke-opacity:1"
       id="path246"
       inkscape:connector-curvature="0" /><g
       id="g248"><g
         id="g250"
         clip-path="url(#clipPath254)"><path
           d="m 149.8335,459.4165 3.25,-0.25 3.25,-0.25 3.25,-0.25 3.25,-0.33349 3.25,-0.25 3.25,-0.25 3.25,-0.33301 3.25,-0.25 3.25,-0.25 3.25,-0.3335 3.25,-0.25 3.25,-0.33349 3.25,-0.25 3.25,-0.33301 3.25,-0.3335 3.25,-0.25 3.25,-0.33349 3.25,-0.33301 3.333,-0.25 3.25,-0.3335 3.25,-0.33349 3.25,-0.33301 3.25,-0.3335 3.25,-0.33349 3.25,-0.25 3.25,-0.33301 3.25,-0.41699 3.25,-0.33301 3.25,-0.3335 3.25,-0.33349 3.25,-0.33301 3.25,-0.3335 3.25,-0.4165 3.25,-0.3335 3.25,-0.4165 3.25,-0.3335 3.25,-0.4165 3.25,-0.41699 3.3335,-0.41651 3.25,-0.5 3.25,-0.5 3.25,-0.5 3.25,-0.58349 3.25,-0.58301 3.25,-0.75 3.25,-0.75 3.25,-0.8335 L 306,441 l 3.25,-1 3.25,-1.0835 3.25,-1.1665 3.25,-1.16699 3.25,-1.16651 3.25,-1.1665 3.25,-1.0835 3.25,-1 3.25,-0.9165 3.25,-0.75 3.33301,-0.5 3.25,-0.41699 3.25,-0.16651 3.25,-0.0835 3.25,0.0835 3.25,0.16651 3.25,0.16699 3.25,0.1665 3.25,0.0835 3.25,0.1665 h 3.25 l 3.25,-0.0835 3.25,-0.16651 3.25,-0.1665 3.25,-0.3335 3.25,-0.4165 3.25,-0.41699 3.25,-0.58301 3.25,-0.5835 3.25,-0.58349 3.33398,-0.66651 3.25,-0.75 3.25,-0.75 3.25,-0.75 3.25,-0.83349 3.25,-0.91651 3.25,-0.83349 3.25,-1 3.25,-0.91651 3.25,-1.08349 3.25,-1.08301 3.25,-1.08398 3.25,-1.25 3.25,-1.33204 3.25,-1.41796 3.25,-1.58204 3.25,-1.83398 3.25,-2.16602"
           style="fill:none;stroke:#000000;stroke-width:2;stroke-linecap:butt;stroke-linejoin:round;stroke-miterlimit:10;stroke-dasharray:none;stroke-opacity:1"
           id="path256"
           inkscape:connector-curvature="0" /></g></g><text
       transform="matrix(0,1,1,0,128,391.66602)"
       style="font-variant:normal;font-weight:normal;font-size:12px;font-family:Myriad;-inkscape-font-specification:Myriad-Roman;writing-mode:lr-tb;fill:#000000;fill-opacity:1;fill-rule:nonzero;stroke:none"
       id="text260"><tspan
         x="0 7.9920001 10.8 14.724 20.736 26.112 30.084 32.891998 39.48 46.139999 48.683998 52.091999 58.860001 64.872002 71.580002"
         y="0"
         sodipodi:role="line"
         id="tspan258">Direction (deg)</tspan></text>
<path
       d="m 146.5835,314 v 62.75 H 472 V 314 Z"
       style="fill:#ffffff;fill-opacity:1;fill-rule:evenodd;stroke:none"
       id="path262"
       inkscape:connector-curvature="0" /><path
       d="m 146.5835,314 v 62.75 H 472 V 314 H 146.5835"
       style="fill:none;stroke:#ffffff;stroke-width:0.5;stroke-linecap:butt;stroke-linejoin:round;stroke-miterlimit:10;stroke-dasharray:none;stroke-opacity:1"
       id="path264"
       inkscape:connector-curvature="0" /><path
       d="M 146.5835,376.75 H 472 M 146.5835,314 H 472 m 0,0 v 62.75 M 146.5835,314 v 62.75 m 0,-62.75 H 472 m -325.4165,0 v 62.75 m 0,-62.75 v 3.33398 m 0,59.41602 v -3.25"
       style="fill:none;stroke:#000000;stroke-width:0.5;stroke-linecap:butt;stroke-linejoin:round;stroke-miterlimit:10;stroke-dasharray:none;stroke-opacity:1"
       id="path266"
       inkscape:connector-curvature="0" /><text
       transform="matrix(1,0,0,-1,143.8335,301.91602)"
       style="font-variant:normal;font-weight:normal;font-size:10px;font-family:Myriad;-inkscape-font-specification:Myriad-Roman;writing-mode:lr-tb;fill:#000000;fill-opacity:1;fill-rule:nonzero;stroke:none"
       id="text270"><tspan
         x="0"
         y="0"
         id="tspan268">0</tspan></text>
<path
       d="m 211.6665,314 v 3.33398 m 0,59.41602 v -3.25"
       style="fill:none;stroke:#000000;stroke-width:0.5;stroke-linecap:butt;stroke-linejoin:round;stroke-miterlimit:10;stroke-dasharray:none;stroke-opacity:1"
       id="path272"
       inkscape:connector-curvature="0" /><text
       transform="matrix(1,0,0,-1,203.3335,301.91602)"
       style="font-variant:normal;font-weight:normal;font-size:10px;font-family:Myriad;-inkscape-font-specification:Myriad-Roman;writing-mode:lr-tb;fill:#000000;fill-opacity:1;fill-rule:nonzero;stroke:none"
       id="text276"><tspan
         x="0 5.1300001 10.26"
         y="0"
         sodipodi:role="line"
         id="tspan274">100</tspan></text>
<path
       d="m 276.75,314 v 3.33398 m 0,59.41602 v -3.25"
       style="fill:none;stroke:#000000;stroke-width:0.5;stroke-linecap:butt;stroke-linejoin:round;stroke-miterlimit:10;stroke-dasharray:none;stroke-opacity:1"
       id="path278"
       inkscape:connector-curvature="0" /><text
       transform="matrix(1,0,0,-1,268.4165,301.91602)"
       style="font-variant:normal;font-weight:normal;font-size:10px;font-family:Myriad;-inkscape-font-specification:Myriad-Roman;writing-mode:lr-tb;fill:#000000;fill-opacity:1;fill-rule:nonzero;stroke:none"
       id="text282"><tspan
         x="0 5.1300001 10.26"
         y="0"
         sodipodi:role="line"
         id="tspan280">200</tspan></text>
<path
       d="m 341.83301,314 v 3.33398 m 0,59.41602 v -3.25"
       style="fill:none;stroke:#000000;stroke-width:0.5;stroke-linecap:butt;stroke-linejoin:round;stroke-miterlimit:10;stroke-dasharray:none;stroke-opacity:1"
       id="path284"
       inkscape:connector-curvature="0" /><text
       transform="matrix(1,0,0,-1,333.5,301.91602)"
       style="font-variant:normal;font-weight:normal;font-size:10px;font-family:Myriad;-inkscape-font-specification:Myriad-Roman;writing-mode:lr-tb;fill:#000000;fill-opacity:1;fill-rule:nonzero;stroke:none"
       id="text288"><tspan
         x="0 5.1300001 10.26"
         y="0"
         sodipodi:role="line"
         id="tspan286">300</tspan></text>
<path
       d="m 406.91699,314 v 3.33398 m 0,59.41602 v -3.25"
       style="fill:none;stroke:#000000;stroke-width:0.5;stroke-linecap:butt;stroke-linejoin:round;stroke-miterlimit:10;stroke-dasharray:none;stroke-opacity:1"
       id="path290"
       inkscape:connector-curvature="0" /><text
       transform="matrix(1,0,0,-1,398.58301,301.91602)"
       style="font-variant:normal;font-weight:normal;font-size:10px;font-family:Myriad;-inkscape-font-specification:Myriad-Roman;writing-mode:lr-tb;fill:#000000;fill-opacity:1;fill-rule:nonzero;stroke:none"
       id="text294"><tspan
         x="0 5.1300001 10.26"
         y="0"
         sodipodi:role="line"
         id="tspan292">400</tspan></text>
<path
       d="m 472,314 v 3.33398 m 0,59.41602 v -3.25"
       style="fill:none;stroke:#000000;stroke-width:0.5;stroke-linecap:butt;stroke-linejoin:round;stroke-miterlimit:10;stroke-dasharray:none;stroke-opacity:1"
       id="path296"
       inkscape:connector-curvature="0" /><text
       transform="matrix(1,0,0,-1,463.66699,301.91602)"
       style="font-variant:normal;font-weight:normal;font-size:10px;font-family:Myriad;-inkscape-font-specification:Myriad-Roman;writing-mode:lr-tb;fill:#000000;fill-opacity:1;fill-rule:nonzero;stroke:none"
       id="text300"><tspan
         x="0 5.1300001 10.26"
         y="0"
         sodipodi:role="line"
         id="tspan298">500</tspan></text>
<path
       d="m 146.5835,314 h 3.25 M 472,314 h -3.33301"
       style="fill:none;stroke:#000000;stroke-width:0.5;stroke-linecap:butt;stroke-linejoin:round;stroke-miterlimit:10;stroke-dasharray:none;stroke-opacity:1"
       id="path302"
       inkscape:connector-curvature="0" /><text
       transform="matrix(1,0,0,-1,138.1665,310.33398)"
       style="font-variant:normal;font-weight:normal;font-size:10px;font-family:Myriad;-inkscape-font-specification:Myriad-Roman;writing-mode:lr-tb;fill:#000000;fill-opacity:1;fill-rule:nonzero;stroke:none"
       id="text306"><tspan
         x="0"
         y="0"
         id="tspan304">0</tspan></text>
<path
       d="m 146.5835,345.41602 h 3.25 m 322.1665,0 h -3.33301"
       style="fill:none;stroke:#000000;stroke-width:0.5;stroke-linecap:butt;stroke-linejoin:round;stroke-miterlimit:10;stroke-dasharray:none;stroke-opacity:1"
       id="path308"
       inkscape:connector-curvature="0" /><text
       transform="matrix(1,0,0,-1,138.1665,341.75)"
       style="font-variant:normal;font-weight:normal;font-size:10px;font-family:Myriad;-inkscape-font-specification:Myriad-Roman;writing-mode:lr-tb;fill:#000000;fill-opacity:1;fill-rule:nonzero;stroke:none"
       id="text312"><tspan
         x="0"
         y="0"
         id="tspan310">1</tspan></text>
<path
       d="m 146.5835,376.75 h 3.25 m 322.1665,0 h -3.33301"
       style="fill:none;stroke:#000000;stroke-width:0.5;stroke-linecap:butt;stroke-linejoin:round;stroke-miterlimit:10;stroke-dasharray:none;stroke-opacity:1"
       id="path314"
       inkscape:connector-curvature="0" /><text
       transform="matrix(1,0,0,-1,138.1665,373.08398)"
       style="font-variant:normal;font-weight:normal;font-size:10px;font-family:Myriad;-inkscape-font-specification:Myriad-Roman;writing-mode:lr-tb;fill:#000000;fill-opacity:1;fill-rule:nonzero;stroke:none"
       id="text318"><tspan
         x="0"
         y="0"
         id="tspan316">2</tspan></text>
<path
       d="M 146.5835,376.75 H 472 M 146.5835,314 H 472 m 0,0 v 62.75 M 146.5835,314 v 62.75"
       style="fill:none;stroke:#000000;stroke-width:0.5;stroke-linecap:butt;stroke-linejoin:round;stroke-miterlimit:10;stroke-dasharray:none;stroke-opacity:1"
       id="path320"
       inkscape:connector-curvature="0" /><g
       id="g322"><g
         id="g324"
         clip-path="url(#clipPath328)"><path
           d="m 149.8335,314.08398 h 3.25 3.25 3.25 3.25 3.25 3.25 3.25 3.25 3.25 3.25 3.25 3.25 3.25 3.25 3.25 3.25 3.25 3.25 3.333 3.25 3.25 l 3.25,0.082 h 3.25 3.25 3.25 3.25 3.25 3.25 3.25 3.25 l 3.25,0.084 h 3.25 3.25 3.25 3.25 l 3.25,0.084 h 3.25 3.25 l 3.3335,0.082 H 280 l 3.25,0.084 h 3.25 l 3.25,0.084 3.25,0.082 3.25,0.16796 3.25,0.16602 3.25,0.25 3.25,0.33398 3.25,0.41602 3.25,0.75 3.25,1 3.25,1.5 3.25,2.08398 3.25,3.08204 3.25,4 3.25,5.08398 3.25,5.5 3.25,5 3.33301,3.58398 3.25,1.41602 3.25,-0.83398 3.25,-2.5 3.25,-3.25 3.25,-3.5 3.25,-3.08204 3.25,-2.58398 3.25,-1.91602 3.25,-1.41796 3.25,-0.83204 3.25,-0.41796 3.25,0.084 3.25,0.58398 3.25,1 3.25,1.5 3.25,2.08204 3.25,2.66796 3.25,3.25 3.25,4 3.33398,4.58204 3.25,5.08398 3.25,5.33398 3.25,5.16602 3.25,4.58398 3.25,3.5 3.25,2.08204 3.25,0.5 3.25,-1 3.25,-2.41602 3.25,-3.5 3.25,-4.25 3.25,-4.91602 3.25,-5.25 3.25,-5.66796 3.25,-5.83204 3.25,-5.75 3.25,2.91602"
           style="fill:none;stroke:#000000;stroke-width:2;stroke-linecap:butt;stroke-linejoin:round;stroke-miterlimit:10;stroke-dasharray:none;stroke-opacity:1"
           id="path330"
           inkscape:connector-curvature="0" /></g></g><text
       transform="matrix(0,1,1,0,133.5835,326.91602)"
       style="font-variant:normal;font-weight:normal;font-size:12px;font-family:Myriad;-inkscape-font-specification:Myriad-Roman;writing-mode:lr-tb;fill:#000000;fill-opacity:1;fill-rule:nonzero;stroke:none"
       id="text334"><tspan
         x="0 6.6960001 9.2399998 12.648 22.656 26.771999 31.524"
         y="0"
         sodipodi:role="line"
         id="tspan332">V (m/s)</tspan></text>
</g></svg>