<?xml version="1.0" encoding="UTF-8" standalone="no"?>
<!-- Created with Inkscape (http://www.inkscape.org/) -->

<svg
   xmlns:dc="http://purl.org/dc/elements/1.1/"
   xmlns:cc="http://creativecommons.org/ns#"
   xmlns:rdf="http://www.w3.org/1999/02/22-rdf-syntax-ns#"
   xmlns:svg="http://www.w3.org/2000/svg"
   xmlns="http://www.w3.org/2000/svg"
   xmlns:sodipodi="http://sodipodi.sourceforge.net/DTD/sodipodi-0.dtd"
   xmlns:inkscape="http://www.inkscape.org/namespaces/inkscape"
   id="svg2"
   version="1.1"
   inkscape:version="0.48.3.1 r9886"
   width="646.6716"
   height="369.87206"
   xml:space="preserve"
   sodipodi:docname="Exemple_DWIROISE2004_en.pdf"><metadata
     id="metadata8"><rdf:RDF><cc:Work
         rdf:about=""><dc:format>image/svg+xml</dc:format><dc:type
           rdf:resource="http://purl.org/dc/dcmitype/StillImage" /><dc:title></dc:title></cc:Work></rdf:RDF></metadata><defs
     id="defs6"><clipPath
       clipPathUnits="userSpaceOnUse"
       id="clipPath92"><path
         d="m 28.418,292.812 480,0 0,-256.914 -480,0 0,256.914 z"
         id="path94" /></clipPath><clipPath
       clipPathUnits="userSpaceOnUse"
       id="clipPath100"><path
         d="M 0,0 518,0 518,296 0,296 0,0 z"
         id="path102" /></clipPath><clipPath
       clipPathUnits="userSpaceOnUse"
       id="clipPath130"><path
         d="m 215,227.859 29.855,0 0,-9.129 -29.855,0 0,9.129 z"
         id="path132" /></clipPath><clipPath
       clipPathUnits="userSpaceOnUse"
       id="clipPath138"><path
         d="M 0,0 518,0 518,296 0,296 0,0 z"
         id="path140" /></clipPath><clipPath
       clipPathUnits="userSpaceOnUse"
       id="clipPath142"><path
         d="m 221.211,224.398 17.434,0 0,-2 -17.434,0 0,2 z"
         id="path144" /></clipPath><clipPath
       clipPathUnits="userSpaceOnUse"
       id="clipPath146"><path
         d="M 0,0 518,0 518,296 0,296 0,0 z"
         id="path148" /></clipPath><clipPath
       clipPathUnits="userSpaceOnUse"
       id="clipPath150"><path
         d="m 215,227.961 8.445,0 0,-9.129 -8.445,0 0,9.129 z"
         id="path152" /></clipPath><clipPath
       clipPathUnits="userSpaceOnUse"
       id="clipPath154"><path
         d="M 0,0 518,0 518,296 0,296 0,0 z"
         id="path156" /></clipPath><clipPath
       clipPathUnits="userSpaceOnUse"
       id="clipPath158"><path
         d="m 236.41,227.961 8.445,0 0,-9.129 -8.445,0 0,9.129 z"
         id="path160" /></clipPath><clipPath
       clipPathUnits="userSpaceOnUse"
       id="clipPath162"><path
         d="M 0,0 518,0 518,296 0,296 0,0 z"
         id="path164" /></clipPath><clipPath
       clipPathUnits="userSpaceOnUse"
       id="clipPath234"><path
         d="m 249.602,215.48 11.957,0 0,-142.582 -11.957,0 0,142.582 z"
         id="path236" /></clipPath><clipPath
       clipPathUnits="userSpaceOnUse"
       id="clipPath242"><path
         d="M 0,0 518,0 518,296 0,296 0,0 z"
         id="path244" /></clipPath><clipPath
       clipPathUnits="userSpaceOnUse"
       id="clipPath246"><path
         d="m 254.582,200.613 2,0 0,-112.645 -2,0 0,112.645 z"
         id="path248" /></clipPath><clipPath
       clipPathUnits="userSpaceOnUse"
       id="clipPath250"><path
         d="M 0,0 518,0 518,296 0,296 0,0 z"
         id="path252" /></clipPath><clipPath
       clipPathUnits="userSpaceOnUse"
       id="clipPath254"><path
         d="m 249.602,93.352 11.957,0 0,-20.352 -11.957,0 0,20.352 z"
         id="path256" /></clipPath><clipPath
       clipPathUnits="userSpaceOnUse"
       id="clipPath258"><path
         d="M 0,0 518,0 518,296 0,296 0,0 z"
         id="path260" /></clipPath><clipPath
       clipPathUnits="userSpaceOnUse"
       id="clipPath262"><path
         d="m 249.602,215.582 11.957,0 0,-20.352 -11.957,0 0,20.352 z"
         id="path264" /></clipPath><clipPath
       clipPathUnits="userSpaceOnUse"
       id="clipPath266"><path
         d="M 0,0 518,0 518,296 0,296 0,0 z"
         id="path268" /></clipPath></defs><sodipodi:namedview
     pagecolor="#ffffff"
     bordercolor="#666666"
     borderopacity="1"
     objecttolerance="10"
     gridtolerance="10"
     guidetolerance="10"
     inkscape:pageopacity="0"
     inkscape:pageshadow="2"
     inkscape:window-width="1366"
     inkscape:window-height="699"
     id="namedview4"
     showgrid="false"
     inkscape:zoom="0.90235091"
     inkscape:cx="224.48807"
     inkscape:cy="148.85492"
     inkscape:window-x="0"
     inkscape:window-y="24"
     inkscape:window-maximized="1"
     inkscape:current-layer="g10" /><g
     id="g10"
     inkscape:groupmode="layer"
     inkscape:label="Exemple_DWIROISE2004"
     transform="matrix(1.25,0,0,-1.25,0,369.87206)"><g
       id="g12"><path
         d="m 28.418,35.98 0,256.832 479.836,0 0,-256.832 -479.836,0"
         style="fill:none;stroke:#ffffff;stroke-opacity:1;stroke-width:0.5;stroke-linecap:butt;stroke-linejoin:round;stroke-miterlimit:10;stroke-dasharray:none"
         id="path14" /><path
         d="m 77.086,35.98 0,256.832 m 79.75,-256.832 0,256.832 m 79.75,-256.832 0,256.832 m 79.668,-256.832 0,256.832 m 79.75,-256.832 0,256.832 m 79.75,-256.832 0,256.832 M 28.418,51.23 l 479.918,0 m -479.918,45.582 479.918,0 m -479.918,45.5 479.918,0 m -479.918,45.5 479.918,0 m -479.918,45.586 479.918,0 m -479.918,45.5 479.918,0"
         style="fill:none;stroke:#000000;stroke-opacity:1;stroke-width:1;stroke-linecap:butt;stroke-linejoin:round;stroke-miterlimit:10;stroke-dasharray:2,4;stroke-dashoffset:0"
         id="path16" /><path
         d="m 28.418,292.812 479.836,0 M 28.418,35.98 l 479.836,0 m 0,0 0,256.832 M 28.418,35.98 l 0,256.832 m 0,-256.832 479.836,0 m -479.836,0 0,256.832 M 77.086,35.98 l 0,4.832 m 0,252 0,-4.75"
         style="fill:none;stroke:#000000;stroke-opacity:1;stroke-width:0.5;stroke-linecap:butt;stroke-linejoin:round;stroke-miterlimit:10;stroke-dasharray:none"
         id="path18" /><text
         transform="matrix(1,0,0,-1,67.5862,22.999754)"
         id="text20"><tspan
           style="font-size:14px;font-variant:normal;font-weight:normal;writing-mode:lr-tb;fill:#000000;fill-opacity:1;fill-rule:nonzero;stroke:none;font-family:DejaVu Sans;-inkscape-font-specification:DejaVuSans"
           x="0"
           sodipodi:role="line"
           id="tspan22"
           y="0"> 0</tspan></text>
<path
         d="m 156.836,35.98 0,4.832 m 0,252 0,-4.75"
         style="fill:none;stroke:#000000;stroke-opacity:1;stroke-width:0.5;stroke-linecap:butt;stroke-linejoin:round;stroke-miterlimit:10;stroke-dasharray:none"
         id="path24" /><text
         transform="matrix(1,0,0,-1,147.3362,22.999754)"
         id="text26"><tspan
           style="font-size:14px;font-variant:normal;font-weight:normal;writing-mode:lr-tb;fill:#000000;fill-opacity:1;fill-rule:nonzero;stroke:none;font-family:DejaVu Sans;-inkscape-font-specification:DejaVuSans"
           x="7.1820002 14.364"
           sodipodi:role="line"
           id="tspan28">50</tspan></text>
<path
         d="m 236.586,35.98 0,4.832 m 0,252 0,-4.75"
         style="fill:none;stroke:#000000;stroke-opacity:1;stroke-width:0.5;stroke-linecap:butt;stroke-linejoin:round;stroke-miterlimit:10;stroke-dasharray:none"
         id="path30" /><text
         transform="matrix(1,0,0,-1,227.08571,22.999754)"
         id="text32"><tspan
           style="font-size:14px;font-variant:normal;font-weight:normal;writing-mode:lr-tb;fill:#000000;fill-opacity:1;fill-rule:nonzero;stroke:none;font-family:DejaVu Sans;-inkscape-font-specification:DejaVuSans"
           sodipodi:role="line"
           id="tspan34"
           x="0"
           y="0">100</tspan></text>
<path
         d="m 316.254,35.98 0,4.832 m 0,252 0,-4.75"
         style="fill:none;stroke:#000000;stroke-opacity:1;stroke-width:0.5;stroke-linecap:butt;stroke-linejoin:round;stroke-miterlimit:10;stroke-dasharray:none"
         id="path36" /><text
         transform="matrix(1,0,0,-1,306.7527,22.999754)"
         id="text38"><tspan
           style="font-size:14px;font-variant:normal;font-weight:normal;writing-mode:lr-tb;fill:#000000;fill-opacity:1;fill-rule:nonzero;stroke:none;font-family:DejaVu Sans;-inkscape-font-specification:DejaVuSans"
           sodipodi:role="line"
           id="tspan40"
           x="0"
           y="0">150</tspan></text>
<path
         d="m 396.004,35.98 0,4.832 m 0,252 0,-4.75"
         style="fill:none;stroke:#000000;stroke-opacity:1;stroke-width:0.5;stroke-linecap:butt;stroke-linejoin:round;stroke-miterlimit:10;stroke-dasharray:none"
         id="path42" /><text
         transform="matrix(1,0,0,-1,386.5027,22.999754)"
         id="text44"><tspan
           style="font-size:14px;font-variant:normal;font-weight:normal;writing-mode:lr-tb;fill:#000000;fill-opacity:1;fill-rule:nonzero;stroke:none;font-family:DejaVu Sans;-inkscape-font-specification:DejaVuSans"
           sodipodi:role="line"
           id="tspan46"
           x="0"
           y="0">200</tspan></text>
<path
         d="m 475.754,35.98 0,4.832 m 0,252 0,-4.75"
         style="fill:none;stroke:#000000;stroke-opacity:1;stroke-width:0.5;stroke-linecap:butt;stroke-linejoin:round;stroke-miterlimit:10;stroke-dasharray:none"
         id="path48" /><text
         transform="matrix(1,0,0,-1,466.2527,22.999754)"
         id="text50"><tspan
           style="font-size:14px;font-variant:normal;font-weight:normal;writing-mode:lr-tb;fill:#000000;fill-opacity:1;fill-rule:nonzero;stroke:none;font-family:DejaVu Sans;-inkscape-font-specification:DejaVuSans"
           sodipodi:role="line"
           id="tspan52"
           x="0"
           y="0">250</tspan><tspan
           style="font-size:14px;font-variant:normal;font-weight:normal;writing-mode:lr-tb;fill:#000000;fill-opacity:1;fill-rule:nonzero;stroke:none;font-family:DejaVu Sans;-inkscape-font-specification:DejaVuSans"
           x="-450.58301 -446.29901"
           y="-23.229486"
           sodipodi:role="line"
           id="tspan54">-4</tspan></text>
<path
         d="m 39.418,96.812 4.75,0 m 475.168,0 -4.832,0"
         style="fill:none;stroke:#000000;stroke-opacity:1;stroke-width:0.5;stroke-linecap:butt;stroke-linejoin:round;stroke-miterlimit:10;stroke-dasharray:none"
         id="path56" /><text
         transform="matrix(1,0,0,-1,15.66969,91.813234)"
         id="text58"><tspan
           style="fill:#000000;fill-opacity:1;fill-rule:nonzero;stroke:none;font-family:DejaVu Sans;font-variant:normal;font-weight:normal;font-size:14;writing-mode:lr;-inkscape-font-specification:DejaVuSans"
           x="0 4.284"
           y="0"
           sodipodi:role="line"
           id="tspan60">-2</tspan></text>
<path
         d="m 39.418,142.312 4.75,0 m 475.168,0 -4.832,0"
         style="fill:none;stroke:#000000;stroke-opacity:1;stroke-width:0.5;stroke-linecap:butt;stroke-linejoin:round;stroke-miterlimit:10;stroke-dasharray:none"
         id="path62" /><text
         transform="matrix(1,0,0,-1,19.50319,137.31323)"
         id="text64"><tspan
           style="fill:#000000;fill-opacity:1;fill-rule:nonzero;stroke:none;font-family:DejaVu Sans;font-variant:normal;font-weight:normal;font-size:14;writing-mode:lr;-inkscape-font-specification:DejaVuSans"
           x="0"
           y="0"
           id="tspan66">0</tspan></text>
<path
         d="m 39.418,187.812 4.75,0 m 475.168,0 -4.832,0"
         style="fill:none;stroke:#000000;stroke-opacity:1;stroke-width:0.5;stroke-linecap:butt;stroke-linejoin:round;stroke-miterlimit:10;stroke-dasharray:none"
         id="path68" /><text
         transform="matrix(1,0,0,-1,17.99977,182.81323)"
         id="text70"><tspan
           style="fill:#000000;fill-opacity:1;fill-rule:nonzero;stroke:none;font-family:DejaVu Sans;font-variant:normal;font-weight:normal;font-size:14;writing-mode:lr;-inkscape-font-specification:DejaVuSans"
           x="0"
           y="0"
           id="tspan72">2</tspan></text>
<path
         d="m 39.418,233.398 4.75,0 m 475.168,0 -4.832,0"
         style="fill:none;stroke:#000000;stroke-opacity:1;stroke-width:0.5;stroke-linecap:butt;stroke-linejoin:round;stroke-miterlimit:10;stroke-dasharray:none"
         id="path74" /><text
         transform="matrix(1,0,0,-1,17.99977,228.39623)"
         id="text76"><tspan
           style="fill:#000000;fill-opacity:1;fill-rule:nonzero;stroke:none;font-family:DejaVu Sans;font-variant:normal;font-weight:normal;font-size:14;writing-mode:lr;-inkscape-font-specification:DejaVuSans"
           x="0"
           y="0"
           id="tspan78">4</tspan></text>
<path
         d="m 39.418,278.898 4.75,0 m 475.168,0 -4.832,0"
         style="fill:none;stroke:#000000;stroke-opacity:1;stroke-width:0.5;stroke-linecap:butt;stroke-linejoin:round;stroke-miterlimit:10;stroke-dasharray:none"
         id="path80" /><text
         transform="matrix(1,0,0,-1,17.99977,273.89623)"
         id="text82"><tspan
           style="fill:#000000;fill-opacity:1;fill-rule:nonzero;stroke:none;font-family:DejaVu Sans;font-variant:normal;font-weight:normal;font-size:14;writing-mode:lr;-inkscape-font-specification:DejaVuSans"
           x="0"
           y="0"
           id="tspan84">6</tspan></text>
<path
         d="m 28.418,292.812 479.836,0 M 28.418,35.98 l 479.836,0 m 0,0 0,256.832 M 28.418,35.98 l 0,256.832"
         style="fill:none;stroke:#000000;stroke-opacity:1;stroke-width:0.5;stroke-linecap:butt;stroke-linejoin:round;stroke-miterlimit:10;stroke-dasharray:none"
         id="path86" /></g><g
       id="g88"><g
         id="g90"
         clip-path="url(#clipPath92)"><g
           id="g96"
           transform="translate(0,-0.102356)"><g
             id="g98" /><g
             id="g104"><g
               clip-path="url(#clipPath100)"
               id="g106"><g
                 id="g108"><path
                   d="m 136.836,181.5 1.25,-11.836 1.25,1.668 1.25,-5.25 1.25,-19.582 1.25,-9.168 1.25,7.332 1.25,1.836 1.25,-15.25 1.25,-20.5 1.25,-16.418 1.25,-1.082 1.25,4.25 1.25,9.332 1.25,8.918 1.25,14.082 1.25,8.918 1.25,0.914 1.168,18 1.25,31.168 1.25,3.668 1.25,6.582 1.25,10.5 1.25,-5.5 1.25,-26.582 1.25,-36.668 1.25,-28.75 1.25,-25.25 1.25,5.918 1.25,20.082 1.25,8.832 1.25,-13.832 1.25,3.582 1.25,4.168 1.25,10.918 1.25,16.832 1.25,13.168 1.25,10.75 1.25,-11.418 1.164,-7.5 1.25,0 1.25,7.75 1.25,5.25 1.25,11.168 1.25,12.25 1.25,4.832 1.25,-7.082 1.25,-13.668 1.25,-29.582 1.25,-32.836 1.25,-23.664 1.25,-7.5 1.25,-8.168 1.25,-5.25 1.25,32.082 1.25,31.418 1.25,21.918 1.25,19.582 1.25,18.168 1.25,20.5 1.168,7.75 1.25,3.832 1.25,-9.5 1.25,-37.168 1.25,-10.25 1.25,-10 1.25,-23.414 1.25,-18 1.25,-25.918 1.25,-9.168 1.25,6.586 1.25,9.832 1.25,10.25 1.25,7.5 1.25,13.918 1.25,29.832 1.25,38.668 1.25,23.914 1.25,-6.582 1.25,-17.082 1.25,-17.336 1.168,-14.582 1.25,-4.5 1.25,-0.25 1.25,-16.418 1.25,-12 1.25,-4.582 1.25,-12.082 1.25,-8.668 1.25,4.582 1.25,8.418 1.25,0.5 1.25,21.168 1.25,15.414 1.25,6 1.25,5.418 1.25,4.332 1.25,6.168 1.25,10.418 1.25,3 1.25,-20.75 1.25,-27.75 1.164,-22.75 1.25,-1.586 1.25,5.918 1.25,-6.832 1.25,5.664 1.25,21.418 1.25,9.082 1.25,1.836 1.25,11.832 1.25,2.332 1.25,-20.332 1.25,-14.082 1.25,-5.668 1.25,8.418 1.25,13.414 1.25,16.836 1.25,11.164 1.25,-11.832 1.25,-14.332 1.25,0.414 1.25,-7.664 1.168,-16.418 1.25,-1.168 1.25,-4.5 1.25,4.75 1.25,15.918 1.25,10 1.25,-6.75 1.25,-14.832 1.25,1.164 1.25,23.418 1.25,22.082 1.25,3.168 1.25,-15.668 1.25,-20.082 1.25,-8.168 1.25,3.168 1.25,2.082 1.25,-16.582 1.25,-0.918 1.25,20.918 1.25,19.332 1.168,8 1.25,-1.582 1.25,-12.082 1.25,-21.836 1.25,-2.75 1.25,-2.25 1.25,-7.082 1.25,-6.168 1.25,-10.5 1.25,-6.582 1.25,17.332 1.25,39.168 1.25,20.25 1.25,25.25 1.25,6.168 1.25,-33.918 1.25,-33.668 1.25,-7.332 1.25,-1.082 1.25,-3.418 1.25,17.918 1.164,12.582 1.25,-0.5 1.25,-10.668 1.25,-10.75 1.25,-3.164 1.25,-12.086 1.25,-12.914 1.25,0.914 1.25,-0.25 1.25,0.668 1.25,14.582 1.25,22.086 1.25,15.914 1.25,6.836 1.25,3.914 1.25,8.168 1.25,13.668 1.25,4.332 1.25,-16.168 1.25,-16.832 1.25,-18.668 1.25,-22.582 1.168,-14.5 1.25,-7.582 1.25,-10.25 1.25,-19.75 1.25,13.832 1.25,26.25 1.25,15.668 1.25,15.914 1.25,20.5 1.25,4.336 1.25,0.914 1.25,10.5 1.25,5.25 1.25,0.168 1.25,-19.082 1.25,-14.336 1.25,0.25 1.25,15.25 1.25,-9.582 1.25,-21.418 1.25,-14.332 1.168,-11.582 1.25,-11.668 1.25,-7 1.25,12.75 1.25,14.082 1.25,13.668 1.25,-5 1.25,-0.25 1.25,8 1.25,3.832 1.25,8.668 1.25,15.25 1.25,26.168 1.25,32.164 1.25,9.336 1.25,-22.586 1.25,-32.75 1.25,-33.25 1.25,-18.414 1.25,-29.168 1.25,-23.668 1.164,1.836 1.25,0.164 1.25,8.25 1.25,21.418 1.25,27.75 1.25,33.668 1.25,23.5 1.25,-2.5 1.25,11.332 1.25,15.25 1.25,-11.332 1.25,-20.25 1.25,-25.5 1.25,-20.336 1.25,-21.332 1.25,-24.582 1.25,0 1.25,2 1.25,13 1.25,26.414 1.25,11.418 1.168,9.082 1.25,9.086 1.25,13.414 1.25,5.5 1.25,1.336 1.25,-7.918 1.25,-17.75 1.25,-22.332 1.25,1.582 1.25,15.918 1.25,5.25 1.25,4.582 1.25,-13 1.25,-30.75 1.25,-22.332 1.25,-7.918 1.25,6.168 1.25,34.332 1.25,19.582 1.25,2.086 1.25,16.164 1.168,21.586 1.25,-6.336 1.25,-3.664 1.25,3.664 1.25,-14.332 1.25,-8.918 1.25,-4.75 1.25,-7.082 1.25,-7.5 1.25,-8.668 1.25,1.418 1.25,6.582 1.25,-7.5 1.25,-22.082 1.25,-7.5 1.25,12.5 1.25,15.668 1.25,4.164 1.25,11.836 1.25,23.832 1.25,3.668 1.164,10.5 1.25,-15.25 1.25,-11.418 1.25,10.082 1.25,-6 1.25,-4.5 1.25,-14.332 0.25,-2.25 m -480,-20.668 0,0.25 1.25,14.086 1.25,12.5 1.25,2.5 1.25,-10.25 1.25,0.5 1.25,7.25 1.25,15.25 1.25,26.414 1.25,14.586 1.25,-11.586 1.25,-23.664 1.25,-10 1.25,-20.086 1.25,-13.414 1.25,4.332 1.25,3.418 1.25,-12.336 1.25,-3.832 1.25,-1.168 1.168,-1.082 1.25,10.418 1.25,8.25 1.25,7 1.25,13.5 1.25,14.5 1.25,7.332 1.25,7.75 1.25,1.582 1.25,-8.664 1.25,-19.586 1.25,5 1.25,17.086 1.25,-0.918 1.25,-22.25 1.25,-21.25 1.25,-9.75 1.25,-13 1.25,-10 1.25,0.5 1.25,3.168 1.168,-0.5 1.25,8.25 1.25,3.832 1.25,13.25 1.25,15.418 1.25,23.5 1.25,39.832 1.25,31.418 1.25,15 1.25,-22.25 1.25,-47.168 1.25,-33.918 1.25,-22.332 1.25,-24.75 1.25,-11.418 1.25,4.75 1.25,-0.164 1.25,-5.5 1.25,11.164 1.25,20 1.25,23 1.164,-1.582 1.25,-18.918 1.25,8.5 1.25,20.918 1.25,33.5 1.25,24.582 1.25,8.836 1.25,-9.336 1.25,-12.25 1.25,-27.082 1.25,-35.082 1.25,-7.75 1.25,-11.586 1.25,-22.832 1.25,-13.168 1.25,12.5 1.25,9.168 1.25,3.832 1.25,10.5 1.25,23.668 1.25,16.582 1.25,3.918 1.168,16.168 1.25,5.664 1.25,0.25 1.25,1.086"
                   style="fill:none;stroke:#000000;stroke-opacity:1;stroke-width:2;stroke-linecap:butt;stroke-linejoin:round;stroke-miterlimit:10;stroke-dasharray:none"
                   id="path110" /></g></g></g></g></g></g><g
       id="g112"><text
         transform="matrix(1,0,0,-1,243.58571,7.999754)"
         id="text114"><tspan
           style="font-size:14px;font-variant:normal;font-weight:normal;writing-mode:lr-tb;fill:#000000;fill-opacity:1;fill-rule:nonzero;stroke:none;font-family:DejaVu Sans;-inkscape-font-specification:DejaVuSans"
           sodipodi:role="line"
           id="tspan116"
           x="0"
           y="0">time (s)</tspan></text>
<path
         d="m 221.668,142.312 c 0,-2.485 -2.012,-4.5 -4.5,-4.5 -2.484,0 -4.5,2.015 -4.5,4.5 0,2.488 2.016,4.5 4.5,4.5 2.488,0 4.5,-2.012 4.5,-4.5 z"
         style="fill:#ff0000;fill-opacity:1;fill-rule:nonzero;stroke:#ff0000;stroke-opacity:1;stroke-width:2;stroke-linecap:butt;stroke-linejoin:round;stroke-miterlimit:10;stroke-dasharray:none"
         id="path118" /><path
         d="m 245.668,142.312 c 0,-2.485 -2.012,-4.5 -4.5,-4.5 -2.484,0 -4.5,2.015 -4.5,4.5 0,2.488 2.016,4.5 4.5,4.5 2.488,0 4.5,-2.012 4.5,-4.5 z"
         style="fill:#ff0000;fill-opacity:1;fill-rule:nonzero;stroke:#ff0000;stroke-opacity:1;stroke-width:2;stroke-linecap:butt;stroke-linejoin:round;stroke-miterlimit:10;stroke-dasharray:none"
         id="path120" /><path
         d="m 216.668,222.812 0,-80"
         style="fill:none;stroke:#ff0000;stroke-opacity:1;stroke-width:2;stroke-linecap:butt;stroke-linejoin:round;stroke-miterlimit:10;stroke-dasharray:8,4;stroke-dashoffset:0"
         id="path122" /><path
         d="m 240.668,221.812 0,-80"
         style="fill:none;stroke:#ff0000;stroke-opacity:1;stroke-width:2;stroke-linecap:butt;stroke-linejoin:round;stroke-miterlimit:10;stroke-dasharray:8,4;stroke-dashoffset:0"
         id="path124" /></g><g
       id="g126"><g
         id="g128"
         clip-path="url(#clipPath130)"><g
           id="g134"
           transform="translate(0,-0.102356)"><g
             id="g136" /><g
             id="g166"><g
               clip-path="url(#clipPath138)"
               id="g168"><g
                 id="g170" /><g
                 id="g172"><g
                   clip-path="url(#clipPath142)"
                   id="g174"><g
                     id="g176"><g
                       id="g178" /><g
                       id="g180"><g
                         clip-path="url(#clipPath146)"
                         id="g182"><g
                           id="g184" /><g
                           id="g186"><path
                             d="m 238.645,223.398 -17.434,0"
                             style="fill:none;stroke:#ff0000;stroke-opacity:1;stroke-width:2;stroke-linecap:butt;stroke-linejoin:round;stroke-miterlimit:10;stroke-dasharray:none"
                             id="path188" /></g></g></g></g></g></g><g
                 id="g190"><g
                   clip-path="url(#clipPath150)"
                   id="g192"><g
                     id="g194"><g
                       id="g196" /><g
                       id="g198"><g
                         clip-path="url(#clipPath154)"
                         id="g200"><g
                           id="g202"><path
                             d="m 221.922,223.398 1.523,-4.464 -0.086,-0.102 -4.086,2.891 c -1.425,0.558 -2.851,1.117 -4.273,1.675 1.422,0.555 2.848,1.114 4.273,1.672 l 4.086,2.891 0.086,-0.074 -1.523,-4.489 z"
                             style="fill:#ff0000;fill-opacity:1;fill-rule:nonzero;stroke:none"
                             id="path204" /></g></g></g></g></g></g><g
                 id="g206"><g
                   clip-path="url(#clipPath158)"
                   id="g208"><g
                     id="g210"><g
                       id="g212" /><g
                       id="g214"><g
                         clip-path="url(#clipPath162)"
                         id="g216"><g
                           id="g218"><path
                             d="m 237.934,223.398 -1.524,4.461 0.086,0.102 4.086,-2.891 c 1.426,-0.558 2.852,-1.117 4.273,-1.672 -1.421,-0.558 -2.847,-1.117 -4.273,-1.675 l -4.086,-2.891 -0.086,0.074 1.524,4.492 z"
                             style="fill:#ff0000;fill-opacity:1;fill-rule:nonzero;stroke:none"
                             id="path220" /></g></g></g></g></g></g></g></g></g></g></g><g
       id="g222"><path
         d="m 225.938,249.589 10.046,0 -1.078,-3.516 -0.375,0 c 0.121,0.508 0.188,0.969 0.188,1.375 0,0.465 -0.149,0.821 -0.438,1.063 -0.219,0.184 -0.789,0.281 -1.703,0.281 l -1.047,0 -2.625,-9.125 c -0.336,-1.148 -0.5,-1.851 -0.5,-2.109 0,-0.25 0.102,-0.461 0.313,-0.625 0.207,-0.156 0.578,-0.235 1.109,-0.235 l 0.453,0 -0.125,-0.359 -5.765,0 0.109,0.359 0.266,0 c 0.496,0 0.89,0.082 1.172,0.25 0.183,0.102 0.351,0.301 0.5,0.594 0.152,0.289 0.367,0.906 0.64,1.844 l 2.75,9.406 -0.797,0 c -0.761,0 -1.379,-0.101 -1.843,-0.297 -0.461,-0.199 -0.836,-0.488 -1.126,-0.859 -0.281,-0.367 -0.519,-0.887 -0.703,-1.563 l -0.359,0 0.938,3.516 z"
         style="fill:none;stroke:#ff0000;stroke-opacity:1;stroke-width:2;stroke-linecap:butt;stroke-linejoin:round;stroke-miterlimit:10;stroke-dasharray:none"
         id="path224" /><path
         d="m 221,214.339 41.75,0"
         style="fill:none;stroke:#ff0000;stroke-opacity:1;stroke-width:2;stroke-linecap:butt;stroke-linejoin:miter;stroke-miterlimit:4;stroke-dasharray:8,4;stroke-dashoffset:0"
         id="path226" /><path
         d="m 215,74.339 53,0"
         style="fill:none;stroke:#ff0000;stroke-opacity:1;stroke-width:2;stroke-linecap:butt;stroke-linejoin:miter;stroke-miterlimit:4;stroke-dasharray:8,4;stroke-dashoffset:0"
         id="path228" /></g><g
       id="g230"><g
         id="g232"
         clip-path="url(#clipPath234)"><g
           id="g238"
           transform="translate(0,-0.102356)"><g
             id="g240" /><g
             id="g270"><g
               clip-path="url(#clipPath242)"
               id="g272"><g
                 id="g274" /><g
                 id="g276"><g
                   clip-path="url(#clipPath246)"
                   id="g278"><g
                     id="g280"><g
                       id="g282" /><g
                       id="g284"><g
                         clip-path="url(#clipPath250)"
                         id="g286"><g
                           id="g288"><path
                             d="m 255.582,200.613 0,-112.644"
                             style="fill:none;stroke:#ff0000;stroke-opacity:1;stroke-width:2;stroke-linecap:butt;stroke-linejoin:round;stroke-miterlimit:10;stroke-dasharray:none"
                             id="path290" /></g></g></g></g></g></g><g
                 id="g292"><g
                   clip-path="url(#clipPath254)"
                   id="g294"><g
                     id="g296"><g
                       id="g298" /><g
                       id="g300"><g
                         clip-path="url(#clipPath258)"
                         id="g302"><g
                           id="g304"><path
                             d="m 255.582,89.68 5.848,3.672 0.129,-0.207 -3.786,-9.848 c -0.73,-3.434 -1.461,-6.867 -2.191,-10.297 -0.73,3.43 -1.461,6.863 -2.191,10.297 l -3.789,9.848 0.101,0.207 5.879,-3.672 z"
                             style="fill:#ff0000;fill-opacity:1;fill-rule:nonzero;stroke:none"
                             id="path306" /></g></g></g></g></g></g><g
                 id="g308"><g
                   clip-path="url(#clipPath262)"
                   id="g310"><g
                     id="g312"><g
                       id="g314" /><g
                       id="g316"><g
                         clip-path="url(#clipPath266)"
                         id="g318"><g
                           id="g320"><path
                             d="m 255.582,198.902 -5.848,-3.672 -0.132,0.208 3.789,9.847 c 0.73,3.434 1.461,6.867 2.191,10.297 0.73,-3.43 1.461,-6.863 2.191,-10.297 l 3.786,-9.847 -0.098,-0.208 -5.879,3.672 z"
                             style="fill:#ff0000;fill-opacity:1;fill-rule:nonzero;stroke:none"
                             id="path322" /></g></g></g></g></g></g></g></g></g></g></g><g
       id="g324"><path
         d="m 269.422,89.402 6.734,0 1.063,3.609 c 0.195,0.695 0.297,1.238 0.297,1.625 0,0.184 -0.051,0.344 -0.141,0.469 -0.086,0.132 -0.223,0.234 -0.406,0.297 -0.188,0.07 -0.555,0.109 -1.094,0.109 l 0.109,0.391 5.86,0 -0.125,-0.391 c -0.5,0.008 -0.871,-0.043 -1.11,-0.156 -0.343,-0.149 -0.601,-0.34 -0.765,-0.578 -0.242,-0.336 -0.481,-0.926 -0.719,-1.766 l -2.563,-8.797 c -0.218,-0.742 -0.328,-1.269 -0.328,-1.578 0,-0.274 0.094,-0.481 0.282,-0.625 0.195,-0.137 0.648,-0.231 1.359,-0.281 l -0.109,-0.391 -5.672,0 0.14,0.391 c 0.559,0.019 0.938,0.07 1.125,0.156 0.278,0.121 0.489,0.289 0.625,0.5 0.184,0.277 0.414,0.891 0.688,1.828 l 1.312,4.453 -6.765,0 -1.313,-4.453 c -0.211,-0.719 -0.312,-1.246 -0.312,-1.578 0,-0.274 0.086,-0.481 0.265,-0.625 0.184,-0.137 0.641,-0.231 1.36,-0.281 l -0.078,-0.391 -5.719,0 0.14,0.391 c 0.559,0.019 0.938,0.07 1.126,0.156 0.289,0.121 0.503,0.289 0.64,0.5 0.176,0.289 0.406,0.898 0.688,1.828 l 2.578,8.797 c 0.207,0.707 0.312,1.25 0.312,1.625 0,0.184 -0.051,0.344 -0.14,0.469 -0.094,0.132 -0.239,0.234 -0.422,0.297 -0.188,0.07 -0.559,0.109 -1.11,0.109 l 0.125,0.391 5.75,0 -0.125,-0.391 c -0.48,0.008 -0.836,-0.043 -1.062,-0.156 -0.336,-0.149 -0.582,-0.336 -0.734,-0.563 -0.219,-0.312 -0.458,-0.91 -0.704,-1.781 l -1.062,-3.609 z"
         style="fill:none;stroke:#ff0000;stroke-opacity:1;stroke-width:2;stroke-linecap:butt;stroke-linejoin:round;stroke-miterlimit:10;stroke-dasharray:none"
         id="path326" /><path
         d="m 30.418,141.839 479.918,0"
         style="fill:none;stroke:#000000;stroke-opacity:1;stroke-width:3;stroke-linecap:butt;stroke-linejoin:round;stroke-miterlimit:10;stroke-dasharray:4,4;stroke-dashoffset:0"
         id="path328" /><text
         transform="matrix(0,1,1,0,11.16676,81.087644)"
         id="text330"><tspan
           style="font-size:14px;font-variant:normal;font-weight:normal;writing-mode:lr-tb;fill:#000000;fill-opacity:1;fill-rule:nonzero;stroke:none;font-family:DejaVu Sans;-inkscape-font-specification:DejaVuSans"
           sodipodi:role="line"
           id="tspan332"
           x="0"
           y="0">Vertical displacement (m)</tspan></text>
</g></g></svg>