<?xml version="1.0" encoding="UTF-8" standalone="no"?>
<!-- Created with Inkscape (http://www.inkscape.org/) -->

<svg
   xmlns:dc="http://purl.org/dc/elements/1.1/"
   xmlns:cc="http://creativecommons.org/ns#"
   xmlns:rdf="http://www.w3.org/1999/02/22-rdf-syntax-ns#"
   xmlns:svg="http://www.w3.org/2000/svg"
   xmlns="http://www.w3.org/2000/svg"
   xmlns:sodipodi="http://sodipodi.sourceforge.net/DTD/sodipodi-0.dtd"
   xmlns:inkscape="http://www.inkscape.org/namespaces/inkscape"
   id="svg2"
   version="1.1"
   inkscape:version="0.48.3.1 r9886"
   width="637.7509"
   height="327.65172"
   xml:space="preserve"
   sodipodi:docname="Eul_Lag_drift_en.pdf"><metadata
     id="metadata8"><rdf:RDF><cc:Work
         rdf:about=""><dc:format>image/svg+xml</dc:format><dc:type
           rdf:resource="http://purl.org/dc/dcmitype/StillImage" /><dc:title></dc:title></cc:Work></rdf:RDF></metadata><defs
     id="defs6"><clipPath
       clipPathUnits="userSpaceOnUse"
       id="clipPath104"><path
         d="m 23.83301,555.56494 178.50097,0 0,216.5 -178.50097,0 0,-216.5 0,0 z"
         id="path106" /></clipPath><clipPath
       clipPathUnits="userSpaceOnUse"
       id="clipPath136"><path
         d="m 23.83301,555.56494 178.50097,0 0,216.5 -178.50097,0 0,-216.5 0,0 z"
         id="path138" /></clipPath><clipPath
       clipPathUnits="userSpaceOnUse"
       id="clipPath148"><path
         d="m 23.83301,555.56494 178.50097,0 0,216.5 -178.50097,0 0,-216.5 0,0 z"
         id="path150" /></clipPath><clipPath
       clipPathUnits="userSpaceOnUse"
       id="clipPath160"><path
         d="m 23.83301,555.56494 178.50097,0 0,216.5 -178.50097,0 0,-216.5 0,0 z"
         id="path162" /></clipPath><clipPath
       clipPathUnits="userSpaceOnUse"
       id="clipPath172"><path
         d="m 23.83301,555.56494 178.50097,0 0,216.5 -178.50097,0 0,-216.5 0,0 z"
         id="path174" /></clipPath></defs><sodipodi:namedview
     pagecolor="#ffffff"
     bordercolor="#666666"
     borderopacity="1"
     objecttolerance="10"
     gridtolerance="10"
     guidetolerance="10"
     inkscape:pageopacity="0"
     inkscape:pageshadow="2"
     inkscape:window-width="640"
     inkscape:window-height="480"
     id="namedview4"
     showgrid="false"
     inkscape:zoom="0.70560463"
     inkscape:cx="318.87546"
     inkscape:cy="163.82587"
     inkscape:window-x="428"
     inkscape:window-y="41"
     inkscape:window-maximized="0"
     inkscape:current-layer="g10" /><g
     id="g10"
     inkscape:groupmode="layer"
     inkscape:label="Eul_Lag_drift"
     transform="matrix(1.25,0,0,-1.25,-15.206488,972.95)"><path
       d="m 370.63086,554.52637 0,216.08301 143.91797,0 0,-216.08301 -143.91797,0"
       style="fill:none;stroke:#000000;stroke-opacity:1;stroke-width:1;stroke-linecap:butt;stroke-linejoin:round;stroke-miterlimit:10;stroke-dasharray:none"
       id="path12" /><path
       d="m 388.71484,554.52637 0,216.08301 m 0,0 0,0 m 56.75,-216.08301 0,216.08301 m 0,0 0,0 m -74.83398,-197.75 143.91797,0 m 0,0 0,0 m -143.91797,41.25 143.91797,0 m 0,0 0,0 m -143.91797,41.16699 143.91797,0 m 0,0 0,0 m -143.91797,41.24902 143.91797,0 m 0,0 0,0 m -143.91797,41.16797 143.91797,0 m 0,0 0,0"
       style="fill:none;stroke:#000000;stroke-opacity:1;stroke-width:1;stroke-linecap:butt;stroke-linejoin:round;stroke-miterlimit:10;stroke-dasharray:2,4;stroke-dashoffset:0"
       id="path14" /><path
       d="m 370.63086,554.52637 143.91797,0 m -143.91797,0 0,216.08301 m 11.33398,-216.08301 0,2.16699 m 6.75,-2.16699 0,2.16699 m 56.75,-2.16699 0,2.16699 m -74.83398,16.16602 2.08398,0"
       style="fill:none;stroke:#000000;stroke-opacity:1;stroke-width:0.5;stroke-linecap:butt;stroke-linejoin:round;stroke-miterlimit:10;stroke-dasharray:none"
       id="path16" /><text
       transform="matrix(1,0,0,-1,343.79883,569.19336)"
       id="text18"><tspan
         style="fill:#000000;fill-opacity:1;fill-rule:nonzero;stroke:none;font-family:Times New Roman;font-variant:normal;font-weight:normal;font-size:18;writing-mode:lr;-inkscape-font-specification:TimesNewRomanPSMT"
         x="0 5.994 14.994"
         y="0"
         sodipodi:role="line"
         id="tspan20">-20</tspan></text>
<path
       d="m 370.63086,614.10938 2.08398,0"
       style="fill:none;stroke:#000000;stroke-opacity:1;stroke-width:0.5;stroke-linecap:butt;stroke-linejoin:round;stroke-miterlimit:10;stroke-dasharray:none"
       id="path22" /><text
       transform="matrix(1,0,0,-1,343.79883,610.44336)"
       id="text24"><tspan
         style="fill:#000000;fill-opacity:1;fill-rule:nonzero;stroke:none;font-family:Times New Roman;font-variant:normal;font-weight:normal;font-size:18;writing-mode:lr;-inkscape-font-specification:TimesNewRomanPSMT"
         x="0 5.994 14.994"
         y="0"
         sodipodi:role="line"
         id="tspan26">-15</tspan></text>
<path
       d="m 370.63086,655.27637 2.08398,0"
       style="fill:none;stroke:#000000;stroke-opacity:1;stroke-width:0.5;stroke-linecap:butt;stroke-linejoin:round;stroke-miterlimit:10;stroke-dasharray:none"
       id="path28" /><text
       transform="matrix(1,0,0,-1,343.79883,651.60938)"
       id="text30"><tspan
         style="fill:#000000;fill-opacity:1;fill-rule:nonzero;stroke:none;font-family:Times New Roman;font-variant:normal;font-weight:normal;font-size:18;writing-mode:lr;-inkscape-font-specification:TimesNewRomanPSMT"
         x="0 5.994 14.994"
         y="0"
         sodipodi:role="line"
         id="tspan32">-10</tspan></text>
<path
       d="m 370.63086,696.52539 2.08398,0"
       style="fill:none;stroke:#000000;stroke-opacity:1;stroke-width:0.5;stroke-linecap:butt;stroke-linejoin:round;stroke-miterlimit:10;stroke-dasharray:none"
       id="path34" /><text
       transform="matrix(1,0,0,-1,349.38086,692.85938)"
       id="text36"><tspan
         style="fill:#000000;fill-opacity:1;fill-rule:nonzero;stroke:none;font-family:Times New Roman;font-variant:normal;font-weight:normal;font-size:18;writing-mode:lr;-inkscape-font-specification:TimesNewRomanPSMT"
         x="0 5.994"
         y="0"
         sodipodi:role="line"
         id="tspan38">-5</tspan></text>
<path
       d="m 370.63086,737.69336 2.08398,0"
       style="fill:none;stroke:#000000;stroke-opacity:1;stroke-width:0.5;stroke-linecap:butt;stroke-linejoin:round;stroke-miterlimit:10;stroke-dasharray:none"
       id="path40" /><text
       transform="matrix(1,0,0,-1,358.21484,734.02539)"
       id="text42"><tspan
         style="fill:#000000;fill-opacity:1;fill-rule:nonzero;stroke:none;font-family:Times New Roman;font-variant:normal;font-weight:normal;font-size:18;writing-mode:lr;-inkscape-font-specification:TimesNewRomanPSMT"
         x="0"
         y="0"
         id="tspan44">0</tspan></text>
<path
       d="m 391.71484,554.52637 0.33399,6.16699 0.25,6.08301 0.41601,6.08301 0.33399,6.08398 0.41601,6.16602 0.5,6.08398 0.5,6.08301 0.58399,6.08301 0.58203,6.16699 0.75,6.08301 0.75,6.08398 0.75,6.08301 0.91797,6.16699 1,6.08301 1.08203,6.08301 1.16797,6.08398 1.33203,6.16602 1.41797,6.08398 1.58203,6.08301 1.75,6.08301 1.83398,6.16601 2.08399,6.08399 2.33203,6.08398 2.5,6.08203 2.75,6.16797 3,6.08203 3.33398,6.08399 3.58399,6.08398 4,6.16602 4.41601,6.08398"
       style="fill:none;stroke:#000000;stroke-opacity:1;stroke-width:4;stroke-linecap:butt;stroke-linejoin:round;stroke-miterlimit:10;stroke-dasharray:none"
       id="path46" /><path
       d="m 388.71484,737.69336 39.41602,0 0,1.75 9.83398,-1.75 -9.83398,-1.75 0,1.75"
       style="fill:none;stroke:#000000;stroke-opacity:1;stroke-width:2;stroke-linecap:butt;stroke-linejoin:round;stroke-miterlimit:10;stroke-dasharray:none"
       id="path48" /><path
       d="m 388.71484,696.52539 21,0 0,0.91797 5.25,-0.91797 -5.25,-1 0,1"
       style="fill:none;stroke:#000000;stroke-opacity:1;stroke-width:2;stroke-linecap:butt;stroke-linejoin:round;stroke-miterlimit:10;stroke-dasharray:none"
       id="path50" /><path
       d="m 388.71484,655.27637 11.16602,0 0,0.5 2.83398,-0.5 -2.83398,-0.5 0,0.5"
       style="fill:none;stroke:#000000;stroke-opacity:1;stroke-width:2;stroke-linecap:butt;stroke-linejoin:round;stroke-miterlimit:10;stroke-dasharray:none"
       id="path52" /><path
       d="m 388.71484,614.10938 6,0 0,0.25 1.5,-0.25 -1.5,-0.33301 0,0.33301"
       style="fill:none;stroke:#000000;stroke-opacity:1;stroke-width:2;stroke-linecap:butt;stroke-linejoin:round;stroke-miterlimit:10;stroke-dasharray:none"
       id="path54" /><path
       d="m 388.71484,572.85938 3.16602,0 0,0.16699 0.83398,-0.16699 -0.83398,-0.083 0,0.083"
       style="fill:none;stroke:#000000;stroke-opacity:1;stroke-width:2;stroke-linecap:butt;stroke-linejoin:round;stroke-miterlimit:10;stroke-dasharray:none"
       id="path56" /><text
       transform="matrix(1,0,0,-1,104.96387,525.60938)"
       id="text58"><tspan
         style="fill:#000000;fill-opacity:1;fill-rule:nonzero;stroke:none;font-family:Times New Roman;font-variant:normal;font-weight:normal;font-size:18;writing-mode:lr;-inkscape-font-specification:TimesNewRomanPSMT"
         x="0"
         y="0"
         id="tspan60">x</tspan></text>
<text
       transform="matrix(1,0,0,-1,122.96387,525.60938)"
       id="text62"><tspan
         style="fill:#000000;fill-opacity:1;fill-rule:nonzero;stroke:none;font-family:Times New Roman;font-variant:normal;font-weight:normal;font-size:18;writing-mode:lr;-inkscape-font-specification:TimesNewRomanPSMT"
         x="0 5.994 19.998"
         y="0"
         sodipodi:role="line"
         id="tspan64">(m)</tspan></text>
<text
       transform="matrix(1,0,0,-1,239.96484,523.60938)"
       id="text66"><tspan
         style="font-size:18px;font-variant:normal;font-weight:normal;writing-mode:lr-tb;fill:#000000;fill-opacity:1;fill-rule:nonzero;stroke:none;font-family:Times New Roman;-inkscape-font-specification:TimesNewRomanPSMT"
         sodipodi:role="line"
         id="tspan68"
         x="0"
         y="0">speed</tspan></text>
<text
       transform="matrix(1,0,0,-1,296.95996,523.60938)"
       id="text70"><tspan
         style="fill:#000000;fill-opacity:1;fill-rule:nonzero;stroke:none;font-family:Times New Roman;font-variant:normal;font-weight:normal;font-size:18;writing-mode:lr;-inkscape-font-specification:TimesNewRomanPSMT"
         x="0 5.994 19.998 25.002 32.004"
         y="0"
         sodipodi:role="line"
         id="tspan72">(m/s)</tspan></text>
<path
       d="m 23.83301,555.64893 0,216.41601 178.41699,0 0,-216.41601 -178.41699,0"
       style="fill:none;stroke:#ffffff;stroke-opacity:1;stroke-width:0.5;stroke-linecap:butt;stroke-linejoin:round;stroke-miterlimit:10;stroke-dasharray:none"
       id="path74" /><path
       d="m 23.83301,555.64893 178.41699,0 m -178.41699,0 0,216.41601 m 0,-216.41601 0,3.41601"
       style="fill:none;stroke:#000000;stroke-opacity:1;stroke-width:0.5;stroke-linecap:butt;stroke-linejoin:round;stroke-miterlimit:10;stroke-dasharray:none"
       id="path76" /><text
       transform="matrix(1,0,0,-1,17.08301,540.56494)"
       id="text78"><tspan
         style="fill:#000000;fill-opacity:1;fill-rule:nonzero;stroke:none;font-family:Times New Roman;font-variant:normal;font-weight:normal;font-size:18;writing-mode:lr;-inkscape-font-specification:TimesNewRomanPSMT"
         x="0"
         y="0"
         id="tspan80">0</tspan></text>
<path
       d="m 57.9165,555.64893 0,3.41601 m 34.16651,-3.41601 0,3.41601"
       style="fill:none;stroke:#000000;stroke-opacity:1;stroke-width:0.5;stroke-linecap:butt;stroke-linejoin:round;stroke-miterlimit:10;stroke-dasharray:none"
       id="path82" /><text
       transform="matrix(1,0,0,-1,82.58301,540.56494)"
       id="text84"><tspan
         style="fill:#000000;fill-opacity:1;fill-rule:nonzero;stroke:none;font-family:Times New Roman;font-variant:normal;font-weight:normal;font-size:18;writing-mode:lr;-inkscape-font-specification:TimesNewRomanPSMT"
         x="0 9"
         y="0"
         sodipodi:role="line"
         id="tspan86">40</tspan></text>
<path
       d="m 126.25,555.64893 0,3.41601 m 34.08301,-3.41601 0,3.41601"
       style="fill:none;stroke:#000000;stroke-opacity:1;stroke-width:0.5;stroke-linecap:butt;stroke-linejoin:round;stroke-miterlimit:10;stroke-dasharray:none"
       id="path88" /><text
       transform="matrix(1,0,0,-1,150.83301,540.56494)"
       id="text90"><tspan
         style="fill:#000000;fill-opacity:1;fill-rule:nonzero;stroke:none;font-family:Times New Roman;font-variant:normal;font-weight:normal;font-size:18;writing-mode:lr;-inkscape-font-specification:TimesNewRomanPSMT"
         x="0 9"
         y="0"
         sodipodi:role="line"
         id="tspan92">80</tspan></text>
<path
       d="m 194.5,555.64893 0,3.41601"
       style="fill:none;stroke:#000000;stroke-opacity:1;stroke-width:0.5;stroke-linecap:butt;stroke-linejoin:round;stroke-miterlimit:10;stroke-dasharray:none"
       id="path94" /><path
       d="m 202.25,555.64893 0,3.41601"
       style="fill:none;stroke:#000000;stroke-opacity:1;stroke-width:0.5;stroke-linecap:butt;stroke-linejoin:round;stroke-miterlimit:10;stroke-dasharray:none"
       id="path96" /><path
       d="m 23.83301,574.06494 3.33349,0 m -3.33349,41.25 3.33349,0 m -3.33349,41.25 3.33349,0 m -3.33349,41.25 3.33349,0 m -3.33349,41.25 3.33349,0"
       style="fill:none;stroke:#000000;stroke-opacity:1;stroke-width:0.5;stroke-linecap:butt;stroke-linejoin:round;stroke-miterlimit:10;stroke-dasharray:none"
       id="path98" /><g
       id="g100"><g
         id="g102"
         clip-path="url(#clipPath104)"><path
           d="m 23.83301,763.81494 1.66699,0 1.6665,-0.16699 1.75,-0.25 1.66651,-0.33301 1.75,-0.41699 1.66699,-0.5 1.75,-0.66602 1.6665,-0.66699 1.75,-0.83301 1.66651,-0.83398 1.75,-1 1.66699,-1 1.75,-1.08301 1.6665,-1.16699 1.75,-1.25 1.66651,-1.25 1.75,-1.41602 1.66699,-1.33398 1.75,-1.41602 1.6665,-1.5 1.75,-1.5 1.66651,-1.5 1.75,-1.5 1.66699,-1.58398 1.75,-1.58301 1.6665,-1.5 1.75,-1.58301 1.66651,-1.5 1.75,-1.58398 1.66699,-1.41602 1.75,-1.5 1.6665,-1.41699 1.75,-1.41699 1.66651,-1.33301 1.66699,-1.25 1.75,-1.25 1.6665,-1.16699 1.75,-1.08301 1.667,-1.08301 1.75,-0.91699 1.6665,-0.91699 1.75,-0.75 1.66699,-0.66602 1.75,-0.66699 1.66602,-0.5 1.75,-0.41699 1.66699,-0.41602 1.75,-0.16699 1.66699,-0.16699 1.75,-0.083 1.66602,0.083 1.75,0.16699 1.66699,0.16699 1.75,0.41602 1.66699,0.41699 1.75,0.5 1.66602,0.66699 1.75,0.66602 1.66699,0.75 1.75,0.91699 1.66699,0.91699 1.75,1.08301 1.66602,1.08301 1.75,1.16699 1.66699,1.25 1.75,1.25 1.66699,1.33301 1.66602,1.41699 1.75,1.41699 1.66699,1.5 1.75,1.41602 1.66699,1.58398 1.75,1.5 1.66602,1.58301 1.75,1.5 1.66699,1.58301 1.75,1.58398 1.66699,1.5 1.75,1.5 1.66602,1.5 1.75,1.5 1.66699,1.41602 1.75,1.33398 1.66699,1.41602 1.75,1.25 1.66602,1.25 1.75,1.16699 1.66699,1.08301 1.75,1 1.66699,1 1.75,0.83398 1.66602,0.83301 1.75,0.66699 1.66699,0.66602 1.75,0.5 1.66699,0.41699 1.75,0.33301 1.66602,0.25 1.75,0.16699 1.66699,0 1.66699,0 1.75,-0.16699 1.66602,-0.25 1.75,-0.33301 L 203,762.64795"
           style="fill:none;stroke:#0000ff;stroke-opacity:1;stroke-width:3;stroke-linecap:butt;stroke-linejoin:round;stroke-miterlimit:10;stroke-dasharray:none"
           id="path108" /><path
           d="m 24.85645,739.12793 c 0,-0.55078 -0.44776,-1 -1,-1 -0.55176,0 -1,0.44922 -1,1 0,0.55322 0.44824,1 1,1 0.55224,0 1,-0.44678 1,-1"
           style="fill:#000000;fill-opacity:1;fill-rule:nonzero;stroke:none"
           id="path110" /></g></g><path
       d="m 41.89648,739.12793 c 0,-0.55078 -0.44775,-1 -1,-1 -0.55224,0 -1,0.44922 -1,1 0,0.55322 0.44776,1 1,1 0.55225,0 1,-0.44678 1,-1"
       style="fill:#000000;fill-opacity:1;fill-rule:nonzero;stroke:#000000;stroke-opacity:1;stroke-width:3;stroke-linecap:butt;stroke-linejoin:miter;stroke-miterlimit:4;stroke-dasharray:none"
       id="path112" /><path
       d="m 58.93652,739.12793 c 0,-0.55078 -0.44824,-1 -1,-1 -0.55224,0 -1,0.44922 -1,1 0,0.55322 0.44776,1 1,1 0.55176,0 1,-0.44678 1,-1"
       style="fill:#000000;fill-opacity:1;fill-rule:nonzero;stroke:#000000;stroke-opacity:1;stroke-width:3;stroke-linecap:butt;stroke-linejoin:miter;stroke-miterlimit:4;stroke-dasharray:none"
       id="path114" /><path
       d="m 75.97656,739.12793 c 0,-0.55078 -0.44824,-1 -1,-1 -0.55224,0 -1,0.44922 -1,1 0,0.55322 0.44776,1 1,1 0.55176,0 1,-0.44678 1,-1"
       style="fill:#000000;fill-opacity:1;fill-rule:nonzero;stroke:#000000;stroke-opacity:1;stroke-width:3;stroke-linecap:butt;stroke-linejoin:miter;stroke-miterlimit:4;stroke-dasharray:none"
       id="path116" /><path
       d="m 93.0166,739.12793 c 0,-0.55078 -0.44824,-1 -1,-1 -0.55224,0 -1,0.44922 -1,1 0,0.55322 0.44776,1 1,1 0.55176,0 1,-0.44678 1,-1"
       style="fill:#000000;fill-opacity:1;fill-rule:nonzero;stroke:#000000;stroke-opacity:1;stroke-width:3;stroke-linecap:butt;stroke-linejoin:miter;stroke-miterlimit:4;stroke-dasharray:none"
       id="path118" /><path
       d="m 110.17578,739.12793 c 0,-0.55078 -0.44678,-1 -1,-1 -0.55078,0 -1,0.44922 -1,1 0,0.55322 0.44922,1 1,1 0.55322,0 1,-0.44678 1,-1"
       style="fill:#000000;fill-opacity:1;fill-rule:nonzero;stroke:#000000;stroke-opacity:1;stroke-width:3;stroke-linecap:butt;stroke-linejoin:miter;stroke-miterlimit:4;stroke-dasharray:none"
       id="path120" /><path
       d="m 127.21582,739.12793 c 0,-0.55078 -0.44678,-1 -1,-1 -0.55078,0 -1,0.44922 -1,1 0,0.55322 0.44922,1 1,1 0.55322,0 1,-0.44678 1,-1"
       style="fill:#000000;fill-opacity:1;fill-rule:nonzero;stroke:#000000;stroke-opacity:1;stroke-width:3;stroke-linecap:butt;stroke-linejoin:miter;stroke-miterlimit:4;stroke-dasharray:none"
       id="path122" /><path
       d="m 144.25586,739.12793 c 0,-0.55078 -0.44678,-1 -1,-1 -0.55078,0 -1,0.44922 -1,1 0,0.55322 0.44922,1 1,1 0.55322,0 1,-0.44678 1,-1"
       style="fill:#000000;fill-opacity:1;fill-rule:nonzero;stroke:#000000;stroke-opacity:1;stroke-width:3;stroke-linecap:butt;stroke-linejoin:miter;stroke-miterlimit:4;stroke-dasharray:none"
       id="path124" /><path
       d="m 161.2959,739.12793 c 0,-0.55078 -0.44678,-1 -1,-1 -0.55078,0 -1,0.44922 -1,1 0,0.55322 0.44922,1 1,1 0.55322,0 1,-0.44678 1,-1"
       style="fill:#000000;fill-opacity:1;fill-rule:nonzero;stroke:#000000;stroke-opacity:1;stroke-width:3;stroke-linecap:butt;stroke-linejoin:miter;stroke-miterlimit:4;stroke-dasharray:none"
       id="path126" /><path
       d="m 178.45703,739.12793 c 0,-0.55078 -0.44922,-1 -1,-1 -0.55322,0 -1,0.44922 -1,1 0,0.55322 0.44678,1 1,1 0.55078,0 1,-0.44678 1,-1"
       style="fill:#000000;fill-opacity:1;fill-rule:nonzero;stroke:#000000;stroke-opacity:1;stroke-width:3;stroke-linecap:butt;stroke-linejoin:miter;stroke-miterlimit:4;stroke-dasharray:none"
       id="path128" /><path
       d="m 195.49707,739.12793 c 0,-0.55078 -0.44922,-1 -1,-1 -0.55322,0 -1,0.44922 -1,1 0,0.55322 0.44678,1 1,1 0.55078,0 1,-0.44678 1,-1"
       style="fill:#000000;fill-opacity:1;fill-rule:nonzero;stroke:#000000;stroke-opacity:1;stroke-width:3;stroke-linecap:butt;stroke-linejoin:miter;stroke-miterlimit:4;stroke-dasharray:none"
       id="path130" /><g
       id="g132"><g
         id="g134"
         clip-path="url(#clipPath136)"><path
           d="m 203.25586,739.12793 c 0,-0.55078 -0.44727,-1 -1,-1 -0.55078,0 -1,0.44922 -1,1 0,0.55322 0.44922,1 1,1 0.55273,0 1,-0.44678 1,-1"
           style="fill:#000000;fill-opacity:1;fill-rule:nonzero;stroke:none"
           id="path140" /><path
           d="m 24.85645,697.84912 c 0,-0.55322 -0.44776,-1 -1,-1 -0.55176,0 -1,0.44678 -1,1 0,0.55078 0.44824,1 1,1 0.55224,0 1,-0.44922 1,-1"
           style="fill:#000000;fill-opacity:1;fill-rule:nonzero;stroke:none"
           id="path142" /></g></g><g
       id="g144"><g
         id="g146"
         clip-path="url(#clipPath148)"><path
           d="m 203.25586,697.84912 c 0,-0.55322 -0.44727,-1 -1,-1 -0.55078,0 -1,0.44678 -1,1 0,0.55078 0.44922,1 1,1 0.55273,0 1,-0.44922 1,-1"
           style="fill:#000000;fill-opacity:1;fill-rule:nonzero;stroke:none"
           id="path152" /><path
           d="m 24.85645,656.56787 c 0,-0.55078 -0.44776,-1 -1,-1 -0.55176,0 -1,0.44922 -1,1 0,0.55322 0.44824,1 1,1 0.55224,0 1,-0.44678 1,-1"
           style="fill:#000000;fill-opacity:1;fill-rule:nonzero;stroke:none"
           id="path154" /></g></g><g
       id="g156"><g
         id="g158"
         clip-path="url(#clipPath160)"><path
           d="m 203.25586,656.56787 c 0,-0.55078 -0.44727,-1 -1,-1 -0.55078,0 -1,0.44922 -1,1 0,0.55322 0.44922,1 1,1 0.55273,0 1,-0.44678 1,-1"
           style="fill:#000000;fill-opacity:1;fill-rule:nonzero;stroke:none"
           id="path164" /><path
           d="m 24.85645,615.28906 c 0,-0.55224 -0.44776,-1 -1,-1 -0.55176,0 -1,0.44776 -1,1 0,0.55078 0.44824,1 1,1 0.55224,0 1,-0.44922 1,-1"
           style="fill:#000000;fill-opacity:1;fill-rule:nonzero;stroke:none"
           id="path166" /></g></g><g
       id="g168"><g
         id="g170"
         clip-path="url(#clipPath172)"><path
           d="m 203.25586,615.28906 c 0,-0.55224 -0.44727,-1 -1,-1 -0.55078,0 -1,0.44776 -1,1 0,0.55078 0.44922,1 1,1 0.55273,0 1,-0.44922 1,-1"
           style="fill:#000000;fill-opacity:1;fill-rule:nonzero;stroke:none"
           id="path176" /><path
           d="m 24.85645,574.00781 c 0,-0.55078 -0.44776,-1 -1,-1 -0.55176,0 -1,0.44922 -1,1 0,0.55323 0.44824,1 1,1 0.55224,0 1,-0.44677 1,-1"
           style="fill:#000000;fill-opacity:1;fill-rule:nonzero;stroke:none"
           id="path178" /></g></g><path
       d="m 23.83301,555.56494 178.50097,0 0,216.5 -178.50097,0 0,-216.5 0,0 z"
       style="fill:none;stroke:#000000;stroke-opacity:1;stroke-width:1;stroke-linecap:butt;stroke-linejoin:miter;stroke-miterlimit:4;stroke-dasharray:none"
       id="path180" /><path
       d="m 203.25586,574.00781 c 0,-0.55078 -0.44727,-1 -1,-1 -0.55078,0 -1,0.44922 -1,1 0,0.55323 0.44922,1 1,1 0.55273,0 1,-0.44677 1,-1"
       style="fill:#000000;fill-opacity:1;fill-rule:nonzero;stroke:none"
       id="path182" /><path
       d="m 233.75,555.64893 0,216.41601 104.25,0 0,-216.41601 -104.25,0"
       style="fill:none;stroke:#000000;stroke-opacity:1;stroke-width:1;stroke-linecap:butt;stroke-linejoin:round;stroke-miterlimit:10;stroke-dasharray:none"
       id="path184" /><path
       d="m 242,555.64893 0,216.41601 m 0,0 0,0 m 56.83398,-216.41601 0,216.41601 m 0,0 0,0 m -65.08398,-198 104.25,0 m 0,0 0,0 m -104.25,41.25 104.25,0 m 0,0 0,0 m -104.25,41.25 104.25,0 m 0,0 0,0 m -104.25,41.25 104.25,0 m 0,0 0,0 m -104.25,41.25 104.25,0 m 0,0 0,0"
       style="fill:none;stroke:#000000;stroke-opacity:1;stroke-width:1;stroke-linecap:butt;stroke-linejoin:round;stroke-miterlimit:10;stroke-dasharray:2,4;stroke-dashoffset:0"
       id="path186" /><path
       d="m 233.75,555.64893 104.25,0 m -104.25,0 0,216.41601"
       style="fill:none;stroke:#000000;stroke-opacity:1;stroke-width:1;stroke-linecap:butt;stroke-linejoin:round;stroke-miterlimit:10;stroke-dasharray:none"
       id="path188" /><path
       d="m 242,555.64893 0,2.16601"
       style="fill:none;stroke:#000000;stroke-opacity:1;stroke-width:0.5;stroke-linecap:butt;stroke-linejoin:round;stroke-miterlimit:10;stroke-dasharray:none"
       id="path190" /><text
       transform="matrix(1,0,0,-1,235.25,540.56494)"
       id="text192"><tspan
         style="fill:#000000;fill-opacity:1;fill-rule:nonzero;stroke:none;font-family:Times New Roman;font-variant:normal;font-weight:normal;font-size:18;writing-mode:lr;-inkscape-font-specification:TimesNewRomanPSMT"
         x="0"
         y="0"
         id="tspan194">0</tspan></text>
<path
       d="m 298.83398,555.64893 0,2.16601"
       style="fill:none;stroke:#000000;stroke-opacity:1;stroke-width:0.5;stroke-linecap:butt;stroke-linejoin:round;stroke-miterlimit:10;stroke-dasharray:none"
       id="path196" /><text
       transform="matrix(1,0,0,-1,287.91602,540.56494)"
       id="text198"><tspan
         style="fill:#000000;fill-opacity:1;fill-rule:nonzero;stroke:none;font-family:Times New Roman;font-variant:normal;font-weight:normal;font-size:18;writing-mode:lr;-inkscape-font-specification:TimesNewRomanPSMT"
         x="0 9 13.5"
         y="0"
         sodipodi:role="line"
         id="tspan200">0.5</tspan></text>
<path
       d="m 233.75,574.06494 2.08398,0"
       style="fill:none;stroke:#000000;stroke-opacity:1;stroke-width:0.5;stroke-linecap:butt;stroke-linejoin:round;stroke-miterlimit:10;stroke-dasharray:none"
       id="path202" /><text
       transform="matrix(1,0,0,-1,205.91602,570.39893)"
       id="text204"><tspan
         style="fill:#000000;fill-opacity:1;fill-rule:nonzero;stroke:none;font-family:Times New Roman;font-variant:normal;font-weight:normal;font-size:18;writing-mode:lr;-inkscape-font-specification:TimesNewRomanPSMT"
         x="0 5.994 14.994"
         y="0"
         sodipodi:role="line"
         id="tspan206">-20</tspan></text>
<path
       d="m 233.75,615.31494 2.08398,0"
       style="fill:none;stroke:#000000;stroke-opacity:1;stroke-width:0.5;stroke-linecap:butt;stroke-linejoin:round;stroke-miterlimit:10;stroke-dasharray:none"
       id="path208" /><text
       transform="matrix(1,0,0,-1,205.91602,611.64893)"
       id="text210"><tspan
         style="fill:#000000;fill-opacity:1;fill-rule:nonzero;stroke:none;font-family:Times New Roman;font-variant:normal;font-weight:normal;font-size:18;writing-mode:lr;-inkscape-font-specification:TimesNewRomanPSMT"
         x="0 5.994 14.994"
         y="0"
         sodipodi:role="line"
         id="tspan212">-15</tspan></text>
<path
       d="m 233.75,656.56494 2.08398,0"
       style="fill:none;stroke:#000000;stroke-opacity:1;stroke-width:0.5;stroke-linecap:butt;stroke-linejoin:round;stroke-miterlimit:10;stroke-dasharray:none"
       id="path214" /><text
       transform="matrix(1,0,0,-1,205.91602,652.89795)"
       id="text216"><tspan
         style="fill:#000000;fill-opacity:1;fill-rule:nonzero;stroke:none;font-family:Times New Roman;font-variant:normal;font-weight:normal;font-size:18;writing-mode:lr;-inkscape-font-specification:TimesNewRomanPSMT"
         x="0 5.994 14.994"
         y="0"
         sodipodi:role="line"
         id="tspan218">-10</tspan></text>
<path
       d="m 233.75,697.81494 2.08398,0"
       style="fill:none;stroke:#000000;stroke-opacity:1;stroke-width:0.5;stroke-linecap:butt;stroke-linejoin:round;stroke-miterlimit:10;stroke-dasharray:none"
       id="path220" /><text
       transform="matrix(1,0,0,-1,211.5,694.14795)"
       id="text222"><tspan
         style="fill:#000000;fill-opacity:1;fill-rule:nonzero;stroke:none;font-family:Times New Roman;font-variant:normal;font-weight:normal;font-size:18;writing-mode:lr;-inkscape-font-specification:TimesNewRomanPSMT"
         x="0 5.994"
         y="0"
         sodipodi:role="line"
         id="tspan224">-5</tspan></text>
<path
       d="m 233.75,739.06494 2.08398,0"
       style="fill:none;stroke:#000000;stroke-opacity:1;stroke-width:0.5;stroke-linecap:butt;stroke-linejoin:round;stroke-miterlimit:10;stroke-dasharray:none"
       id="path226" /><text
       transform="matrix(1,0,0,-1,222.33398,735.39795)"
       id="text228"><tspan
         style="fill:#000000;fill-opacity:1;fill-rule:nonzero;stroke:none;font-family:Times New Roman;font-variant:normal;font-weight:normal;font-size:18;writing-mode:lr;-inkscape-font-specification:TimesNewRomanPSMT"
         x="0"
         y="0"
         id="tspan230">0</tspan></text>
<path
       d="m 242,714.31494 29.91602,1.66699 11.58398,1.66602 8.5,1.66699 6.58398,1.58301 5.5,1.66699 4.58204,1.66699 3.75,1.66602 3.25,1.66699 2.66796,1.66699 2.16602,1.58301 1.75,1.66699 1.33398,1.66602 1,1.66699 0.5,1.66699 0.25,1.58301 -0.25,1.66699 -0.5,1.66602 -1,1.66797 -1.33398,1.66601 -1.75,1.58399 -2.16602,1.66601 -2.66796,1.66602 -3.25,1.66797 -3.75,1.66601 -4.58204,1.58399 -5.5,1.66601 -6.58398,1.66602 -8.5,1.66797 -11.58398,1.66601 L 242,763.81592"
       style="fill:none;stroke:#000000;stroke-opacity:1;stroke-width:2;stroke-linecap:butt;stroke-linejoin:round;stroke-miterlimit:10;stroke-dasharray:none"
       id="path232" /><path
       d="m 242,722.56494 49.66602,0 0,2.25 12.41796,-2.25 -12.41796,-2.25 0,2.25 m -49.66602,8.25 62.83398,0 0,2.91699 15.66602,-2.91699 -15.66602,-2.83301 0,2.83301 m -62.83398,8.25 66.66602,0 0,3.08301 16.66796,-3.08301 -16.66796,-3 0,3 m -66.66602,8.25 62.83398,0 0,2.91699 15.66602,-2.91699 -15.66602,-2.83301 0,2.83301 m -62.83398,8.25 49.66602,0 0,2.25 12.41796,-2.25 -12.41796,-2.25 0,2.25"
       style="fill:none;stroke:#000000;stroke-opacity:1;stroke-width:2;stroke-linecap:butt;stroke-linejoin:round;stroke-miterlimit:10;stroke-dasharray:none"
       id="path234" /><path
       d="m 512,593.31445 0,0"
       style="fill:none;stroke:#000000;stroke-opacity:1;stroke-width:1;stroke-linecap:butt;stroke-linejoin:round;stroke-miterlimit:10;stroke-dasharray:2,4;stroke-dashoffset:0"
       id="path236" /><path
       d="m 512,634.56445 0,0"
       style="fill:none;stroke:#000000;stroke-opacity:1;stroke-width:1;stroke-linecap:butt;stroke-linejoin:round;stroke-miterlimit:10;stroke-dasharray:2,4;stroke-dashoffset:0"
       id="path238" /><text
       transform="matrix(1,0,0,-1,384.25,539.56445)"
       id="text240"><tspan
         style="fill:#000000;fill-opacity:1;fill-rule:nonzero;stroke:none;font-family:Times New Roman;font-variant:normal;font-weight:normal;font-size:18;writing-mode:lr;-inkscape-font-specification:TimesNewRomanPSMT"
         x="0"
         y="0"
         id="tspan242">0</tspan></text>
<text
       transform="matrix(1,0,0,-1,436.91602,539.56445)"
       id="text244"><tspan
         style="fill:#000000;fill-opacity:1;fill-rule:nonzero;stroke:none;font-family:Times New Roman;font-variant:normal;font-weight:normal;font-size:18;writing-mode:lr;-inkscape-font-specification:TimesNewRomanPSMT"
         x="0 9 13.5"
         y="0"
         sodipodi:role="line"
         id="tspan246">0.5</tspan></text>
<text
       transform="matrix(1,0,0,-1,70,693)"
       id="text248"><tspan
         style="font-size:18px;font-variant:normal;font-weight:normal;writing-mode:lr-tb;fill:#0000ff;fill-opacity:1;fill-rule:nonzero;stroke:none;font-family:Times New Roman;-inkscape-font-specification:TimesNewRomanPSMT"
         sodipodi:role="line"
         id="tspan250"
         x="0"
         y="0">free surface</tspan></text>
<path
       d="m 336,594 -91,0 0,88 91,0 0,-88 z"
       style="fill:#ffffff;fill-opacity:1;fill-rule:nonzero;stroke:#000000;stroke-opacity:1;stroke-width:2;stroke-linecap:butt;stroke-linejoin:miter;stroke-miterlimit:4;stroke-dasharray:none"
       id="path252" /><path
       d="m 513,558 -105,0 0,88 105,0 0,-88 z"
       style="fill:#ffffff;fill-opacity:1;fill-rule:nonzero;stroke:#000000;stroke-opacity:1;stroke-width:2;stroke-linecap:butt;stroke-linejoin:miter;stroke-miterlimit:4;stroke-dasharray:none"
       id="path254" /><text
       transform="scale(1,-1)"
       id="text260"
       x="250"
       y="-666.8999"><tspan
         style="font-size:18px;font-variant:normal;font-weight:normal;writing-mode:lr-tb;fill:#000000;fill-opacity:1;fill-rule:nonzero;stroke:none;font-family:Times New Roman;-inkscape-font-specification:TimesNewRomanPSMT"
         sodipodi:role="line"
         id="tspan262"
         x="250"
         y="-666.8999">water </tspan><tspan
         style="font-size:18px;font-variant:normal;font-weight:normal;writing-mode:lr-tb;fill:#000000;fill-opacity:1;fill-rule:nonzero;stroke:none;font-family:Times New Roman;-inkscape-font-specification:TimesNewRomanPSMT"
         sodipodi:role="line"
         x="250"
         y="-644.3999"
         id="tspan3276">velocity </tspan><tspan
         style="font-size:18px;font-variant:normal;font-weight:normal;writing-mode:lr-tb;fill:#000000;fill-opacity:1;fill-rule:nonzero;stroke:none;font-family:Times New Roman;-inkscape-font-specification:TimesNewRomanPSMT"
         sodipodi:role="line"
         x="250"
         y="-621.8999"
         id="tspan3274">(Eulerian </tspan><tspan
         style="font-size:18px;font-variant:normal;font-weight:normal;writing-mode:lr-tb;fill:#000000;fill-opacity:1;fill-rule:nonzero;stroke:none;font-family:Times New Roman;-inkscape-font-specification:TimesNewRomanPSMT"
         sodipodi:role="line"
         x="250"
         y="-599.3999"
         id="tspan3278">mean)</tspan></text>
<text
       transform="matrix(1,0,0,-1,410,628)"
       id="text272"><tspan
         style="font-size:18px;font-variant:normal;font-weight:normal;writing-mode:lr-tb;fill:#000000;fill-opacity:1;fill-rule:nonzero;stroke:none;font-family:Times New Roman;-inkscape-font-specification:TimesNewRomanPSMT"
         sodipodi:role="line"
         id="tspan274"
         x="0"
         y="0">Lagrangian</tspan></text>
<text
       transform="matrix(1,0,0,-1,410,606.5)"
       id="text276"><tspan
         style="font-size:18px;font-variant:normal;font-weight:normal;writing-mode:lr-tb;fill:#000000;fill-opacity:1;fill-rule:nonzero;stroke:none;font-family:Times New Roman;-inkscape-font-specification:TimesNewRomanPSMT"
         sodipodi:role="line"
         id="tspan278"
         x="0"
         y="0">mean</tspan></text>
</g></svg>