<?xml version="1.0" encoding="UTF-8" standalone="no"?>
<!-- Created with Inkscape (http://www.inkscape.org/) -->
<svg
   xmlns:dc="http://purl.org/dc/elements/1.1/"
   xmlns:cc="http://creativecommons.org/ns#"
   xmlns:rdf="http://www.w3.org/1999/02/22-rdf-syntax-ns#"
   xmlns:svg="http://www.w3.org/2000/svg"
   xmlns="http://www.w3.org/2000/svg"
   xmlns:sodipodi="http://sodipodi.sourceforge.net/DTD/sodipodi-0.dtd"
   xmlns:inkscape="http://www.inkscape.org/namespaces/inkscape"
   id="svg2"
   sodipodi:version="0.32"
   inkscape:version="0.46"
   width="530.71503"
   height="347.065"
   xml:space="preserve"
   sodipodi:docname="streaming.svg"
   version="1.0"
   inkscape:output_extension="org.inkscape.output.svg.inkscape"><metadata
     id="metadata7"><rdf:RDF><cc:Work
         rdf:about=""><dc:format>image/svg+xml</dc:format><dc:type
           rdf:resource="http://purl.org/dc/dcmitype/StillImage" /></cc:Work></rdf:RDF></metadata><defs
     id="defs5"><inkscape:perspective
       sodipodi:type="inkscape:persp3d"
       inkscape:vp_x="0 : 526.18109 : 1"
       inkscape:vp_y="0 : 1000 : 0"
       inkscape:vp_z="744.09448 : 526.18109 : 1"
       inkscape:persp3d-origin="372.04724 : 350.78739 : 1"
       id="perspective9" /><clipPath
       clipPathUnits="userSpaceOnUse"
       id="clipPath19"><path
         d="M 600,5408 L 600,2488 L 5504,2488 L 5504,5408 L 600,5408 z"
         id="path21" /></clipPath><clipPath
       clipPathUnits="userSpaceOnUse"
       id="clipPath245"><path
         d="M 1240,5192 L 1240,2936 L 5048,2936 L 5048,5192 L 1240,5192 z"
         id="path247" /></clipPath><clipPath
       clipPathUnits="userSpaceOnUse"
       id="clipPath263"><path
         d="M 600,5408 L 600,2488 L 5504,2488 L 5504,5408 L 600,5408 z"
         id="path265" /></clipPath><clipPath
       clipPathUnits="userSpaceOnUse"
       id="clipPath343"><path
         d="M 1352,5112 L 1352,4408 L 2560,4408 L 2560,5112 L 1352,5112 z"
         id="path345" /></clipPath><clipPath
       clipPathUnits="userSpaceOnUse"
       id="clipPath353"><path
         d="M 600,5408 L 600,2488 L 5504,2488 L 5504,5408 L 600,5408 z"
         id="path355" /></clipPath><clipPath
       clipPathUnits="userSpaceOnUse"
       id="clipPath371"><path
         d="M 1352,5112 L 1352,4408 L 2560,4408 L 2560,5112 L 1352,5112 z"
         id="path373" /></clipPath></defs><sodipodi:namedview
     inkscape:window-height="674"
     inkscape:window-width="905"
     inkscape:pageshadow="2"
     inkscape:pageopacity="0.0"
     guidetolerance="10.0"
     gridtolerance="10.0"
     objecttolerance="10.0"
     borderopacity="1.0"
     bordercolor="#666666"
     pagecolor="#ffffff"
     id="base"
     showgrid="false"
     inkscape:zoom="1.3313606"
     inkscape:cx="153.34511"
     inkscape:cy="131.58565"
     inkscape:window-x="321"
     inkscape:window-y="0"
     inkscape:current-layer="g259" /><g
     id="g11"
     inkscape:groupmode="layer"
     inkscape:label="streaming"
     transform="matrix(1.25,0,0,-1.25,-108.46,659.81)"><g
       id="g13"
       transform="scale(0.1,0.1)"><g
         id="g15"><g
           id="g17"
           clip-path="url(#clipPath19)"><path
             d="M 1240,2944 L 1240,5192 L 5040,5192 L 5040,2944 L 1240,2944"
             style="fill:none;stroke:#ffffff;stroke-width:20;stroke-linecap:butt;stroke-linejoin:round;stroke-miterlimit:10;stroke-dasharray:none;stroke-opacity:1"
             id="path23" /><path
             d="M 1240,2944 L 1240,5192"
             style="fill:none;stroke:#000000;stroke-width:13.33339977;stroke-linecap:butt;stroke-linejoin:round;stroke-miterlimit:10;stroke-dasharray:5, 40;stroke-dashoffset:0;stroke-opacity:1"
             id="path25" /><path
             d="M 1240,5192 L 1240,5192"
             style="fill:none;stroke:#000000;stroke-width:13.33339977;stroke-linecap:butt;stroke-linejoin:round;stroke-miterlimit:10;stroke-dasharray:5, 40;stroke-dashoffset:0;stroke-opacity:1"
             id="path27" /><path
             d="M 1872,2944 L 1872,5192"
             style="fill:none;stroke:#000000;stroke-width:13.33339977;stroke-linecap:butt;stroke-linejoin:round;stroke-miterlimit:10;stroke-dasharray:5, 40;stroke-dashoffset:0;stroke-opacity:1"
             id="path29" /><path
             d="M 1872,5192 L 1872,5192"
             style="fill:none;stroke:#000000;stroke-width:13.33339977;stroke-linecap:butt;stroke-linejoin:round;stroke-miterlimit:10;stroke-dasharray:5, 40;stroke-dashoffset:0;stroke-opacity:1"
             id="path31" /><path
             d="M 2504,2944 L 2504,5192"
             style="fill:none;stroke:#000000;stroke-width:13.33339977;stroke-linecap:butt;stroke-linejoin:round;stroke-miterlimit:10;stroke-dasharray:5, 40;stroke-dashoffset:0;stroke-opacity:1"
             id="path33" /><path
             d="M 2504,5192 L 2504,5192"
             style="fill:none;stroke:#000000;stroke-width:13.33339977;stroke-linecap:butt;stroke-linejoin:round;stroke-miterlimit:10;stroke-dasharray:5, 40;stroke-dashoffset:0;stroke-opacity:1"
             id="path35" /><path
             d="M 3136,2944 L 3136,5192"
             style="fill:none;stroke:#000000;stroke-width:13.33339977;stroke-linecap:butt;stroke-linejoin:round;stroke-miterlimit:10;stroke-dasharray:5, 40;stroke-dashoffset:0;stroke-opacity:1"
             id="path37" /><path
             d="M 3136,5192 L 3136,5192"
             style="fill:none;stroke:#000000;stroke-width:13.33339977;stroke-linecap:butt;stroke-linejoin:round;stroke-miterlimit:10;stroke-dasharray:5, 40;stroke-dashoffset:0;stroke-opacity:1"
             id="path39" /><path
             d="M 3768,2944 L 3768,5192"
             style="fill:none;stroke:#000000;stroke-width:13.33339977;stroke-linecap:butt;stroke-linejoin:round;stroke-miterlimit:10;stroke-dasharray:5, 40;stroke-dashoffset:0;stroke-opacity:1"
             id="path41" /><path
             d="M 3768,5192 L 3768,5192"
             style="fill:none;stroke:#000000;stroke-width:13.33339977;stroke-linecap:butt;stroke-linejoin:round;stroke-miterlimit:10;stroke-dasharray:5, 40;stroke-dashoffset:0;stroke-opacity:1"
             id="path43" /><path
             d="M 4400,2944 L 4400,5192"
             style="fill:none;stroke:#000000;stroke-width:13.33339977;stroke-linecap:butt;stroke-linejoin:round;stroke-miterlimit:10;stroke-dasharray:5, 40;stroke-dashoffset:0;stroke-opacity:1"
             id="path45" /><path
             d="M 4400,5192 L 4400,5192"
             style="fill:none;stroke:#000000;stroke-width:13.33339977;stroke-linecap:butt;stroke-linejoin:round;stroke-miterlimit:10;stroke-dasharray:5, 40;stroke-dashoffset:0;stroke-opacity:1"
             id="path47" /><path
             d="M 5040,2944 L 5040,5192"
             style="fill:none;stroke:#000000;stroke-width:13.33339977;stroke-linecap:butt;stroke-linejoin:round;stroke-miterlimit:10;stroke-dasharray:5, 40;stroke-dashoffset:0;stroke-opacity:1"
             id="path49" /><path
             d="M 5040,5192 L 5040,5192"
             style="fill:none;stroke:#000000;stroke-width:13.33339977;stroke-linecap:butt;stroke-linejoin:round;stroke-miterlimit:10;stroke-dasharray:5, 40;stroke-dashoffset:0;stroke-opacity:1"
             id="path51" /><path
             d="M 1240,2944 L 5040,2944"
             style="fill:none;stroke:#000000;stroke-width:13.33339977;stroke-linecap:butt;stroke-linejoin:round;stroke-miterlimit:10;stroke-dasharray:5, 40;stroke-dashoffset:0;stroke-opacity:1"
             id="path53" /><path
             d="M 5040,2944 L 5040,2944"
             style="fill:none;stroke:#000000;stroke-width:13.33339977;stroke-linecap:butt;stroke-linejoin:round;stroke-miterlimit:10;stroke-dasharray:5, 40;stroke-dashoffset:0;stroke-opacity:1"
             id="path55" /><path
             d="M 1240,3320 L 5040,3320"
             style="fill:none;stroke:#000000;stroke-width:13.33339977;stroke-linecap:butt;stroke-linejoin:round;stroke-miterlimit:10;stroke-dasharray:5, 40;stroke-dashoffset:0;stroke-opacity:1"
             id="path57" /><path
             d="M 5040,3320 L 5040,3320"
             style="fill:none;stroke:#000000;stroke-width:13.33339977;stroke-linecap:butt;stroke-linejoin:round;stroke-miterlimit:10;stroke-dasharray:5, 40;stroke-dashoffset:0;stroke-opacity:1"
             id="path59" /><path
             d="M 1240,3696 L 5040,3696"
             style="fill:none;stroke:#000000;stroke-width:13.33339977;stroke-linecap:butt;stroke-linejoin:round;stroke-miterlimit:10;stroke-dasharray:5, 40;stroke-dashoffset:0;stroke-opacity:1"
             id="path61" /><path
             d="M 5040,3696 L 5040,3696"
             style="fill:none;stroke:#000000;stroke-width:13.33339977;stroke-linecap:butt;stroke-linejoin:round;stroke-miterlimit:10;stroke-dasharray:5, 40;stroke-dashoffset:0;stroke-opacity:1"
             id="path63" /><path
             d="M 1240,4072 L 5040,4072"
             style="fill:none;stroke:#000000;stroke-width:13.33339977;stroke-linecap:butt;stroke-linejoin:round;stroke-miterlimit:10;stroke-dasharray:5, 40;stroke-dashoffset:0;stroke-opacity:1"
             id="path65" /><path
             d="M 5040,4072 L 5040,4072"
             style="fill:none;stroke:#000000;stroke-width:13.33339977;stroke-linecap:butt;stroke-linejoin:round;stroke-miterlimit:10;stroke-dasharray:5, 40;stroke-dashoffset:0;stroke-opacity:1"
             id="path67" /><path
             d="M 1240,4448 L 5040,4448"
             style="fill:none;stroke:#000000;stroke-width:13.33339977;stroke-linecap:butt;stroke-linejoin:round;stroke-miterlimit:10;stroke-dasharray:5, 40;stroke-dashoffset:0;stroke-opacity:1"
             id="path69" /><path
             d="M 5040,4448 L 5040,4448"
             style="fill:none;stroke:#000000;stroke-width:13.33339977;stroke-linecap:butt;stroke-linejoin:round;stroke-miterlimit:10;stroke-dasharray:5, 40;stroke-dashoffset:0;stroke-opacity:1"
             id="path71" /><path
             d="M 1240,4824 L 5040,4824"
             style="fill:none;stroke:#000000;stroke-width:13.33339977;stroke-linecap:butt;stroke-linejoin:round;stroke-miterlimit:10;stroke-dasharray:5, 40;stroke-dashoffset:0;stroke-opacity:1"
             id="path73" /><path
             d="M 5040,4824 L 5040,4824"
             style="fill:none;stroke:#000000;stroke-width:13.33339977;stroke-linecap:butt;stroke-linejoin:round;stroke-miterlimit:10;stroke-dasharray:5, 40;stroke-dashoffset:0;stroke-opacity:1"
             id="path75" /><path
             d="M 1240,5192 L 5040,5192"
             style="fill:none;stroke:#000000;stroke-width:13.33339977;stroke-linecap:butt;stroke-linejoin:round;stroke-miterlimit:10;stroke-dasharray:5, 40;stroke-dashoffset:0;stroke-opacity:1"
             id="path77" /><path
             d="M 5040,5192 L 5040,5192"
             style="fill:none;stroke:#000000;stroke-width:13.33339977;stroke-linecap:butt;stroke-linejoin:round;stroke-miterlimit:10;stroke-dasharray:5, 40;stroke-dashoffset:0;stroke-opacity:1"
             id="path79" /><path
             d="M 1240,2944 L 5040,2944"
             style="fill:none;stroke:#000000;stroke-width:20;stroke-linecap:butt;stroke-linejoin:round;stroke-miterlimit:10;stroke-dasharray:none;stroke-opacity:1"
             id="path81" /><path
             d="M 1240,5192 L 5040,5192"
             style="fill:none;stroke:#000000;stroke-width:20;stroke-linecap:butt;stroke-linejoin:round;stroke-miterlimit:10;stroke-dasharray:none;stroke-opacity:1"
             id="path83" /><path
             d="M 1240,2944 L 1240,5192"
             style="fill:none;stroke:#000000;stroke-width:20;stroke-linecap:butt;stroke-linejoin:round;stroke-miterlimit:10;stroke-dasharray:none;stroke-opacity:1"
             id="path85" /><path
             d="M 5040,2944 L 5040,5192"
             style="fill:none;stroke:#000000;stroke-width:20;stroke-linecap:butt;stroke-linejoin:round;stroke-miterlimit:10;stroke-dasharray:none;stroke-opacity:1"
             id="path87" /><path
             d="M 1240,2944 L 5040,2944"
             style="fill:none;stroke:#000000;stroke-width:20;stroke-linecap:butt;stroke-linejoin:round;stroke-miterlimit:10;stroke-dasharray:none;stroke-opacity:1"
             id="path89" /><path
             d="M 1240,2944 L 1240,5192"
             style="fill:none;stroke:#000000;stroke-width:20;stroke-linecap:butt;stroke-linejoin:round;stroke-miterlimit:10;stroke-dasharray:none;stroke-opacity:1"
             id="path91" /><path
             d="M 1240,2944 L 1240,2984"
             style="fill:none;stroke:#000000;stroke-width:20;stroke-linecap:butt;stroke-linejoin:round;stroke-miterlimit:10;stroke-dasharray:none;stroke-opacity:1"
             id="path93" /><path
             d="M 1240,5192 L 1240,5160"
             style="fill:none;stroke:#000000;stroke-width:20;stroke-linecap:butt;stroke-linejoin:round;stroke-miterlimit:10;stroke-dasharray:none;stroke-opacity:1"
             id="path95" /><g
             id="g97"
             transform="scale(10,10)"><text
               transform="matrix(1,0,0,-1,120,276)"
               id="text99"><tspan
                 style="font-size:18px;font-variant:normal;font-weight:normal;writing-mode:lr-tb;fill:#000000;fill-opacity:1;fill-rule:nonzero;stroke:none;font-family:Times;-inkscape-font-specification:Times-Roman"
                 x="0"
                 y="0"
                 id="tspan101">0</tspan></text>
</g><path
             d="M 1872,2944 L 1872,2984"
             style="fill:none;stroke:#000000;stroke-width:20;stroke-linecap:butt;stroke-linejoin:round;stroke-miterlimit:10;stroke-dasharray:none;stroke-opacity:1"
             id="path103" /><path
             d="M 1872,5192 L 1872,5160"
             style="fill:none;stroke:#000000;stroke-width:20;stroke-linecap:butt;stroke-linejoin:round;stroke-miterlimit:10;stroke-dasharray:none;stroke-opacity:1"
             id="path105" /><g
             id="g107"
             transform="scale(10,10)"><text
               transform="matrix(1,0,0,-1,183.2,276)"
               id="text109"><tspan
                 style="font-size:18px;font-variant:normal;font-weight:normal;writing-mode:lr-tb;fill:#000000;fill-opacity:1;fill-rule:nonzero;stroke:none;font-family:Times;-inkscape-font-specification:Times-Roman"
                 x="0"
                 y="0"
                 id="tspan111">1</tspan></text>
</g><path
             d="M 2504,2944 L 2504,2984"
             style="fill:none;stroke:#000000;stroke-width:20;stroke-linecap:butt;stroke-linejoin:round;stroke-miterlimit:10;stroke-dasharray:none;stroke-opacity:1"
             id="path113" /><path
             d="M 2504,5192 L 2504,5160"
             style="fill:none;stroke:#000000;stroke-width:20;stroke-linecap:butt;stroke-linejoin:round;stroke-miterlimit:10;stroke-dasharray:none;stroke-opacity:1"
             id="path115" /><g
             id="g117"
             transform="scale(10,10)"><text
               transform="matrix(1,0,0,-1,246.4,276)"
               id="text119"><tspan
                 style="font-size:18px;font-variant:normal;font-weight:normal;writing-mode:lr-tb;fill:#000000;fill-opacity:1;fill-rule:nonzero;stroke:none;font-family:Times;-inkscape-font-specification:Times-Roman"
                 x="0"
                 y="0"
                 id="tspan121">2</tspan></text>
</g><path
             d="M 3136,2944 L 3136,2984"
             style="fill:none;stroke:#000000;stroke-width:20;stroke-linecap:butt;stroke-linejoin:round;stroke-miterlimit:10;stroke-dasharray:none;stroke-opacity:1"
             id="path123" /><path
             d="M 3136,5192 L 3136,5160"
             style="fill:none;stroke:#000000;stroke-width:20;stroke-linecap:butt;stroke-linejoin:round;stroke-miterlimit:10;stroke-dasharray:none;stroke-opacity:1"
             id="path125" /><g
             id="g127"
             transform="scale(10,10)"><text
               transform="matrix(1,0,0,-1,309.6,276)"
               id="text129"><tspan
                 style="font-size:18px;font-variant:normal;font-weight:normal;writing-mode:lr-tb;fill:#000000;fill-opacity:1;fill-rule:nonzero;stroke:none;font-family:Times;-inkscape-font-specification:Times-Roman"
                 x="0"
                 y="0"
                 id="tspan131">3</tspan></text>
</g><path
             d="M 3768,2944 L 3768,2984"
             style="fill:none;stroke:#000000;stroke-width:20;stroke-linecap:butt;stroke-linejoin:round;stroke-miterlimit:10;stroke-dasharray:none;stroke-opacity:1"
             id="path133" /><path
             d="M 3768,5192 L 3768,5160"
             style="fill:none;stroke:#000000;stroke-width:20;stroke-linecap:butt;stroke-linejoin:round;stroke-miterlimit:10;stroke-dasharray:none;stroke-opacity:1"
             id="path135" /><g
             id="g137"
             transform="scale(10,10)"><text
               transform="matrix(1,0,0,-1,372.8,276)"
               id="text139"><tspan
                 style="font-size:18px;font-variant:normal;font-weight:normal;writing-mode:lr-tb;fill:#000000;fill-opacity:1;fill-rule:nonzero;stroke:none;font-family:Times;-inkscape-font-specification:Times-Roman"
                 x="0"
                 y="0"
                 id="tspan141">4</tspan></text>
</g><path
             d="M 4400,2944 L 4400,2984"
             style="fill:none;stroke:#000000;stroke-width:20;stroke-linecap:butt;stroke-linejoin:round;stroke-miterlimit:10;stroke-dasharray:none;stroke-opacity:1"
             id="path143" /><path
             d="M 4400,5192 L 4400,5160"
             style="fill:none;stroke:#000000;stroke-width:20;stroke-linecap:butt;stroke-linejoin:round;stroke-miterlimit:10;stroke-dasharray:none;stroke-opacity:1"
             id="path145" /><g
             id="g147"
             transform="scale(10,10)"><text
               transform="matrix(1,0,0,-1,436,276)"
               id="text149"><tspan
                 style="font-size:18px;font-variant:normal;font-weight:normal;writing-mode:lr-tb;fill:#000000;fill-opacity:1;fill-rule:nonzero;stroke:none;font-family:Times;-inkscape-font-specification:Times-Roman"
                 x="0"
                 y="0"
                 id="tspan151">5</tspan></text>
</g><path
             d="M 5040,2944 L 5040,2984"
             style="fill:none;stroke:#000000;stroke-width:20;stroke-linecap:butt;stroke-linejoin:round;stroke-miterlimit:10;stroke-dasharray:none;stroke-opacity:1"
             id="path153" /><path
             d="M 5040,5192 L 5040,5160"
             style="fill:none;stroke:#000000;stroke-width:20;stroke-linecap:butt;stroke-linejoin:round;stroke-miterlimit:10;stroke-dasharray:none;stroke-opacity:1"
             id="path155" /><g
             id="g157"
             transform="scale(10,10)"><text
               transform="matrix(1,0,0,-1,500,276)"
               id="text159"><tspan
                 style="font-size:18px;font-variant:normal;font-weight:normal;writing-mode:lr-tb;fill:#000000;fill-opacity:1;fill-rule:nonzero;stroke:none;font-family:Times;-inkscape-font-specification:Times-Roman"
                 x="0"
                 y="0"
                 id="tspan161">6</tspan></text>
</g><path
             d="M 1240,2944 L 1272,2944"
             style="fill:none;stroke:#000000;stroke-width:20;stroke-linecap:butt;stroke-linejoin:round;stroke-miterlimit:10;stroke-dasharray:none;stroke-opacity:1"
             id="path163" /><path
             d="M 5040,2944 L 5000,2944"
             style="fill:none;stroke:#000000;stroke-width:20;stroke-linecap:butt;stroke-linejoin:round;stroke-miterlimit:10;stroke-dasharray:none;stroke-opacity:1"
             id="path165" /><g
             id="g167"
             transform="scale(10,10)"><text
               transform="matrix(1,0,0,-1,112,288)"
               id="text169"><tspan
                 style="font-size:18px;font-variant:normal;font-weight:normal;writing-mode:lr-tb;fill:#000000;fill-opacity:1;fill-rule:nonzero;stroke:none;font-family:Times;-inkscape-font-specification:Times-Roman"
                 x="0"
                 y="0"
                 id="tspan171">0</tspan></text>
</g><path
             d="M 1240,3320 L 1272,3320"
             style="fill:none;stroke:#000000;stroke-width:20;stroke-linecap:butt;stroke-linejoin:round;stroke-miterlimit:10;stroke-dasharray:none;stroke-opacity:1"
             id="path173" /><path
             d="M 5040,3320 L 5000,3320"
             style="fill:none;stroke:#000000;stroke-width:20;stroke-linecap:butt;stroke-linejoin:round;stroke-miterlimit:10;stroke-dasharray:none;stroke-opacity:1"
             id="path175" /><g
             id="g177"
             transform="scale(10,10)"><text
               transform="matrix(1,0,0,-1,112,325.6)"
               id="text179"><tspan
                 style="font-size:18px;font-variant:normal;font-weight:normal;writing-mode:lr-tb;fill:#000000;fill-opacity:1;fill-rule:nonzero;stroke:none;font-family:Times;-inkscape-font-specification:Times-Roman"
                 x="0"
                 y="0"
                 id="tspan181">1</tspan></text>
</g><path
             d="M 1240,3696 L 1272,3696"
             style="fill:none;stroke:#000000;stroke-width:20;stroke-linecap:butt;stroke-linejoin:round;stroke-miterlimit:10;stroke-dasharray:none;stroke-opacity:1"
             id="path183" /><path
             d="M 5040,3696 L 5000,3696"
             style="fill:none;stroke:#000000;stroke-width:20;stroke-linecap:butt;stroke-linejoin:round;stroke-miterlimit:10;stroke-dasharray:none;stroke-opacity:1"
             id="path185" /><g
             id="g187"
             transform="scale(10,10)"><text
               transform="matrix(1,0,0,-1,112,363.2)"
               id="text189"><tspan
                 style="font-size:18px;font-variant:normal;font-weight:normal;writing-mode:lr-tb;fill:#000000;fill-opacity:1;fill-rule:nonzero;stroke:none;font-family:Times;-inkscape-font-specification:Times-Roman"
                 x="0"
                 y="0"
                 id="tspan191">2</tspan></text>
</g><path
             d="M 1240,4072 L 1272,4072"
             style="fill:none;stroke:#000000;stroke-width:20;stroke-linecap:butt;stroke-linejoin:round;stroke-miterlimit:10;stroke-dasharray:none;stroke-opacity:1"
             id="path193" /><path
             d="M 5040,4072 L 5000,4072"
             style="fill:none;stroke:#000000;stroke-width:20;stroke-linecap:butt;stroke-linejoin:round;stroke-miterlimit:10;stroke-dasharray:none;stroke-opacity:1"
             id="path195" /><g
             id="g197"
             transform="scale(10,10)"><text
               transform="matrix(1,0,0,-1,112,400.8)"
               id="text199"><tspan
                 style="font-size:18px;font-variant:normal;font-weight:normal;writing-mode:lr-tb;fill:#000000;fill-opacity:1;fill-rule:nonzero;stroke:none;font-family:Times;-inkscape-font-specification:Times-Roman"
                 x="0"
                 y="0"
                 id="tspan201">3</tspan></text>
</g><path
             d="M 1240,4448 L 1272,4448"
             style="fill:none;stroke:#000000;stroke-width:20;stroke-linecap:butt;stroke-linejoin:round;stroke-miterlimit:10;stroke-dasharray:none;stroke-opacity:1"
             id="path203" /><path
             d="M 5040,4448 L 5000,4448"
             style="fill:none;stroke:#000000;stroke-width:20;stroke-linecap:butt;stroke-linejoin:round;stroke-miterlimit:10;stroke-dasharray:none;stroke-opacity:1"
             id="path205" /><g
             id="g207"
             transform="scale(10,10)"><text
               transform="matrix(1,0,0,-1,112,438.4)"
               id="text209"><tspan
                 style="font-size:18px;font-variant:normal;font-weight:normal;writing-mode:lr-tb;fill:#000000;fill-opacity:1;fill-rule:nonzero;stroke:none;font-family:Times;-inkscape-font-specification:Times-Roman"
                 x="0"
                 y="0"
                 id="tspan211">4</tspan></text>
</g><path
             d="M 1240,4824 L 1272,4824"
             style="fill:none;stroke:#000000;stroke-width:20;stroke-linecap:butt;stroke-linejoin:round;stroke-miterlimit:10;stroke-dasharray:none;stroke-opacity:1"
             id="path213" /><path
             d="M 5040,4824 L 5000,4824"
             style="fill:none;stroke:#000000;stroke-width:20;stroke-linecap:butt;stroke-linejoin:round;stroke-miterlimit:10;stroke-dasharray:none;stroke-opacity:1"
             id="path215" /><g
             id="g217"
             transform="scale(10,10)"><text
               transform="matrix(1,0,0,-1,112,476)"
               id="text219"><tspan
                 style="font-size:18px;font-variant:normal;font-weight:normal;writing-mode:lr-tb;fill:#000000;fill-opacity:1;fill-rule:nonzero;stroke:none;font-family:Times;-inkscape-font-specification:Times-Roman"
                 x="0"
                 y="0"
                 id="tspan221">5</tspan></text>
</g><path
             d="M 1240,5192 L 1272,5192"
             style="fill:none;stroke:#000000;stroke-width:20;stroke-linecap:butt;stroke-linejoin:round;stroke-miterlimit:10;stroke-dasharray:none;stroke-opacity:1"
             id="path223" /><path
             d="M 5040,5192 L 5000,5192"
             style="fill:none;stroke:#000000;stroke-width:20;stroke-linecap:butt;stroke-linejoin:round;stroke-miterlimit:10;stroke-dasharray:none;stroke-opacity:1"
             id="path225" /><g
             id="g227"
             transform="scale(10,10)"><text
               transform="matrix(1,0,0,-1,112,512.8)"
               id="text229"><tspan
                 style="font-size:18px;font-variant:normal;font-weight:normal;writing-mode:lr-tb;fill:#000000;fill-opacity:1;fill-rule:nonzero;stroke:none;font-family:Times;-inkscape-font-specification:Times-Roman"
                 x="0"
                 y="0"
                 id="tspan231">6</tspan></text>
</g><path
             d="M 1240,2944 L 5040,2944"
             style="fill:none;stroke:#000000;stroke-width:20;stroke-linecap:butt;stroke-linejoin:round;stroke-miterlimit:10;stroke-dasharray:none;stroke-opacity:1"
             id="path233" /><path
             d="M 1240,5192 L 5040,5192"
             style="fill:none;stroke:#000000;stroke-width:20;stroke-linecap:butt;stroke-linejoin:round;stroke-miterlimit:10;stroke-dasharray:none;stroke-opacity:1"
             id="path235" /><path
             d="M 1240,2944 L 1240,5192"
             style="fill:none;stroke:#000000;stroke-width:20;stroke-linecap:butt;stroke-linejoin:round;stroke-miterlimit:10;stroke-dasharray:none;stroke-opacity:1"
             id="path237" /><path
             d="M 5040,2944 L 5040,5192"
             style="fill:none;stroke:#000000;stroke-width:20;stroke-linecap:butt;stroke-linejoin:round;stroke-miterlimit:10;stroke-dasharray:none;stroke-opacity:1"
             id="path239" /></g></g><g
         id="g241"><g
           id="g243"
           clip-path="url(#clipPath245)"><path
             d="M 3312,3728 L 3320,3736 L 3328,3744 L 3336,3752 L 3344,3760 L 3360,3776 L 3352,3776 L 3360,3776 L 3368,3784 L 3376,3792 L 3376,3800 L 3384,3808 L 3392,3816 L 3392,3824 L 3400,3832 L 3400,3840 L 3408,3848 L 3408,3856 L 3416,3864 L 3416,3880 L 3424,3888 L 3424,3896 L 3432,3904 L 3432,3936 L 3440,3944 L 3440,4040 L 3432,4048 L 3432,4088 L 3424,4096 L 3424,4120 L 3416,4128 L 3416,4136 L 3408,4144 L 3408,4160 L 3400,4168 L 3400,4184 L 3392,4192 L 3392,4208 L 3384,4216 L 3384,4232 L 3368,4248 L 3368,4256 L 3360,4264 L 3360,4280 L 3352,4288 L 3352,4296 L 3344,4304 L 3344,4312 L 3336,4320 L 3336,4336 L 3328,4344 L 3328,4352 L 3312,4368 L 3312,4376 L 3304,4384 L 3304,4400 L 3296,4408 L 3296,4416 L 3288,4424 L 3288,4432 L 3280,4440 L 3280,4456 L 3272,4464 L 3272,4472 L 3256,4488 L 3256,4504 L 3248,4512 L 3248,4520 L 3240,4528 L 3240,4544 L 3232,4552 L 3232,4568 L 3224,4576 L 3224,4584 L 3216,4592 L 3216,4608 L 3208,4616 L 3208,4624 L 3200,4632 L 3200,4648 L 3192,4656 L 3192,4680 L 3184,4688 L 3184,4704 L 3176,4712 L 3176,4728 L 3168,4736 L 3168,4760 L 3160,4768 L 3160,4800 L 3152,4808 L 3152,4840 L 3144,4848 L 3144,4880 L 3136,4888 L 3136,4944 L 3128,4952 L 3128,5016 L 3120,5024 L 3120,5192"
             style="fill:none;stroke:#000000;stroke-width:30;stroke-linecap:butt;stroke-linejoin:round;stroke-miterlimit:10;stroke-dasharray:none;stroke-opacity:1"
             id="path249" /><path
             d="M 1360,2984 L 1384,2992 L 1416,3000 L 1440,3008 L 1464,3016 L 1488,3024 L 1512,3032 L 1536,3040 L 1568,3048 L 1592,3056 L 1616,3064 L 1640,3064 L 1664,3072 L 1688,3080 L 1720,3088 L 1744,3096 L 1768,3104 L 1792,3112 L 1816,3120 L 1840,3128 L 1864,3136 L 1896,3144 L 1920,3152 L 1944,3160 L 1968,3168 L 1992,3176 L 2016,3184 L 2040,3184 L 2064,3192 L 2088,3200 L 2112,3208 L 2136,3216 L 2160,3224 L 2184,3232 L 2208,3240 L 2232,3248 L 2256,3256 L 2280,3264 L 2304,3272 L 2328,3280 L 2352,3288 L 2376,3296 L 2400,3304 L 2424,3304 L 2440,3312 L 2464,3320 L 2488,3328 L 2512,3336 L 2536,3344 L 2552,3352 L 2576,3360 L 2600,3368 L 2616,3376 L 2640,3384 L 2656,3392 L 2680,3400 L 2704,3408 L 2720,3416 L 2736,3424 L 2760,3424 L 2776,3432 L 2800,3440 L 2816,3448 L 2832,3456 L 2856,3464 L 2872,3472 L 2888,3480 L 2904,3488 L 2920,3496 L 2944,3504 L 2960,3512 L 2976,3520 L 2992,3528 L 3008,3536 L 3024,3536 L 3032,3544 L 3048,3552 L 3064,3560 L 3080,3568 L 3096,3576 L 3104,3584 L 3120,3592 L 3136,3600 L 3144,3608 L 3160,3616 L 3168,3624 L 3184,3632 L 3192,3640 L 3208,3648 L 3216,3656 L 3224,3656 L 3240,3664 L 3248,3672 L 3256,3680 L 3264,3688 L 3280,3696 L 3288,3704 L 3296,3712 L 3304,3720 L 3312,3728"
             style="fill:none;stroke:#000000;stroke-width:30;stroke-linecap:butt;stroke-linejoin:round;stroke-miterlimit:10;stroke-dasharray:none;stroke-opacity:1"
             id="path251" /><path
             d="M 1240,2944 L 1264,2952 L 1288,2960 L 1312,2968 L 1336,2976 L 1360,2984"
             style="fill:none;stroke:#000000;stroke-width:30;stroke-linecap:butt;stroke-linejoin:round;stroke-miterlimit:10;stroke-dasharray:none;stroke-opacity:1"
             id="path253" /><path
             d="M 4696,3664 L 4704,3672 L 4712,3680 L 4720,3688 L 4720,3696 L 4728,3704 L 4736,3712 L 4736,3720 L 4744,3728 L 4744,3744 L 4752,3752 L 4752,3768 L 4760,3776 L 4760,3848 L 4752,3856 L 4752,3888 L 4744,3896 L 4744,3904 L 4736,3912 L 4736,3928 L 4728,3936 L 4728,3944 L 4720,3952 L 4720,3960 L 4712,3968 L 4712,3976 L 4704,3984 L 4704,3992 L 4696,4000 L 4696,4008 L 4688,4016 L 4680,4024 L 4680,4032 L 4672,4040 L 4672,4048 L 4664,4056 L 4664,4064 L 4656,4072 L 4656,4080 L 4648,4088 L 4640,4096 L 4640,4104 L 4632,4112 L 4632,4120 L 4624,4128 L 4616,4136 L 4608,4144 L 4608,4152 L 4600,4160 L 4600,4168 L 4592,4176 L 4592,4184 L 4584,4192 L 4584,4200 L 4576,4208 L 4576,4216 L 4568,4224 L 4568,4232 L 4560,4240 L 4552,4248 L 4544,4256 L 4544,4264 L 4536,4272 L 4536,4288 L 4528,4296 L 4528,4304 L 4520,4312 L 4520,4320 L 4512,4328 L 4512,4336 L 4504,4344 L 4504,4352 L 4496,4360 L 4496,4368 L 4488,4376 L 4488,4384 L 4480,4392 L 4480,4408 L 4472,4416 L 4472,4432 L 4464,4440 L 4464,4456 L 4456,4464 L 4456,4480 L 4448,4488 L 4448,4504 L 4440,4512 L 4440,4536 L 4432,4544 L 4432,4568 L 4424,4576 L 4424,4608 L 4416,4616 L 4416,4648 L 4408,4656 L 4408,4704 L 4400,4712 L 4400,4776 L 4392,4784 L 4392,5192"
             style="fill:none;stroke:#000000;stroke-width:30;stroke-linecap:butt;stroke-linejoin:round;stroke-miterlimit:10;stroke-dasharray:60;stroke-dashoffset:0;stroke-opacity:1"
             id="path255" /><path
             d="M 1240,2944 L 1264,2952 L 1296,2960 L 1328,2968 L 1360,2976 L 1400,2984 L 1432,2992 L 1480,3000 L 1520,3008 L 1568,3016 L 1608,3024 L 1656,3032 L 1704,3040 L 1760,3048 L 1808,3056 L 1856,3064 L 1912,3064 L 1968,3072 L 2016,3080 L 2072,3088 L 2128,3096 L 2184,3104 L 2240,3112 L 2296,3120 L 2352,3128 L 2408,3136 L 2464,3144 L 2512,3152 L 2568,3160 L 2624,3168 L 2680,3176 L 2736,3184 L 2792,3184 L 2840,3192 L 2896,3200 L 2944,3208 L 3000,3216 L 3048,3224 L 3104,3232 L 3152,3240 L 3200,3248 L 3248,3256 L 3296,3264 L 3344,3272 L 3392,3280 L 3440,3288 L 3480,3296 L 3528,3304 L 3568,3304 L 3608,3312 L 3656,3320 L 3696,3328 L 3736,3336 L 3776,3344 L 3808,3352 L 3848,3360 L 3888,3368 L 3920,3376 L 3952,3384 L 3992,3392 L 4024,3400 L 4056,3408 L 4088,3416 L 4120,3424 L 4144,3424 L 4176,3432 L 4200,3440 L 4232,3448 L 4256,3456 L 4280,3464 L 4304,3472 L 4328,3480 L 4352,3488 L 4376,3496 L 4400,3504 L 4416,3512 L 4440,3520 L 4456,3528 L 4472,3536 L 4496,3536 L 4512,3544 L 4528,3552 L 4544,3560 L 4560,3568 L 4568,3576 L 4584,3584 L 4600,3592 L 4608,3600 L 4624,3608 L 4632,3616 L 4648,3624 L 4656,3632 L 4664,3640 L 4672,3648 L 4680,3656 L 4688,3656 L 4696,3664"
             style="fill:none;stroke:#000000;stroke-width:30;stroke-linecap:butt;stroke-linejoin:round;stroke-miterlimit:10;stroke-dasharray:60;stroke-dashoffset:0;stroke-opacity:1"
             id="path257" /></g></g><g
         id="g259"><text
           transform="scale(1,-1)"
           id="text269"
           x="2304"
           y="-2552"
           style="font-size:120px"><tspan
             style="font-size:180px;font-variant:normal;font-weight:normal;writing-mode:lr-tb;fill:#000000;fill-opacity:1;fill-rule:nonzero;stroke:none;font-family:Times;-inkscape-font-specification:Times-Roman"
             x="2304 2433.96 2484 2529 2588.9399 2678.9399"
             y="-2552"
             sodipodi:role="line"
             id="tspan271">U/ [k </tspan></text>
<text
           transform="scale(1,-1)"
           id="text273"
           x="2720"
           y="-2552"
           style="font-size:120px"><tspan
             style="font-size:180px;font-variant:normal;font-weight:normal;writing-mode:lr-tb;fill:#000000;fill-opacity:1;fill-rule:nonzero;stroke:none;font-family:Symbol;-inkscape-font-specification:Symbol"
             x="2720"
             y="-2552"
             id="tspan275">σ</tspan></text>
<text
           transform="scale(1,-1)"
           id="text277"
           x="2840.0527"
           y="-2646.3518"
           style="font-size:70.23693085px"><tspan
             style="font-size:81.94309235px;font-variant:normal;font-weight:normal;writing-mode:lr-tb;fill:#000000;fill-opacity:1;fill-rule:nonzero;stroke:none;font-family:Times;-inkscape-font-specification:Times-Roman"
             x="2840.0527"
             y="-2646.3518"
             id="tspan279">2</tspan></text>
<text
           transform="scale(1,-1)"
           id="text281"
           x="2933"
           y="-2552"
           style="font-size:120px"><tspan
             style="font-size:180px;font-variant:normal;font-weight:normal;writing-mode:lr-tb;fill:#000000;fill-opacity:1;fill-rule:nonzero;stroke:none;font-family:Times;-inkscape-font-specification:Times-Roman"
             x="2933"
             y="-2552"
             id="tspan283">a</tspan></text>
<text
           transform="scale(1,-1)"
           id="text285"
           x="3024.0527"
           y="-2646.3518"
           style="font-size:70.23693085px"><tspan
             style="font-size:81.94309235px;font-variant:normal;font-weight:normal;writing-mode:lr-tb;fill:#000000;fill-opacity:1;fill-rule:nonzero;stroke:none;font-family:Times;-inkscape-font-specification:Times-Roman"
             x="3024.0527"
             y="-2646.3518"
             id="tspan287">2</tspan></text>
<text
           transform="scale(1,-1)"
           id="text289"
           x="3098"
           y="-2552"
           style="font-size:144px;font-style:normal;font-variant:normal;font-weight:normal;font-stretch:normal;text-align:start;line-height:125%;writing-mode:lr-tb;text-anchor:start;font-family:Century Schoolbook L;-inkscape-font-specification:Century Schoolbook L"
           sodipodi:linespacing="125%"><tspan
             sodipodi:role="line"
             id="tspan2844"
             x="3098"
             y="-2552">/ 4 sinh</tspan></text>
<text
           transform="scale(1,-1)"
           id="text293"
           x="3564.0396"
           y="-2640.7639"
           style="font-size:82.67770386px"><tspan
             style="font-size:96.45731354px;font-variant:normal;font-weight:normal;writing-mode:lr-tb;fill:#000000;fill-opacity:1;fill-rule:nonzero;stroke:none;font-family:Times;-inkscape-font-specification:Times-Roman"
             x="3564.0396"
             y="-2640.7639"
             id="tspan295">2</tspan></text>
<text
           transform="scale(1,-1)"
           id="text297"
           x="3616"
           y="-2552"
           style="font-size:120px"><tspan
             style="font-size:180px;font-variant:normal;font-weight:normal;writing-mode:lr-tb;fill:#000000;fill-opacity:1;fill-rule:nonzero;stroke:none;font-family:Times;-inkscape-font-specification:Times-Roman"
             x="3616 3675.9399 3765.9399 3895.8999 3955.8401"
             y="-2552"
             sodipodi:role="line"
             id="tspan299">(kD)]</tspan></text>
<text
           transform="matrix(0,1,1,0,0,0)"
           id="text301"
           x="3883.02"
           y="1047.7351"
           style="font-size:185.51748657px;font-style:normal;font-variant:normal;font-weight:normal;font-stretch:normal;text-align:start;line-height:125%;writing-mode:lr-tb;text-anchor:start;font-family:Century Schoolbook L;-inkscape-font-specification:Century Schoolbook L"
           sodipodi:linespacing="125%"><tspan
             sodipodi:role="line"
             id="tspan2830"
             x="3883.02"
             y="1047.7351">(z+h)/</tspan></text>
<text
           transform="matrix(0,1,1,0,0,0)"
           id="text305"
           x="4377.7334"
           y="1047.7351"
           style="font-size:154.59790039px"><tspan
             style="font-size:231.89686584px;font-variant:normal;font-weight:normal;writing-mode:lr-tb;fill:#000000;fill-opacity:1;fill-rule:nonzero;stroke:none;font-family:Symbol;-inkscape-font-specification:Symbol"
             x="4377.7334"
             y="1047.7351"
             id="tspan307">δ</tspan></text>
<path
           id="path309"
           style="fill:#ffffff;fill-opacity:1;fill-rule:evenodd;stroke:none"
           d="M 1352,4416 L 2552,4416 L 2552,5112 L 1352,5112 L 1352,4416 z" /><path
           id="path311"
           style="fill:none;stroke:#ffffff;stroke-width:5;stroke-linecap:butt;stroke-linejoin:round;stroke-miterlimit:10;stroke-dasharray:none;stroke-opacity:1"
           d="M 1352,4416 L 1352,5112 L 2552,5112 L 2552,4416 L 1352,4416" /><path
           id="path313"
           style="fill:none;stroke:#000000;stroke-width:5;stroke-linecap:butt;stroke-linejoin:round;stroke-miterlimit:10;stroke-dasharray:none;stroke-opacity:1"
           d="M 1352,4416 L 2552,4416" /><path
           id="path315"
           style="fill:none;stroke:#000000;stroke-width:5;stroke-linecap:butt;stroke-linejoin:round;stroke-miterlimit:10;stroke-dasharray:none;stroke-opacity:1"
           d="M 1352,5112 L 2552,5112" /><path
           id="path317"
           style="fill:none;stroke:#000000;stroke-width:5;stroke-linecap:butt;stroke-linejoin:round;stroke-miterlimit:10;stroke-dasharray:none;stroke-opacity:1"
           d="M 1352,4416 L 1352,5112" /><path
           id="path319"
           style="fill:none;stroke:#000000;stroke-width:5;stroke-linecap:butt;stroke-linejoin:round;stroke-miterlimit:10;stroke-dasharray:none;stroke-opacity:1"
           d="M 2552,4416 L 2552,5112" /><path
           id="path321"
           style="fill:none;stroke:#000000;stroke-width:5;stroke-linecap:butt;stroke-linejoin:round;stroke-miterlimit:10;stroke-dasharray:none;stroke-opacity:1"
           d="M 1352,4416 L 2552,4416" /><path
           id="path323"
           style="fill:none;stroke:#000000;stroke-width:5;stroke-linecap:butt;stroke-linejoin:round;stroke-miterlimit:10;stroke-dasharray:none;stroke-opacity:1"
           d="M 1352,4416 L 1352,5112" /><path
           id="path325"
           style="fill:none;stroke:#000000;stroke-width:5;stroke-linecap:butt;stroke-linejoin:round;stroke-miterlimit:10;stroke-dasharray:none;stroke-opacity:1"
           d="M 1352,4416 L 2552,4416" /><path
           id="path327"
           style="fill:none;stroke:#000000;stroke-width:5;stroke-linecap:butt;stroke-linejoin:round;stroke-miterlimit:10;stroke-dasharray:none;stroke-opacity:1"
           d="M 1352,5112 L 2552,5112" /><path
           id="path329"
           style="fill:none;stroke:#000000;stroke-width:5;stroke-linecap:butt;stroke-linejoin:round;stroke-miterlimit:10;stroke-dasharray:none;stroke-opacity:1"
           d="M 1352,4416 L 1352,5112" /><path
           id="path331"
           style="fill:none;stroke:#000000;stroke-width:5;stroke-linecap:butt;stroke-linejoin:round;stroke-miterlimit:10;stroke-dasharray:none;stroke-opacity:1"
           d="M 2552,4416 L 2552,5112" /><text
           transform="scale(1,-1)"
           id="text335"
           x="2072"
           y="-4880"
           style="font-size:120px"><tspan
             style="font-size:180px;font-variant:normal;font-weight:normal;writing-mode:lr-tb;fill:#000000;fill-opacity:1;fill-rule:nonzero;stroke:none;font-family:Times;-inkscape-font-specification:Times-Roman"
             x="2072"
             y="-4880"
             id="tspan337">U</tspan></text>
<text
           transform="matrix(0,1,1,0,0,0)"
           id="text2826"
           x="3506.2559"
           y="1045.1118"
           style="font-size:185.51748657px;font-style:normal;font-variant:normal;font-weight:normal;font-stretch:normal;text-align:start;line-height:125%;writing-mode:lr-tb;text-anchor:start;font-family:Century Schoolbook L;-inkscape-font-specification:Century Schoolbook L"
           sodipodi:linespacing="125%"><tspan
             sodipodi:role="line"
             id="tspan2842"
             x="3506.2559"
             y="1045.1118">z   =</tspan></text>
<text
           transform="matrix(0,1,1,0,0,0)"
           id="text2834"
           x="3620.207"
           y="903.77472"
           style="font-size:154.59790039px;font-style:normal;font-variant:normal;font-weight:normal;font-stretch:normal;text-align:start;line-height:125%;writing-mode:lr-tb;text-anchor:start;font-family:Century Schoolbook L;-inkscape-font-specification:Century Schoolbook L"
           sodipodi:linespacing="125%"><tspan
             sodipodi:role="line"
             id="tspan2838"
             x="3620.207"
             y="903.77472"></tspan><tspan
             sodipodi:role="line"
             id="tspan2840"
             x="3620.207"
             y="1097.0221">+</tspan></text>
</g><g
         id="g339"><g
           id="g341"
           clip-path="url(#clipPath343)"><path
             d="M 1456,4952 L 2008,4952"
             style="fill:none;stroke:#000000;stroke-width:30;stroke-linecap:butt;stroke-linejoin:round;stroke-miterlimit:10;stroke-dasharray:none;stroke-opacity:1"
             id="path347" /></g></g><g
         id="g349"><g
           id="g351"
           clip-path="url(#clipPath353)"><g
             id="g357"
             transform="scale(10,10)"><text
               transform="matrix(1,0,0,-1,207.2,453.6)"
               id="text359"><tspan
                 style="font-size:18px;font-variant:normal;font-weight:normal;writing-mode:lr-tb;fill:#000000;fill-opacity:1;fill-rule:nonzero;stroke:none;font-family:Times;-inkscape-font-specification:Times-Roman"
                 x="0"
                 y="0"
                 id="tspan361">U</tspan></text>
<text
               transform="matrix(1,0,0,-1,220,462.4)"
               id="text363"><tspan
                 style="font-size:14px;font-variant:normal;font-weight:normal;writing-mode:lr-tb;fill:#000000;fill-opacity:1;fill-rule:nonzero;stroke:none;font-family:Times;-inkscape-font-specification:Times-Roman"
                 x="0"
                 y="0"
                 id="tspan365">L</tspan></text>
</g></g></g><g
         id="g367"><g
           id="g369"
           clip-path="url(#clipPath371)"><path
             d="M 1456,4624 L 2008,4624"
             style="fill:none;stroke:#000000;stroke-width:30;stroke-linecap:butt;stroke-linejoin:round;stroke-miterlimit:10;stroke-dasharray:60;stroke-dashoffset:0;stroke-opacity:1"
             id="path375" /></g></g></g></g></svg>