<?xml version="1.0" encoding="UTF-8" standalone="no"?>
<!-- Created with Inkscape (http://www.inkscape.org/) -->

<svg
   xmlns:dc="http://purl.org/dc/elements/1.1/"
   xmlns:cc="http://creativecommons.org/ns#"
   xmlns:rdf="http://www.w3.org/1999/02/22-rdf-syntax-ns#"
   xmlns:svg="http://www.w3.org/2000/svg"
   xmlns="http://www.w3.org/2000/svg"
   xmlns:sodipodi="http://sodipodi.sourceforge.net/DTD/sodipodi-0.dtd"
   xmlns:inkscape="http://www.inkscape.org/namespaces/inkscape"
   id="svg2"
   version="1.1"
   inkscape:version="0.48.3.1 r9886"
   width="468.3369"
   height="368.57214"
   xml:space="preserve"
   sodipodi:docname="cg_en.pdf"><metadata
     id="metadata8"><rdf:RDF><cc:Work
         rdf:about=""><dc:format>image/svg+xml</dc:format><dc:type
           rdf:resource="http://purl.org/dc/dcmitype/StillImage" /><dc:title></dc:title></cc:Work></rdf:RDF></metadata><defs
     id="defs6"><clipPath
       clipPathUnits="userSpaceOnUse"
       id="clipPath124"><path
         d="m 141.66699,556.5 0,-256.75 325.49903,0 0,256.75 -325.49903,0 z"
         id="path126" /></clipPath><clipPath
       clipPathUnits="userSpaceOnUse"
       id="clipPath180"><path
         d="m 374.41602,349.75 0,-43.83398 77.5,0 0,43.83398 -77.5,0 z"
         id="path182" /></clipPath></defs><sodipodi:namedview
     pagecolor="#ffffff"
     bordercolor="#666666"
     borderopacity="1"
     objecttolerance="10"
     gridtolerance="10"
     guidetolerance="10"
     inkscape:pageopacity="0"
     inkscape:pageshadow="2"
     inkscape:window-width="640"
     inkscape:window-height="480"
     id="namedview4"
     showgrid="false"
     inkscape:zoom="0.90553344"
     inkscape:cx="190.00067"
     inkscape:cy="95.526033"
     inkscape:window-x="0"
     inkscape:window-y="24"
     inkscape:window-maximized="0"
     inkscape:current-layer="g10" /><g
     id="g10"
     inkscape:groupmode="layer"
     inkscape:label="cg"
     transform="matrix(1.25,0,0,-1.25,-129.16767,704.40002)"><path
       d="m 141.66699,299.83398 0,256.66602 325.41699,0 0,-256.66602 -325.41699,0"
       style="fill:none;stroke:#ffffff;stroke-opacity:1;stroke-width:0.5;stroke-linecap:butt;stroke-linejoin:round;stroke-miterlimit:10;stroke-dasharray:none"
       id="path12" /><path
       d="m 141.66699,299.83398 0,256.66602 m 0,0 0,0 M 206.75,299.83398 206.75,556.5 m 0,0 0,0 m 65.0835,-256.66602 0,256.66602 m 0,0 0,0 m 65.08252,-256.66602 0,256.66602 m 0,0 0,0 M 402,299.83398 402,556.5 m 0,0 0,0 m 65.08398,-256.66602 0,256.66602 m 0,0 0,0 m -325.41699,-256.66602 325.41699,0 m 0,0 0,0 M 141.66699,325.5 l 325.41699,0 m 0,0 0,0 m -325.41699,25.66602 325.41699,0 m 0,0 0,0 m -325.41699,25.66796 325.41699,0 m 0,0 0,0 M 141.66699,402.5 l 325.41699,0 m 0,0 0,0 m -325.41699,25.6665 325.41699,0 m 0,0 0,0 m -325.41699,25.66651 325.41699,0 m 0,0 0,0 M 141.66699,479.5 l 325.41699,0 m 0,0 0,0 m -325.41699,25.6665 325.41699,0 m 0,0 0,0 m -325.41699,25.66651 325.41699,0 m 0,0 0,0 M 141.66699,556.5 l 325.41699,0 m 0,0 0,0"
       style="fill:none;stroke:#000000;stroke-opacity:1;stroke-width:0.3333;stroke-linecap:butt;stroke-linejoin:round;stroke-miterlimit:10;stroke-dasharray:2,4;stroke-dashoffset:0"
       id="path14" /><path
       d="m 141.66699,556.5 325.41699,0 m -325.41699,-256.66602 325.41699,0 m 0,0 0,256.66602 m -325.41699,-256.66602 0,256.66602 m 0,-256.66602 325.41699,0 m -325.41699,0 0,256.66602 m 0,-256.66602 0,3.33204 m 0,253.33398 0,-3.25"
       style="fill:none;stroke:#000000;stroke-opacity:1;stroke-width:0.5;stroke-linecap:butt;stroke-linejoin:round;stroke-miterlimit:10;stroke-dasharray:none"
       id="path16" /><text
       transform="matrix(1,0,0,-1,138.66699,286.25)"
       id="text18"><tspan
         style="fill:#000000;fill-opacity:1;fill-rule:nonzero;stroke:none;font-family:Times New Roman;font-variant:normal;font-weight:normal;font-size:12;writing-mode:lr;-inkscape-font-specification:TimesNewRomanPSMT"
         x="0"
         y="0"
         id="tspan20">0</tspan></text>
<path
       d="m 206.75,299.83398 0,3.33204 m 0,253.33398 0,-3.25"
       style="fill:none;stroke:#000000;stroke-opacity:1;stroke-width:0.5;stroke-linecap:butt;stroke-linejoin:round;stroke-miterlimit:10;stroke-dasharray:none"
       id="path22" /><text
       transform="matrix(1,0,0,-1,200.75,286.25)"
       id="text24"><tspan
         style="fill:#000000;fill-opacity:1;fill-rule:nonzero;stroke:none;font-family:Times New Roman;font-variant:normal;font-weight:normal;font-size:12;writing-mode:lr;-inkscape-font-specification:TimesNewRomanPSMT"
         x="0 6"
         y="0"
         sodipodi:role="line"
         id="tspan26">20</tspan></text>
<path
       d="m 271.8335,299.83398 0,3.33204 m 0,253.33398 0,-3.25"
       style="fill:none;stroke:#000000;stroke-opacity:1;stroke-width:0.5;stroke-linecap:butt;stroke-linejoin:round;stroke-miterlimit:10;stroke-dasharray:none"
       id="path28" /><text
       transform="matrix(1,0,0,-1,265.8335,286.25)"
       id="text30"><tspan
         style="fill:#000000;fill-opacity:1;fill-rule:nonzero;stroke:none;font-family:Times New Roman;font-variant:normal;font-weight:normal;font-size:12;writing-mode:lr;-inkscape-font-specification:TimesNewRomanPSMT"
         x="0 6"
         y="0"
         sodipodi:role="line"
         id="tspan32">40</tspan></text>
<path
       d="m 336.91602,299.83398 0,3.33204 m 0,253.33398 0,-3.25"
       style="fill:none;stroke:#000000;stroke-opacity:1;stroke-width:0.5;stroke-linecap:butt;stroke-linejoin:round;stroke-miterlimit:10;stroke-dasharray:none"
       id="path34" /><text
       transform="matrix(1,0,0,-1,330.91602,286.25)"
       id="text36"><tspan
         style="fill:#000000;fill-opacity:1;fill-rule:nonzero;stroke:none;font-family:Times New Roman;font-variant:normal;font-weight:normal;font-size:12;writing-mode:lr;-inkscape-font-specification:TimesNewRomanPSMT"
         x="0 6"
         y="0"
         sodipodi:role="line"
         id="tspan38">60</tspan></text>
<path
       d="m 402,299.83398 0,3.33204 m 0,253.33398 0,-3.25"
       style="fill:none;stroke:#000000;stroke-opacity:1;stroke-width:0.5;stroke-linecap:butt;stroke-linejoin:round;stroke-miterlimit:10;stroke-dasharray:none"
       id="path40" /><text
       transform="matrix(1,0,0,-1,396,286.25)"
       id="text42"><tspan
         style="fill:#000000;fill-opacity:1;fill-rule:nonzero;stroke:none;font-family:Times New Roman;font-variant:normal;font-weight:normal;font-size:12;writing-mode:lr;-inkscape-font-specification:TimesNewRomanPSMT"
         x="0 6"
         y="0"
         sodipodi:role="line"
         id="tspan44">80</tspan></text>
<path
       d="m 467.08398,299.83398 0,3.33204 m 0,253.33398 0,-3.25"
       style="fill:none;stroke:#000000;stroke-opacity:1;stroke-width:0.5;stroke-linecap:butt;stroke-linejoin:round;stroke-miterlimit:10;stroke-dasharray:none"
       id="path46" /><text
       transform="matrix(1,0,0,-1,458.08398,286.25)"
       id="text48"><tspan
         style="fill:#000000;fill-opacity:1;fill-rule:nonzero;stroke:none;font-family:Times New Roman;font-variant:normal;font-weight:normal;font-size:12;writing-mode:lr;-inkscape-font-specification:TimesNewRomanPSMT"
         x="0 6 12"
         y="0"
         sodipodi:role="line"
         id="tspan50">100</tspan></text>
<path
       d="m 141.66699,299.83398 3.25,0 m 322.16699,0 -3.33398,0"
       style="fill:none;stroke:#000000;stroke-opacity:1;stroke-width:0.5;stroke-linecap:butt;stroke-linejoin:round;stroke-miterlimit:10;stroke-dasharray:none"
       id="path52" /><text
       transform="matrix(1,0,0,-1,132.75,295.58398)"
       id="text54"><tspan
         style="fill:#000000;fill-opacity:1;fill-rule:nonzero;stroke:none;font-family:Times New Roman;font-variant:normal;font-weight:normal;font-size:12;writing-mode:lr;-inkscape-font-specification:TimesNewRomanPSMT"
         x="0"
         y="0"
         id="tspan56">2</tspan></text>
<path
       d="m 141.66699,325.5 3.25,0 m 322.16699,0 -3.33398,0"
       style="fill:none;stroke:#000000;stroke-opacity:1;stroke-width:0.5;stroke-linecap:butt;stroke-linejoin:round;stroke-miterlimit:10;stroke-dasharray:none"
       id="path58" /><text
       transform="matrix(1,0,0,-1,132.75,321.25)"
       id="text60"><tspan
         style="fill:#000000;fill-opacity:1;fill-rule:nonzero;stroke:none;font-family:Times New Roman;font-variant:normal;font-weight:normal;font-size:12;writing-mode:lr;-inkscape-font-specification:TimesNewRomanPSMT"
         x="0"
         y="0"
         id="tspan62">3</tspan></text>
<path
       d="m 141.66699,351.16602 3.25,0 m 322.16699,0 -3.33398,0"
       style="fill:none;stroke:#000000;stroke-opacity:1;stroke-width:0.5;stroke-linecap:butt;stroke-linejoin:round;stroke-miterlimit:10;stroke-dasharray:none"
       id="path64" /><text
       transform="matrix(1,0,0,-1,132.75,346.91602)"
       id="text66"><tspan
         style="fill:#000000;fill-opacity:1;fill-rule:nonzero;stroke:none;font-family:Times New Roman;font-variant:normal;font-weight:normal;font-size:12;writing-mode:lr;-inkscape-font-specification:TimesNewRomanPSMT"
         x="0"
         y="0"
         id="tspan68">4</tspan></text>
<path
       d="m 141.66699,376.83398 3.25,0 m 322.16699,0 -3.33398,0"
       style="fill:none;stroke:#000000;stroke-opacity:1;stroke-width:0.5;stroke-linecap:butt;stroke-linejoin:round;stroke-miterlimit:10;stroke-dasharray:none"
       id="path70" /><text
       transform="matrix(1,0,0,-1,132.75,372.58398)"
       id="text72"><tspan
         style="fill:#000000;fill-opacity:1;fill-rule:nonzero;stroke:none;font-family:Times New Roman;font-variant:normal;font-weight:normal;font-size:12;writing-mode:lr;-inkscape-font-specification:TimesNewRomanPSMT"
         x="0"
         y="0"
         id="tspan74">5</tspan></text>
<path
       d="m 141.66699,402.5 3.25,0 m 322.16699,0 -3.33398,0"
       style="fill:none;stroke:#000000;stroke-opacity:1;stroke-width:0.5;stroke-linecap:butt;stroke-linejoin:round;stroke-miterlimit:10;stroke-dasharray:none"
       id="path76" /><text
       transform="matrix(1,0,0,-1,132.75,398.25)"
       id="text78"><tspan
         style="fill:#000000;fill-opacity:1;fill-rule:nonzero;stroke:none;font-family:Times New Roman;font-variant:normal;font-weight:normal;font-size:12;writing-mode:lr;-inkscape-font-specification:TimesNewRomanPSMT"
         x="0"
         y="0"
         id="tspan80">6</tspan></text>
<path
       d="m 141.66699,428.1665 3.25,0 m 322.16699,0 -3.33398,0"
       style="fill:none;stroke:#000000;stroke-opacity:1;stroke-width:0.5;stroke-linecap:butt;stroke-linejoin:round;stroke-miterlimit:10;stroke-dasharray:none"
       id="path82" /><text
       transform="matrix(1,0,0,-1,132.75,423.9165)"
       id="text84"><tspan
         style="fill:#000000;fill-opacity:1;fill-rule:nonzero;stroke:none;font-family:Times New Roman;font-variant:normal;font-weight:normal;font-size:12;writing-mode:lr;-inkscape-font-specification:TimesNewRomanPSMT"
         x="0"
         y="0"
         id="tspan86">7</tspan></text>
<path
       d="m 141.66699,453.83301 3.25,0 m 322.16699,0 -3.33398,0"
       style="fill:none;stroke:#000000;stroke-opacity:1;stroke-width:0.5;stroke-linecap:butt;stroke-linejoin:round;stroke-miterlimit:10;stroke-dasharray:none"
       id="path88" /><text
       transform="matrix(1,0,0,-1,132.75,449.58301)"
       id="text90"><tspan
         style="fill:#000000;fill-opacity:1;fill-rule:nonzero;stroke:none;font-family:Times New Roman;font-variant:normal;font-weight:normal;font-size:12;writing-mode:lr;-inkscape-font-specification:TimesNewRomanPSMT"
         x="0"
         y="0"
         id="tspan92">8</tspan></text>
<path
       d="m 141.66699,479.5 3.25,0 m 322.16699,0 -3.33398,0"
       style="fill:none;stroke:#000000;stroke-opacity:1;stroke-width:0.5;stroke-linecap:butt;stroke-linejoin:round;stroke-miterlimit:10;stroke-dasharray:none"
       id="path94" /><text
       transform="matrix(1,0,0,-1,132.75,475.25)"
       id="text96"><tspan
         style="fill:#000000;fill-opacity:1;fill-rule:nonzero;stroke:none;font-family:Times New Roman;font-variant:normal;font-weight:normal;font-size:12;writing-mode:lr;-inkscape-font-specification:TimesNewRomanPSMT"
         x="0"
         y="0"
         id="tspan98">9</tspan></text>
<path
       d="m 141.66699,505.1665 3.25,0 m 322.16699,0 -3.33398,0"
       style="fill:none;stroke:#000000;stroke-opacity:1;stroke-width:0.5;stroke-linecap:butt;stroke-linejoin:round;stroke-miterlimit:10;stroke-dasharray:none"
       id="path100" /><text
       transform="matrix(1,0,0,-1,126.75,500.9165)"
       id="text102"><tspan
         style="fill:#000000;fill-opacity:1;fill-rule:nonzero;stroke:none;font-family:Times New Roman;font-variant:normal;font-weight:normal;font-size:12;writing-mode:lr;-inkscape-font-specification:TimesNewRomanPSMT"
         x="0 6"
         y="0"
         sodipodi:role="line"
         id="tspan104">10</tspan></text>
<path
       d="m 141.66699,530.83301 3.25,0 m 322.16699,0 -3.33398,0"
       style="fill:none;stroke:#000000;stroke-opacity:1;stroke-width:0.5;stroke-linecap:butt;stroke-linejoin:round;stroke-miterlimit:10;stroke-dasharray:none"
       id="path106" /><text
       transform="matrix(1,0,0,-1,126.75,526.58301)"
       id="text108"><tspan
         style="fill:#000000;fill-opacity:1;fill-rule:nonzero;stroke:none;font-family:Times New Roman;font-variant:normal;font-weight:normal;font-size:12;writing-mode:lr;-inkscape-font-specification:TimesNewRomanPSMT"
         x="0 6"
         y="0"
         sodipodi:role="line"
         id="tspan110">11</tspan></text>
<path
       d="m 141.66699,556.5 3.25,0 m 322.16699,0 -3.33398,0"
       style="fill:none;stroke:#000000;stroke-opacity:1;stroke-width:0.5;stroke-linecap:butt;stroke-linejoin:round;stroke-miterlimit:10;stroke-dasharray:none"
       id="path112" /><text
       transform="matrix(1,0,0,-1,126.75,552.25)"
       id="text114"><tspan
         style="fill:#000000;fill-opacity:1;fill-rule:nonzero;stroke:none;font-family:Times New Roman;font-variant:normal;font-weight:normal;font-size:12;writing-mode:lr;-inkscape-font-specification:TimesNewRomanPSMT"
         x="0 6"
         y="0"
         sodipodi:role="line"
         id="tspan116">12</tspan></text>
<path
       d="m 141.66699,556.5 325.41699,0 m -325.41699,-256.66602 325.41699,0 m 0,0 0,256.66602 m -325.41699,-256.66602 0,256.66602"
       style="fill:none;stroke:#000000;stroke-opacity:1;stroke-width:0.5;stroke-linecap:butt;stroke-linejoin:round;stroke-miterlimit:10;stroke-dasharray:none"
       id="path118" /><g
       id="g120"><g
         id="g122"
         clip-path="url(#clipPath124)"><path
           d="M 306,529.9165 307.58398,529.5 309.25,529.08301 310.83398,528.6665 312.5,528.25 314.08398,527.83301 315.75,527.4165 317.33398,527 319,526.58301 320.58398,526.1665 322.25,525.75 323.83398,525.33301 325.5,524.9165 327.08398,524.5 328.75,524 330.33398,523.58301 332,523.1665 l 1.58398,-0.4165 1.66602,-0.41699 1.66602,-0.5 1.58398,-0.41651 1.66602,-0.4165 1.58398,-0.41699 1.66602,-0.41651 1.58398,-0.5 1.66602,-0.4165 1.58398,-0.41699 1.66602,-0.41651 L 351.5,518 l 1.66602,-0.41699 1.58398,-0.41651 1.66602,-0.41699 1.58398,-0.4165 1.66602,-0.41651 1.58398,-0.41699 1.66602,-0.4165 1.58398,-0.41651 1.66602,-0.33349 1.58398,-0.41651 1.66602,-0.41699 1.66796,-0.4165 1.58204,-0.3335 1.66796,-0.4165 1.58204,-0.3335 1.66796,-0.4165 1.58204,-0.3335 1.66796,-0.4165 1.58204,-0.3335 1.66796,-0.4165 1.58204,-0.33301 1.66796,-0.3335 1.58204,-0.33349 1.66796,-0.33301 1.58204,-0.41699 1.66796,-0.33301 1.58204,-0.3335 1.66796,-0.33349 1.58204,-0.25 1.66796,-0.33301 1.66602,-0.3335 1.58398,-0.33349 1.66602,-0.33301 1.58398,-0.25 1.66602,-0.3335 1.58398,-0.25 1.66602,-0.33349 1.58398,-0.25 L 415,504 l 1.58398,-0.25 1.66602,-0.3335 1.58398,-0.25 1.66602,-0.25 1.58398,-0.25 1.66602,-0.25 1.58398,-0.25 1.66602,-0.25 1.58398,-0.25 1.66602,-0.25 1.58398,-0.25 1.66602,-0.25 1.66602,-0.25 1.58398,-0.25 1.66602,-0.1665 L 441,500 l 1.66602,-0.25 1.58398,-0.16699 1.66797,-0.25 1.58203,-0.16651 1.66797,-0.25 L 450.75,498.75 452.41797,498.5 454,498.33301 455.66797,498.1665 457.25,498 l 1.66797,-0.25 1.58203,-0.16699 1.66797,-0.16651 1.58203,-0.1665 1.66797,-0.16699 1.66601,-0.16651 M 144.91699,327.83398 146.5,344.91602 148.16699,359.08398 149.75,371.25 151.41699,382 153,391.75 l 1.66699,8.75 1.58301,8.08398 1.66699,7.5 L 159.5,423 l 1.66699,6.5 1.58301,6.08301 1.66699,5.66699 1.58301,5.33301 1.66699,5 1.58301,4.83349 1.66699,4.5 1.58301,4.25 1.66699,4 1.66651,3.8335 1.58349,3.6665 1.66651,3.41651 1.58349,3.33349 1.66651,3.0835 1.58349,3 1.66651,2.83301 1.58349,2.66699 1.66651,2.58301 1.58349,2.41699 1.66651,2.33301 1.58349,2.25 1.66651,2.08349 1.58349,2 1.66651,1.91651 1.58349,1.75 1.66651,1.75 1.58349,1.66699 1.66651,1.5 1.66699,1.5 1.58301,1.33301 1.66699,1.33349 1.58301,1.25 1.66699,1.16651 1.58301,1.08349 1.66699,1.0835 1.58301,1 1.66699,0.9165 1.58301,0.8335 1.66699,0.83301 1.58301,0.75 1.66699,0.75 1.58301,0.66699 1.66699,0.58301 1.58301,0.58349 1.66699,0.5 1.58301,0.5 1.66699,0.41651 1.58301,0.41699 1.66699,0.4165 1.6665,0.3335 1.5835,0.25 1.6665,0.25 1.5835,0.25 1.6665,0.1665 1.5835,0.16651 1.6665,0.16699 1.5835,0.083 1.6665,0.0835 1.5835,0.0835 1.6665,0 1.5835,0 1.6665,0 1.5835,-0.0835 1.6665,-0.0835 1.5835,-0.083 1.6665,-0.0835 1.5835,-0.1665 1.6665,-0.0835 1.66651,-0.1665 1.58349,-0.16699 1.66651,-0.25 1.58349,-0.16651 1.66651,-0.25 1.58349,-0.25 1.66651,-0.25 1.58349,-0.25 1.66651,-0.25 1.58349,-0.33349 1.66651,-0.33301 1.58349,-0.25 1.66651,-0.3335 1.58349,-0.33349 1.66651,-0.33301 1.583,-0.3335 1.66748,-0.4165 1.58204,-0.3335 1.66796,-0.4165 1.58204,-0.3335 1.66796,-0.4165 L 306,529.9165 M 143.25,305 l 1.66699,22.83398"
           style="fill:none;stroke:#000000;stroke-opacity:1;stroke-width:3;stroke-linecap:butt;stroke-linejoin:round;stroke-miterlimit:10;stroke-dasharray:none"
           id="path128" /><path
           d="m 434.5,429.25 1.66602,0 1.58398,0 1.66602,-0.0835 1.58398,0 1.66602,0 1.58398,0 1.66797,0 1.58203,0 1.66797,0 1.58203,-0.0835 1.66797,0 1.58203,0 1.66797,0 1.58203,0 1.66797,0 1.58203,0 1.66797,0 1.58203,0 1.66797,-0.083 1.66601,0 M 306,437.9165 307.58398,437.58301 309.25,437.25 310.83398,437 312.5,436.6665 l 1.58398,-0.25 1.66602,-0.25 1.58398,-0.25 1.66602,-0.25 1.58398,-0.25 1.66602,-0.25 1.58398,-0.25 1.66602,-0.1665 1.58398,-0.25 1.66602,-0.25 1.58398,-0.16699 1.66602,-0.16651 1.58398,-0.25 L 335.25,433.5 336.91602,433.33301 338.5,433.1665 340.16602,433 341.75,432.83301 343.41602,432.6665 345,432.58301 346.66602,432.4165 348.25,432.25 349.91602,432.1665 351.5,432 l 1.66602,-0.0835 1.58398,-0.1665 1.66602,-0.0835 1.58398,-0.0835 1.66602,-0.16651 1.58398,-0.0835 1.66602,-0.083 1.58398,-0.0835 1.66602,-0.0835 1.58398,-0.083 1.66602,-0.0835 1.66796,-0.0835 1.58204,-0.083 1.66796,-0.0835 1.58204,-0.0835 1.66796,-0.083 1.58204,-0.0835 1.66796,0 1.58204,-0.0835 1.66796,-0.083 1.58204,0 1.66796,-0.0835 1.58204,-0.0835 1.66796,0 1.58204,-0.083 1.66796,0 1.58204,-0.0835 1.66796,-0.0835 1.58204,0 1.66796,-0.083 1.66602,0 1.58398,0 1.66602,-0.0835 1.58398,0 1.66602,-0.0835 1.58398,0 1.66602,0 1.58398,-0.083 1.66602,0 1.58398,0 1.66602,-0.0835 1.58398,0 1.66602,0 1.58398,0 1.66602,-0.0835 1.58398,0 1.66602,0 1.58398,0 1.66602,-0.083 m -286.33301,-102.33398 1.58301,16.5 1.66699,13.25 1.58301,11.25 1.66699,9.75 1.58301,8.66796 1.66699,7.66602 1.58301,6.83398 1.66699,6.25 1.58301,5.58204 1.66699,5.16699 1.58301,4.66699 1.66699,4.25 1.58301,3.9165 1.66699,3.5835 1.58301,3.33301 1.66699,3 1.58301,2.75 1.66699,2.5 1.66651,2.25 1.58349,2.08349 1.66651,1.91651 1.58349,1.75 1.66651,1.58349 1.58349,1.41651 1.66651,1.25 1.58349,1.08349 1.66651,1 1.58349,0.91651 1.66651,0.75 1.58349,0.66699 1.66651,0.58301 1.58349,0.5 1.66651,0.41699 1.58349,0.33301 1.66651,0.25 1.58349,0.16699 1.66651,0.083 1.66699,0.0835 1.58301,-0.0835 1.66699,0 1.58301,-0.16651 1.66699,-0.1665 1.58301,-0.16699 1.66699,-0.25 1.58301,-0.33301 1.66699,-0.25 1.58301,-0.41699 1.66699,-0.33301 1.58301,-0.41699 1.66699,-0.41651 1.58301,-0.5 1.66699,-0.4165 1.58301,-0.5 1.66699,-0.5 1.58301,-0.5835 1.66699,-0.5 1.58301,-0.5 1.66699,-0.58349 1.6665,-0.58301 1.5835,-0.5835 1.6665,-0.5 1.5835,-0.58349 1.6665,-0.58301 1.5835,-0.5835 1.6665,-0.58349 1.5835,-0.58301 1.6665,-0.5835 1.5835,-0.58349 1.6665,-0.58301 1.5835,-0.5835 1.6665,-0.5 1.5835,-0.58349 1.6665,-0.58301 1.5835,-0.5 1.6665,-0.5835 1.5835,-0.5 1.6665,-0.5 1.66651,-0.58349 1.58349,-0.5 1.66651,-0.5 1.58349,-0.5 1.66651,-0.41651 1.58349,-0.5 1.66651,-0.5 1.58349,-0.4165 1.66651,-0.41699 1.58349,-0.5 1.66651,-0.41651 1.58349,-0.4165 1.66651,-0.41699 1.58349,-0.33301 1.66651,-0.41699 1.583,-0.41651 1.66748,-0.33349 1.58204,-0.33301 1.66796,-0.3335 1.58204,-0.33349 L 304.33398,438.25 306,437.9165 m -162.75,-133.25048 1.66699,22.25"
           style="fill:none;stroke:#000000;stroke-opacity:1;stroke-width:3;stroke-linecap:butt;stroke-linejoin:round;stroke-miterlimit:10;stroke-dasharray:8,4;stroke-dashoffset:0"
           id="path130" /><path
           d="m 306,368.83398 1.58398,-0.084 1.66602,0 1.58398,0 1.66602,0 1.58398,0 1.66602,0 1.58398,0 1.66602,0 1.58398,0 1.66602,0 1.58398,0 1.66602,0 1.58398,0 1.66602,0 1.58398,0 1.66602,0 1.58398,0 1.66602,0 1.66602,0 1.58398,0 1.66602,0 1.58398,0 1.66602,0 1.58398,0 1.66602,0 1.58398,0 1.66602,0 1.58398,0 1.66602,0 1.58398,0 1.66602,0 1.58398,0 1.66602,0 1.58398,0 1.66602,0 1.58398,0 1.66602,0 1.58398,0 1.66602,0 1.66796,0 1.58204,0 1.66796,0 1.58204,0 1.66796,0 1.58204,0 1.66796,0 1.58204,0 1.66796,0 1.58204,0 1.66796,0 1.58204,0 1.66796,0 1.58204,0 1.66796,0 1.58204,0 1.66796,0 1.58204,0 1.66796,0 1.66602,0 1.58398,0 1.66602,0 1.58398,0 1.66602,0 1.58398,0 1.66602,0 1.58398,0 1.66602,0 1.58398,0 1.66602,0 1.58398,0 1.66602,0 1.58398,0 1.66602,0 1.58398,0 1.66602,0 1.58398,0 1.66602,0 1.58398,0 1.66602,0 1.66602,0 1.58398,0 1.66602,0 1.58398,0 1.66602,0 1.58398,0 1.66797,0 1.58203,0 1.66797,0 1.58203,0 1.66797,0 1.58203,0 1.66797,0 1.58203,0 1.66797,0 1.58203,0 1.66797,0 1.58203,0 1.66797,0 1.66601,0 M 144.91699,324.5 146.5,339 l 1.66699,11.08398 1.58301,8.75 1.66699,7.16602 1.58301,5.75 1.66699,4.83398 1.58301,3.83204 1.66699,3.25 1.58301,2.5 1.66699,2.08398 1.58301,1.58398 1.66699,1.16602 1.58301,0.83398 1.66699,0.58204 1.58301,0.25 1.66699,0.084 1.58301,-0.084 1.66699,-0.25 1.66651,-0.41602 1.58349,-0.5 1.66651,-0.66602 1.58349,-0.66796 1.66651,-0.75 1.58349,-0.83204 1.66651,-0.83398 1.58349,-0.83398 1.66651,-0.83204 1.58349,-0.91796 1.66651,-0.83204 1.58349,-0.83398 1.66651,-0.83398 1.58349,-0.83204 1.66651,-0.83398 1.58349,-0.75 1.66651,-0.75 1.58349,-0.66602 1.66651,-0.75 1.66699,-0.58398 1.58301,-0.66602 1.66699,-0.58398 1.58301,-0.5 1.66699,-0.5 1.58301,-0.5 1.66699,-0.5 1.58301,-0.41602 1.66699,-0.41796 1.58301,-0.33204 1.66699,-0.33398 1.58301,-0.33398 1.66699,-0.33204 1.58301,-0.25 1.66699,-0.25 1.58301,-0.25 1.66699,-0.25 1.58301,-0.16796 1.66699,-0.16602 1.58301,-0.16602 1.66699,-0.16796 1.6665,-0.16602 1.5835,-0.084 1.6665,-0.16602 1.5835,-0.084 1.6665,-0.082 1.5835,-0.084 1.6665,-0.084 1.5835,-0.082 1.6665,-0.084 1.5835,-0.084 1.6665,-0.082 1.5835,0 1.6665,-0.084 1.5835,-0.084 1.6665,0 1.5835,0 1.6665,-0.082 1.5835,0 1.6665,-0.084 1.66651,0 1.58349,0 1.66651,0 1.58349,-0.084 1.66651,0 1.58349,0 1.66651,0 1.58349,0 1.66651,0 1.58349,-0.082 1.66651,0 1.58349,0 1.66651,0 1.58349,0 1.66651,0 1.583,0 1.66748,0 1.58204,0 1.66796,0 1.58204,0 1.66796,0 1.66602,0 m -162.75,-65 1.66699,20.66602"
           style="fill:none;stroke:#000000;stroke-opacity:1;stroke-width:3;stroke-linecap:butt;stroke-linejoin:round;stroke-miterlimit:10;stroke-dasharray:4,4;stroke-dashoffset:0"
           id="path132" /></g></g><text
       transform="matrix(1,0,0,-1,267.66699,273.58398)"
       id="text134"><tspan
         style="font-size:12px;font-variant:normal;font-weight:normal;writing-mode:lr-tb;fill:#000000;fill-opacity:1;fill-rule:nonzero;stroke:none;font-family:Times New Roman;-inkscape-font-specification:TimesNewRomanPSMT"
         sodipodi:role="line"
         id="tspan136"
         x="0"
         y="0">Depth  (m)</tspan></text>
<text
       transform="matrix(0,1,1,0,122.16699,371.25)"
       id="text142"><tspan
         style="font-size:12px;font-variant:normal;font-weight:normal;writing-mode:lr-tb;fill:#000000;fill-opacity:1;fill-rule:nonzero;stroke:none;font-family:Times New Roman;-inkscape-font-specification:TimesNewRomanPSMT"
         sodipodi:role="line"
         id="tspan144"
         x="0"
         y="0">Group speed (m/s) </tspan></text>
<path
       d="m 374.41602,306 0,43.75 77.41796,0 0,-43.75 -77.41796,0 z"
       style="fill:#ffffff;fill-opacity:1;fill-rule:evenodd;stroke:none"
       id="path146" /><path
       d="m 374.41602,306 0,43.75 77.41796,0 0,-43.75 -77.41796,0"
       style="fill:none;stroke:#ffffff;stroke-opacity:1;stroke-width:0.5;stroke-linecap:butt;stroke-linejoin:round;stroke-miterlimit:10;stroke-dasharray:none"
       id="path148" /><path
       d="m 374.41602,349.75 77.41796,0 M 374.41602,306 l 77.41796,0 m 0,0 0,43.75 M 374.41602,306 l 0,43.75 m 0,-43.75 77.41796,0 m -77.41796,0 0,43.75 m 0,0 77.41796,0 M 374.41602,306 l 77.41796,0 m 0,0 0,43.75 M 374.41602,306 l 0,43.75"
       style="fill:none;stroke:#000000;stroke-opacity:1;stroke-width:0.5;stroke-linecap:butt;stroke-linejoin:round;stroke-miterlimit:10;stroke-dasharray:none"
       id="path150" /><text
       transform="matrix(1,0,0,-1,408,337.5)"
       id="text152"><tspan
         style="fill:#000000;fill-opacity:1;fill-rule:nonzero;stroke:none;font-family:Times New Roman;font-variant:normal;font-weight:normal;font-size:12;writing-mode:lr;-inkscape-font-specification:TimesNewRomanPSMT"
         x="0 7.332 14.1 20.1 26.1"
         y="0"
         sodipodi:role="line"
         id="tspan154">T=12 </tspan></text>
<text
       transform="matrix(1,0,0,-1,435.97461,337.5)"
       id="text156"><tspan
         style="fill:#000000;fill-opacity:1;fill-rule:nonzero;stroke:none;font-family:Times New Roman;font-variant:normal;font-weight:normal;font-size:12;writing-mode:lr;-inkscape-font-specification:TimesNewRomanPSMT"
         x="0"
         y="0"
         id="tspan158">s</tspan></text>
<text
       transform="matrix(1,0,0,-1,408,323.66602)"
       id="text160"><tspan
         style="fill:#000000;fill-opacity:1;fill-rule:nonzero;stroke:none;font-family:Times New Roman;font-variant:normal;font-weight:normal;font-size:12;writing-mode:lr;-inkscape-font-specification:TimesNewRomanPSMT"
         x="0 7.332 14.1 20.1"
         y="0"
         sodipodi:role="line"
         id="tspan162">T=9 </tspan></text>
<text
       transform="matrix(1,0,0,-1,429.81836,323.66602)"
       id="text164"><tspan
         style="fill:#000000;fill-opacity:1;fill-rule:nonzero;stroke:none;font-family:Times New Roman;font-variant:normal;font-weight:normal;font-size:12;writing-mode:lr;-inkscape-font-specification:TimesNewRomanPSMT"
         x="0"
         y="0"
         id="tspan166">s</tspan></text>
<text
       transform="matrix(1,0,0,-1,408,309.83398)"
       id="text168"><tspan
         style="fill:#000000;fill-opacity:1;fill-rule:nonzero;stroke:none;font-family:Times New Roman;font-variant:normal;font-weight:normal;font-size:12;writing-mode:lr;-inkscape-font-specification:TimesNewRomanPSMT"
         x="0 7.332 14.1 20.1"
         y="0"
         sodipodi:role="line"
         id="tspan170">T=6 </tspan></text>
<text
       transform="matrix(1,0,0,-1,429.81836,309.83398)"
       id="text172"><tspan
         style="fill:#000000;fill-opacity:1;fill-rule:nonzero;stroke:none;font-family:Times New Roman;font-variant:normal;font-weight:normal;font-size:12;writing-mode:lr;-inkscape-font-specification:TimesNewRomanPSMT"
         x="0"
         y="0"
         id="tspan174">s</tspan></text>
<g
       id="g176"><g
         id="g178"
         clip-path="url(#clipPath180)"><path
           d="m 381.08398,341.58398 20.16602,0"
           style="fill:none;stroke:#000000;stroke-opacity:1;stroke-width:3;stroke-linecap:butt;stroke-linejoin:round;stroke-miterlimit:10;stroke-dasharray:none"
           id="path184" /><path
           d="m 381.08398,327.66602 20.16602,0"
           style="fill:none;stroke:#000000;stroke-opacity:1;stroke-width:3;stroke-linecap:butt;stroke-linejoin:round;stroke-miterlimit:10;stroke-dasharray:8,4;stroke-dashoffset:0"
           id="path186" /><path
           d="m 381.08398,313.83398 20.16602,0"
           style="fill:none;stroke:#000000;stroke-opacity:1;stroke-width:3;stroke-linecap:butt;stroke-linejoin:round;stroke-miterlimit:10;stroke-dasharray:4,4;stroke-dashoffset:0"
           id="path188" /></g></g></g></svg>