<?xml version="1.0" encoding="UTF-8" standalone="no"?>
<!-- Created with Inkscape (http://www.inkscape.org/) -->

<svg
   xmlns:dc="http://purl.org/dc/elements/1.1/"
   xmlns:cc="http://creativecommons.org/ns#"
   xmlns:rdf="http://www.w3.org/1999/02/22-rdf-syntax-ns#"
   xmlns:svg="http://www.w3.org/2000/svg"
   xmlns="http://www.w3.org/2000/svg"
   xmlns:sodipodi="http://sodipodi.sourceforge.net/DTD/sodipodi-0.dtd"
   xmlns:inkscape="http://www.inkscape.org/namespaces/inkscape"
   id="svg2"
   version="1.1"
   inkscape:version="0.48.3.1 r9886"
   width="514.63769"
   height="389.59521"
   xml:space="preserve"
   sodipodi:docname="disperlinLT_en.pdf"><metadata
     id="metadata8"><rdf:RDF><cc:Work
         rdf:about=""><dc:format>image/svg+xml</dc:format><dc:type
           rdf:resource="http://purl.org/dc/dcmitype/StillImage" /><dc:title></dc:title></cc:Work></rdf:RDF></metadata><defs
     id="defs6"><clipPath
       clipPathUnits="userSpaceOnUse"
       id="clipPath100"><path
         d="m 141.0835,301 348.99951,0 0,261.6665 -348.99951,0 0,-261.6665 z"
         id="path102" /></clipPath><clipPath
       clipPathUnits="userSpaceOnUse"
       id="clipPath164"><path
         d="m 146.0835,490.6665 111.6665,0 0,67 -111.6665,0 0,-67 z"
         id="path166" /></clipPath></defs><sodipodi:namedview
     pagecolor="#ffffff"
     bordercolor="#666666"
     borderopacity="1"
     objecttolerance="10"
     gridtolerance="10"
     guidetolerance="10"
     inkscape:pageopacity="0"
     inkscape:pageshadow="2"
     inkscape:window-width="640"
     inkscape:window-height="480"
     id="namedview4"
     showgrid="false"
     inkscape:zoom="0.60575693"
     inkscape:cx="257.31885"
     inkscape:cy="194.79761"
     inkscape:window-x="0"
     inkscape:window-y="24"
     inkscape:window-maximized="0"
     inkscape:current-layer="g10" /><g
     id="g10"
     inkscape:groupmode="layer"
     inkscape:label="disperlinLT"
     transform="matrix(1.25,0,0,-1.25,-112.19589,715.2)"><path
       d="m 141.0835,301.08301 0,261.58349 348.9165,0 0,-261.58349 -348.9165,0"
       style="fill:none;stroke:#ffffff;stroke-opacity:1;stroke-width:0.5;stroke-linecap:butt;stroke-linejoin:round;stroke-miterlimit:10;stroke-dasharray:none"
       id="path12" /><path
       d="m 141.0835,301.08301 0,261.58349 m 0,0 0,0 m 87.1665,-261.58349 0,261.58349 m 0,0 0,0 m 87.25,-261.58349 0,261.58349 m 0,0 0,0 m 87.25,-261.58349 0,261.58349 m 0,0 0,0 M 490,301.08301 490,562.6665 m 0,0 0,0 m -348.9165,-261.58349 348.9165,0 m 0,0 0,0 M 141.0835,338.5 490,338.5 m 0,0 0,0 m -348.9165,37.33301 348.9165,0 m 0,0 0,0 M 141.0835,413.25 490,413.25 m 0,0 0,0 m -348.9165,37.3335 348.9165,0 m 0,0 0,0 M 141.0835,488 490,488 m 0,0 0,0 m -348.9165,37.3335 348.9165,0 m 0,0 0,0 m -348.9165,37.333 348.9165,0 m 0,0 0,0"
       style="fill:none;stroke:#000000;stroke-opacity:1;stroke-width:1;stroke-linecap:butt;stroke-linejoin:round;stroke-miterlimit:10;stroke-dasharray:3,4;stroke-dashoffset:0"
       id="path14" /><path
       d="m 141.0835,562.6665 348.9165,0 m -348.9165,-261.58349 348.9165,0 m 0,0 0,261.58349 m -348.9165,-261.58349 0,261.58349 m 0,-261.58349 348.9165,0 m -348.9165,0 0,261.58349 m 0,-261.58349 0,3.5 m 0,258.08349 0,-3.4165"
       style="fill:none;stroke:#000000;stroke-opacity:1;stroke-width:0.5;stroke-linecap:butt;stroke-linejoin:round;stroke-miterlimit:10;stroke-dasharray:none"
       id="path16" /><text
       transform="matrix(1,0,0,-1,137.5835,285.75)"
       id="text18"><tspan
         style="fill:#000000;fill-opacity:1;fill-rule:nonzero;stroke:none;font-family:Myriad;font-variant:normal;font-weight:normal;font-size:14;writing-mode:lr;-inkscape-font-specification:Myriad-Roman"
         x="0"
         y="0"
         id="tspan20">0</tspan></text>
<path
       d="m 228.25,301.08301 0,3.5 m 0,258.08349 0,-3.4165"
       style="fill:none;stroke:#000000;stroke-opacity:1;stroke-width:0.5;stroke-linecap:butt;stroke-linejoin:round;stroke-miterlimit:10;stroke-dasharray:none"
       id="path22" /><text
       transform="matrix(1,0,0,-1,224.75,285.75)"
       id="text24"><tspan
         style="fill:#000000;fill-opacity:1;fill-rule:nonzero;stroke:none;font-family:Myriad;font-variant:normal;font-weight:normal;font-size:14;writing-mode:lr;-inkscape-font-specification:Myriad-Roman"
         x="0"
         y="0"
         id="tspan26">5</tspan></text>
<path
       d="m 315.5,301.08301 0,3.5 m 0,258.08349 0,-3.4165"
       style="fill:none;stroke:#000000;stroke-opacity:1;stroke-width:0.5;stroke-linecap:butt;stroke-linejoin:round;stroke-miterlimit:10;stroke-dasharray:none"
       id="path28" /><text
       transform="matrix(1,0,0,-1,308.5,285.75)"
       id="text30"><tspan
         style="fill:#000000;fill-opacity:1;fill-rule:nonzero;stroke:none;font-family:Myriad;font-variant:normal;font-weight:normal;font-size:14;writing-mode:lr;-inkscape-font-specification:Myriad-Roman"
         x="0 7.182"
         y="0"
         sodipodi:role="line"
         id="tspan32">10</tspan></text>
<path
       d="m 402.75,301.08301 0,3.5 m 0,258.08349 0,-3.4165"
       style="fill:none;stroke:#000000;stroke-opacity:1;stroke-width:0.5;stroke-linecap:butt;stroke-linejoin:round;stroke-miterlimit:10;stroke-dasharray:none"
       id="path34" /><text
       transform="matrix(1,0,0,-1,395.75,285.75)"
       id="text36"><tspan
         style="fill:#000000;fill-opacity:1;fill-rule:nonzero;stroke:none;font-family:Myriad;font-variant:normal;font-weight:normal;font-size:14;writing-mode:lr;-inkscape-font-specification:Myriad-Roman"
         x="0 7.182"
         y="0"
         sodipodi:role="line"
         id="tspan38">15</tspan></text>
<path
       d="m 490,301.08301 0,3.5 m 0,258.08349 0,-3.4165"
       style="fill:none;stroke:#000000;stroke-opacity:1;stroke-width:0.5;stroke-linecap:butt;stroke-linejoin:round;stroke-miterlimit:10;stroke-dasharray:none"
       id="path40" /><text
       transform="matrix(1,0,0,-1,483,285.75)"
       id="text42"><tspan
         style="fill:#000000;fill-opacity:1;fill-rule:nonzero;stroke:none;font-family:Myriad;font-variant:normal;font-weight:normal;font-size:14;writing-mode:lr;-inkscape-font-specification:Myriad-Roman"
         x="0 7.182"
         y="0"
         sodipodi:role="line"
         id="tspan44">20</tspan></text>
<path
       d="m 141.0835,301.08301 3.4165,0 m 345.5,0 -3.5,0"
       style="fill:none;stroke:#000000;stroke-opacity:1;stroke-width:0.5;stroke-linecap:butt;stroke-linejoin:round;stroke-miterlimit:10;stroke-dasharray:none"
       id="path46" /><text
       transform="matrix(1,0,0,-1,131.1665,296.08301)"
       id="text48"><tspan
         style="fill:#000000;fill-opacity:1;fill-rule:nonzero;stroke:none;font-family:Myriad;font-variant:normal;font-weight:normal;font-size:14;writing-mode:lr;-inkscape-font-specification:Myriad-Roman"
         x="0"
         y="0"
         id="tspan50">0</tspan></text>
<path
       d="m 141.0835,338.5 3.4165,0 m 345.5,0 -3.5,0"
       style="fill:none;stroke:#000000;stroke-opacity:1;stroke-width:0.5;stroke-linecap:butt;stroke-linejoin:round;stroke-miterlimit:10;stroke-dasharray:none"
       id="path52" /><text
       transform="matrix(1,0,0,-1,117.1665,333.5)"
       id="text54"><tspan
         style="fill:#000000;fill-opacity:1;fill-rule:nonzero;stroke:none;font-family:Myriad;font-variant:normal;font-weight:normal;font-size:14;writing-mode:lr;-inkscape-font-specification:Myriad-Roman"
         x="0 7.182 14.364"
         y="0"
         sodipodi:role="line"
         id="tspan56">100</tspan></text>
<path
       d="m 141.0835,375.83301 3.4165,0 m 345.5,0 -3.5,0"
       style="fill:none;stroke:#000000;stroke-opacity:1;stroke-width:0.5;stroke-linecap:butt;stroke-linejoin:round;stroke-miterlimit:10;stroke-dasharray:none"
       id="path58" /><text
       transform="matrix(1,0,0,-1,117.1665,370.83301)"
       id="text60"><tspan
         style="fill:#000000;fill-opacity:1;fill-rule:nonzero;stroke:none;font-family:Myriad;font-variant:normal;font-weight:normal;font-size:14;writing-mode:lr;-inkscape-font-specification:Myriad-Roman"
         x="0 7.182 14.364"
         y="0"
         sodipodi:role="line"
         id="tspan62">200</tspan></text>
<path
       d="m 141.0835,413.25 3.4165,0 m 345.5,0 -3.5,0"
       style="fill:none;stroke:#000000;stroke-opacity:1;stroke-width:0.5;stroke-linecap:butt;stroke-linejoin:round;stroke-miterlimit:10;stroke-dasharray:none"
       id="path64" /><text
       transform="matrix(1,0,0,-1,117.1665,408.25)"
       id="text66"><tspan
         style="fill:#000000;fill-opacity:1;fill-rule:nonzero;stroke:none;font-family:Myriad;font-variant:normal;font-weight:normal;font-size:14;writing-mode:lr;-inkscape-font-specification:Myriad-Roman"
         x="0 7.182 14.364"
         y="0"
         sodipodi:role="line"
         id="tspan68">300</tspan></text>
<path
       d="m 141.0835,450.5835 3.4165,0 m 345.5,0 -3.5,0"
       style="fill:none;stroke:#000000;stroke-opacity:1;stroke-width:0.5;stroke-linecap:butt;stroke-linejoin:round;stroke-miterlimit:10;stroke-dasharray:none"
       id="path70" /><text
       transform="matrix(1,0,0,-1,117.1665,445.5835)"
       id="text72"><tspan
         style="fill:#000000;fill-opacity:1;fill-rule:nonzero;stroke:none;font-family:Myriad;font-variant:normal;font-weight:normal;font-size:14;writing-mode:lr;-inkscape-font-specification:Myriad-Roman"
         x="0 7.182 14.364"
         y="0"
         sodipodi:role="line"
         id="tspan74">400</tspan></text>
<path
       d="m 141.0835,488 3.4165,0 m 345.5,0 -3.5,0"
       style="fill:none;stroke:#000000;stroke-opacity:1;stroke-width:0.5;stroke-linecap:butt;stroke-linejoin:round;stroke-miterlimit:10;stroke-dasharray:none"
       id="path76" /><text
       transform="matrix(1,0,0,-1,117.1665,483)"
       id="text78"><tspan
         style="fill:#000000;fill-opacity:1;fill-rule:nonzero;stroke:none;font-family:Myriad;font-variant:normal;font-weight:normal;font-size:14;writing-mode:lr;-inkscape-font-specification:Myriad-Roman"
         x="0 7.182 14.364"
         y="0"
         sodipodi:role="line"
         id="tspan80">500</tspan></text>
<path
       d="m 141.0835,525.3335 3.4165,0 m 345.5,0 -3.5,0"
       style="fill:none;stroke:#000000;stroke-opacity:1;stroke-width:0.5;stroke-linecap:butt;stroke-linejoin:round;stroke-miterlimit:10;stroke-dasharray:none"
       id="path82" /><text
       transform="matrix(1,0,0,-1,117.1665,520.3335)"
       id="text84"><tspan
         style="fill:#000000;fill-opacity:1;fill-rule:nonzero;stroke:none;font-family:Myriad;font-variant:normal;font-weight:normal;font-size:14;writing-mode:lr;-inkscape-font-specification:Myriad-Roman"
         x="0 7.182 14.364"
         y="0"
         sodipodi:role="line"
         id="tspan86">600</tspan></text>
<path
       d="m 141.0835,562.6665 3.4165,0 m 345.5,0 -3.5,0"
       style="fill:none;stroke:#000000;stroke-opacity:1;stroke-width:0.5;stroke-linecap:butt;stroke-linejoin:round;stroke-miterlimit:10;stroke-dasharray:none"
       id="path88" /><text
       transform="matrix(1,0,0,-1,117.1665,557.6665)"
       id="text90"><tspan
         style="fill:#000000;fill-opacity:1;fill-rule:nonzero;stroke:none;font-family:Myriad;font-variant:normal;font-weight:normal;font-size:14;writing-mode:lr;-inkscape-font-specification:Myriad-Roman"
         x="0 7.182 14.364"
         y="0"
         sodipodi:role="line"
         id="tspan92">700</tspan></text>
<path
       d="m 141.0835,562.6665 348.9165,0 m -348.9165,-261.58349 348.9165,0 m 0,0 0,261.58349 m -348.9165,-261.58349 0,261.58349"
       style="fill:none;stroke:#000000;stroke-opacity:1;stroke-width:0.5;stroke-linecap:butt;stroke-linejoin:round;stroke-miterlimit:10;stroke-dasharray:none"
       id="path94" /><g
       id="g96"><g
         id="g98"
         clip-path="url(#clipPath100)"><path
           d="m 144.5,301.16699 3.5,0.083 3.5,0.083 3.5,0.16699 3.5,0.25 3.5,0.25 3.5,0.25 3.4165,0.33301 3.5,0.41699 3.5,0.5 3.5,0.41699 3.5,0.58301 3.5,0.58301 3.5,0.58398 3.5,0.66602 3.417,0.75 3.5,0.75 3.5,0.83398 3.5,0.83301 3.5,0.83301 3.5,0.91699 3.5,0.83301 3.5,0.91699 3.4165,0.91699 3.5,0.91602 3.5,0.83398 3.5,0.91602 3.5,0.91699 3.5,0.83301 3.5,0.91699 3.4165,0.83301 3.5,0.83398 3.5,0.83301 3.5,0.91699 3.5,0.83301 3.5,0.83301 3.5,0.83398 3.5,0.83301 3.417,0.83301 3.5,0.75 3.5,0.83398 3.5,0.83301 3.5,0.83301 3.5,0.75 3.5,0.83398 3.49951,0.83301 3.41699,0.75 3.5,0.83301 3.5,0.75 3.5,0.83398 3.5,0.75 3.5,0.83301 3.5,0.75 3.41699,0.75 3.5,0.83301 3.5,0.75 3.5,0.83398 3.5,0.75 3.5,0.75 3.5,0.83301 3.5,0.75 3.41602,0.75 3.5,0.75 3.5,0.83301 3.5,0.75 3.5,0.75 3.5,0.75 3.5,0.83398 3.5,0.75 3.41699,0.75 3.5,0.75 3.5,0.75 3.5,0.75 3.5,0.83301 3.5,0.75 3.5,0.75 3.41699,0.75 3.5,0.75 3.5,0.75 3.5,0.75 3.5,0.83301 3.5,0.75 3.5,0.75 3.5,0.75 3.41602,0.75 3.5,0.75 3.5,0.75 3.5,0.75 3.5,0.75 3.5,0.75 3.5,0.75 3.5,0.83398 3.41699,0.75 3.5,0.75 3.5,0.75 3.5,0.75 3.5,0.75 3.5,0.75 3.5,0.75 3.5,0.75"
           style="fill:none;stroke:#000000;stroke-opacity:1;stroke-width:3;stroke-linecap:butt;stroke-linejoin:round;stroke-miterlimit:10;stroke-dasharray:none"
           id="path104" /><path
           d="m 144.5,301.16699 3.5,0.083 3.5,0.083 3.5,0.16699 3.5,0.25 3.5,0.25 3.5,0.25 3.4165,0.33301 3.5,0.41699 3.5,0.5 3.5,0.41699 3.5,0.58301 3.5,0.58301 3.5,0.58398 3.5,0.75 3.417,0.66602 3.5,0.75 3.5,0.83398 3.5,0.91602 3.5,0.91699 3.5,0.91699 3.5,1 3.5,1.08301 3.4165,1.08301 3.5,1.08398 3.5,1.16602 3.5,1.16699 3.5,1.25 3.5,1.16699 3.5,1.25 3.4165,1.25 3.5,1.33301 3.5,1.25 3.5,1.25 3.5,1.25 3.5,1.25 3.5,1.33301 3.5,1.25 3.417,1.25 3.5,1.25 3.5,1.25 3.5,1.16699 3.5,1.25 3.5,1.25 3.5,1.16699 3.49951,1.25 3.41699,1.16602 3.5,1.25 3.5,1.16699 3.5,1.16699 3.5,1.16602 3.5,1.16699 3.5,1.25 3.41699,1.16699 3.5,1.16602 3.5,1.08398 3.5,1.16602 3.5,1.16699 3.5,1.16699 3.5,1.16602 3.5,1.08398 3.41602,1.16602 3.5,1.16699 3.5,1.08301 3.5,1.16699 3.5,1.16699 3.5,1.08301 3.5,1.16699 3.5,1.08301 3.41699,1.08301 3.5,1.16699 3.5,1.08301 3.5,1.16699 3.5,1.08301 3.5,1.08398 3.5,1.16602 3.41699,1.08398 3.5,1.08301 3.5,1.08301 3.5,1.16699 3.5,1.08301 3.5,1.08398 3.5,1.08301 3.5,1.08301 3.41602,1.16699 3.5,1.08301 3.5,1.08398 3.5,1.08301 3.5,1.08301 3.5,1.08398 3.5,1.08301 3.5,1.08301 3.41699,1.08398 3.5,1.08301 3.5,1.08301 3.5,1.08398 3.5,1.08301 3.5,1.16699 3.5,1.08301 3.5,1"
           style="fill:none;stroke:#ff0000;stroke-opacity:1;stroke-width:3;stroke-linecap:butt;stroke-linejoin:round;stroke-miterlimit:10;stroke-dasharray:6;stroke-dashoffset:0"
           id="path106" /><path
           d="m 144.5,301.16699 3.5,0.083 3.5,0.083 3.5,0.16699 3.5,0.25 3.5,0.25 3.5,0.25 3.4165,0.33301 3.5,0.41699 3.5,0.5 3.5,0.41699 3.5,0.58301 3.5,0.58301 3.5,0.58398 3.5,0.75 3.417,0.66602 3.5,0.75 3.5,0.83398 3.5,0.91602 3.5,0.91699 3.5,0.91699 3.5,1 3.5,1.08301 3.4165,1.08301 3.5,1.16699 3.5,1.16699 3.5,1.25 3.5,1.25 3.5,1.33301 3.5,1.41699 3.4165,1.41602 3.5,1.41699 3.5,1.5 3.5,1.58301 3.5,1.58398 3.5,1.66602 3.5,1.66699 3.5,1.75 3.417,1.75 3.5,1.83301 3.5,1.83398 3.5,1.83301 3.5,1.91699 3.5,1.91602 3.5,1.91699 3.49951,2 3.41699,1.91699 3.5,2 3.5,2 3.5,2 3.5,2 3.5,2 3.5,2 3.41699,2 3.5,2 3.5,2 3.5,2 3.5,2 3.5,2 3.5,2 3.5,2 3.41602,2 3.5,1.91602 3.5,2 3.5,1.91699 3.5,2 3.5,1.91699 3.5,1.91602 3.5,1.91699 3.41699,1.91699 3.5,2 3.5,1.83301 3.5,1.91699 3.5,1.91602 3.5,1.91699 3.5,1.91699 3.41699,1.83301 3.5,1.91699 3.5,1.83301 3.5,1.91699 3.5,1.83301 3.5,1.9165 3.5,1.8335 3.5,1.8335 3.41602,1.833 3.5,1.8335 3.5,1.8335 3.5,1.833 3.5,1.8335 3.5,1.8335 3.5,1.833 3.5,1.8335 3.41699,1.8335 3.5,1.833 3.5,1.75 3.5,1.8335 3.5,1.8335 3.5,1.75 3.5,1.833 3.5,1.8335"
           style="fill:none;stroke:#0000ff;stroke-opacity:1;stroke-width:3;stroke-linecap:butt;stroke-linejoin:miter;stroke-miterlimit:10;stroke-dasharray:2,4,6,4;stroke-dashoffset:0"
           id="path108" /><path
           d="m 144.5,301.16699 3.5,0.083 3.5,0.083 3.5,0.16699 3.5,0.25 3.5,0.25 3.5,0.25 3.4165,0.33301 3.5,0.41699 3.5,0.5 3.5,0.41699 3.5,0.58301 3.5,0.58301 3.5,0.58398 3.5,0.75 3.417,0.66602 3.5,0.75 3.5,0.83398 3.5,0.91602 3.5,0.91699 3.5,0.91699 3.5,1 3.5,1.08301 3.4165,1.08301 3.5,1.16699 3.5,1.16699 3.5,1.25 3.5,1.25 3.5,1.33301 3.5,1.41699 3.4165,1.41602 3.5,1.41699 3.5,1.5 3.5,1.58301 3.5,1.66699 3.5,1.58301 3.5,1.75 3.5,1.75 3.417,1.75 3.5,1.91699 3.5,1.83301 3.5,2 3.5,1.91699 3.5,2.08301 3.5,2.08398 3.49951,2.08301 3.41699,2.16699 3.5,2.25 3.5,2.25 3.5,2.33301 3.5,2.33301 3.5,2.41699 3.5,2.41699 3.41699,2.5 3.5,2.58301 3.5,2.58301 3.5,2.58398 3.5,2.75 3.5,2.66602 3.5,2.83398 3.5,2.83301 3.41602,2.83301 3.5,2.91699 3.5,3 3.5,3 3.5,3 3.5,3.16699 3.5,3.08301 3.5,3.25 3.41699,3.25 3.5,3.25 3.5,3.3335 3.5,3.4165 3.5,3.4165 3.5,3.5 3.5,3.5 3.41699,3.5835 3.5,3.5835 3.5,3.6665 3.5,3.75 3.5,3.75 3.5,3.8335 3.5,3.833 3.5,3.917 3.41602,3.9165 3.5,4 3.5,4 3.5,4.0835 3.5,4.1665 3.5,4.1665 3.5,4.25 3.5,4.25 L 465.5,503 l 3.5,4.3335 3.5,4.4165 3.5,4.4165 3.5,4.5835 3.5,4.5 3.5,4.5835 3.5,4.6665"
           style="fill:none;stroke:#00ff00;stroke-opacity:1;stroke-width:3;stroke-linecap:butt;stroke-linejoin:round;stroke-miterlimit:10;stroke-dasharray:none"
           id="path110" /></g></g><path
       d="m 141.0835,301 348.99951,0 0,261.6665 -348.99951,0 0,-261.6665 z"
       style="fill:none;stroke:#000000;stroke-opacity:1;stroke-width:1;stroke-linecap:butt;stroke-linejoin:miter;stroke-miterlimit:10;stroke-dasharray:none"
       id="path112" /><text
       transform="matrix(1,0,0,-1,279.0835,271.75)"
       id="text114"><tspan
         style="font-size:14px;font-variant:normal;font-weight:normal;writing-mode:lr-tb;fill:#000000;fill-opacity:1;fill-rule:nonzero;stroke:none;font-family:Myriad;-inkscape-font-specification:Myriad-Roman"
         sodipodi:role="line"
         id="tspan116"
         x="0"
         y="0">Period T (s)</tspan></text>
<text
       transform="matrix(0,1,1,0,109.5835,366.33301)"
       id="text118"><tspan
         style="font-size:14px;font-variant:normal;font-weight:normal;writing-mode:lr-tb;fill:#000000;fill-opacity:1;fill-rule:nonzero;stroke:none;font-family:Myriad;-inkscape-font-specification:Myriad-Roman"
         sodipodi:role="line"
         id="tspan120"
         x="0"
         y="0">Wavelength L (m)</tspan></text>
<path
       d="m 146.0835,490.75 0,66.9165 111.583,0 0,-66.9165 -111.583,0 z"
       style="fill:#ffffff;fill-opacity:1;fill-rule:evenodd;stroke:none"
       id="path122" /><path
       d="m 146.0835,490.75 0,66.9165 111.583,0 0,-66.9165 -111.583,0"
       style="fill:none;stroke:#ffffff;stroke-opacity:1;stroke-width:3;stroke-linecap:butt;stroke-linejoin:round;stroke-miterlimit:10;stroke-dasharray:none"
       id="path124" /><path
       d="m 146.0835,557.6665 111.583,0 m -111.583,-66.9165 111.583,0 m 0,0 0,66.9165 m -111.583,-66.9165 0,66.9165 m 0,-66.9165 111.583,0 m -111.583,0 0,66.9165 m 0,0 111.583,0 m -111.583,-66.9165 111.583,0 m 0,0 0,66.9165 m -111.583,-66.9165 0,66.9165"
       style="fill:none;stroke:#000000;stroke-opacity:1;stroke-width:3;stroke-linecap:butt;stroke-linejoin:round;stroke-miterlimit:10;stroke-dasharray:none"
       id="path126" /><text
       transform="matrix(1,0,0,-1,185.0835,543.4165)"
       id="text128"><tspan
         style="fill:#000000;fill-opacity:1;fill-rule:nonzero;stroke:none;font-family:Myriad;font-variant:normal;font-weight:normal;font-size:14;writing-mode:lr;-inkscape-font-specification:Myriad-Roman"
         x="0 9.324 12.292 20.636 23.604 30.786 37.968"
         y="0"
         sodipodi:role="line"
         id="tspan130">D = 10 </tspan></text>
<text
       transform="matrix(1,0,0,-1,226.02002,543.4165)"
       id="text132"><tspan
         style="fill:#000000;fill-opacity:1;fill-rule:nonzero;stroke:none;font-family:Myriad;font-variant:normal;font-weight:normal;font-size:14;writing-mode:lr;-inkscape-font-specification:Myriad-Roman"
         x="0"
         y="0"
         id="tspan134">m</tspan></text>
<text
       transform="matrix(1,0,0,-1,185.0835,527.3335)"
       id="text136"><tspan
         style="fill:#000000;fill-opacity:1;fill-rule:nonzero;stroke:none;font-family:Myriad;font-variant:normal;font-weight:normal;font-size:14;writing-mode:lr;-inkscape-font-specification:Myriad-Roman"
         x="0 9.324 12.292 20.636 23.604 30.786 37.968"
         y="0"
         sodipodi:role="line"
         id="tspan138">D = 20 </tspan></text>
<text
       transform="matrix(1,0,0,-1,226.02002,527.3335)"
       id="text140"><tspan
         style="fill:#000000;fill-opacity:1;fill-rule:nonzero;stroke:none;font-family:Myriad;font-variant:normal;font-weight:normal;font-size:14;writing-mode:lr;-inkscape-font-specification:Myriad-Roman"
         x="0"
         y="0"
         id="tspan142">m</tspan></text>
<text
       transform="matrix(1,0,0,-1,185.0835,511.25)"
       id="text144"><tspan
         style="fill:#000000;fill-opacity:1;fill-rule:nonzero;stroke:none;font-family:Myriad;font-variant:normal;font-weight:normal;font-size:14;writing-mode:lr;-inkscape-font-specification:Myriad-Roman"
         x="0 9.324 12.292 20.636 23.604 30.786 37.968"
         y="0"
         sodipodi:role="line"
         id="tspan146">D = 50 </tspan></text>
<text
       transform="matrix(1,0,0,-1,226.02002,511.25)"
       id="text148"><tspan
         style="fill:#000000;fill-opacity:1;fill-rule:nonzero;stroke:none;font-family:Myriad;font-variant:normal;font-weight:normal;font-size:14;writing-mode:lr;-inkscape-font-specification:Myriad-Roman"
         x="0"
         y="0"
         id="tspan150">m</tspan></text>
<text
       transform="matrix(1,0,0,-1,185.0835,495.1665)"
       id="text152"><tspan
         style="fill:#000000;fill-opacity:1;fill-rule:nonzero;stroke:none;font-family:Myriad;font-variant:normal;font-weight:normal;font-size:14;writing-mode:lr;-inkscape-font-specification:Myriad-Roman"
         x="0 9.324 12.292 20.636 23.604 30.786 37.968 45.15"
         y="0"
         sodipodi:role="line"
         id="tspan154">D &gt; 300 </tspan></text>
<text
       transform="matrix(1,0,0,-1,233.20215,495.1665)"
       id="text156"><tspan
         style="fill:#000000;fill-opacity:1;fill-rule:nonzero;stroke:none;font-family:Myriad;font-variant:normal;font-weight:normal;font-size:14;writing-mode:lr;-inkscape-font-specification:Myriad-Roman"
         x="0"
         y="0"
         id="tspan158">m</tspan></text>
<g
       id="g160"><g
         id="g162"
         clip-path="url(#clipPath164)"><path
           d="m 153.8335,548.1665 23.4165,0"
           style="fill:none;stroke:#000000;stroke-opacity:1;stroke-width:3;stroke-linecap:butt;stroke-linejoin:round;stroke-miterlimit:10;stroke-dasharray:none"
           id="path168" /><path
           d="m 153.8335,532.0835 23.4165,0"
           style="fill:none;stroke:#ff0000;stroke-opacity:1;stroke-width:3;stroke-linecap:butt;stroke-linejoin:round;stroke-miterlimit:10;stroke-dasharray:6;stroke-dashoffset:0"
           id="path170" /><path
           d="m 153.8335,515.9165 23.4165,0"
           style="fill:none;stroke:#0000ff;stroke-opacity:1;stroke-width:3;stroke-linecap:butt;stroke-linejoin:miter;stroke-miterlimit:10;stroke-dasharray:2,4,6,4;stroke-dashoffset:0"
           id="path172" /><path
           d="m 153.8335,499.8335 23.4165,0"
           style="fill:none;stroke:#00ff00;stroke-opacity:1;stroke-width:3;stroke-linecap:butt;stroke-linejoin:round;stroke-miterlimit:10;stroke-dasharray:none"
           id="path174" /></g></g></g></svg>